%TF.GenerationSoftware,KiCad,Pcbnew,5.1.7-a382d34a8~87~ubuntu18.04.1*%
%TF.CreationDate,2020-10-24T22:54:41-03:00*%
%TF.ProjectId,TP-CESE,54502d43-4553-4452-9e6b-696361645f70,1*%
%TF.SameCoordinates,Original*%
%TF.FileFunction,Other,Fab,Top*%
%FSLAX46Y46*%
G04 Gerber Fmt 4.6, Leading zero omitted, Abs format (unit mm)*
G04 Created by KiCad (PCBNEW 5.1.7-a382d34a8~87~ubuntu18.04.1) date 2020-10-24 22:54:41*
%MOMM*%
%LPD*%
G01*
G04 APERTURE LIST*
%TA.AperFunction,Profile*%
%ADD10C,0.050000*%
%TD*%
%ADD11C,0.100000*%
%ADD12C,0.150000*%
%ADD13C,0.060000*%
%ADD14C,0.080000*%
G04 APERTURE END LIST*
D10*
X158000000Y-128000000D02*
X158000000Y-126000000D01*
X176000000Y-128000000D02*
X158000000Y-128000000D01*
X176000000Y-126000000D02*
X176000000Y-128000000D01*
X111000000Y-128000000D02*
X111000000Y-126000000D01*
X89000000Y-128000000D02*
X111000000Y-128000000D01*
X89000000Y-126000000D02*
X89000000Y-128000000D01*
X176000000Y-67000000D02*
X174000000Y-67000000D01*
X176000000Y-126000000D02*
X176000000Y-67000000D01*
X158000000Y-116000000D02*
X158000000Y-126000000D01*
X111000000Y-116000000D02*
X158000000Y-116000000D01*
X111000000Y-126000000D02*
X111000000Y-116000000D01*
X89000000Y-123000000D02*
X89000000Y-126000000D01*
X89000000Y-123000000D02*
X89000000Y-67000000D01*
X89000000Y-67000000D02*
X174000000Y-67000000D01*
D11*
%TO.C,FID3*%
X159000000Y-114000000D02*
G75*
G03*
X159000000Y-114000000I-1000000J0D01*
G01*
%TO.C,FID2*%
X162000000Y-70000000D02*
G75*
G03*
X162000000Y-70000000I-1000000J0D01*
G01*
%TO.C,FID1*%
X100000000Y-69000000D02*
G75*
G03*
X100000000Y-69000000I-1000000J0D01*
G01*
%TO.C,C1*%
X159375000Y-105000000D02*
X159375000Y-103000000D01*
X160625000Y-105000000D02*
X159375000Y-105000000D01*
X160625000Y-103000000D02*
X160625000Y-105000000D01*
X159375000Y-103000000D02*
X160625000Y-103000000D01*
%TO.C,U3*%
X128730000Y-106365000D02*
X127730000Y-105365000D01*
X135350000Y-106365000D02*
X128730000Y-106365000D01*
X135350000Y-100015000D02*
X135350000Y-106365000D01*
X127730000Y-100015000D02*
X135350000Y-100015000D01*
X127730000Y-105365000D02*
X127730000Y-100015000D01*
%TO.C,R12*%
X147000000Y-94375000D02*
X147000000Y-95625000D01*
X147000000Y-95625000D02*
X145000000Y-95625000D01*
X145000000Y-95625000D02*
X145000000Y-94375000D01*
X145000000Y-94375000D02*
X147000000Y-94375000D01*
%TO.C,Q3*%
X139540000Y-84650000D02*
X149540000Y-84650000D01*
X149540000Y-83350000D02*
X139540000Y-83350000D01*
X149540000Y-87850000D02*
X149540000Y-83350000D01*
X139540000Y-87850000D02*
X149540000Y-87850000D01*
X139540000Y-83350000D02*
X139540000Y-87850000D01*
%TO.C,Q2*%
X128540000Y-84650000D02*
X138540000Y-84650000D01*
X138540000Y-83350000D02*
X128540000Y-83350000D01*
X138540000Y-87850000D02*
X138540000Y-83350000D01*
X128540000Y-87850000D02*
X138540000Y-87850000D01*
X128540000Y-83350000D02*
X128540000Y-87850000D01*
%TO.C,J3*%
X109965000Y-74138000D02*
X112057000Y-72045000D01*
X109782000Y-73955000D02*
X111874000Y-71862000D01*
X115045000Y-74138000D02*
X117138000Y-72045000D01*
X114862000Y-73955000D02*
X116955000Y-71862000D01*
X118540000Y-75300000D02*
X108380000Y-75300000D01*
X118540000Y-70400000D02*
X108380000Y-70400000D01*
X118540000Y-68900000D02*
X108380000Y-68900000D01*
X118540000Y-68900000D02*
X118540000Y-78200000D01*
X118040000Y-68400000D02*
X118540000Y-68900000D01*
X108380000Y-68400000D02*
X118040000Y-68400000D01*
X108380000Y-78200000D02*
X108380000Y-68400000D01*
X118540000Y-78200000D02*
X108380000Y-78200000D01*
X112420000Y-73000000D02*
G75*
G03*
X112420000Y-73000000I-1500000J0D01*
G01*
X117500000Y-73000000D02*
G75*
G03*
X117500000Y-73000000I-1500000J0D01*
G01*
%TO.C,R19*%
X111000000Y-80375000D02*
X111000000Y-81625000D01*
X111000000Y-81625000D02*
X109000000Y-81625000D01*
X109000000Y-81625000D02*
X109000000Y-80375000D01*
X109000000Y-80375000D02*
X111000000Y-80375000D01*
%TO.C,D5*%
X114400000Y-80000000D02*
X114400000Y-81700000D01*
X114400000Y-81700000D02*
X114700000Y-82000000D01*
X114700000Y-82000000D02*
X115600000Y-82000000D01*
X115600000Y-82000000D02*
X115600000Y-80000000D01*
X115600000Y-80000000D02*
X114400000Y-80000000D01*
%TO.C,R18*%
X153375000Y-98000000D02*
X154625000Y-98000000D01*
X154625000Y-98000000D02*
X154625000Y-100000000D01*
X154625000Y-100000000D02*
X153375000Y-100000000D01*
X153375000Y-100000000D02*
X153375000Y-98000000D01*
%TO.C,R17*%
X157625000Y-100000000D02*
X156375000Y-100000000D01*
X156375000Y-100000000D02*
X156375000Y-98000000D01*
X156375000Y-98000000D02*
X157625000Y-98000000D01*
X157625000Y-98000000D02*
X157625000Y-100000000D01*
%TO.C,R16*%
X157000000Y-89375000D02*
X157000000Y-90625000D01*
X157000000Y-90625000D02*
X155000000Y-90625000D01*
X155000000Y-90625000D02*
X155000000Y-89375000D01*
X155000000Y-89375000D02*
X157000000Y-89375000D01*
%TO.C,R15*%
X146000000Y-89375000D02*
X146000000Y-90625000D01*
X146000000Y-90625000D02*
X144000000Y-90625000D01*
X144000000Y-90625000D02*
X144000000Y-89375000D01*
X144000000Y-89375000D02*
X146000000Y-89375000D01*
%TO.C,R14*%
X135000000Y-89375000D02*
X135000000Y-90625000D01*
X135000000Y-90625000D02*
X133000000Y-90625000D01*
X133000000Y-90625000D02*
X133000000Y-89375000D01*
X133000000Y-89375000D02*
X135000000Y-89375000D01*
%TO.C,R13*%
X124000000Y-89375000D02*
X124000000Y-90625000D01*
X124000000Y-90625000D02*
X122000000Y-90625000D01*
X122000000Y-90625000D02*
X122000000Y-89375000D01*
X122000000Y-89375000D02*
X124000000Y-89375000D01*
%TO.C,R11*%
X135000000Y-93375000D02*
X135000000Y-94625000D01*
X135000000Y-94625000D02*
X133000000Y-94625000D01*
X133000000Y-94625000D02*
X133000000Y-93375000D01*
X133000000Y-93375000D02*
X135000000Y-93375000D01*
%TO.C,R10*%
X125000000Y-93375000D02*
X125000000Y-94625000D01*
X125000000Y-94625000D02*
X123000000Y-94625000D01*
X123000000Y-94625000D02*
X123000000Y-93375000D01*
X123000000Y-93375000D02*
X125000000Y-93375000D01*
%TO.C,R9*%
X115000000Y-93375000D02*
X115000000Y-94625000D01*
X115000000Y-94625000D02*
X113000000Y-94625000D01*
X113000000Y-94625000D02*
X113000000Y-93375000D01*
X113000000Y-93375000D02*
X115000000Y-93375000D01*
%TO.C,R8*%
X138000000Y-96625000D02*
X138000000Y-95375000D01*
X138000000Y-95375000D02*
X140000000Y-95375000D01*
X140000000Y-95375000D02*
X140000000Y-96625000D01*
X140000000Y-96625000D02*
X138000000Y-96625000D01*
%TO.C,R7*%
X128000000Y-96625000D02*
X128000000Y-95375000D01*
X128000000Y-95375000D02*
X130000000Y-95375000D01*
X130000000Y-95375000D02*
X130000000Y-96625000D01*
X130000000Y-96625000D02*
X128000000Y-96625000D01*
%TO.C,R6*%
X118000000Y-96625000D02*
X118000000Y-95375000D01*
X118000000Y-95375000D02*
X120000000Y-95375000D01*
X120000000Y-95375000D02*
X120000000Y-96625000D01*
X120000000Y-96625000D02*
X118000000Y-96625000D01*
%TO.C,R5*%
X108000000Y-96625000D02*
X108000000Y-95375000D01*
X108000000Y-95375000D02*
X110000000Y-95375000D01*
X110000000Y-95375000D02*
X110000000Y-96625000D01*
X110000000Y-96625000D02*
X108000000Y-96625000D01*
%TO.C,R4*%
X143000000Y-110625000D02*
X143000000Y-109375000D01*
X143000000Y-109375000D02*
X145000000Y-109375000D01*
X145000000Y-109375000D02*
X145000000Y-110625000D01*
X145000000Y-110625000D02*
X143000000Y-110625000D01*
%TO.C,R3*%
X133000000Y-110625000D02*
X133000000Y-109375000D01*
X133000000Y-109375000D02*
X135000000Y-109375000D01*
X135000000Y-109375000D02*
X135000000Y-110625000D01*
X135000000Y-110625000D02*
X133000000Y-110625000D01*
%TO.C,R2*%
X123000000Y-110625000D02*
X123000000Y-109375000D01*
X123000000Y-109375000D02*
X125000000Y-109375000D01*
X125000000Y-109375000D02*
X125000000Y-110625000D01*
X125000000Y-110625000D02*
X123000000Y-110625000D01*
%TO.C,R1*%
X113000000Y-110625000D02*
X113000000Y-109375000D01*
X113000000Y-109375000D02*
X115000000Y-109375000D01*
X115000000Y-109375000D02*
X115000000Y-110625000D01*
X115000000Y-110625000D02*
X113000000Y-110625000D01*
%TO.C,D4*%
X155200000Y-81000000D02*
X155450000Y-81000000D01*
X154800000Y-80725000D02*
X154800000Y-81275000D01*
X155200000Y-80775000D02*
X155200000Y-81225000D01*
X155200000Y-81225000D02*
X154800000Y-81000000D01*
X154800000Y-81000000D02*
X154525000Y-81000000D01*
X154800000Y-81000000D02*
X155200000Y-80775000D01*
X154350000Y-80600000D02*
X155650000Y-80600000D01*
X155650000Y-80600000D02*
X155650000Y-81400000D01*
X155650000Y-81400000D02*
X154350000Y-81400000D01*
X154350000Y-81400000D02*
X154350000Y-80600000D01*
%TO.C,D3*%
X143200000Y-81000000D02*
X143450000Y-81000000D01*
X142800000Y-80725000D02*
X142800000Y-81275000D01*
X143200000Y-80775000D02*
X143200000Y-81225000D01*
X143200000Y-81225000D02*
X142800000Y-81000000D01*
X142800000Y-81000000D02*
X142525000Y-81000000D01*
X142800000Y-81000000D02*
X143200000Y-80775000D01*
X142350000Y-80600000D02*
X143650000Y-80600000D01*
X143650000Y-80600000D02*
X143650000Y-81400000D01*
X143650000Y-81400000D02*
X142350000Y-81400000D01*
X142350000Y-81400000D02*
X142350000Y-80600000D01*
%TO.C,D2*%
X133200000Y-81000000D02*
X133450000Y-81000000D01*
X132800000Y-80725000D02*
X132800000Y-81275000D01*
X133200000Y-80775000D02*
X133200000Y-81225000D01*
X133200000Y-81225000D02*
X132800000Y-81000000D01*
X132800000Y-81000000D02*
X132525000Y-81000000D01*
X132800000Y-81000000D02*
X133200000Y-80775000D01*
X132350000Y-80600000D02*
X133650000Y-80600000D01*
X133650000Y-80600000D02*
X133650000Y-81400000D01*
X133650000Y-81400000D02*
X132350000Y-81400000D01*
X132350000Y-81400000D02*
X132350000Y-80600000D01*
%TO.C,D1*%
X123200000Y-81000000D02*
X123450000Y-81000000D01*
X122800000Y-80725000D02*
X122800000Y-81275000D01*
X123200000Y-80775000D02*
X123200000Y-81225000D01*
X123200000Y-81225000D02*
X122800000Y-81000000D01*
X122800000Y-81000000D02*
X122525000Y-81000000D01*
X122800000Y-81000000D02*
X123200000Y-80775000D01*
X122350000Y-80600000D02*
X123650000Y-80600000D01*
X123650000Y-80600000D02*
X123650000Y-81400000D01*
X123650000Y-81400000D02*
X122350000Y-81400000D01*
X122350000Y-81400000D02*
X122350000Y-80600000D01*
%TO.C,Q4*%
X150540000Y-84650000D02*
X160540000Y-84650000D01*
X160540000Y-83350000D02*
X150540000Y-83350000D01*
X160540000Y-87850000D02*
X160540000Y-83350000D01*
X150540000Y-87850000D02*
X160540000Y-87850000D01*
X150540000Y-83350000D02*
X150540000Y-87850000D01*
%TO.C,Q1*%
X117540000Y-84650000D02*
X127540000Y-84650000D01*
X127540000Y-83350000D02*
X117540000Y-83350000D01*
X127540000Y-87850000D02*
X127540000Y-83350000D01*
X117540000Y-87850000D02*
X127540000Y-87850000D01*
X117540000Y-83350000D02*
X117540000Y-87850000D01*
%TO.C,U4*%
X138730000Y-106365000D02*
X137730000Y-105365000D01*
X145350000Y-106365000D02*
X138730000Y-106365000D01*
X145350000Y-100015000D02*
X145350000Y-106365000D01*
X137730000Y-100015000D02*
X145350000Y-100015000D01*
X137730000Y-105365000D02*
X137730000Y-100015000D01*
%TO.C,U2*%
X118730000Y-106365000D02*
X117730000Y-105365000D01*
X125350000Y-106365000D02*
X118730000Y-106365000D01*
X125350000Y-100015000D02*
X125350000Y-106365000D01*
X117730000Y-100015000D02*
X125350000Y-100015000D01*
X117730000Y-105365000D02*
X117730000Y-100015000D01*
%TO.C,U1*%
X108730000Y-106365000D02*
X107730000Y-105365000D01*
X115350000Y-106365000D02*
X108730000Y-106365000D01*
X115350000Y-100015000D02*
X115350000Y-106365000D01*
X107730000Y-100015000D02*
X115350000Y-100015000D01*
X107730000Y-105365000D02*
X107730000Y-100015000D01*
%TO.C,J4*%
X159000000Y-109500000D02*
X159000000Y-111000000D01*
X159000000Y-111000000D02*
X149000000Y-111000000D01*
X149000000Y-111000000D02*
X149000000Y-109000000D01*
X149000000Y-109000000D02*
X158500000Y-109000000D01*
X158500000Y-109000000D02*
X159000000Y-109500000D01*
%TO.C,J1*%
X130805000Y-73138000D02*
X132897000Y-71045000D01*
X130622000Y-72955000D02*
X132714000Y-70862000D01*
X135885000Y-73138000D02*
X137977000Y-71045000D01*
X135702000Y-72955000D02*
X137794000Y-70862000D01*
X140965000Y-73138000D02*
X143057000Y-71045000D01*
X140782000Y-72955000D02*
X142874000Y-70862000D01*
X146045000Y-73138000D02*
X148138000Y-71045000D01*
X145862000Y-72955000D02*
X147955000Y-70862000D01*
X149540000Y-74300000D02*
X129220000Y-74300000D01*
X149540000Y-69400000D02*
X129220000Y-69400000D01*
X149540000Y-67900000D02*
X129220000Y-67900000D01*
X149540000Y-67900000D02*
X149540000Y-77200000D01*
X149040000Y-67400000D02*
X149540000Y-67900000D01*
X129220000Y-67400000D02*
X149040000Y-67400000D01*
X129220000Y-77200000D02*
X129220000Y-67400000D01*
X149540000Y-77200000D02*
X129220000Y-77200000D01*
X133260000Y-72000000D02*
G75*
G03*
X133260000Y-72000000I-1500000J0D01*
G01*
X138340000Y-72000000D02*
G75*
G03*
X138340000Y-72000000I-1500000J0D01*
G01*
X143420000Y-72000000D02*
G75*
G03*
X143420000Y-72000000I-1500000J0D01*
G01*
X148500000Y-72000000D02*
G75*
G03*
X148500000Y-72000000I-1500000J0D01*
G01*
%TO.C,J5*%
X149000000Y-98500000D02*
X149500000Y-98000000D01*
X149000000Y-100000000D02*
X149000000Y-98500000D01*
X151000000Y-100000000D02*
X149000000Y-100000000D01*
X151000000Y-98000000D02*
X151000000Y-100000000D01*
X149500000Y-98000000D02*
X151000000Y-98000000D01*
D12*
%TO.C,U5*%
X153500000Y-102500000D02*
X154500000Y-101500000D01*
X153500000Y-104500000D02*
X153500000Y-102500000D01*
X156500000Y-104500000D02*
X153500000Y-104500000D01*
X156500000Y-101500000D02*
X156500000Y-104500000D01*
X154500000Y-101500000D02*
X156500000Y-101500000D01*
%TD*%
%TO.C,FID3*%
X155619047Y-115928571D02*
X155285714Y-115928571D01*
X155285714Y-116452380D02*
X155285714Y-115452380D01*
X155761904Y-115452380D01*
X156142857Y-116452380D02*
X156142857Y-115785714D01*
X156142857Y-115452380D02*
X156095238Y-115500000D01*
X156142857Y-115547619D01*
X156190476Y-115500000D01*
X156142857Y-115452380D01*
X156142857Y-115547619D01*
X157047619Y-116452380D02*
X157047619Y-115452380D01*
X157047619Y-116404761D02*
X156952380Y-116452380D01*
X156761904Y-116452380D01*
X156666666Y-116404761D01*
X156619047Y-116357142D01*
X156571428Y-116261904D01*
X156571428Y-115976190D01*
X156619047Y-115880952D01*
X156666666Y-115833333D01*
X156761904Y-115785714D01*
X156952380Y-115785714D01*
X157047619Y-115833333D01*
X157952380Y-115785714D02*
X157952380Y-116452380D01*
X157523809Y-115785714D02*
X157523809Y-116309523D01*
X157571428Y-116404761D01*
X157666666Y-116452380D01*
X157809523Y-116452380D01*
X157904761Y-116404761D01*
X157952380Y-116357142D01*
X158857142Y-116404761D02*
X158761904Y-116452380D01*
X158571428Y-116452380D01*
X158476190Y-116404761D01*
X158428571Y-116357142D01*
X158380952Y-116261904D01*
X158380952Y-115976190D01*
X158428571Y-115880952D01*
X158476190Y-115833333D01*
X158571428Y-115785714D01*
X158761904Y-115785714D01*
X158857142Y-115833333D01*
X159285714Y-116452380D02*
X159285714Y-115785714D01*
X159285714Y-115452380D02*
X159238095Y-115500000D01*
X159285714Y-115547619D01*
X159333333Y-115500000D01*
X159285714Y-115452380D01*
X159285714Y-115547619D01*
X160190476Y-116452380D02*
X160190476Y-115928571D01*
X160142857Y-115833333D01*
X160047619Y-115785714D01*
X159857142Y-115785714D01*
X159761904Y-115833333D01*
X160190476Y-116404761D02*
X160095238Y-116452380D01*
X159857142Y-116452380D01*
X159761904Y-116404761D01*
X159714285Y-116309523D01*
X159714285Y-116214285D01*
X159761904Y-116119047D01*
X159857142Y-116071428D01*
X160095238Y-116071428D01*
X160190476Y-116023809D01*
X160809523Y-116452380D02*
X160714285Y-116404761D01*
X160666666Y-116309523D01*
X160666666Y-115452380D01*
D13*
X157571428Y-113971428D02*
X157438095Y-113971428D01*
X157438095Y-114180952D02*
X157438095Y-113780952D01*
X157628571Y-113780952D01*
X157780952Y-114180952D02*
X157780952Y-113780952D01*
X157971428Y-114180952D02*
X157971428Y-113780952D01*
X158066666Y-113780952D01*
X158123809Y-113800000D01*
X158161904Y-113838095D01*
X158180952Y-113876190D01*
X158200000Y-113952380D01*
X158200000Y-114009523D01*
X158180952Y-114085714D01*
X158161904Y-114123809D01*
X158123809Y-114161904D01*
X158066666Y-114180952D01*
X157971428Y-114180952D01*
X158333333Y-113780952D02*
X158580952Y-113780952D01*
X158447619Y-113933333D01*
X158504761Y-113933333D01*
X158542857Y-113952380D01*
X158561904Y-113971428D01*
X158580952Y-114009523D01*
X158580952Y-114104761D01*
X158561904Y-114142857D01*
X158542857Y-114161904D01*
X158504761Y-114180952D01*
X158390476Y-114180952D01*
X158352380Y-114161904D01*
X158333333Y-114142857D01*
%TO.C,FID2*%
D12*
X158619047Y-71928571D02*
X158285714Y-71928571D01*
X158285714Y-72452380D02*
X158285714Y-71452380D01*
X158761904Y-71452380D01*
X159142857Y-72452380D02*
X159142857Y-71785714D01*
X159142857Y-71452380D02*
X159095238Y-71500000D01*
X159142857Y-71547619D01*
X159190476Y-71500000D01*
X159142857Y-71452380D01*
X159142857Y-71547619D01*
X160047619Y-72452380D02*
X160047619Y-71452380D01*
X160047619Y-72404761D02*
X159952380Y-72452380D01*
X159761904Y-72452380D01*
X159666666Y-72404761D01*
X159619047Y-72357142D01*
X159571428Y-72261904D01*
X159571428Y-71976190D01*
X159619047Y-71880952D01*
X159666666Y-71833333D01*
X159761904Y-71785714D01*
X159952380Y-71785714D01*
X160047619Y-71833333D01*
X160952380Y-71785714D02*
X160952380Y-72452380D01*
X160523809Y-71785714D02*
X160523809Y-72309523D01*
X160571428Y-72404761D01*
X160666666Y-72452380D01*
X160809523Y-72452380D01*
X160904761Y-72404761D01*
X160952380Y-72357142D01*
X161857142Y-72404761D02*
X161761904Y-72452380D01*
X161571428Y-72452380D01*
X161476190Y-72404761D01*
X161428571Y-72357142D01*
X161380952Y-72261904D01*
X161380952Y-71976190D01*
X161428571Y-71880952D01*
X161476190Y-71833333D01*
X161571428Y-71785714D01*
X161761904Y-71785714D01*
X161857142Y-71833333D01*
X162285714Y-72452380D02*
X162285714Y-71785714D01*
X162285714Y-71452380D02*
X162238095Y-71500000D01*
X162285714Y-71547619D01*
X162333333Y-71500000D01*
X162285714Y-71452380D01*
X162285714Y-71547619D01*
X163190476Y-72452380D02*
X163190476Y-71928571D01*
X163142857Y-71833333D01*
X163047619Y-71785714D01*
X162857142Y-71785714D01*
X162761904Y-71833333D01*
X163190476Y-72404761D02*
X163095238Y-72452380D01*
X162857142Y-72452380D01*
X162761904Y-72404761D01*
X162714285Y-72309523D01*
X162714285Y-72214285D01*
X162761904Y-72119047D01*
X162857142Y-72071428D01*
X163095238Y-72071428D01*
X163190476Y-72023809D01*
X163809523Y-72452380D02*
X163714285Y-72404761D01*
X163666666Y-72309523D01*
X163666666Y-71452380D01*
D13*
X160571428Y-69971428D02*
X160438095Y-69971428D01*
X160438095Y-70180952D02*
X160438095Y-69780952D01*
X160628571Y-69780952D01*
X160780952Y-70180952D02*
X160780952Y-69780952D01*
X160971428Y-70180952D02*
X160971428Y-69780952D01*
X161066666Y-69780952D01*
X161123809Y-69800000D01*
X161161904Y-69838095D01*
X161180952Y-69876190D01*
X161200000Y-69952380D01*
X161200000Y-70009523D01*
X161180952Y-70085714D01*
X161161904Y-70123809D01*
X161123809Y-70161904D01*
X161066666Y-70180952D01*
X160971428Y-70180952D01*
X161352380Y-69819047D02*
X161371428Y-69800000D01*
X161409523Y-69780952D01*
X161504761Y-69780952D01*
X161542857Y-69800000D01*
X161561904Y-69819047D01*
X161580952Y-69857142D01*
X161580952Y-69895238D01*
X161561904Y-69952380D01*
X161333333Y-70180952D01*
X161580952Y-70180952D01*
%TO.C,FID1*%
D12*
X96619047Y-70928571D02*
X96285714Y-70928571D01*
X96285714Y-71452380D02*
X96285714Y-70452380D01*
X96761904Y-70452380D01*
X97142857Y-71452380D02*
X97142857Y-70785714D01*
X97142857Y-70452380D02*
X97095238Y-70500000D01*
X97142857Y-70547619D01*
X97190476Y-70500000D01*
X97142857Y-70452380D01*
X97142857Y-70547619D01*
X98047619Y-71452380D02*
X98047619Y-70452380D01*
X98047619Y-71404761D02*
X97952380Y-71452380D01*
X97761904Y-71452380D01*
X97666666Y-71404761D01*
X97619047Y-71357142D01*
X97571428Y-71261904D01*
X97571428Y-70976190D01*
X97619047Y-70880952D01*
X97666666Y-70833333D01*
X97761904Y-70785714D01*
X97952380Y-70785714D01*
X98047619Y-70833333D01*
X98952380Y-70785714D02*
X98952380Y-71452380D01*
X98523809Y-70785714D02*
X98523809Y-71309523D01*
X98571428Y-71404761D01*
X98666666Y-71452380D01*
X98809523Y-71452380D01*
X98904761Y-71404761D01*
X98952380Y-71357142D01*
X99857142Y-71404761D02*
X99761904Y-71452380D01*
X99571428Y-71452380D01*
X99476190Y-71404761D01*
X99428571Y-71357142D01*
X99380952Y-71261904D01*
X99380952Y-70976190D01*
X99428571Y-70880952D01*
X99476190Y-70833333D01*
X99571428Y-70785714D01*
X99761904Y-70785714D01*
X99857142Y-70833333D01*
X100285714Y-71452380D02*
X100285714Y-70785714D01*
X100285714Y-70452380D02*
X100238095Y-70500000D01*
X100285714Y-70547619D01*
X100333333Y-70500000D01*
X100285714Y-70452380D01*
X100285714Y-70547619D01*
X101190476Y-71452380D02*
X101190476Y-70928571D01*
X101142857Y-70833333D01*
X101047619Y-70785714D01*
X100857142Y-70785714D01*
X100761904Y-70833333D01*
X101190476Y-71404761D02*
X101095238Y-71452380D01*
X100857142Y-71452380D01*
X100761904Y-71404761D01*
X100714285Y-71309523D01*
X100714285Y-71214285D01*
X100761904Y-71119047D01*
X100857142Y-71071428D01*
X101095238Y-71071428D01*
X101190476Y-71023809D01*
X101809523Y-71452380D02*
X101714285Y-71404761D01*
X101666666Y-71309523D01*
X101666666Y-70452380D01*
D13*
X98571428Y-68971428D02*
X98438095Y-68971428D01*
X98438095Y-69180952D02*
X98438095Y-68780952D01*
X98628571Y-68780952D01*
X98780952Y-69180952D02*
X98780952Y-68780952D01*
X98971428Y-69180952D02*
X98971428Y-68780952D01*
X99066666Y-68780952D01*
X99123809Y-68800000D01*
X99161904Y-68838095D01*
X99180952Y-68876190D01*
X99200000Y-68952380D01*
X99200000Y-69009523D01*
X99180952Y-69085714D01*
X99161904Y-69123809D01*
X99123809Y-69161904D01*
X99066666Y-69180952D01*
X98971428Y-69180952D01*
X99580952Y-69180952D02*
X99352380Y-69180952D01*
X99466666Y-69180952D02*
X99466666Y-68780952D01*
X99428571Y-68838095D01*
X99390476Y-68876190D01*
X99352380Y-68895238D01*
%TO.C,C1*%
D12*
X157772380Y-105880952D02*
X157772380Y-105785714D01*
X157820000Y-105690476D01*
X157867619Y-105642857D01*
X157962857Y-105595238D01*
X158153333Y-105547619D01*
X158391428Y-105547619D01*
X158581904Y-105595238D01*
X158677142Y-105642857D01*
X158724761Y-105690476D01*
X158772380Y-105785714D01*
X158772380Y-105880952D01*
X158724761Y-105976190D01*
X158677142Y-106023809D01*
X158581904Y-106071428D01*
X158391428Y-106119047D01*
X158153333Y-106119047D01*
X157962857Y-106071428D01*
X157867619Y-106023809D01*
X157820000Y-105976190D01*
X157772380Y-105880952D01*
X158724761Y-105071428D02*
X158772380Y-105071428D01*
X158867619Y-105119047D01*
X158915238Y-105166666D01*
X158772380Y-104119047D02*
X158772380Y-104690476D01*
X158772380Y-104404761D02*
X157772380Y-104404761D01*
X157915238Y-104500000D01*
X158010476Y-104595238D01*
X158058095Y-104690476D01*
X158105714Y-102500000D02*
X158772380Y-102500000D01*
X158105714Y-102928571D02*
X158629523Y-102928571D01*
X158724761Y-102880952D01*
X158772380Y-102785714D01*
X158772380Y-102642857D01*
X158724761Y-102547619D01*
X158677142Y-102500000D01*
X158105714Y-102166666D02*
X158105714Y-101785714D01*
X158772380Y-102023809D02*
X157915238Y-102023809D01*
X157820000Y-101976190D01*
X157772380Y-101880952D01*
X157772380Y-101785714D01*
D14*
X160178571Y-104083333D02*
X160202380Y-104107142D01*
X160226190Y-104178571D01*
X160226190Y-104226190D01*
X160202380Y-104297619D01*
X160154761Y-104345238D01*
X160107142Y-104369047D01*
X160011904Y-104392857D01*
X159940476Y-104392857D01*
X159845238Y-104369047D01*
X159797619Y-104345238D01*
X159750000Y-104297619D01*
X159726190Y-104226190D01*
X159726190Y-104178571D01*
X159750000Y-104107142D01*
X159773809Y-104083333D01*
X160226190Y-103607142D02*
X160226190Y-103892857D01*
X160226190Y-103750000D02*
X159726190Y-103750000D01*
X159797619Y-103797619D01*
X159845238Y-103845238D01*
X159869047Y-103892857D01*
%TO.C,U3*%
D12*
X136195714Y-104475714D02*
X136862380Y-104475714D01*
X135814761Y-104713809D02*
X136529047Y-104951904D01*
X136529047Y-104332857D01*
X136862380Y-103951904D02*
X135862380Y-103951904D01*
X136862380Y-103380476D01*
X135862380Y-103380476D01*
X135957619Y-102951904D02*
X135910000Y-102904285D01*
X135862380Y-102809047D01*
X135862380Y-102570952D01*
X135910000Y-102475714D01*
X135957619Y-102428095D01*
X136052857Y-102380476D01*
X136148095Y-102380476D01*
X136290952Y-102428095D01*
X136862380Y-102999523D01*
X136862380Y-102380476D01*
X135862380Y-101475714D02*
X135862380Y-101951904D01*
X136338571Y-101999523D01*
X136290952Y-101951904D01*
X136243333Y-101856666D01*
X136243333Y-101618571D01*
X136290952Y-101523333D01*
X136338571Y-101475714D01*
X136433809Y-101428095D01*
X136671904Y-101428095D01*
X136767142Y-101475714D01*
X136814761Y-101523333D01*
X136862380Y-101618571D01*
X136862380Y-101856666D01*
X136814761Y-101951904D01*
X136767142Y-101999523D01*
X130992380Y-103951904D02*
X131801904Y-103951904D01*
X131897142Y-103904285D01*
X131944761Y-103856666D01*
X131992380Y-103761428D01*
X131992380Y-103570952D01*
X131944761Y-103475714D01*
X131897142Y-103428095D01*
X131801904Y-103380476D01*
X130992380Y-103380476D01*
X130992380Y-102999523D02*
X130992380Y-102380476D01*
X131373333Y-102713809D01*
X131373333Y-102570952D01*
X131420952Y-102475714D01*
X131468571Y-102428095D01*
X131563809Y-102380476D01*
X131801904Y-102380476D01*
X131897142Y-102428095D01*
X131944761Y-102475714D01*
X131992380Y-102570952D01*
X131992380Y-102856666D01*
X131944761Y-102951904D01*
X131897142Y-102999523D01*
%TO.C,R12*%
X145785714Y-93802380D02*
X145214285Y-93802380D01*
X145500000Y-93802380D02*
X145500000Y-92802380D01*
X145404761Y-92945238D01*
X145309523Y-93040476D01*
X145214285Y-93088095D01*
X146214285Y-93802380D02*
X146214285Y-92802380D01*
X146785714Y-93802380D02*
X146357142Y-93230952D01*
X146785714Y-92802380D02*
X146214285Y-93373809D01*
D14*
X145678571Y-95226190D02*
X145511904Y-94988095D01*
X145392857Y-95226190D02*
X145392857Y-94726190D01*
X145583333Y-94726190D01*
X145630952Y-94750000D01*
X145654761Y-94773809D01*
X145678571Y-94821428D01*
X145678571Y-94892857D01*
X145654761Y-94940476D01*
X145630952Y-94964285D01*
X145583333Y-94988095D01*
X145392857Y-94988095D01*
X146154761Y-95226190D02*
X145869047Y-95226190D01*
X146011904Y-95226190D02*
X146011904Y-94726190D01*
X145964285Y-94797619D01*
X145916666Y-94845238D01*
X145869047Y-94869047D01*
X146345238Y-94773809D02*
X146369047Y-94750000D01*
X146416666Y-94726190D01*
X146535714Y-94726190D01*
X146583333Y-94750000D01*
X146607142Y-94773809D01*
X146630952Y-94821428D01*
X146630952Y-94869047D01*
X146607142Y-94940476D01*
X146321428Y-95226190D01*
X146630952Y-95226190D01*
%TO.C,Q3*%
D12*
X141659047Y-89552380D02*
X141659047Y-88552380D01*
X142706666Y-89552380D02*
X142373333Y-89076190D01*
X142135238Y-89552380D02*
X142135238Y-88552380D01*
X142516190Y-88552380D01*
X142611428Y-88600000D01*
X142659047Y-88647619D01*
X142706666Y-88742857D01*
X142706666Y-88885714D01*
X142659047Y-88980952D01*
X142611428Y-89028571D01*
X142516190Y-89076190D01*
X142135238Y-89076190D01*
X143468571Y-89028571D02*
X143135238Y-89028571D01*
X143135238Y-89552380D02*
X143135238Y-88552380D01*
X143611428Y-88552380D01*
X144468571Y-88552380D02*
X143992380Y-88552380D01*
X143944761Y-89028571D01*
X143992380Y-88980952D01*
X144087619Y-88933333D01*
X144325714Y-88933333D01*
X144420952Y-88980952D01*
X144468571Y-89028571D01*
X144516190Y-89123809D01*
X144516190Y-89361904D01*
X144468571Y-89457142D01*
X144420952Y-89504761D01*
X144325714Y-89552380D01*
X144087619Y-89552380D01*
X143992380Y-89504761D01*
X143944761Y-89457142D01*
X145373333Y-88885714D02*
X145373333Y-89552380D01*
X145135238Y-88504761D02*
X144897142Y-89219047D01*
X145516190Y-89219047D01*
X146087619Y-88552380D02*
X146182857Y-88552380D01*
X146278095Y-88600000D01*
X146325714Y-88647619D01*
X146373333Y-88742857D01*
X146420952Y-88933333D01*
X146420952Y-89171428D01*
X146373333Y-89361904D01*
X146325714Y-89457142D01*
X146278095Y-89504761D01*
X146182857Y-89552380D01*
X146087619Y-89552380D01*
X145992380Y-89504761D01*
X145944761Y-89457142D01*
X145897142Y-89361904D01*
X145849523Y-89171428D01*
X145849523Y-88933333D01*
X145897142Y-88742857D01*
X145944761Y-88647619D01*
X145992380Y-88600000D01*
X146087619Y-88552380D01*
X146849523Y-89552380D02*
X146849523Y-88552380D01*
X147420952Y-89552380D01*
X147420952Y-88552380D01*
X138547619Y-86095238D02*
X138500000Y-86190476D01*
X138404761Y-86285714D01*
X138261904Y-86428571D01*
X138214285Y-86523809D01*
X138214285Y-86619047D01*
X138452380Y-86571428D02*
X138404761Y-86666666D01*
X138309523Y-86761904D01*
X138119047Y-86809523D01*
X137785714Y-86809523D01*
X137595238Y-86761904D01*
X137500000Y-86666666D01*
X137452380Y-86571428D01*
X137452380Y-86380952D01*
X137500000Y-86285714D01*
X137595238Y-86190476D01*
X137785714Y-86142857D01*
X138119047Y-86142857D01*
X138309523Y-86190476D01*
X138404761Y-86285714D01*
X138452380Y-86380952D01*
X138452380Y-86571428D01*
X137452380Y-85809523D02*
X137452380Y-85190476D01*
X137833333Y-85523809D01*
X137833333Y-85380952D01*
X137880952Y-85285714D01*
X137928571Y-85238095D01*
X138023809Y-85190476D01*
X138261904Y-85190476D01*
X138357142Y-85238095D01*
X138404761Y-85285714D01*
X138452380Y-85380952D01*
X138452380Y-85666666D01*
X138404761Y-85761904D01*
X138357142Y-85809523D01*
%TO.C,Q2*%
X130659047Y-89552380D02*
X130659047Y-88552380D01*
X131706666Y-89552380D02*
X131373333Y-89076190D01*
X131135238Y-89552380D02*
X131135238Y-88552380D01*
X131516190Y-88552380D01*
X131611428Y-88600000D01*
X131659047Y-88647619D01*
X131706666Y-88742857D01*
X131706666Y-88885714D01*
X131659047Y-88980952D01*
X131611428Y-89028571D01*
X131516190Y-89076190D01*
X131135238Y-89076190D01*
X132468571Y-89028571D02*
X132135238Y-89028571D01*
X132135238Y-89552380D02*
X132135238Y-88552380D01*
X132611428Y-88552380D01*
X133468571Y-88552380D02*
X132992380Y-88552380D01*
X132944761Y-89028571D01*
X132992380Y-88980952D01*
X133087619Y-88933333D01*
X133325714Y-88933333D01*
X133420952Y-88980952D01*
X133468571Y-89028571D01*
X133516190Y-89123809D01*
X133516190Y-89361904D01*
X133468571Y-89457142D01*
X133420952Y-89504761D01*
X133325714Y-89552380D01*
X133087619Y-89552380D01*
X132992380Y-89504761D01*
X132944761Y-89457142D01*
X134373333Y-88885714D02*
X134373333Y-89552380D01*
X134135238Y-88504761D02*
X133897142Y-89219047D01*
X134516190Y-89219047D01*
X135087619Y-88552380D02*
X135182857Y-88552380D01*
X135278095Y-88600000D01*
X135325714Y-88647619D01*
X135373333Y-88742857D01*
X135420952Y-88933333D01*
X135420952Y-89171428D01*
X135373333Y-89361904D01*
X135325714Y-89457142D01*
X135278095Y-89504761D01*
X135182857Y-89552380D01*
X135087619Y-89552380D01*
X134992380Y-89504761D01*
X134944761Y-89457142D01*
X134897142Y-89361904D01*
X134849523Y-89171428D01*
X134849523Y-88933333D01*
X134897142Y-88742857D01*
X134944761Y-88647619D01*
X134992380Y-88600000D01*
X135087619Y-88552380D01*
X135849523Y-89552380D02*
X135849523Y-88552380D01*
X136420952Y-89552380D01*
X136420952Y-88552380D01*
X127547619Y-86095238D02*
X127500000Y-86190476D01*
X127404761Y-86285714D01*
X127261904Y-86428571D01*
X127214285Y-86523809D01*
X127214285Y-86619047D01*
X127452380Y-86571428D02*
X127404761Y-86666666D01*
X127309523Y-86761904D01*
X127119047Y-86809523D01*
X126785714Y-86809523D01*
X126595238Y-86761904D01*
X126500000Y-86666666D01*
X126452380Y-86571428D01*
X126452380Y-86380952D01*
X126500000Y-86285714D01*
X126595238Y-86190476D01*
X126785714Y-86142857D01*
X127119047Y-86142857D01*
X127309523Y-86190476D01*
X127404761Y-86285714D01*
X127452380Y-86380952D01*
X127452380Y-86571428D01*
X126547619Y-85761904D02*
X126500000Y-85714285D01*
X126452380Y-85619047D01*
X126452380Y-85380952D01*
X126500000Y-85285714D01*
X126547619Y-85238095D01*
X126642857Y-85190476D01*
X126738095Y-85190476D01*
X126880952Y-85238095D01*
X127452380Y-85809523D01*
X127452380Y-85190476D01*
%TO.C,H4*%
X103214285Y-128352380D02*
X103214285Y-127352380D01*
X103547619Y-128066666D01*
X103880952Y-127352380D01*
X103880952Y-128352380D01*
X104500000Y-128352380D02*
X104404761Y-128304761D01*
X104357142Y-128257142D01*
X104309523Y-128161904D01*
X104309523Y-127876190D01*
X104357142Y-127780952D01*
X104404761Y-127733333D01*
X104500000Y-127685714D01*
X104642857Y-127685714D01*
X104738095Y-127733333D01*
X104785714Y-127780952D01*
X104833333Y-127876190D01*
X104833333Y-128161904D01*
X104785714Y-128257142D01*
X104738095Y-128304761D01*
X104642857Y-128352380D01*
X104500000Y-128352380D01*
X105690476Y-127685714D02*
X105690476Y-128352380D01*
X105261904Y-127685714D02*
X105261904Y-128209523D01*
X105309523Y-128304761D01*
X105404761Y-128352380D01*
X105547619Y-128352380D01*
X105642857Y-128304761D01*
X105690476Y-128257142D01*
X106166666Y-127685714D02*
X106166666Y-128352380D01*
X106166666Y-127780952D02*
X106214285Y-127733333D01*
X106309523Y-127685714D01*
X106452380Y-127685714D01*
X106547619Y-127733333D01*
X106595238Y-127828571D01*
X106595238Y-128352380D01*
X106928571Y-127685714D02*
X107309523Y-127685714D01*
X107071428Y-127352380D02*
X107071428Y-128209523D01*
X107119047Y-128304761D01*
X107214285Y-128352380D01*
X107309523Y-128352380D01*
X107642857Y-128352380D02*
X107642857Y-127685714D01*
X107642857Y-127352380D02*
X107595238Y-127400000D01*
X107642857Y-127447619D01*
X107690476Y-127400000D01*
X107642857Y-127352380D01*
X107642857Y-127447619D01*
X108119047Y-127685714D02*
X108119047Y-128352380D01*
X108119047Y-127780952D02*
X108166666Y-127733333D01*
X108261904Y-127685714D01*
X108404761Y-127685714D01*
X108500000Y-127733333D01*
X108547619Y-127828571D01*
X108547619Y-128352380D01*
X109452380Y-127685714D02*
X109452380Y-128495238D01*
X109404761Y-128590476D01*
X109357142Y-128638095D01*
X109261904Y-128685714D01*
X109119047Y-128685714D01*
X109023809Y-128638095D01*
X109452380Y-128304761D02*
X109357142Y-128352380D01*
X109166666Y-128352380D01*
X109071428Y-128304761D01*
X109023809Y-128257142D01*
X108976190Y-128161904D01*
X108976190Y-127876190D01*
X109023809Y-127780952D01*
X109071428Y-127733333D01*
X109166666Y-127685714D01*
X109357142Y-127685714D01*
X109452380Y-127733333D01*
X109928571Y-128352380D02*
X109928571Y-127352380D01*
X109928571Y-127828571D02*
X110500000Y-127828571D01*
X110500000Y-128352380D02*
X110500000Y-127352380D01*
X111119047Y-128352380D02*
X111023809Y-128304761D01*
X110976190Y-128257142D01*
X110928571Y-128161904D01*
X110928571Y-127876190D01*
X110976190Y-127780952D01*
X111023809Y-127733333D01*
X111119047Y-127685714D01*
X111261904Y-127685714D01*
X111357142Y-127733333D01*
X111404761Y-127780952D01*
X111452380Y-127876190D01*
X111452380Y-128161904D01*
X111404761Y-128257142D01*
X111357142Y-128304761D01*
X111261904Y-128352380D01*
X111119047Y-128352380D01*
X112023809Y-128352380D02*
X111928571Y-128304761D01*
X111880952Y-128209523D01*
X111880952Y-127352380D01*
X112785714Y-128304761D02*
X112690476Y-128352380D01*
X112500000Y-128352380D01*
X112404761Y-128304761D01*
X112357142Y-128209523D01*
X112357142Y-127828571D01*
X112404761Y-127733333D01*
X112500000Y-127685714D01*
X112690476Y-127685714D01*
X112785714Y-127733333D01*
X112833333Y-127828571D01*
X112833333Y-127923809D01*
X112357142Y-128019047D01*
X107538095Y-125452380D02*
X107538095Y-124452380D01*
X107538095Y-124928571D02*
X108109523Y-124928571D01*
X108109523Y-125452380D02*
X108109523Y-124452380D01*
X109014285Y-124785714D02*
X109014285Y-125452380D01*
X108776190Y-124404761D02*
X108538095Y-125119047D01*
X109157142Y-125119047D01*
%TO.C,H3*%
X168214285Y-73352380D02*
X168214285Y-72352380D01*
X168547619Y-73066666D01*
X168880952Y-72352380D01*
X168880952Y-73352380D01*
X169500000Y-73352380D02*
X169404761Y-73304761D01*
X169357142Y-73257142D01*
X169309523Y-73161904D01*
X169309523Y-72876190D01*
X169357142Y-72780952D01*
X169404761Y-72733333D01*
X169500000Y-72685714D01*
X169642857Y-72685714D01*
X169738095Y-72733333D01*
X169785714Y-72780952D01*
X169833333Y-72876190D01*
X169833333Y-73161904D01*
X169785714Y-73257142D01*
X169738095Y-73304761D01*
X169642857Y-73352380D01*
X169500000Y-73352380D01*
X170690476Y-72685714D02*
X170690476Y-73352380D01*
X170261904Y-72685714D02*
X170261904Y-73209523D01*
X170309523Y-73304761D01*
X170404761Y-73352380D01*
X170547619Y-73352380D01*
X170642857Y-73304761D01*
X170690476Y-73257142D01*
X171166666Y-72685714D02*
X171166666Y-73352380D01*
X171166666Y-72780952D02*
X171214285Y-72733333D01*
X171309523Y-72685714D01*
X171452380Y-72685714D01*
X171547619Y-72733333D01*
X171595238Y-72828571D01*
X171595238Y-73352380D01*
X171928571Y-72685714D02*
X172309523Y-72685714D01*
X172071428Y-72352380D02*
X172071428Y-73209523D01*
X172119047Y-73304761D01*
X172214285Y-73352380D01*
X172309523Y-73352380D01*
X172642857Y-73352380D02*
X172642857Y-72685714D01*
X172642857Y-72352380D02*
X172595238Y-72400000D01*
X172642857Y-72447619D01*
X172690476Y-72400000D01*
X172642857Y-72352380D01*
X172642857Y-72447619D01*
X173119047Y-72685714D02*
X173119047Y-73352380D01*
X173119047Y-72780952D02*
X173166666Y-72733333D01*
X173261904Y-72685714D01*
X173404761Y-72685714D01*
X173500000Y-72733333D01*
X173547619Y-72828571D01*
X173547619Y-73352380D01*
X174452380Y-72685714D02*
X174452380Y-73495238D01*
X174404761Y-73590476D01*
X174357142Y-73638095D01*
X174261904Y-73685714D01*
X174119047Y-73685714D01*
X174023809Y-73638095D01*
X174452380Y-73304761D02*
X174357142Y-73352380D01*
X174166666Y-73352380D01*
X174071428Y-73304761D01*
X174023809Y-73257142D01*
X173976190Y-73161904D01*
X173976190Y-72876190D01*
X174023809Y-72780952D01*
X174071428Y-72733333D01*
X174166666Y-72685714D01*
X174357142Y-72685714D01*
X174452380Y-72733333D01*
X174928571Y-73352380D02*
X174928571Y-72352380D01*
X174928571Y-72828571D02*
X175500000Y-72828571D01*
X175500000Y-73352380D02*
X175500000Y-72352380D01*
X176119047Y-73352380D02*
X176023809Y-73304761D01*
X175976190Y-73257142D01*
X175928571Y-73161904D01*
X175928571Y-72876190D01*
X175976190Y-72780952D01*
X176023809Y-72733333D01*
X176119047Y-72685714D01*
X176261904Y-72685714D01*
X176357142Y-72733333D01*
X176404761Y-72780952D01*
X176452380Y-72876190D01*
X176452380Y-73161904D01*
X176404761Y-73257142D01*
X176357142Y-73304761D01*
X176261904Y-73352380D01*
X176119047Y-73352380D01*
X177023809Y-73352380D02*
X176928571Y-73304761D01*
X176880952Y-73209523D01*
X176880952Y-72352380D01*
X177785714Y-73304761D02*
X177690476Y-73352380D01*
X177500000Y-73352380D01*
X177404761Y-73304761D01*
X177357142Y-73209523D01*
X177357142Y-72828571D01*
X177404761Y-72733333D01*
X177500000Y-72685714D01*
X177690476Y-72685714D01*
X177785714Y-72733333D01*
X177833333Y-72828571D01*
X177833333Y-72923809D01*
X177357142Y-73019047D01*
X172538095Y-70452380D02*
X172538095Y-69452380D01*
X172538095Y-69928571D02*
X173109523Y-69928571D01*
X173109523Y-70452380D02*
X173109523Y-69452380D01*
X173490476Y-69452380D02*
X174109523Y-69452380D01*
X173776190Y-69833333D01*
X173919047Y-69833333D01*
X174014285Y-69880952D01*
X174061904Y-69928571D01*
X174109523Y-70023809D01*
X174109523Y-70261904D01*
X174061904Y-70357142D01*
X174014285Y-70404761D01*
X173919047Y-70452380D01*
X173633333Y-70452380D01*
X173538095Y-70404761D01*
X173490476Y-70357142D01*
%TO.C,H2*%
X156214285Y-128352380D02*
X156214285Y-127352380D01*
X156547619Y-128066666D01*
X156880952Y-127352380D01*
X156880952Y-128352380D01*
X157500000Y-128352380D02*
X157404761Y-128304761D01*
X157357142Y-128257142D01*
X157309523Y-128161904D01*
X157309523Y-127876190D01*
X157357142Y-127780952D01*
X157404761Y-127733333D01*
X157500000Y-127685714D01*
X157642857Y-127685714D01*
X157738095Y-127733333D01*
X157785714Y-127780952D01*
X157833333Y-127876190D01*
X157833333Y-128161904D01*
X157785714Y-128257142D01*
X157738095Y-128304761D01*
X157642857Y-128352380D01*
X157500000Y-128352380D01*
X158690476Y-127685714D02*
X158690476Y-128352380D01*
X158261904Y-127685714D02*
X158261904Y-128209523D01*
X158309523Y-128304761D01*
X158404761Y-128352380D01*
X158547619Y-128352380D01*
X158642857Y-128304761D01*
X158690476Y-128257142D01*
X159166666Y-127685714D02*
X159166666Y-128352380D01*
X159166666Y-127780952D02*
X159214285Y-127733333D01*
X159309523Y-127685714D01*
X159452380Y-127685714D01*
X159547619Y-127733333D01*
X159595238Y-127828571D01*
X159595238Y-128352380D01*
X159928571Y-127685714D02*
X160309523Y-127685714D01*
X160071428Y-127352380D02*
X160071428Y-128209523D01*
X160119047Y-128304761D01*
X160214285Y-128352380D01*
X160309523Y-128352380D01*
X160642857Y-128352380D02*
X160642857Y-127685714D01*
X160642857Y-127352380D02*
X160595238Y-127400000D01*
X160642857Y-127447619D01*
X160690476Y-127400000D01*
X160642857Y-127352380D01*
X160642857Y-127447619D01*
X161119047Y-127685714D02*
X161119047Y-128352380D01*
X161119047Y-127780952D02*
X161166666Y-127733333D01*
X161261904Y-127685714D01*
X161404761Y-127685714D01*
X161500000Y-127733333D01*
X161547619Y-127828571D01*
X161547619Y-128352380D01*
X162452380Y-127685714D02*
X162452380Y-128495238D01*
X162404761Y-128590476D01*
X162357142Y-128638095D01*
X162261904Y-128685714D01*
X162119047Y-128685714D01*
X162023809Y-128638095D01*
X162452380Y-128304761D02*
X162357142Y-128352380D01*
X162166666Y-128352380D01*
X162071428Y-128304761D01*
X162023809Y-128257142D01*
X161976190Y-128161904D01*
X161976190Y-127876190D01*
X162023809Y-127780952D01*
X162071428Y-127733333D01*
X162166666Y-127685714D01*
X162357142Y-127685714D01*
X162452380Y-127733333D01*
X162928571Y-128352380D02*
X162928571Y-127352380D01*
X162928571Y-127828571D02*
X163500000Y-127828571D01*
X163500000Y-128352380D02*
X163500000Y-127352380D01*
X164119047Y-128352380D02*
X164023809Y-128304761D01*
X163976190Y-128257142D01*
X163928571Y-128161904D01*
X163928571Y-127876190D01*
X163976190Y-127780952D01*
X164023809Y-127733333D01*
X164119047Y-127685714D01*
X164261904Y-127685714D01*
X164357142Y-127733333D01*
X164404761Y-127780952D01*
X164452380Y-127876190D01*
X164452380Y-128161904D01*
X164404761Y-128257142D01*
X164357142Y-128304761D01*
X164261904Y-128352380D01*
X164119047Y-128352380D01*
X165023809Y-128352380D02*
X164928571Y-128304761D01*
X164880952Y-128209523D01*
X164880952Y-127352380D01*
X165785714Y-128304761D02*
X165690476Y-128352380D01*
X165500000Y-128352380D01*
X165404761Y-128304761D01*
X165357142Y-128209523D01*
X165357142Y-127828571D01*
X165404761Y-127733333D01*
X165500000Y-127685714D01*
X165690476Y-127685714D01*
X165785714Y-127733333D01*
X165833333Y-127828571D01*
X165833333Y-127923809D01*
X165357142Y-128019047D01*
X160538095Y-125452380D02*
X160538095Y-124452380D01*
X160538095Y-124928571D02*
X161109523Y-124928571D01*
X161109523Y-125452380D02*
X161109523Y-124452380D01*
X161538095Y-124547619D02*
X161585714Y-124500000D01*
X161680952Y-124452380D01*
X161919047Y-124452380D01*
X162014285Y-124500000D01*
X162061904Y-124547619D01*
X162109523Y-124642857D01*
X162109523Y-124738095D01*
X162061904Y-124880952D01*
X161490476Y-125452380D01*
X162109523Y-125452380D01*
%TO.C,H1*%
X87214285Y-73352380D02*
X87214285Y-72352380D01*
X87547619Y-73066666D01*
X87880952Y-72352380D01*
X87880952Y-73352380D01*
X88500000Y-73352380D02*
X88404761Y-73304761D01*
X88357142Y-73257142D01*
X88309523Y-73161904D01*
X88309523Y-72876190D01*
X88357142Y-72780952D01*
X88404761Y-72733333D01*
X88500000Y-72685714D01*
X88642857Y-72685714D01*
X88738095Y-72733333D01*
X88785714Y-72780952D01*
X88833333Y-72876190D01*
X88833333Y-73161904D01*
X88785714Y-73257142D01*
X88738095Y-73304761D01*
X88642857Y-73352380D01*
X88500000Y-73352380D01*
X89690476Y-72685714D02*
X89690476Y-73352380D01*
X89261904Y-72685714D02*
X89261904Y-73209523D01*
X89309523Y-73304761D01*
X89404761Y-73352380D01*
X89547619Y-73352380D01*
X89642857Y-73304761D01*
X89690476Y-73257142D01*
X90166666Y-72685714D02*
X90166666Y-73352380D01*
X90166666Y-72780952D02*
X90214285Y-72733333D01*
X90309523Y-72685714D01*
X90452380Y-72685714D01*
X90547619Y-72733333D01*
X90595238Y-72828571D01*
X90595238Y-73352380D01*
X90928571Y-72685714D02*
X91309523Y-72685714D01*
X91071428Y-72352380D02*
X91071428Y-73209523D01*
X91119047Y-73304761D01*
X91214285Y-73352380D01*
X91309523Y-73352380D01*
X91642857Y-73352380D02*
X91642857Y-72685714D01*
X91642857Y-72352380D02*
X91595238Y-72400000D01*
X91642857Y-72447619D01*
X91690476Y-72400000D01*
X91642857Y-72352380D01*
X91642857Y-72447619D01*
X92119047Y-72685714D02*
X92119047Y-73352380D01*
X92119047Y-72780952D02*
X92166666Y-72733333D01*
X92261904Y-72685714D01*
X92404761Y-72685714D01*
X92500000Y-72733333D01*
X92547619Y-72828571D01*
X92547619Y-73352380D01*
X93452380Y-72685714D02*
X93452380Y-73495238D01*
X93404761Y-73590476D01*
X93357142Y-73638095D01*
X93261904Y-73685714D01*
X93119047Y-73685714D01*
X93023809Y-73638095D01*
X93452380Y-73304761D02*
X93357142Y-73352380D01*
X93166666Y-73352380D01*
X93071428Y-73304761D01*
X93023809Y-73257142D01*
X92976190Y-73161904D01*
X92976190Y-72876190D01*
X93023809Y-72780952D01*
X93071428Y-72733333D01*
X93166666Y-72685714D01*
X93357142Y-72685714D01*
X93452380Y-72733333D01*
X93928571Y-73352380D02*
X93928571Y-72352380D01*
X93928571Y-72828571D02*
X94500000Y-72828571D01*
X94500000Y-73352380D02*
X94500000Y-72352380D01*
X95119047Y-73352380D02*
X95023809Y-73304761D01*
X94976190Y-73257142D01*
X94928571Y-73161904D01*
X94928571Y-72876190D01*
X94976190Y-72780952D01*
X95023809Y-72733333D01*
X95119047Y-72685714D01*
X95261904Y-72685714D01*
X95357142Y-72733333D01*
X95404761Y-72780952D01*
X95452380Y-72876190D01*
X95452380Y-73161904D01*
X95404761Y-73257142D01*
X95357142Y-73304761D01*
X95261904Y-73352380D01*
X95119047Y-73352380D01*
X96023809Y-73352380D02*
X95928571Y-73304761D01*
X95880952Y-73209523D01*
X95880952Y-72352380D01*
X96785714Y-73304761D02*
X96690476Y-73352380D01*
X96500000Y-73352380D01*
X96404761Y-73304761D01*
X96357142Y-73209523D01*
X96357142Y-72828571D01*
X96404761Y-72733333D01*
X96500000Y-72685714D01*
X96690476Y-72685714D01*
X96785714Y-72733333D01*
X96833333Y-72828571D01*
X96833333Y-72923809D01*
X96357142Y-73019047D01*
X91538095Y-70452380D02*
X91538095Y-69452380D01*
X91538095Y-69928571D02*
X92109523Y-69928571D01*
X92109523Y-70452380D02*
X92109523Y-69452380D01*
X93109523Y-70452380D02*
X92538095Y-70452380D01*
X92823809Y-70452380D02*
X92823809Y-69452380D01*
X92728571Y-69595238D01*
X92633333Y-69690476D01*
X92538095Y-69738095D01*
%TO.C,J3*%
X105221904Y-67744761D02*
X105364761Y-67792380D01*
X105602857Y-67792380D01*
X105698095Y-67744761D01*
X105745714Y-67697142D01*
X105793333Y-67601904D01*
X105793333Y-67506666D01*
X105745714Y-67411428D01*
X105698095Y-67363809D01*
X105602857Y-67316190D01*
X105412380Y-67268571D01*
X105317142Y-67220952D01*
X105269523Y-67173333D01*
X105221904Y-67078095D01*
X105221904Y-66982857D01*
X105269523Y-66887619D01*
X105317142Y-66840000D01*
X105412380Y-66792380D01*
X105650476Y-66792380D01*
X105793333Y-66840000D01*
X106650476Y-67744761D02*
X106555238Y-67792380D01*
X106364761Y-67792380D01*
X106269523Y-67744761D01*
X106221904Y-67697142D01*
X106174285Y-67601904D01*
X106174285Y-67316190D01*
X106221904Y-67220952D01*
X106269523Y-67173333D01*
X106364761Y-67125714D01*
X106555238Y-67125714D01*
X106650476Y-67173333D01*
X107079047Y-67792380D02*
X107079047Y-67125714D01*
X107079047Y-67316190D02*
X107126666Y-67220952D01*
X107174285Y-67173333D01*
X107269523Y-67125714D01*
X107364761Y-67125714D01*
X108079047Y-67744761D02*
X107983809Y-67792380D01*
X107793333Y-67792380D01*
X107698095Y-67744761D01*
X107650476Y-67649523D01*
X107650476Y-67268571D01*
X107698095Y-67173333D01*
X107793333Y-67125714D01*
X107983809Y-67125714D01*
X108079047Y-67173333D01*
X108126666Y-67268571D01*
X108126666Y-67363809D01*
X107650476Y-67459047D01*
X108460000Y-67125714D02*
X108650476Y-67792380D01*
X108840952Y-67316190D01*
X109031428Y-67792380D01*
X109221904Y-67125714D01*
X109364761Y-67887619D02*
X110126666Y-67887619D01*
X110221904Y-66792380D02*
X110793333Y-66792380D01*
X110507619Y-67792380D02*
X110507619Y-66792380D01*
X111507619Y-67744761D02*
X111412380Y-67792380D01*
X111221904Y-67792380D01*
X111126666Y-67744761D01*
X111079047Y-67649523D01*
X111079047Y-67268571D01*
X111126666Y-67173333D01*
X111221904Y-67125714D01*
X111412380Y-67125714D01*
X111507619Y-67173333D01*
X111555238Y-67268571D01*
X111555238Y-67363809D01*
X111079047Y-67459047D01*
X111983809Y-67792380D02*
X111983809Y-67125714D01*
X111983809Y-67316190D02*
X112031428Y-67220952D01*
X112079047Y-67173333D01*
X112174285Y-67125714D01*
X112269523Y-67125714D01*
X112602857Y-67792380D02*
X112602857Y-67125714D01*
X112602857Y-67220952D02*
X112650476Y-67173333D01*
X112745714Y-67125714D01*
X112888571Y-67125714D01*
X112983809Y-67173333D01*
X113031428Y-67268571D01*
X113031428Y-67792380D01*
X113031428Y-67268571D02*
X113079047Y-67173333D01*
X113174285Y-67125714D01*
X113317142Y-67125714D01*
X113412380Y-67173333D01*
X113460000Y-67268571D01*
X113460000Y-67792380D01*
X113936190Y-67792380D02*
X113936190Y-67125714D01*
X113936190Y-66792380D02*
X113888571Y-66840000D01*
X113936190Y-66887619D01*
X113983809Y-66840000D01*
X113936190Y-66792380D01*
X113936190Y-66887619D01*
X114412380Y-67125714D02*
X114412380Y-67792380D01*
X114412380Y-67220952D02*
X114460000Y-67173333D01*
X114555238Y-67125714D01*
X114698095Y-67125714D01*
X114793333Y-67173333D01*
X114840952Y-67268571D01*
X114840952Y-67792380D01*
X115745714Y-67792380D02*
X115745714Y-67268571D01*
X115698095Y-67173333D01*
X115602857Y-67125714D01*
X115412380Y-67125714D01*
X115317142Y-67173333D01*
X115745714Y-67744761D02*
X115650476Y-67792380D01*
X115412380Y-67792380D01*
X115317142Y-67744761D01*
X115269523Y-67649523D01*
X115269523Y-67554285D01*
X115317142Y-67459047D01*
X115412380Y-67411428D01*
X115650476Y-67411428D01*
X115745714Y-67363809D01*
X116364761Y-67792380D02*
X116269523Y-67744761D01*
X116221904Y-67649523D01*
X116221904Y-66792380D01*
X116507619Y-67887619D02*
X117269523Y-67887619D01*
X117698095Y-66792380D02*
X117793333Y-66792380D01*
X117888571Y-66840000D01*
X117936190Y-66887619D01*
X117983809Y-66982857D01*
X118031428Y-67173333D01*
X118031428Y-67411428D01*
X117983809Y-67601904D01*
X117936190Y-67697142D01*
X117888571Y-67744761D01*
X117793333Y-67792380D01*
X117698095Y-67792380D01*
X117602857Y-67744761D01*
X117555238Y-67697142D01*
X117507619Y-67601904D01*
X117460000Y-67411428D01*
X117460000Y-67173333D01*
X117507619Y-66982857D01*
X117555238Y-66887619D01*
X117602857Y-66840000D01*
X117698095Y-66792380D01*
X118983809Y-67792380D02*
X118412380Y-67792380D01*
X118698095Y-67792380D02*
X118698095Y-66792380D01*
X118602857Y-66935238D01*
X118507619Y-67030476D01*
X118412380Y-67078095D01*
X119317142Y-67792380D02*
X119840952Y-67125714D01*
X119317142Y-67125714D02*
X119840952Y-67792380D01*
X120412380Y-66792380D02*
X120507619Y-66792380D01*
X120602857Y-66840000D01*
X120650476Y-66887619D01*
X120698095Y-66982857D01*
X120745714Y-67173333D01*
X120745714Y-67411428D01*
X120698095Y-67601904D01*
X120650476Y-67697142D01*
X120602857Y-67744761D01*
X120507619Y-67792380D01*
X120412380Y-67792380D01*
X120317142Y-67744761D01*
X120269523Y-67697142D01*
X120221904Y-67601904D01*
X120174285Y-67411428D01*
X120174285Y-67173333D01*
X120221904Y-66982857D01*
X120269523Y-66887619D01*
X120317142Y-66840000D01*
X120412380Y-66792380D01*
X121126666Y-66887619D02*
X121174285Y-66840000D01*
X121269523Y-66792380D01*
X121507619Y-66792380D01*
X121602857Y-66840000D01*
X121650476Y-66887619D01*
X121698095Y-66982857D01*
X121698095Y-67078095D01*
X121650476Y-67220952D01*
X121079047Y-67792380D01*
X121698095Y-67792380D01*
X113126666Y-69252380D02*
X113126666Y-69966666D01*
X113079047Y-70109523D01*
X112983809Y-70204761D01*
X112840952Y-70252380D01*
X112745714Y-70252380D01*
X113507619Y-69252380D02*
X114126666Y-69252380D01*
X113793333Y-69633333D01*
X113936190Y-69633333D01*
X114031428Y-69680952D01*
X114079047Y-69728571D01*
X114126666Y-69823809D01*
X114126666Y-70061904D01*
X114079047Y-70157142D01*
X114031428Y-70204761D01*
X113936190Y-70252380D01*
X113650476Y-70252380D01*
X113555238Y-70204761D01*
X113507619Y-70157142D01*
%TO.C,R19*%
X109238095Y-79135714D02*
X109238095Y-79802380D01*
X109000000Y-78754761D02*
X108761904Y-79469047D01*
X109380952Y-79469047D01*
X109666666Y-78802380D02*
X110333333Y-78802380D01*
X109904761Y-79802380D01*
X110904761Y-78802380D02*
X111000000Y-78802380D01*
X111095238Y-78850000D01*
X111142857Y-78897619D01*
X111190476Y-78992857D01*
X111238095Y-79183333D01*
X111238095Y-79421428D01*
X111190476Y-79611904D01*
X111142857Y-79707142D01*
X111095238Y-79754761D01*
X111000000Y-79802380D01*
X110904761Y-79802380D01*
X110809523Y-79754761D01*
X110761904Y-79707142D01*
X110714285Y-79611904D01*
X110666666Y-79421428D01*
X110666666Y-79183333D01*
X110714285Y-78992857D01*
X110761904Y-78897619D01*
X110809523Y-78850000D01*
X110904761Y-78802380D01*
D14*
X109678571Y-81226190D02*
X109511904Y-80988095D01*
X109392857Y-81226190D02*
X109392857Y-80726190D01*
X109583333Y-80726190D01*
X109630952Y-80750000D01*
X109654761Y-80773809D01*
X109678571Y-80821428D01*
X109678571Y-80892857D01*
X109654761Y-80940476D01*
X109630952Y-80964285D01*
X109583333Y-80988095D01*
X109392857Y-80988095D01*
X110154761Y-81226190D02*
X109869047Y-81226190D01*
X110011904Y-81226190D02*
X110011904Y-80726190D01*
X109964285Y-80797619D01*
X109916666Y-80845238D01*
X109869047Y-80869047D01*
X110392857Y-81226190D02*
X110488095Y-81226190D01*
X110535714Y-81202380D01*
X110559523Y-81178571D01*
X110607142Y-81107142D01*
X110630952Y-81011904D01*
X110630952Y-80821428D01*
X110607142Y-80773809D01*
X110583333Y-80750000D01*
X110535714Y-80726190D01*
X110440476Y-80726190D01*
X110392857Y-80750000D01*
X110369047Y-80773809D01*
X110345238Y-80821428D01*
X110345238Y-80940476D01*
X110369047Y-80988095D01*
X110392857Y-81011904D01*
X110440476Y-81035714D01*
X110535714Y-81035714D01*
X110583333Y-81011904D01*
X110607142Y-80988095D01*
X110630952Y-80940476D01*
%TO.C,D5*%
D12*
X117102380Y-81642857D02*
X117102380Y-82119047D01*
X116102380Y-82119047D01*
X116578571Y-81309523D02*
X116578571Y-80976190D01*
X117102380Y-80833333D02*
X117102380Y-81309523D01*
X116102380Y-81309523D01*
X116102380Y-80833333D01*
X117102380Y-80404761D02*
X116102380Y-80404761D01*
X116102380Y-80166666D01*
X116150000Y-80023809D01*
X116245238Y-79928571D01*
X116340476Y-79880952D01*
X116530952Y-79833333D01*
X116673809Y-79833333D01*
X116864285Y-79880952D01*
X116959523Y-79928571D01*
X117054761Y-80023809D01*
X117102380Y-80166666D01*
X117102380Y-80404761D01*
D14*
X115226190Y-81369047D02*
X114726190Y-81369047D01*
X114726190Y-81250000D01*
X114750000Y-81178571D01*
X114797619Y-81130952D01*
X114845238Y-81107142D01*
X114940476Y-81083333D01*
X115011904Y-81083333D01*
X115107142Y-81107142D01*
X115154761Y-81130952D01*
X115202380Y-81178571D01*
X115226190Y-81250000D01*
X115226190Y-81369047D01*
X114726190Y-80630952D02*
X114726190Y-80869047D01*
X114964285Y-80892857D01*
X114940476Y-80869047D01*
X114916666Y-80821428D01*
X114916666Y-80702380D01*
X114940476Y-80654761D01*
X114964285Y-80630952D01*
X115011904Y-80607142D01*
X115130952Y-80607142D01*
X115178571Y-80630952D01*
X115202380Y-80654761D01*
X115226190Y-80702380D01*
X115226190Y-80821428D01*
X115202380Y-80869047D01*
X115178571Y-80892857D01*
%TO.C,R18*%
D12*
X152309523Y-96452380D02*
X151738095Y-96452380D01*
X152023809Y-96452380D02*
X152023809Y-95452380D01*
X151928571Y-95595238D01*
X151833333Y-95690476D01*
X151738095Y-95738095D01*
X152928571Y-95452380D02*
X153023809Y-95452380D01*
X153119047Y-95500000D01*
X153166666Y-95547619D01*
X153214285Y-95642857D01*
X153261904Y-95833333D01*
X153261904Y-96071428D01*
X153214285Y-96261904D01*
X153166666Y-96357142D01*
X153119047Y-96404761D01*
X153023809Y-96452380D01*
X152928571Y-96452380D01*
X152833333Y-96404761D01*
X152785714Y-96357142D01*
X152738095Y-96261904D01*
X152690476Y-96071428D01*
X152690476Y-95833333D01*
X152738095Y-95642857D01*
X152785714Y-95547619D01*
X152833333Y-95500000D01*
X152928571Y-95452380D01*
X153690476Y-96452380D02*
X153690476Y-95452380D01*
X154261904Y-96452380D02*
X153833333Y-95880952D01*
X154261904Y-95452380D02*
X153690476Y-96023809D01*
D14*
X154226190Y-99321428D02*
X153988095Y-99488095D01*
X154226190Y-99607142D02*
X153726190Y-99607142D01*
X153726190Y-99416666D01*
X153750000Y-99369047D01*
X153773809Y-99345238D01*
X153821428Y-99321428D01*
X153892857Y-99321428D01*
X153940476Y-99345238D01*
X153964285Y-99369047D01*
X153988095Y-99416666D01*
X153988095Y-99607142D01*
X154226190Y-98845238D02*
X154226190Y-99130952D01*
X154226190Y-98988095D02*
X153726190Y-98988095D01*
X153797619Y-99035714D01*
X153845238Y-99083333D01*
X153869047Y-99130952D01*
X153940476Y-98559523D02*
X153916666Y-98607142D01*
X153892857Y-98630952D01*
X153845238Y-98654761D01*
X153821428Y-98654761D01*
X153773809Y-98630952D01*
X153750000Y-98607142D01*
X153726190Y-98559523D01*
X153726190Y-98464285D01*
X153750000Y-98416666D01*
X153773809Y-98392857D01*
X153821428Y-98369047D01*
X153845238Y-98369047D01*
X153892857Y-98392857D01*
X153916666Y-98416666D01*
X153940476Y-98464285D01*
X153940476Y-98559523D01*
X153964285Y-98607142D01*
X153988095Y-98630952D01*
X154035714Y-98654761D01*
X154130952Y-98654761D01*
X154178571Y-98630952D01*
X154202380Y-98607142D01*
X154226190Y-98559523D01*
X154226190Y-98464285D01*
X154202380Y-98416666D01*
X154178571Y-98392857D01*
X154130952Y-98369047D01*
X154035714Y-98369047D01*
X153988095Y-98392857D01*
X153964285Y-98416666D01*
X153940476Y-98464285D01*
%TO.C,R17*%
D12*
X159404761Y-97452380D02*
X158833333Y-97452380D01*
X159119047Y-97452380D02*
X159119047Y-96452380D01*
X159023809Y-96595238D01*
X158928571Y-96690476D01*
X158833333Y-96738095D01*
X160023809Y-96452380D02*
X160119047Y-96452380D01*
X160214285Y-96500000D01*
X160261904Y-96547619D01*
X160309523Y-96642857D01*
X160357142Y-96833333D01*
X160357142Y-97071428D01*
X160309523Y-97261904D01*
X160261904Y-97357142D01*
X160214285Y-97404761D01*
X160119047Y-97452380D01*
X160023809Y-97452380D01*
X159928571Y-97404761D01*
X159880952Y-97357142D01*
X159833333Y-97261904D01*
X159785714Y-97071428D01*
X159785714Y-96833333D01*
X159833333Y-96642857D01*
X159880952Y-96547619D01*
X159928571Y-96500000D01*
X160023809Y-96452380D01*
X160785714Y-97452380D02*
X160785714Y-96452380D01*
X160880952Y-97071428D02*
X161166666Y-97452380D01*
X161166666Y-96785714D02*
X160785714Y-97166666D01*
D14*
X157226190Y-99321428D02*
X156988095Y-99488095D01*
X157226190Y-99607142D02*
X156726190Y-99607142D01*
X156726190Y-99416666D01*
X156750000Y-99369047D01*
X156773809Y-99345238D01*
X156821428Y-99321428D01*
X156892857Y-99321428D01*
X156940476Y-99345238D01*
X156964285Y-99369047D01*
X156988095Y-99416666D01*
X156988095Y-99607142D01*
X157226190Y-98845238D02*
X157226190Y-99130952D01*
X157226190Y-98988095D02*
X156726190Y-98988095D01*
X156797619Y-99035714D01*
X156845238Y-99083333D01*
X156869047Y-99130952D01*
X156726190Y-98678571D02*
X156726190Y-98345238D01*
X157226190Y-98559523D01*
%TO.C,R16*%
D12*
X154261904Y-87897619D02*
X154309523Y-87850000D01*
X154404761Y-87802380D01*
X154642857Y-87802380D01*
X154738095Y-87850000D01*
X154785714Y-87897619D01*
X154833333Y-87992857D01*
X154833333Y-88088095D01*
X154785714Y-88230952D01*
X154214285Y-88802380D01*
X154833333Y-88802380D01*
X155214285Y-87897619D02*
X155261904Y-87850000D01*
X155357142Y-87802380D01*
X155595238Y-87802380D01*
X155690476Y-87850000D01*
X155738095Y-87897619D01*
X155785714Y-87992857D01*
X155785714Y-88088095D01*
X155738095Y-88230952D01*
X155166666Y-88802380D01*
X155785714Y-88802380D01*
X156404761Y-87802380D02*
X156500000Y-87802380D01*
X156595238Y-87850000D01*
X156642857Y-87897619D01*
X156690476Y-87992857D01*
X156738095Y-88183333D01*
X156738095Y-88421428D01*
X156690476Y-88611904D01*
X156642857Y-88707142D01*
X156595238Y-88754761D01*
X156500000Y-88802380D01*
X156404761Y-88802380D01*
X156309523Y-88754761D01*
X156261904Y-88707142D01*
X156214285Y-88611904D01*
X156166666Y-88421428D01*
X156166666Y-88183333D01*
X156214285Y-87992857D01*
X156261904Y-87897619D01*
X156309523Y-87850000D01*
X156404761Y-87802380D01*
X157166666Y-88802380D02*
X157166666Y-87802380D01*
X157738095Y-88802380D02*
X157309523Y-88230952D01*
X157738095Y-87802380D02*
X157166666Y-88373809D01*
D14*
X155678571Y-90226190D02*
X155511904Y-89988095D01*
X155392857Y-90226190D02*
X155392857Y-89726190D01*
X155583333Y-89726190D01*
X155630952Y-89750000D01*
X155654761Y-89773809D01*
X155678571Y-89821428D01*
X155678571Y-89892857D01*
X155654761Y-89940476D01*
X155630952Y-89964285D01*
X155583333Y-89988095D01*
X155392857Y-89988095D01*
X156154761Y-90226190D02*
X155869047Y-90226190D01*
X156011904Y-90226190D02*
X156011904Y-89726190D01*
X155964285Y-89797619D01*
X155916666Y-89845238D01*
X155869047Y-89869047D01*
X156583333Y-89726190D02*
X156488095Y-89726190D01*
X156440476Y-89750000D01*
X156416666Y-89773809D01*
X156369047Y-89845238D01*
X156345238Y-89940476D01*
X156345238Y-90130952D01*
X156369047Y-90178571D01*
X156392857Y-90202380D01*
X156440476Y-90226190D01*
X156535714Y-90226190D01*
X156583333Y-90202380D01*
X156607142Y-90178571D01*
X156630952Y-90130952D01*
X156630952Y-90011904D01*
X156607142Y-89964285D01*
X156583333Y-89940476D01*
X156535714Y-89916666D01*
X156440476Y-89916666D01*
X156392857Y-89940476D01*
X156369047Y-89964285D01*
X156345238Y-90011904D01*
%TO.C,R15*%
D12*
X143261904Y-87897619D02*
X143309523Y-87850000D01*
X143404761Y-87802380D01*
X143642857Y-87802380D01*
X143738095Y-87850000D01*
X143785714Y-87897619D01*
X143833333Y-87992857D01*
X143833333Y-88088095D01*
X143785714Y-88230952D01*
X143214285Y-88802380D01*
X143833333Y-88802380D01*
X144214285Y-87897619D02*
X144261904Y-87850000D01*
X144357142Y-87802380D01*
X144595238Y-87802380D01*
X144690476Y-87850000D01*
X144738095Y-87897619D01*
X144785714Y-87992857D01*
X144785714Y-88088095D01*
X144738095Y-88230952D01*
X144166666Y-88802380D01*
X144785714Y-88802380D01*
X145404761Y-87802380D02*
X145500000Y-87802380D01*
X145595238Y-87850000D01*
X145642857Y-87897619D01*
X145690476Y-87992857D01*
X145738095Y-88183333D01*
X145738095Y-88421428D01*
X145690476Y-88611904D01*
X145642857Y-88707142D01*
X145595238Y-88754761D01*
X145500000Y-88802380D01*
X145404761Y-88802380D01*
X145309523Y-88754761D01*
X145261904Y-88707142D01*
X145214285Y-88611904D01*
X145166666Y-88421428D01*
X145166666Y-88183333D01*
X145214285Y-87992857D01*
X145261904Y-87897619D01*
X145309523Y-87850000D01*
X145404761Y-87802380D01*
X146166666Y-88802380D02*
X146166666Y-87802380D01*
X146738095Y-88802380D02*
X146309523Y-88230952D01*
X146738095Y-87802380D02*
X146166666Y-88373809D01*
D14*
X144678571Y-90226190D02*
X144511904Y-89988095D01*
X144392857Y-90226190D02*
X144392857Y-89726190D01*
X144583333Y-89726190D01*
X144630952Y-89750000D01*
X144654761Y-89773809D01*
X144678571Y-89821428D01*
X144678571Y-89892857D01*
X144654761Y-89940476D01*
X144630952Y-89964285D01*
X144583333Y-89988095D01*
X144392857Y-89988095D01*
X145154761Y-90226190D02*
X144869047Y-90226190D01*
X145011904Y-90226190D02*
X145011904Y-89726190D01*
X144964285Y-89797619D01*
X144916666Y-89845238D01*
X144869047Y-89869047D01*
X145607142Y-89726190D02*
X145369047Y-89726190D01*
X145345238Y-89964285D01*
X145369047Y-89940476D01*
X145416666Y-89916666D01*
X145535714Y-89916666D01*
X145583333Y-89940476D01*
X145607142Y-89964285D01*
X145630952Y-90011904D01*
X145630952Y-90130952D01*
X145607142Y-90178571D01*
X145583333Y-90202380D01*
X145535714Y-90226190D01*
X145416666Y-90226190D01*
X145369047Y-90202380D01*
X145345238Y-90178571D01*
%TO.C,R14*%
D12*
X132261904Y-87897619D02*
X132309523Y-87850000D01*
X132404761Y-87802380D01*
X132642857Y-87802380D01*
X132738095Y-87850000D01*
X132785714Y-87897619D01*
X132833333Y-87992857D01*
X132833333Y-88088095D01*
X132785714Y-88230952D01*
X132214285Y-88802380D01*
X132833333Y-88802380D01*
X133214285Y-87897619D02*
X133261904Y-87850000D01*
X133357142Y-87802380D01*
X133595238Y-87802380D01*
X133690476Y-87850000D01*
X133738095Y-87897619D01*
X133785714Y-87992857D01*
X133785714Y-88088095D01*
X133738095Y-88230952D01*
X133166666Y-88802380D01*
X133785714Y-88802380D01*
X134404761Y-87802380D02*
X134500000Y-87802380D01*
X134595238Y-87850000D01*
X134642857Y-87897619D01*
X134690476Y-87992857D01*
X134738095Y-88183333D01*
X134738095Y-88421428D01*
X134690476Y-88611904D01*
X134642857Y-88707142D01*
X134595238Y-88754761D01*
X134500000Y-88802380D01*
X134404761Y-88802380D01*
X134309523Y-88754761D01*
X134261904Y-88707142D01*
X134214285Y-88611904D01*
X134166666Y-88421428D01*
X134166666Y-88183333D01*
X134214285Y-87992857D01*
X134261904Y-87897619D01*
X134309523Y-87850000D01*
X134404761Y-87802380D01*
X135166666Y-88802380D02*
X135166666Y-87802380D01*
X135738095Y-88802380D02*
X135309523Y-88230952D01*
X135738095Y-87802380D02*
X135166666Y-88373809D01*
D14*
X133678571Y-90226190D02*
X133511904Y-89988095D01*
X133392857Y-90226190D02*
X133392857Y-89726190D01*
X133583333Y-89726190D01*
X133630952Y-89750000D01*
X133654761Y-89773809D01*
X133678571Y-89821428D01*
X133678571Y-89892857D01*
X133654761Y-89940476D01*
X133630952Y-89964285D01*
X133583333Y-89988095D01*
X133392857Y-89988095D01*
X134154761Y-90226190D02*
X133869047Y-90226190D01*
X134011904Y-90226190D02*
X134011904Y-89726190D01*
X133964285Y-89797619D01*
X133916666Y-89845238D01*
X133869047Y-89869047D01*
X134583333Y-89892857D02*
X134583333Y-90226190D01*
X134464285Y-89702380D02*
X134345238Y-90059523D01*
X134654761Y-90059523D01*
%TO.C,R13*%
D12*
X121261904Y-87897619D02*
X121309523Y-87850000D01*
X121404761Y-87802380D01*
X121642857Y-87802380D01*
X121738095Y-87850000D01*
X121785714Y-87897619D01*
X121833333Y-87992857D01*
X121833333Y-88088095D01*
X121785714Y-88230952D01*
X121214285Y-88802380D01*
X121833333Y-88802380D01*
X122214285Y-87897619D02*
X122261904Y-87850000D01*
X122357142Y-87802380D01*
X122595238Y-87802380D01*
X122690476Y-87850000D01*
X122738095Y-87897619D01*
X122785714Y-87992857D01*
X122785714Y-88088095D01*
X122738095Y-88230952D01*
X122166666Y-88802380D01*
X122785714Y-88802380D01*
X123404761Y-87802380D02*
X123500000Y-87802380D01*
X123595238Y-87850000D01*
X123642857Y-87897619D01*
X123690476Y-87992857D01*
X123738095Y-88183333D01*
X123738095Y-88421428D01*
X123690476Y-88611904D01*
X123642857Y-88707142D01*
X123595238Y-88754761D01*
X123500000Y-88802380D01*
X123404761Y-88802380D01*
X123309523Y-88754761D01*
X123261904Y-88707142D01*
X123214285Y-88611904D01*
X123166666Y-88421428D01*
X123166666Y-88183333D01*
X123214285Y-87992857D01*
X123261904Y-87897619D01*
X123309523Y-87850000D01*
X123404761Y-87802380D01*
X124166666Y-88802380D02*
X124166666Y-87802380D01*
X124738095Y-88802380D02*
X124309523Y-88230952D01*
X124738095Y-87802380D02*
X124166666Y-88373809D01*
D14*
X122678571Y-90226190D02*
X122511904Y-89988095D01*
X122392857Y-90226190D02*
X122392857Y-89726190D01*
X122583333Y-89726190D01*
X122630952Y-89750000D01*
X122654761Y-89773809D01*
X122678571Y-89821428D01*
X122678571Y-89892857D01*
X122654761Y-89940476D01*
X122630952Y-89964285D01*
X122583333Y-89988095D01*
X122392857Y-89988095D01*
X123154761Y-90226190D02*
X122869047Y-90226190D01*
X123011904Y-90226190D02*
X123011904Y-89726190D01*
X122964285Y-89797619D01*
X122916666Y-89845238D01*
X122869047Y-89869047D01*
X123321428Y-89726190D02*
X123630952Y-89726190D01*
X123464285Y-89916666D01*
X123535714Y-89916666D01*
X123583333Y-89940476D01*
X123607142Y-89964285D01*
X123630952Y-90011904D01*
X123630952Y-90130952D01*
X123607142Y-90178571D01*
X123583333Y-90202380D01*
X123535714Y-90226190D01*
X123392857Y-90226190D01*
X123345238Y-90202380D01*
X123321428Y-90178571D01*
%TO.C,R11*%
D12*
X133785714Y-92802380D02*
X133214285Y-92802380D01*
X133500000Y-92802380D02*
X133500000Y-91802380D01*
X133404761Y-91945238D01*
X133309523Y-92040476D01*
X133214285Y-92088095D01*
X134214285Y-92802380D02*
X134214285Y-91802380D01*
X134785714Y-92802380D02*
X134357142Y-92230952D01*
X134785714Y-91802380D02*
X134214285Y-92373809D01*
D14*
X133678571Y-94226190D02*
X133511904Y-93988095D01*
X133392857Y-94226190D02*
X133392857Y-93726190D01*
X133583333Y-93726190D01*
X133630952Y-93750000D01*
X133654761Y-93773809D01*
X133678571Y-93821428D01*
X133678571Y-93892857D01*
X133654761Y-93940476D01*
X133630952Y-93964285D01*
X133583333Y-93988095D01*
X133392857Y-93988095D01*
X134154761Y-94226190D02*
X133869047Y-94226190D01*
X134011904Y-94226190D02*
X134011904Y-93726190D01*
X133964285Y-93797619D01*
X133916666Y-93845238D01*
X133869047Y-93869047D01*
X134630952Y-94226190D02*
X134345238Y-94226190D01*
X134488095Y-94226190D02*
X134488095Y-93726190D01*
X134440476Y-93797619D01*
X134392857Y-93845238D01*
X134345238Y-93869047D01*
%TO.C,R10*%
D12*
X123785714Y-92802380D02*
X123214285Y-92802380D01*
X123500000Y-92802380D02*
X123500000Y-91802380D01*
X123404761Y-91945238D01*
X123309523Y-92040476D01*
X123214285Y-92088095D01*
X124214285Y-92802380D02*
X124214285Y-91802380D01*
X124785714Y-92802380D02*
X124357142Y-92230952D01*
X124785714Y-91802380D02*
X124214285Y-92373809D01*
D14*
X123678571Y-94226190D02*
X123511904Y-93988095D01*
X123392857Y-94226190D02*
X123392857Y-93726190D01*
X123583333Y-93726190D01*
X123630952Y-93750000D01*
X123654761Y-93773809D01*
X123678571Y-93821428D01*
X123678571Y-93892857D01*
X123654761Y-93940476D01*
X123630952Y-93964285D01*
X123583333Y-93988095D01*
X123392857Y-93988095D01*
X124154761Y-94226190D02*
X123869047Y-94226190D01*
X124011904Y-94226190D02*
X124011904Y-93726190D01*
X123964285Y-93797619D01*
X123916666Y-93845238D01*
X123869047Y-93869047D01*
X124464285Y-93726190D02*
X124511904Y-93726190D01*
X124559523Y-93750000D01*
X124583333Y-93773809D01*
X124607142Y-93821428D01*
X124630952Y-93916666D01*
X124630952Y-94035714D01*
X124607142Y-94130952D01*
X124583333Y-94178571D01*
X124559523Y-94202380D01*
X124511904Y-94226190D01*
X124464285Y-94226190D01*
X124416666Y-94202380D01*
X124392857Y-94178571D01*
X124369047Y-94130952D01*
X124345238Y-94035714D01*
X124345238Y-93916666D01*
X124369047Y-93821428D01*
X124392857Y-93773809D01*
X124416666Y-93750000D01*
X124464285Y-93726190D01*
%TO.C,R9*%
D12*
X113785714Y-92802380D02*
X113214285Y-92802380D01*
X113500000Y-92802380D02*
X113500000Y-91802380D01*
X113404761Y-91945238D01*
X113309523Y-92040476D01*
X113214285Y-92088095D01*
X114214285Y-92802380D02*
X114214285Y-91802380D01*
X114785714Y-92802380D02*
X114357142Y-92230952D01*
X114785714Y-91802380D02*
X114214285Y-92373809D01*
D14*
X113916666Y-94226190D02*
X113750000Y-93988095D01*
X113630952Y-94226190D02*
X113630952Y-93726190D01*
X113821428Y-93726190D01*
X113869047Y-93750000D01*
X113892857Y-93773809D01*
X113916666Y-93821428D01*
X113916666Y-93892857D01*
X113892857Y-93940476D01*
X113869047Y-93964285D01*
X113821428Y-93988095D01*
X113630952Y-93988095D01*
X114154761Y-94226190D02*
X114250000Y-94226190D01*
X114297619Y-94202380D01*
X114321428Y-94178571D01*
X114369047Y-94107142D01*
X114392857Y-94011904D01*
X114392857Y-93821428D01*
X114369047Y-93773809D01*
X114345238Y-93750000D01*
X114297619Y-93726190D01*
X114202380Y-93726190D01*
X114154761Y-93750000D01*
X114130952Y-93773809D01*
X114107142Y-93821428D01*
X114107142Y-93940476D01*
X114130952Y-93988095D01*
X114154761Y-94011904D01*
X114202380Y-94035714D01*
X114297619Y-94035714D01*
X114345238Y-94011904D01*
X114369047Y-93988095D01*
X114392857Y-93940476D01*
%TO.C,R8*%
D12*
X138333333Y-98102380D02*
X137761904Y-98102380D01*
X138047619Y-98102380D02*
X138047619Y-97102380D01*
X137952380Y-97245238D01*
X137857142Y-97340476D01*
X137761904Y-97388095D01*
X138952380Y-97102380D02*
X139047619Y-97102380D01*
X139142857Y-97150000D01*
X139190476Y-97197619D01*
X139238095Y-97292857D01*
X139285714Y-97483333D01*
X139285714Y-97721428D01*
X139238095Y-97911904D01*
X139190476Y-98007142D01*
X139142857Y-98054761D01*
X139047619Y-98102380D01*
X138952380Y-98102380D01*
X138857142Y-98054761D01*
X138809523Y-98007142D01*
X138761904Y-97911904D01*
X138714285Y-97721428D01*
X138714285Y-97483333D01*
X138761904Y-97292857D01*
X138809523Y-97197619D01*
X138857142Y-97150000D01*
X138952380Y-97102380D01*
X139904761Y-97102380D02*
X140000000Y-97102380D01*
X140095238Y-97150000D01*
X140142857Y-97197619D01*
X140190476Y-97292857D01*
X140238095Y-97483333D01*
X140238095Y-97721428D01*
X140190476Y-97911904D01*
X140142857Y-98007142D01*
X140095238Y-98054761D01*
X140000000Y-98102380D01*
X139904761Y-98102380D01*
X139809523Y-98054761D01*
X139761904Y-98007142D01*
X139714285Y-97911904D01*
X139666666Y-97721428D01*
X139666666Y-97483333D01*
X139714285Y-97292857D01*
X139761904Y-97197619D01*
X139809523Y-97150000D01*
X139904761Y-97102380D01*
D14*
X138916666Y-96226190D02*
X138750000Y-95988095D01*
X138630952Y-96226190D02*
X138630952Y-95726190D01*
X138821428Y-95726190D01*
X138869047Y-95750000D01*
X138892857Y-95773809D01*
X138916666Y-95821428D01*
X138916666Y-95892857D01*
X138892857Y-95940476D01*
X138869047Y-95964285D01*
X138821428Y-95988095D01*
X138630952Y-95988095D01*
X139202380Y-95940476D02*
X139154761Y-95916666D01*
X139130952Y-95892857D01*
X139107142Y-95845238D01*
X139107142Y-95821428D01*
X139130952Y-95773809D01*
X139154761Y-95750000D01*
X139202380Y-95726190D01*
X139297619Y-95726190D01*
X139345238Y-95750000D01*
X139369047Y-95773809D01*
X139392857Y-95821428D01*
X139392857Y-95845238D01*
X139369047Y-95892857D01*
X139345238Y-95916666D01*
X139297619Y-95940476D01*
X139202380Y-95940476D01*
X139154761Y-95964285D01*
X139130952Y-95988095D01*
X139107142Y-96035714D01*
X139107142Y-96130952D01*
X139130952Y-96178571D01*
X139154761Y-96202380D01*
X139202380Y-96226190D01*
X139297619Y-96226190D01*
X139345238Y-96202380D01*
X139369047Y-96178571D01*
X139392857Y-96130952D01*
X139392857Y-96035714D01*
X139369047Y-95988095D01*
X139345238Y-95964285D01*
X139297619Y-95940476D01*
%TO.C,R7*%
D12*
X128333333Y-98102380D02*
X127761904Y-98102380D01*
X128047619Y-98102380D02*
X128047619Y-97102380D01*
X127952380Y-97245238D01*
X127857142Y-97340476D01*
X127761904Y-97388095D01*
X128952380Y-97102380D02*
X129047619Y-97102380D01*
X129142857Y-97150000D01*
X129190476Y-97197619D01*
X129238095Y-97292857D01*
X129285714Y-97483333D01*
X129285714Y-97721428D01*
X129238095Y-97911904D01*
X129190476Y-98007142D01*
X129142857Y-98054761D01*
X129047619Y-98102380D01*
X128952380Y-98102380D01*
X128857142Y-98054761D01*
X128809523Y-98007142D01*
X128761904Y-97911904D01*
X128714285Y-97721428D01*
X128714285Y-97483333D01*
X128761904Y-97292857D01*
X128809523Y-97197619D01*
X128857142Y-97150000D01*
X128952380Y-97102380D01*
X129904761Y-97102380D02*
X130000000Y-97102380D01*
X130095238Y-97150000D01*
X130142857Y-97197619D01*
X130190476Y-97292857D01*
X130238095Y-97483333D01*
X130238095Y-97721428D01*
X130190476Y-97911904D01*
X130142857Y-98007142D01*
X130095238Y-98054761D01*
X130000000Y-98102380D01*
X129904761Y-98102380D01*
X129809523Y-98054761D01*
X129761904Y-98007142D01*
X129714285Y-97911904D01*
X129666666Y-97721428D01*
X129666666Y-97483333D01*
X129714285Y-97292857D01*
X129761904Y-97197619D01*
X129809523Y-97150000D01*
X129904761Y-97102380D01*
D14*
X128916666Y-96226190D02*
X128750000Y-95988095D01*
X128630952Y-96226190D02*
X128630952Y-95726190D01*
X128821428Y-95726190D01*
X128869047Y-95750000D01*
X128892857Y-95773809D01*
X128916666Y-95821428D01*
X128916666Y-95892857D01*
X128892857Y-95940476D01*
X128869047Y-95964285D01*
X128821428Y-95988095D01*
X128630952Y-95988095D01*
X129083333Y-95726190D02*
X129416666Y-95726190D01*
X129202380Y-96226190D01*
%TO.C,R6*%
D12*
X118333333Y-98102380D02*
X117761904Y-98102380D01*
X118047619Y-98102380D02*
X118047619Y-97102380D01*
X117952380Y-97245238D01*
X117857142Y-97340476D01*
X117761904Y-97388095D01*
X118952380Y-97102380D02*
X119047619Y-97102380D01*
X119142857Y-97150000D01*
X119190476Y-97197619D01*
X119238095Y-97292857D01*
X119285714Y-97483333D01*
X119285714Y-97721428D01*
X119238095Y-97911904D01*
X119190476Y-98007142D01*
X119142857Y-98054761D01*
X119047619Y-98102380D01*
X118952380Y-98102380D01*
X118857142Y-98054761D01*
X118809523Y-98007142D01*
X118761904Y-97911904D01*
X118714285Y-97721428D01*
X118714285Y-97483333D01*
X118761904Y-97292857D01*
X118809523Y-97197619D01*
X118857142Y-97150000D01*
X118952380Y-97102380D01*
X119904761Y-97102380D02*
X120000000Y-97102380D01*
X120095238Y-97150000D01*
X120142857Y-97197619D01*
X120190476Y-97292857D01*
X120238095Y-97483333D01*
X120238095Y-97721428D01*
X120190476Y-97911904D01*
X120142857Y-98007142D01*
X120095238Y-98054761D01*
X120000000Y-98102380D01*
X119904761Y-98102380D01*
X119809523Y-98054761D01*
X119761904Y-98007142D01*
X119714285Y-97911904D01*
X119666666Y-97721428D01*
X119666666Y-97483333D01*
X119714285Y-97292857D01*
X119761904Y-97197619D01*
X119809523Y-97150000D01*
X119904761Y-97102380D01*
D14*
X118916666Y-96226190D02*
X118750000Y-95988095D01*
X118630952Y-96226190D02*
X118630952Y-95726190D01*
X118821428Y-95726190D01*
X118869047Y-95750000D01*
X118892857Y-95773809D01*
X118916666Y-95821428D01*
X118916666Y-95892857D01*
X118892857Y-95940476D01*
X118869047Y-95964285D01*
X118821428Y-95988095D01*
X118630952Y-95988095D01*
X119345238Y-95726190D02*
X119250000Y-95726190D01*
X119202380Y-95750000D01*
X119178571Y-95773809D01*
X119130952Y-95845238D01*
X119107142Y-95940476D01*
X119107142Y-96130952D01*
X119130952Y-96178571D01*
X119154761Y-96202380D01*
X119202380Y-96226190D01*
X119297619Y-96226190D01*
X119345238Y-96202380D01*
X119369047Y-96178571D01*
X119392857Y-96130952D01*
X119392857Y-96011904D01*
X119369047Y-95964285D01*
X119345238Y-95940476D01*
X119297619Y-95916666D01*
X119202380Y-95916666D01*
X119154761Y-95940476D01*
X119130952Y-95964285D01*
X119107142Y-96011904D01*
%TO.C,R5*%
D12*
X108333333Y-98102380D02*
X107761904Y-98102380D01*
X108047619Y-98102380D02*
X108047619Y-97102380D01*
X107952380Y-97245238D01*
X107857142Y-97340476D01*
X107761904Y-97388095D01*
X108952380Y-97102380D02*
X109047619Y-97102380D01*
X109142857Y-97150000D01*
X109190476Y-97197619D01*
X109238095Y-97292857D01*
X109285714Y-97483333D01*
X109285714Y-97721428D01*
X109238095Y-97911904D01*
X109190476Y-98007142D01*
X109142857Y-98054761D01*
X109047619Y-98102380D01*
X108952380Y-98102380D01*
X108857142Y-98054761D01*
X108809523Y-98007142D01*
X108761904Y-97911904D01*
X108714285Y-97721428D01*
X108714285Y-97483333D01*
X108761904Y-97292857D01*
X108809523Y-97197619D01*
X108857142Y-97150000D01*
X108952380Y-97102380D01*
X109904761Y-97102380D02*
X110000000Y-97102380D01*
X110095238Y-97150000D01*
X110142857Y-97197619D01*
X110190476Y-97292857D01*
X110238095Y-97483333D01*
X110238095Y-97721428D01*
X110190476Y-97911904D01*
X110142857Y-98007142D01*
X110095238Y-98054761D01*
X110000000Y-98102380D01*
X109904761Y-98102380D01*
X109809523Y-98054761D01*
X109761904Y-98007142D01*
X109714285Y-97911904D01*
X109666666Y-97721428D01*
X109666666Y-97483333D01*
X109714285Y-97292857D01*
X109761904Y-97197619D01*
X109809523Y-97150000D01*
X109904761Y-97102380D01*
D14*
X108916666Y-96226190D02*
X108750000Y-95988095D01*
X108630952Y-96226190D02*
X108630952Y-95726190D01*
X108821428Y-95726190D01*
X108869047Y-95750000D01*
X108892857Y-95773809D01*
X108916666Y-95821428D01*
X108916666Y-95892857D01*
X108892857Y-95940476D01*
X108869047Y-95964285D01*
X108821428Y-95988095D01*
X108630952Y-95988095D01*
X109369047Y-95726190D02*
X109130952Y-95726190D01*
X109107142Y-95964285D01*
X109130952Y-95940476D01*
X109178571Y-95916666D01*
X109297619Y-95916666D01*
X109345238Y-95940476D01*
X109369047Y-95964285D01*
X109392857Y-96011904D01*
X109392857Y-96130952D01*
X109369047Y-96178571D01*
X109345238Y-96202380D01*
X109297619Y-96226190D01*
X109178571Y-96226190D01*
X109130952Y-96202380D01*
X109107142Y-96178571D01*
%TO.C,R4*%
D12*
X143333333Y-112102380D02*
X142761904Y-112102380D01*
X143047619Y-112102380D02*
X143047619Y-111102380D01*
X142952380Y-111245238D01*
X142857142Y-111340476D01*
X142761904Y-111388095D01*
X143904761Y-111530952D02*
X143809523Y-111483333D01*
X143761904Y-111435714D01*
X143714285Y-111340476D01*
X143714285Y-111292857D01*
X143761904Y-111197619D01*
X143809523Y-111150000D01*
X143904761Y-111102380D01*
X144095238Y-111102380D01*
X144190476Y-111150000D01*
X144238095Y-111197619D01*
X144285714Y-111292857D01*
X144285714Y-111340476D01*
X144238095Y-111435714D01*
X144190476Y-111483333D01*
X144095238Y-111530952D01*
X143904761Y-111530952D01*
X143809523Y-111578571D01*
X143761904Y-111626190D01*
X143714285Y-111721428D01*
X143714285Y-111911904D01*
X143761904Y-112007142D01*
X143809523Y-112054761D01*
X143904761Y-112102380D01*
X144095238Y-112102380D01*
X144190476Y-112054761D01*
X144238095Y-112007142D01*
X144285714Y-111911904D01*
X144285714Y-111721428D01*
X144238095Y-111626190D01*
X144190476Y-111578571D01*
X144095238Y-111530952D01*
X144904761Y-111102380D02*
X145000000Y-111102380D01*
X145095238Y-111150000D01*
X145142857Y-111197619D01*
X145190476Y-111292857D01*
X145238095Y-111483333D01*
X145238095Y-111721428D01*
X145190476Y-111911904D01*
X145142857Y-112007142D01*
X145095238Y-112054761D01*
X145000000Y-112102380D01*
X144904761Y-112102380D01*
X144809523Y-112054761D01*
X144761904Y-112007142D01*
X144714285Y-111911904D01*
X144666666Y-111721428D01*
X144666666Y-111483333D01*
X144714285Y-111292857D01*
X144761904Y-111197619D01*
X144809523Y-111150000D01*
X144904761Y-111102380D01*
D14*
X143916666Y-110226190D02*
X143750000Y-109988095D01*
X143630952Y-110226190D02*
X143630952Y-109726190D01*
X143821428Y-109726190D01*
X143869047Y-109750000D01*
X143892857Y-109773809D01*
X143916666Y-109821428D01*
X143916666Y-109892857D01*
X143892857Y-109940476D01*
X143869047Y-109964285D01*
X143821428Y-109988095D01*
X143630952Y-109988095D01*
X144345238Y-109892857D02*
X144345238Y-110226190D01*
X144226190Y-109702380D02*
X144107142Y-110059523D01*
X144416666Y-110059523D01*
%TO.C,R3*%
D12*
X133333333Y-112102380D02*
X132761904Y-112102380D01*
X133047619Y-112102380D02*
X133047619Y-111102380D01*
X132952380Y-111245238D01*
X132857142Y-111340476D01*
X132761904Y-111388095D01*
X133904761Y-111530952D02*
X133809523Y-111483333D01*
X133761904Y-111435714D01*
X133714285Y-111340476D01*
X133714285Y-111292857D01*
X133761904Y-111197619D01*
X133809523Y-111150000D01*
X133904761Y-111102380D01*
X134095238Y-111102380D01*
X134190476Y-111150000D01*
X134238095Y-111197619D01*
X134285714Y-111292857D01*
X134285714Y-111340476D01*
X134238095Y-111435714D01*
X134190476Y-111483333D01*
X134095238Y-111530952D01*
X133904761Y-111530952D01*
X133809523Y-111578571D01*
X133761904Y-111626190D01*
X133714285Y-111721428D01*
X133714285Y-111911904D01*
X133761904Y-112007142D01*
X133809523Y-112054761D01*
X133904761Y-112102380D01*
X134095238Y-112102380D01*
X134190476Y-112054761D01*
X134238095Y-112007142D01*
X134285714Y-111911904D01*
X134285714Y-111721428D01*
X134238095Y-111626190D01*
X134190476Y-111578571D01*
X134095238Y-111530952D01*
X134904761Y-111102380D02*
X135000000Y-111102380D01*
X135095238Y-111150000D01*
X135142857Y-111197619D01*
X135190476Y-111292857D01*
X135238095Y-111483333D01*
X135238095Y-111721428D01*
X135190476Y-111911904D01*
X135142857Y-112007142D01*
X135095238Y-112054761D01*
X135000000Y-112102380D01*
X134904761Y-112102380D01*
X134809523Y-112054761D01*
X134761904Y-112007142D01*
X134714285Y-111911904D01*
X134666666Y-111721428D01*
X134666666Y-111483333D01*
X134714285Y-111292857D01*
X134761904Y-111197619D01*
X134809523Y-111150000D01*
X134904761Y-111102380D01*
D14*
X133916666Y-110226190D02*
X133750000Y-109988095D01*
X133630952Y-110226190D02*
X133630952Y-109726190D01*
X133821428Y-109726190D01*
X133869047Y-109750000D01*
X133892857Y-109773809D01*
X133916666Y-109821428D01*
X133916666Y-109892857D01*
X133892857Y-109940476D01*
X133869047Y-109964285D01*
X133821428Y-109988095D01*
X133630952Y-109988095D01*
X134083333Y-109726190D02*
X134392857Y-109726190D01*
X134226190Y-109916666D01*
X134297619Y-109916666D01*
X134345238Y-109940476D01*
X134369047Y-109964285D01*
X134392857Y-110011904D01*
X134392857Y-110130952D01*
X134369047Y-110178571D01*
X134345238Y-110202380D01*
X134297619Y-110226190D01*
X134154761Y-110226190D01*
X134107142Y-110202380D01*
X134083333Y-110178571D01*
%TO.C,R2*%
D12*
X123333333Y-112102380D02*
X122761904Y-112102380D01*
X123047619Y-112102380D02*
X123047619Y-111102380D01*
X122952380Y-111245238D01*
X122857142Y-111340476D01*
X122761904Y-111388095D01*
X123904761Y-111530952D02*
X123809523Y-111483333D01*
X123761904Y-111435714D01*
X123714285Y-111340476D01*
X123714285Y-111292857D01*
X123761904Y-111197619D01*
X123809523Y-111150000D01*
X123904761Y-111102380D01*
X124095238Y-111102380D01*
X124190476Y-111150000D01*
X124238095Y-111197619D01*
X124285714Y-111292857D01*
X124285714Y-111340476D01*
X124238095Y-111435714D01*
X124190476Y-111483333D01*
X124095238Y-111530952D01*
X123904761Y-111530952D01*
X123809523Y-111578571D01*
X123761904Y-111626190D01*
X123714285Y-111721428D01*
X123714285Y-111911904D01*
X123761904Y-112007142D01*
X123809523Y-112054761D01*
X123904761Y-112102380D01*
X124095238Y-112102380D01*
X124190476Y-112054761D01*
X124238095Y-112007142D01*
X124285714Y-111911904D01*
X124285714Y-111721428D01*
X124238095Y-111626190D01*
X124190476Y-111578571D01*
X124095238Y-111530952D01*
X124904761Y-111102380D02*
X125000000Y-111102380D01*
X125095238Y-111150000D01*
X125142857Y-111197619D01*
X125190476Y-111292857D01*
X125238095Y-111483333D01*
X125238095Y-111721428D01*
X125190476Y-111911904D01*
X125142857Y-112007142D01*
X125095238Y-112054761D01*
X125000000Y-112102380D01*
X124904761Y-112102380D01*
X124809523Y-112054761D01*
X124761904Y-112007142D01*
X124714285Y-111911904D01*
X124666666Y-111721428D01*
X124666666Y-111483333D01*
X124714285Y-111292857D01*
X124761904Y-111197619D01*
X124809523Y-111150000D01*
X124904761Y-111102380D01*
D14*
X123916666Y-110226190D02*
X123750000Y-109988095D01*
X123630952Y-110226190D02*
X123630952Y-109726190D01*
X123821428Y-109726190D01*
X123869047Y-109750000D01*
X123892857Y-109773809D01*
X123916666Y-109821428D01*
X123916666Y-109892857D01*
X123892857Y-109940476D01*
X123869047Y-109964285D01*
X123821428Y-109988095D01*
X123630952Y-109988095D01*
X124107142Y-109773809D02*
X124130952Y-109750000D01*
X124178571Y-109726190D01*
X124297619Y-109726190D01*
X124345238Y-109750000D01*
X124369047Y-109773809D01*
X124392857Y-109821428D01*
X124392857Y-109869047D01*
X124369047Y-109940476D01*
X124083333Y-110226190D01*
X124392857Y-110226190D01*
%TO.C,R1*%
D12*
X113333333Y-112102380D02*
X112761904Y-112102380D01*
X113047619Y-112102380D02*
X113047619Y-111102380D01*
X112952380Y-111245238D01*
X112857142Y-111340476D01*
X112761904Y-111388095D01*
X113904761Y-111530952D02*
X113809523Y-111483333D01*
X113761904Y-111435714D01*
X113714285Y-111340476D01*
X113714285Y-111292857D01*
X113761904Y-111197619D01*
X113809523Y-111150000D01*
X113904761Y-111102380D01*
X114095238Y-111102380D01*
X114190476Y-111150000D01*
X114238095Y-111197619D01*
X114285714Y-111292857D01*
X114285714Y-111340476D01*
X114238095Y-111435714D01*
X114190476Y-111483333D01*
X114095238Y-111530952D01*
X113904761Y-111530952D01*
X113809523Y-111578571D01*
X113761904Y-111626190D01*
X113714285Y-111721428D01*
X113714285Y-111911904D01*
X113761904Y-112007142D01*
X113809523Y-112054761D01*
X113904761Y-112102380D01*
X114095238Y-112102380D01*
X114190476Y-112054761D01*
X114238095Y-112007142D01*
X114285714Y-111911904D01*
X114285714Y-111721428D01*
X114238095Y-111626190D01*
X114190476Y-111578571D01*
X114095238Y-111530952D01*
X114904761Y-111102380D02*
X115000000Y-111102380D01*
X115095238Y-111150000D01*
X115142857Y-111197619D01*
X115190476Y-111292857D01*
X115238095Y-111483333D01*
X115238095Y-111721428D01*
X115190476Y-111911904D01*
X115142857Y-112007142D01*
X115095238Y-112054761D01*
X115000000Y-112102380D01*
X114904761Y-112102380D01*
X114809523Y-112054761D01*
X114761904Y-112007142D01*
X114714285Y-111911904D01*
X114666666Y-111721428D01*
X114666666Y-111483333D01*
X114714285Y-111292857D01*
X114761904Y-111197619D01*
X114809523Y-111150000D01*
X114904761Y-111102380D01*
D14*
X113916666Y-110226190D02*
X113750000Y-109988095D01*
X113630952Y-110226190D02*
X113630952Y-109726190D01*
X113821428Y-109726190D01*
X113869047Y-109750000D01*
X113892857Y-109773809D01*
X113916666Y-109821428D01*
X113916666Y-109892857D01*
X113892857Y-109940476D01*
X113869047Y-109964285D01*
X113821428Y-109988095D01*
X113630952Y-109988095D01*
X114392857Y-110226190D02*
X114107142Y-110226190D01*
X114250000Y-110226190D02*
X114250000Y-109726190D01*
X114202380Y-109797619D01*
X114154761Y-109845238D01*
X114107142Y-109869047D01*
%TO.C,D4*%
D12*
X152857142Y-83052380D02*
X152285714Y-83052380D01*
X152571428Y-83052380D02*
X152571428Y-82052380D01*
X152476190Y-82195238D01*
X152380952Y-82290476D01*
X152285714Y-82338095D01*
X153285714Y-83052380D02*
X153285714Y-82052380D01*
X153857142Y-83052380D01*
X153857142Y-82052380D01*
X154761904Y-82385714D02*
X154761904Y-83052380D01*
X154523809Y-82004761D02*
X154285714Y-82719047D01*
X154904761Y-82719047D01*
X155809523Y-83052380D02*
X155238095Y-83052380D01*
X155523809Y-83052380D02*
X155523809Y-82052380D01*
X155428571Y-82195238D01*
X155333333Y-82290476D01*
X155238095Y-82338095D01*
X156666666Y-82385714D02*
X156666666Y-83052380D01*
X156428571Y-82004761D02*
X156190476Y-82719047D01*
X156809523Y-82719047D01*
X157333333Y-82480952D02*
X157238095Y-82433333D01*
X157190476Y-82385714D01*
X157142857Y-82290476D01*
X157142857Y-82242857D01*
X157190476Y-82147619D01*
X157238095Y-82100000D01*
X157333333Y-82052380D01*
X157523809Y-82052380D01*
X157619047Y-82100000D01*
X157666666Y-82147619D01*
X157714285Y-82242857D01*
X157714285Y-82290476D01*
X157666666Y-82385714D01*
X157619047Y-82433333D01*
X157523809Y-82480952D01*
X157333333Y-82480952D01*
X157238095Y-82528571D01*
X157190476Y-82576190D01*
X157142857Y-82671428D01*
X157142857Y-82861904D01*
X157190476Y-82957142D01*
X157238095Y-83004761D01*
X157333333Y-83052380D01*
X157523809Y-83052380D01*
X157619047Y-83004761D01*
X157666666Y-82957142D01*
X157714285Y-82861904D01*
X157714285Y-82671428D01*
X157666666Y-82576190D01*
X157619047Y-82528571D01*
X157523809Y-82480952D01*
X154261904Y-79952380D02*
X154261904Y-78952380D01*
X154500000Y-78952380D01*
X154642857Y-79000000D01*
X154738095Y-79095238D01*
X154785714Y-79190476D01*
X154833333Y-79380952D01*
X154833333Y-79523809D01*
X154785714Y-79714285D01*
X154738095Y-79809523D01*
X154642857Y-79904761D01*
X154500000Y-79952380D01*
X154261904Y-79952380D01*
X155690476Y-79285714D02*
X155690476Y-79952380D01*
X155452380Y-78904761D02*
X155214285Y-79619047D01*
X155833333Y-79619047D01*
%TO.C,D3*%
X140857142Y-83052380D02*
X140285714Y-83052380D01*
X140571428Y-83052380D02*
X140571428Y-82052380D01*
X140476190Y-82195238D01*
X140380952Y-82290476D01*
X140285714Y-82338095D01*
X141285714Y-83052380D02*
X141285714Y-82052380D01*
X141857142Y-83052380D01*
X141857142Y-82052380D01*
X142761904Y-82385714D02*
X142761904Y-83052380D01*
X142523809Y-82004761D02*
X142285714Y-82719047D01*
X142904761Y-82719047D01*
X143809523Y-83052380D02*
X143238095Y-83052380D01*
X143523809Y-83052380D02*
X143523809Y-82052380D01*
X143428571Y-82195238D01*
X143333333Y-82290476D01*
X143238095Y-82338095D01*
X144666666Y-82385714D02*
X144666666Y-83052380D01*
X144428571Y-82004761D02*
X144190476Y-82719047D01*
X144809523Y-82719047D01*
X145333333Y-82480952D02*
X145238095Y-82433333D01*
X145190476Y-82385714D01*
X145142857Y-82290476D01*
X145142857Y-82242857D01*
X145190476Y-82147619D01*
X145238095Y-82100000D01*
X145333333Y-82052380D01*
X145523809Y-82052380D01*
X145619047Y-82100000D01*
X145666666Y-82147619D01*
X145714285Y-82242857D01*
X145714285Y-82290476D01*
X145666666Y-82385714D01*
X145619047Y-82433333D01*
X145523809Y-82480952D01*
X145333333Y-82480952D01*
X145238095Y-82528571D01*
X145190476Y-82576190D01*
X145142857Y-82671428D01*
X145142857Y-82861904D01*
X145190476Y-82957142D01*
X145238095Y-83004761D01*
X145333333Y-83052380D01*
X145523809Y-83052380D01*
X145619047Y-83004761D01*
X145666666Y-82957142D01*
X145714285Y-82861904D01*
X145714285Y-82671428D01*
X145666666Y-82576190D01*
X145619047Y-82528571D01*
X145523809Y-82480952D01*
X142261904Y-79952380D02*
X142261904Y-78952380D01*
X142500000Y-78952380D01*
X142642857Y-79000000D01*
X142738095Y-79095238D01*
X142785714Y-79190476D01*
X142833333Y-79380952D01*
X142833333Y-79523809D01*
X142785714Y-79714285D01*
X142738095Y-79809523D01*
X142642857Y-79904761D01*
X142500000Y-79952380D01*
X142261904Y-79952380D01*
X143166666Y-78952380D02*
X143785714Y-78952380D01*
X143452380Y-79333333D01*
X143595238Y-79333333D01*
X143690476Y-79380952D01*
X143738095Y-79428571D01*
X143785714Y-79523809D01*
X143785714Y-79761904D01*
X143738095Y-79857142D01*
X143690476Y-79904761D01*
X143595238Y-79952380D01*
X143309523Y-79952380D01*
X143214285Y-79904761D01*
X143166666Y-79857142D01*
%TO.C,D2*%
X130857142Y-83052380D02*
X130285714Y-83052380D01*
X130571428Y-83052380D02*
X130571428Y-82052380D01*
X130476190Y-82195238D01*
X130380952Y-82290476D01*
X130285714Y-82338095D01*
X131285714Y-83052380D02*
X131285714Y-82052380D01*
X131857142Y-83052380D01*
X131857142Y-82052380D01*
X132761904Y-82385714D02*
X132761904Y-83052380D01*
X132523809Y-82004761D02*
X132285714Y-82719047D01*
X132904761Y-82719047D01*
X133809523Y-83052380D02*
X133238095Y-83052380D01*
X133523809Y-83052380D02*
X133523809Y-82052380D01*
X133428571Y-82195238D01*
X133333333Y-82290476D01*
X133238095Y-82338095D01*
X134666666Y-82385714D02*
X134666666Y-83052380D01*
X134428571Y-82004761D02*
X134190476Y-82719047D01*
X134809523Y-82719047D01*
X135333333Y-82480952D02*
X135238095Y-82433333D01*
X135190476Y-82385714D01*
X135142857Y-82290476D01*
X135142857Y-82242857D01*
X135190476Y-82147619D01*
X135238095Y-82100000D01*
X135333333Y-82052380D01*
X135523809Y-82052380D01*
X135619047Y-82100000D01*
X135666666Y-82147619D01*
X135714285Y-82242857D01*
X135714285Y-82290476D01*
X135666666Y-82385714D01*
X135619047Y-82433333D01*
X135523809Y-82480952D01*
X135333333Y-82480952D01*
X135238095Y-82528571D01*
X135190476Y-82576190D01*
X135142857Y-82671428D01*
X135142857Y-82861904D01*
X135190476Y-82957142D01*
X135238095Y-83004761D01*
X135333333Y-83052380D01*
X135523809Y-83052380D01*
X135619047Y-83004761D01*
X135666666Y-82957142D01*
X135714285Y-82861904D01*
X135714285Y-82671428D01*
X135666666Y-82576190D01*
X135619047Y-82528571D01*
X135523809Y-82480952D01*
X132261904Y-79952380D02*
X132261904Y-78952380D01*
X132500000Y-78952380D01*
X132642857Y-79000000D01*
X132738095Y-79095238D01*
X132785714Y-79190476D01*
X132833333Y-79380952D01*
X132833333Y-79523809D01*
X132785714Y-79714285D01*
X132738095Y-79809523D01*
X132642857Y-79904761D01*
X132500000Y-79952380D01*
X132261904Y-79952380D01*
X133214285Y-79047619D02*
X133261904Y-79000000D01*
X133357142Y-78952380D01*
X133595238Y-78952380D01*
X133690476Y-79000000D01*
X133738095Y-79047619D01*
X133785714Y-79142857D01*
X133785714Y-79238095D01*
X133738095Y-79380952D01*
X133166666Y-79952380D01*
X133785714Y-79952380D01*
%TO.C,D1*%
X120857142Y-83052380D02*
X120285714Y-83052380D01*
X120571428Y-83052380D02*
X120571428Y-82052380D01*
X120476190Y-82195238D01*
X120380952Y-82290476D01*
X120285714Y-82338095D01*
X121285714Y-83052380D02*
X121285714Y-82052380D01*
X121857142Y-83052380D01*
X121857142Y-82052380D01*
X122761904Y-82385714D02*
X122761904Y-83052380D01*
X122523809Y-82004761D02*
X122285714Y-82719047D01*
X122904761Y-82719047D01*
X123809523Y-83052380D02*
X123238095Y-83052380D01*
X123523809Y-83052380D02*
X123523809Y-82052380D01*
X123428571Y-82195238D01*
X123333333Y-82290476D01*
X123238095Y-82338095D01*
X124666666Y-82385714D02*
X124666666Y-83052380D01*
X124428571Y-82004761D02*
X124190476Y-82719047D01*
X124809523Y-82719047D01*
X125333333Y-82480952D02*
X125238095Y-82433333D01*
X125190476Y-82385714D01*
X125142857Y-82290476D01*
X125142857Y-82242857D01*
X125190476Y-82147619D01*
X125238095Y-82100000D01*
X125333333Y-82052380D01*
X125523809Y-82052380D01*
X125619047Y-82100000D01*
X125666666Y-82147619D01*
X125714285Y-82242857D01*
X125714285Y-82290476D01*
X125666666Y-82385714D01*
X125619047Y-82433333D01*
X125523809Y-82480952D01*
X125333333Y-82480952D01*
X125238095Y-82528571D01*
X125190476Y-82576190D01*
X125142857Y-82671428D01*
X125142857Y-82861904D01*
X125190476Y-82957142D01*
X125238095Y-83004761D01*
X125333333Y-83052380D01*
X125523809Y-83052380D01*
X125619047Y-83004761D01*
X125666666Y-82957142D01*
X125714285Y-82861904D01*
X125714285Y-82671428D01*
X125666666Y-82576190D01*
X125619047Y-82528571D01*
X125523809Y-82480952D01*
X122261904Y-79952380D02*
X122261904Y-78952380D01*
X122500000Y-78952380D01*
X122642857Y-79000000D01*
X122738095Y-79095238D01*
X122785714Y-79190476D01*
X122833333Y-79380952D01*
X122833333Y-79523809D01*
X122785714Y-79714285D01*
X122738095Y-79809523D01*
X122642857Y-79904761D01*
X122500000Y-79952380D01*
X122261904Y-79952380D01*
X123785714Y-79952380D02*
X123214285Y-79952380D01*
X123500000Y-79952380D02*
X123500000Y-78952380D01*
X123404761Y-79095238D01*
X123309523Y-79190476D01*
X123214285Y-79238095D01*
%TO.C,Q4*%
X152659047Y-89552380D02*
X152659047Y-88552380D01*
X153706666Y-89552380D02*
X153373333Y-89076190D01*
X153135238Y-89552380D02*
X153135238Y-88552380D01*
X153516190Y-88552380D01*
X153611428Y-88600000D01*
X153659047Y-88647619D01*
X153706666Y-88742857D01*
X153706666Y-88885714D01*
X153659047Y-88980952D01*
X153611428Y-89028571D01*
X153516190Y-89076190D01*
X153135238Y-89076190D01*
X154468571Y-89028571D02*
X154135238Y-89028571D01*
X154135238Y-89552380D02*
X154135238Y-88552380D01*
X154611428Y-88552380D01*
X155468571Y-88552380D02*
X154992380Y-88552380D01*
X154944761Y-89028571D01*
X154992380Y-88980952D01*
X155087619Y-88933333D01*
X155325714Y-88933333D01*
X155420952Y-88980952D01*
X155468571Y-89028571D01*
X155516190Y-89123809D01*
X155516190Y-89361904D01*
X155468571Y-89457142D01*
X155420952Y-89504761D01*
X155325714Y-89552380D01*
X155087619Y-89552380D01*
X154992380Y-89504761D01*
X154944761Y-89457142D01*
X156373333Y-88885714D02*
X156373333Y-89552380D01*
X156135238Y-88504761D02*
X155897142Y-89219047D01*
X156516190Y-89219047D01*
X157087619Y-88552380D02*
X157182857Y-88552380D01*
X157278095Y-88600000D01*
X157325714Y-88647619D01*
X157373333Y-88742857D01*
X157420952Y-88933333D01*
X157420952Y-89171428D01*
X157373333Y-89361904D01*
X157325714Y-89457142D01*
X157278095Y-89504761D01*
X157182857Y-89552380D01*
X157087619Y-89552380D01*
X156992380Y-89504761D01*
X156944761Y-89457142D01*
X156897142Y-89361904D01*
X156849523Y-89171428D01*
X156849523Y-88933333D01*
X156897142Y-88742857D01*
X156944761Y-88647619D01*
X156992380Y-88600000D01*
X157087619Y-88552380D01*
X157849523Y-89552380D02*
X157849523Y-88552380D01*
X158420952Y-89552380D01*
X158420952Y-88552380D01*
X149547619Y-86095238D02*
X149500000Y-86190476D01*
X149404761Y-86285714D01*
X149261904Y-86428571D01*
X149214285Y-86523809D01*
X149214285Y-86619047D01*
X149452380Y-86571428D02*
X149404761Y-86666666D01*
X149309523Y-86761904D01*
X149119047Y-86809523D01*
X148785714Y-86809523D01*
X148595238Y-86761904D01*
X148500000Y-86666666D01*
X148452380Y-86571428D01*
X148452380Y-86380952D01*
X148500000Y-86285714D01*
X148595238Y-86190476D01*
X148785714Y-86142857D01*
X149119047Y-86142857D01*
X149309523Y-86190476D01*
X149404761Y-86285714D01*
X149452380Y-86380952D01*
X149452380Y-86571428D01*
X148785714Y-85285714D02*
X149452380Y-85285714D01*
X148404761Y-85523809D02*
X149119047Y-85761904D01*
X149119047Y-85142857D01*
%TO.C,Q1*%
X119659047Y-89552380D02*
X119659047Y-88552380D01*
X120706666Y-89552380D02*
X120373333Y-89076190D01*
X120135238Y-89552380D02*
X120135238Y-88552380D01*
X120516190Y-88552380D01*
X120611428Y-88600000D01*
X120659047Y-88647619D01*
X120706666Y-88742857D01*
X120706666Y-88885714D01*
X120659047Y-88980952D01*
X120611428Y-89028571D01*
X120516190Y-89076190D01*
X120135238Y-89076190D01*
X121468571Y-89028571D02*
X121135238Y-89028571D01*
X121135238Y-89552380D02*
X121135238Y-88552380D01*
X121611428Y-88552380D01*
X122468571Y-88552380D02*
X121992380Y-88552380D01*
X121944761Y-89028571D01*
X121992380Y-88980952D01*
X122087619Y-88933333D01*
X122325714Y-88933333D01*
X122420952Y-88980952D01*
X122468571Y-89028571D01*
X122516190Y-89123809D01*
X122516190Y-89361904D01*
X122468571Y-89457142D01*
X122420952Y-89504761D01*
X122325714Y-89552380D01*
X122087619Y-89552380D01*
X121992380Y-89504761D01*
X121944761Y-89457142D01*
X123373333Y-88885714D02*
X123373333Y-89552380D01*
X123135238Y-88504761D02*
X122897142Y-89219047D01*
X123516190Y-89219047D01*
X124087619Y-88552380D02*
X124182857Y-88552380D01*
X124278095Y-88600000D01*
X124325714Y-88647619D01*
X124373333Y-88742857D01*
X124420952Y-88933333D01*
X124420952Y-89171428D01*
X124373333Y-89361904D01*
X124325714Y-89457142D01*
X124278095Y-89504761D01*
X124182857Y-89552380D01*
X124087619Y-89552380D01*
X123992380Y-89504761D01*
X123944761Y-89457142D01*
X123897142Y-89361904D01*
X123849523Y-89171428D01*
X123849523Y-88933333D01*
X123897142Y-88742857D01*
X123944761Y-88647619D01*
X123992380Y-88600000D01*
X124087619Y-88552380D01*
X124849523Y-89552380D02*
X124849523Y-88552380D01*
X125420952Y-89552380D01*
X125420952Y-88552380D01*
X116547619Y-86095238D02*
X116500000Y-86190476D01*
X116404761Y-86285714D01*
X116261904Y-86428571D01*
X116214285Y-86523809D01*
X116214285Y-86619047D01*
X116452380Y-86571428D02*
X116404761Y-86666666D01*
X116309523Y-86761904D01*
X116119047Y-86809523D01*
X115785714Y-86809523D01*
X115595238Y-86761904D01*
X115500000Y-86666666D01*
X115452380Y-86571428D01*
X115452380Y-86380952D01*
X115500000Y-86285714D01*
X115595238Y-86190476D01*
X115785714Y-86142857D01*
X116119047Y-86142857D01*
X116309523Y-86190476D01*
X116404761Y-86285714D01*
X116452380Y-86380952D01*
X116452380Y-86571428D01*
X116452380Y-85190476D02*
X116452380Y-85761904D01*
X116452380Y-85476190D02*
X115452380Y-85476190D01*
X115595238Y-85571428D01*
X115690476Y-85666666D01*
X115738095Y-85761904D01*
%TO.C,U4*%
X146195714Y-104475714D02*
X146862380Y-104475714D01*
X145814761Y-104713809D02*
X146529047Y-104951904D01*
X146529047Y-104332857D01*
X146862380Y-103951904D02*
X145862380Y-103951904D01*
X146862380Y-103380476D01*
X145862380Y-103380476D01*
X145957619Y-102951904D02*
X145910000Y-102904285D01*
X145862380Y-102809047D01*
X145862380Y-102570952D01*
X145910000Y-102475714D01*
X145957619Y-102428095D01*
X146052857Y-102380476D01*
X146148095Y-102380476D01*
X146290952Y-102428095D01*
X146862380Y-102999523D01*
X146862380Y-102380476D01*
X145862380Y-101475714D02*
X145862380Y-101951904D01*
X146338571Y-101999523D01*
X146290952Y-101951904D01*
X146243333Y-101856666D01*
X146243333Y-101618571D01*
X146290952Y-101523333D01*
X146338571Y-101475714D01*
X146433809Y-101428095D01*
X146671904Y-101428095D01*
X146767142Y-101475714D01*
X146814761Y-101523333D01*
X146862380Y-101618571D01*
X146862380Y-101856666D01*
X146814761Y-101951904D01*
X146767142Y-101999523D01*
X140992380Y-103951904D02*
X141801904Y-103951904D01*
X141897142Y-103904285D01*
X141944761Y-103856666D01*
X141992380Y-103761428D01*
X141992380Y-103570952D01*
X141944761Y-103475714D01*
X141897142Y-103428095D01*
X141801904Y-103380476D01*
X140992380Y-103380476D01*
X141325714Y-102475714D02*
X141992380Y-102475714D01*
X140944761Y-102713809D02*
X141659047Y-102951904D01*
X141659047Y-102332857D01*
%TO.C,U2*%
X126195714Y-104475714D02*
X126862380Y-104475714D01*
X125814761Y-104713809D02*
X126529047Y-104951904D01*
X126529047Y-104332857D01*
X126862380Y-103951904D02*
X125862380Y-103951904D01*
X126862380Y-103380476D01*
X125862380Y-103380476D01*
X125957619Y-102951904D02*
X125910000Y-102904285D01*
X125862380Y-102809047D01*
X125862380Y-102570952D01*
X125910000Y-102475714D01*
X125957619Y-102428095D01*
X126052857Y-102380476D01*
X126148095Y-102380476D01*
X126290952Y-102428095D01*
X126862380Y-102999523D01*
X126862380Y-102380476D01*
X125862380Y-101475714D02*
X125862380Y-101951904D01*
X126338571Y-101999523D01*
X126290952Y-101951904D01*
X126243333Y-101856666D01*
X126243333Y-101618571D01*
X126290952Y-101523333D01*
X126338571Y-101475714D01*
X126433809Y-101428095D01*
X126671904Y-101428095D01*
X126767142Y-101475714D01*
X126814761Y-101523333D01*
X126862380Y-101618571D01*
X126862380Y-101856666D01*
X126814761Y-101951904D01*
X126767142Y-101999523D01*
X120992380Y-103951904D02*
X121801904Y-103951904D01*
X121897142Y-103904285D01*
X121944761Y-103856666D01*
X121992380Y-103761428D01*
X121992380Y-103570952D01*
X121944761Y-103475714D01*
X121897142Y-103428095D01*
X121801904Y-103380476D01*
X120992380Y-103380476D01*
X121087619Y-102951904D02*
X121040000Y-102904285D01*
X120992380Y-102809047D01*
X120992380Y-102570952D01*
X121040000Y-102475714D01*
X121087619Y-102428095D01*
X121182857Y-102380476D01*
X121278095Y-102380476D01*
X121420952Y-102428095D01*
X121992380Y-102999523D01*
X121992380Y-102380476D01*
%TO.C,U1*%
X116195714Y-104475714D02*
X116862380Y-104475714D01*
X115814761Y-104713809D02*
X116529047Y-104951904D01*
X116529047Y-104332857D01*
X116862380Y-103951904D02*
X115862380Y-103951904D01*
X116862380Y-103380476D01*
X115862380Y-103380476D01*
X115957619Y-102951904D02*
X115910000Y-102904285D01*
X115862380Y-102809047D01*
X115862380Y-102570952D01*
X115910000Y-102475714D01*
X115957619Y-102428095D01*
X116052857Y-102380476D01*
X116148095Y-102380476D01*
X116290952Y-102428095D01*
X116862380Y-102999523D01*
X116862380Y-102380476D01*
X115862380Y-101475714D02*
X115862380Y-101951904D01*
X116338571Y-101999523D01*
X116290952Y-101951904D01*
X116243333Y-101856666D01*
X116243333Y-101618571D01*
X116290952Y-101523333D01*
X116338571Y-101475714D01*
X116433809Y-101428095D01*
X116671904Y-101428095D01*
X116767142Y-101475714D01*
X116814761Y-101523333D01*
X116862380Y-101618571D01*
X116862380Y-101856666D01*
X116814761Y-101951904D01*
X116767142Y-101999523D01*
X110992380Y-103951904D02*
X111801904Y-103951904D01*
X111897142Y-103904285D01*
X111944761Y-103856666D01*
X111992380Y-103761428D01*
X111992380Y-103570952D01*
X111944761Y-103475714D01*
X111897142Y-103428095D01*
X111801904Y-103380476D01*
X110992380Y-103380476D01*
X111992380Y-102380476D02*
X111992380Y-102951904D01*
X111992380Y-102666190D02*
X110992380Y-102666190D01*
X111135238Y-102761428D01*
X111230476Y-102856666D01*
X111278095Y-102951904D01*
%TO.C,J4*%
X148297142Y-115833333D02*
X148344761Y-115880952D01*
X148392380Y-116023809D01*
X148392380Y-116119047D01*
X148344761Y-116261904D01*
X148249523Y-116357142D01*
X148154285Y-116404761D01*
X147963809Y-116452380D01*
X147820952Y-116452380D01*
X147630476Y-116404761D01*
X147535238Y-116357142D01*
X147440000Y-116261904D01*
X147392380Y-116119047D01*
X147392380Y-116023809D01*
X147440000Y-115880952D01*
X147487619Y-115833333D01*
X148392380Y-115261904D02*
X148344761Y-115357142D01*
X148297142Y-115404761D01*
X148201904Y-115452380D01*
X147916190Y-115452380D01*
X147820952Y-115404761D01*
X147773333Y-115357142D01*
X147725714Y-115261904D01*
X147725714Y-115119047D01*
X147773333Y-115023809D01*
X147820952Y-114976190D01*
X147916190Y-114928571D01*
X148201904Y-114928571D01*
X148297142Y-114976190D01*
X148344761Y-115023809D01*
X148392380Y-115119047D01*
X148392380Y-115261904D01*
X147725714Y-114500000D02*
X148392380Y-114500000D01*
X147820952Y-114500000D02*
X147773333Y-114452380D01*
X147725714Y-114357142D01*
X147725714Y-114214285D01*
X147773333Y-114119047D01*
X147868571Y-114071428D01*
X148392380Y-114071428D01*
X147725714Y-113595238D02*
X148392380Y-113595238D01*
X147820952Y-113595238D02*
X147773333Y-113547619D01*
X147725714Y-113452380D01*
X147725714Y-113309523D01*
X147773333Y-113214285D01*
X147868571Y-113166666D01*
X148392380Y-113166666D01*
X148487619Y-112928571D02*
X148487619Y-112166666D01*
X147392380Y-111738095D02*
X147392380Y-111642857D01*
X147440000Y-111547619D01*
X147487619Y-111500000D01*
X147582857Y-111452380D01*
X147773333Y-111404761D01*
X148011428Y-111404761D01*
X148201904Y-111452380D01*
X148297142Y-111500000D01*
X148344761Y-111547619D01*
X148392380Y-111642857D01*
X148392380Y-111738095D01*
X148344761Y-111833333D01*
X148297142Y-111880952D01*
X148201904Y-111928571D01*
X148011428Y-111976190D01*
X147773333Y-111976190D01*
X147582857Y-111928571D01*
X147487619Y-111880952D01*
X147440000Y-111833333D01*
X147392380Y-111738095D01*
X148392380Y-110452380D02*
X148392380Y-111023809D01*
X148392380Y-110738095D02*
X147392380Y-110738095D01*
X147535238Y-110833333D01*
X147630476Y-110928571D01*
X147678095Y-111023809D01*
X148392380Y-110119047D02*
X147725714Y-109595238D01*
X147725714Y-110119047D02*
X148392380Y-109595238D01*
X147392380Y-109023809D02*
X147392380Y-108928571D01*
X147440000Y-108833333D01*
X147487619Y-108785714D01*
X147582857Y-108738095D01*
X147773333Y-108690476D01*
X148011428Y-108690476D01*
X148201904Y-108738095D01*
X148297142Y-108785714D01*
X148344761Y-108833333D01*
X148392380Y-108928571D01*
X148392380Y-109023809D01*
X148344761Y-109119047D01*
X148297142Y-109166666D01*
X148201904Y-109214285D01*
X148011428Y-109261904D01*
X147773333Y-109261904D01*
X147582857Y-109214285D01*
X147487619Y-109166666D01*
X147440000Y-109119047D01*
X147392380Y-109023809D01*
X147392380Y-107785714D02*
X147392380Y-108261904D01*
X147868571Y-108309523D01*
X147820952Y-108261904D01*
X147773333Y-108166666D01*
X147773333Y-107928571D01*
X147820952Y-107833333D01*
X147868571Y-107785714D01*
X147963809Y-107738095D01*
X148201904Y-107738095D01*
X148297142Y-107785714D01*
X148344761Y-107833333D01*
X148392380Y-107928571D01*
X148392380Y-108166666D01*
X148344761Y-108261904D01*
X148297142Y-108309523D01*
X148487619Y-107547619D02*
X148487619Y-106785714D01*
X148392380Y-106547619D02*
X147392380Y-106547619D01*
X148106666Y-106214285D01*
X147392380Y-105880952D01*
X148392380Y-105880952D01*
X148392380Y-104976190D02*
X147868571Y-104976190D01*
X147773333Y-105023809D01*
X147725714Y-105119047D01*
X147725714Y-105309523D01*
X147773333Y-105404761D01*
X148344761Y-104976190D02*
X148392380Y-105071428D01*
X148392380Y-105309523D01*
X148344761Y-105404761D01*
X148249523Y-105452380D01*
X148154285Y-105452380D01*
X148059047Y-105404761D01*
X148011428Y-105309523D01*
X148011428Y-105071428D01*
X147963809Y-104976190D01*
X148392380Y-104357142D02*
X148344761Y-104452380D01*
X148249523Y-104500000D01*
X147392380Y-104500000D01*
X148344761Y-103595238D02*
X148392380Y-103690476D01*
X148392380Y-103880952D01*
X148344761Y-103976190D01*
X148249523Y-104023809D01*
X147868571Y-104023809D01*
X147773333Y-103976190D01*
X147725714Y-103880952D01*
X147725714Y-103690476D01*
X147773333Y-103595238D01*
X147868571Y-103547619D01*
X147963809Y-103547619D01*
X148059047Y-104023809D01*
X153666666Y-109452380D02*
X153666666Y-110166666D01*
X153619047Y-110309523D01*
X153523809Y-110404761D01*
X153380952Y-110452380D01*
X153285714Y-110452380D01*
X154571428Y-109785714D02*
X154571428Y-110452380D01*
X154333333Y-109404761D02*
X154095238Y-110119047D01*
X154714285Y-110119047D01*
%TO.C,J1*%
X131141904Y-66744761D02*
X131284761Y-66792380D01*
X131522857Y-66792380D01*
X131618095Y-66744761D01*
X131665714Y-66697142D01*
X131713333Y-66601904D01*
X131713333Y-66506666D01*
X131665714Y-66411428D01*
X131618095Y-66363809D01*
X131522857Y-66316190D01*
X131332380Y-66268571D01*
X131237142Y-66220952D01*
X131189523Y-66173333D01*
X131141904Y-66078095D01*
X131141904Y-65982857D01*
X131189523Y-65887619D01*
X131237142Y-65840000D01*
X131332380Y-65792380D01*
X131570476Y-65792380D01*
X131713333Y-65840000D01*
X132570476Y-66744761D02*
X132475238Y-66792380D01*
X132284761Y-66792380D01*
X132189523Y-66744761D01*
X132141904Y-66697142D01*
X132094285Y-66601904D01*
X132094285Y-66316190D01*
X132141904Y-66220952D01*
X132189523Y-66173333D01*
X132284761Y-66125714D01*
X132475238Y-66125714D01*
X132570476Y-66173333D01*
X132999047Y-66792380D02*
X132999047Y-66125714D01*
X132999047Y-66316190D02*
X133046666Y-66220952D01*
X133094285Y-66173333D01*
X133189523Y-66125714D01*
X133284761Y-66125714D01*
X133999047Y-66744761D02*
X133903809Y-66792380D01*
X133713333Y-66792380D01*
X133618095Y-66744761D01*
X133570476Y-66649523D01*
X133570476Y-66268571D01*
X133618095Y-66173333D01*
X133713333Y-66125714D01*
X133903809Y-66125714D01*
X133999047Y-66173333D01*
X134046666Y-66268571D01*
X134046666Y-66363809D01*
X133570476Y-66459047D01*
X134380000Y-66125714D02*
X134570476Y-66792380D01*
X134760952Y-66316190D01*
X134951428Y-66792380D01*
X135141904Y-66125714D01*
X135284761Y-66887619D02*
X136046666Y-66887619D01*
X136141904Y-65792380D02*
X136713333Y-65792380D01*
X136427619Y-66792380D02*
X136427619Y-65792380D01*
X137427619Y-66744761D02*
X137332380Y-66792380D01*
X137141904Y-66792380D01*
X137046666Y-66744761D01*
X136999047Y-66649523D01*
X136999047Y-66268571D01*
X137046666Y-66173333D01*
X137141904Y-66125714D01*
X137332380Y-66125714D01*
X137427619Y-66173333D01*
X137475238Y-66268571D01*
X137475238Y-66363809D01*
X136999047Y-66459047D01*
X137903809Y-66792380D02*
X137903809Y-66125714D01*
X137903809Y-66316190D02*
X137951428Y-66220952D01*
X137999047Y-66173333D01*
X138094285Y-66125714D01*
X138189523Y-66125714D01*
X138522857Y-66792380D02*
X138522857Y-66125714D01*
X138522857Y-66220952D02*
X138570476Y-66173333D01*
X138665714Y-66125714D01*
X138808571Y-66125714D01*
X138903809Y-66173333D01*
X138951428Y-66268571D01*
X138951428Y-66792380D01*
X138951428Y-66268571D02*
X138999047Y-66173333D01*
X139094285Y-66125714D01*
X139237142Y-66125714D01*
X139332380Y-66173333D01*
X139380000Y-66268571D01*
X139380000Y-66792380D01*
X139856190Y-66792380D02*
X139856190Y-66125714D01*
X139856190Y-65792380D02*
X139808571Y-65840000D01*
X139856190Y-65887619D01*
X139903809Y-65840000D01*
X139856190Y-65792380D01*
X139856190Y-65887619D01*
X140332380Y-66125714D02*
X140332380Y-66792380D01*
X140332380Y-66220952D02*
X140380000Y-66173333D01*
X140475238Y-66125714D01*
X140618095Y-66125714D01*
X140713333Y-66173333D01*
X140760952Y-66268571D01*
X140760952Y-66792380D01*
X141665714Y-66792380D02*
X141665714Y-66268571D01*
X141618095Y-66173333D01*
X141522857Y-66125714D01*
X141332380Y-66125714D01*
X141237142Y-66173333D01*
X141665714Y-66744761D02*
X141570476Y-66792380D01*
X141332380Y-66792380D01*
X141237142Y-66744761D01*
X141189523Y-66649523D01*
X141189523Y-66554285D01*
X141237142Y-66459047D01*
X141332380Y-66411428D01*
X141570476Y-66411428D01*
X141665714Y-66363809D01*
X142284761Y-66792380D02*
X142189523Y-66744761D01*
X142141904Y-66649523D01*
X142141904Y-65792380D01*
X142427619Y-66887619D02*
X143189523Y-66887619D01*
X143618095Y-65792380D02*
X143713333Y-65792380D01*
X143808571Y-65840000D01*
X143856190Y-65887619D01*
X143903809Y-65982857D01*
X143951428Y-66173333D01*
X143951428Y-66411428D01*
X143903809Y-66601904D01*
X143856190Y-66697142D01*
X143808571Y-66744761D01*
X143713333Y-66792380D01*
X143618095Y-66792380D01*
X143522857Y-66744761D01*
X143475238Y-66697142D01*
X143427619Y-66601904D01*
X143380000Y-66411428D01*
X143380000Y-66173333D01*
X143427619Y-65982857D01*
X143475238Y-65887619D01*
X143522857Y-65840000D01*
X143618095Y-65792380D01*
X144903809Y-66792380D02*
X144332380Y-66792380D01*
X144618095Y-66792380D02*
X144618095Y-65792380D01*
X144522857Y-65935238D01*
X144427619Y-66030476D01*
X144332380Y-66078095D01*
X145237142Y-66792380D02*
X145760952Y-66125714D01*
X145237142Y-66125714D02*
X145760952Y-66792380D01*
X146332380Y-65792380D02*
X146427619Y-65792380D01*
X146522857Y-65840000D01*
X146570476Y-65887619D01*
X146618095Y-65982857D01*
X146665714Y-66173333D01*
X146665714Y-66411428D01*
X146618095Y-66601904D01*
X146570476Y-66697142D01*
X146522857Y-66744761D01*
X146427619Y-66792380D01*
X146332380Y-66792380D01*
X146237142Y-66744761D01*
X146189523Y-66697142D01*
X146141904Y-66601904D01*
X146094285Y-66411428D01*
X146094285Y-66173333D01*
X146141904Y-65982857D01*
X146189523Y-65887619D01*
X146237142Y-65840000D01*
X146332380Y-65792380D01*
X147522857Y-66125714D02*
X147522857Y-66792380D01*
X147284761Y-65744761D02*
X147046666Y-66459047D01*
X147665714Y-66459047D01*
X139046666Y-68252380D02*
X139046666Y-68966666D01*
X138999047Y-69109523D01*
X138903809Y-69204761D01*
X138760952Y-69252380D01*
X138665714Y-69252380D01*
X140046666Y-69252380D02*
X139475238Y-69252380D01*
X139760952Y-69252380D02*
X139760952Y-68252380D01*
X139665714Y-68395238D01*
X139570476Y-68490476D01*
X139475238Y-68538095D01*
%TO.C,J5*%
X148690476Y-100845714D02*
X149071428Y-100845714D01*
X148833333Y-100512380D02*
X148833333Y-101369523D01*
X148880952Y-101464761D01*
X148976190Y-101512380D01*
X149071428Y-101512380D01*
X149785714Y-101464761D02*
X149690476Y-101512380D01*
X149500000Y-101512380D01*
X149404761Y-101464761D01*
X149357142Y-101369523D01*
X149357142Y-100988571D01*
X149404761Y-100893333D01*
X149500000Y-100845714D01*
X149690476Y-100845714D01*
X149785714Y-100893333D01*
X149833333Y-100988571D01*
X149833333Y-101083809D01*
X149357142Y-101179047D01*
X150214285Y-101464761D02*
X150309523Y-101512380D01*
X150500000Y-101512380D01*
X150595238Y-101464761D01*
X150642857Y-101369523D01*
X150642857Y-101321904D01*
X150595238Y-101226666D01*
X150500000Y-101179047D01*
X150357142Y-101179047D01*
X150261904Y-101131428D01*
X150214285Y-101036190D01*
X150214285Y-100988571D01*
X150261904Y-100893333D01*
X150357142Y-100845714D01*
X150500000Y-100845714D01*
X150595238Y-100893333D01*
X150928571Y-100845714D02*
X151309523Y-100845714D01*
X151071428Y-100512380D02*
X151071428Y-101369523D01*
X151119047Y-101464761D01*
X151214285Y-101512380D01*
X151309523Y-101512380D01*
X149452380Y-99333333D02*
X150166666Y-99333333D01*
X150309523Y-99380952D01*
X150404761Y-99476190D01*
X150452380Y-99619047D01*
X150452380Y-99714285D01*
X149452380Y-98380952D02*
X149452380Y-98857142D01*
X149928571Y-98904761D01*
X149880952Y-98857142D01*
X149833333Y-98761904D01*
X149833333Y-98523809D01*
X149880952Y-98428571D01*
X149928571Y-98380952D01*
X150023809Y-98333333D01*
X150261904Y-98333333D01*
X150357142Y-98380952D01*
X150404761Y-98428571D01*
X150452380Y-98523809D01*
X150452380Y-98761904D01*
X150404761Y-98857142D01*
X150357142Y-98904761D01*
%TO.C,U5*%
X150166666Y-105716666D02*
X150642857Y-105716666D01*
X150071428Y-106002380D02*
X150404761Y-105002380D01*
X150738095Y-106002380D01*
X151071428Y-106002380D02*
X151071428Y-105002380D01*
X151309523Y-105002380D01*
X151452380Y-105050000D01*
X151547619Y-105145238D01*
X151595238Y-105240476D01*
X151642857Y-105430952D01*
X151642857Y-105573809D01*
X151595238Y-105764285D01*
X151547619Y-105859523D01*
X151452380Y-105954761D01*
X151309523Y-106002380D01*
X151071428Y-106002380D01*
X152023809Y-105954761D02*
X152166666Y-106002380D01*
X152404761Y-106002380D01*
X152500000Y-105954761D01*
X152547619Y-105907142D01*
X152595238Y-105811904D01*
X152595238Y-105716666D01*
X152547619Y-105621428D01*
X152500000Y-105573809D01*
X152404761Y-105526190D01*
X152214285Y-105478571D01*
X152119047Y-105430952D01*
X152071428Y-105383333D01*
X152023809Y-105288095D01*
X152023809Y-105192857D01*
X152071428Y-105097619D01*
X152119047Y-105050000D01*
X152214285Y-105002380D01*
X152452380Y-105002380D01*
X152595238Y-105050000D01*
X153547619Y-106002380D02*
X152976190Y-106002380D01*
X153261904Y-106002380D02*
X153261904Y-105002380D01*
X153166666Y-105145238D01*
X153071428Y-105240476D01*
X152976190Y-105288095D01*
X154166666Y-105002380D02*
X154261904Y-105002380D01*
X154357142Y-105050000D01*
X154404761Y-105097619D01*
X154452380Y-105192857D01*
X154500000Y-105383333D01*
X154500000Y-105621428D01*
X154452380Y-105811904D01*
X154404761Y-105907142D01*
X154357142Y-105954761D01*
X154261904Y-106002380D01*
X154166666Y-106002380D01*
X154071428Y-105954761D01*
X154023809Y-105907142D01*
X153976190Y-105811904D01*
X153928571Y-105621428D01*
X153928571Y-105383333D01*
X153976190Y-105192857D01*
X154023809Y-105097619D01*
X154071428Y-105050000D01*
X154166666Y-105002380D01*
X155452380Y-106002380D02*
X154880952Y-106002380D01*
X155166666Y-106002380D02*
X155166666Y-105002380D01*
X155071428Y-105145238D01*
X154976190Y-105240476D01*
X154880952Y-105288095D01*
X156357142Y-105002380D02*
X155880952Y-105002380D01*
X155833333Y-105478571D01*
X155880952Y-105430952D01*
X155976190Y-105383333D01*
X156214285Y-105383333D01*
X156309523Y-105430952D01*
X156357142Y-105478571D01*
X156404761Y-105573809D01*
X156404761Y-105811904D01*
X156357142Y-105907142D01*
X156309523Y-105954761D01*
X156214285Y-106002380D01*
X155976190Y-106002380D01*
X155880952Y-105954761D01*
X155833333Y-105907142D01*
X156833333Y-106002380D02*
X156833333Y-105002380D01*
X157309523Y-106002380D02*
X157309523Y-105002380D01*
X157547619Y-105002380D01*
X157690476Y-105050000D01*
X157785714Y-105145238D01*
X157833333Y-105240476D01*
X157880952Y-105430952D01*
X157880952Y-105573809D01*
X157833333Y-105764285D01*
X157785714Y-105859523D01*
X157690476Y-105954761D01*
X157547619Y-106002380D01*
X157309523Y-106002380D01*
X158833333Y-105050000D02*
X158738095Y-105002380D01*
X158595238Y-105002380D01*
X158452380Y-105050000D01*
X158357142Y-105145238D01*
X158309523Y-105240476D01*
X158261904Y-105430952D01*
X158261904Y-105573809D01*
X158309523Y-105764285D01*
X158357142Y-105859523D01*
X158452380Y-105954761D01*
X158595238Y-106002380D01*
X158690476Y-106002380D01*
X158833333Y-105954761D01*
X158880952Y-105907142D01*
X158880952Y-105573809D01*
X158690476Y-105573809D01*
X159261904Y-105954761D02*
X159404761Y-106002380D01*
X159642857Y-106002380D01*
X159738095Y-105954761D01*
X159785714Y-105907142D01*
X159833333Y-105811904D01*
X159833333Y-105716666D01*
X159785714Y-105621428D01*
X159738095Y-105573809D01*
X159642857Y-105526190D01*
X159452380Y-105478571D01*
X159357142Y-105430952D01*
X159309523Y-105383333D01*
X159261904Y-105288095D01*
X159261904Y-105192857D01*
X159309523Y-105097619D01*
X159357142Y-105050000D01*
X159452380Y-105002380D01*
X159690476Y-105002380D01*
X159833333Y-105050000D01*
X154542857Y-102671428D02*
X154542857Y-103157142D01*
X154571428Y-103214285D01*
X154600000Y-103242857D01*
X154657142Y-103271428D01*
X154771428Y-103271428D01*
X154828571Y-103242857D01*
X154857142Y-103214285D01*
X154885714Y-103157142D01*
X154885714Y-102671428D01*
X155457142Y-102671428D02*
X155171428Y-102671428D01*
X155142857Y-102957142D01*
X155171428Y-102928571D01*
X155228571Y-102900000D01*
X155371428Y-102900000D01*
X155428571Y-102928571D01*
X155457142Y-102957142D01*
X155485714Y-103014285D01*
X155485714Y-103157142D01*
X155457142Y-103214285D01*
X155428571Y-103242857D01*
X155371428Y-103271428D01*
X155228571Y-103271428D01*
X155171428Y-103242857D01*
X155142857Y-103214285D01*
%TD*%
M02*
