%TF.GenerationSoftware,KiCad,Pcbnew,5.1.7-a382d34a8~87~ubuntu18.04.1*%
%TF.CreationDate,2020-10-24T22:54:41-03:00*%
%TF.ProjectId,TP-CESE,54502d43-4553-4452-9e6b-696361645f70,1*%
%TF.SameCoordinates,Original*%
%TF.FileFunction,Soldermask,Top*%
%TF.FilePolarity,Negative*%
%FSLAX46Y46*%
G04 Gerber Fmt 4.6, Leading zero omitted, Abs format (unit mm)*
G04 Created by KiCad (PCBNEW 5.1.7-a382d34a8~87~ubuntu18.04.1) date 2020-10-24 22:54:41*
%MOMM*%
%LPD*%
G01*
G04 APERTURE LIST*
%TA.AperFunction,Profile*%
%ADD10C,0.050000*%
%TD*%
%ADD11C,2.000000*%
%ADD12O,2.100000X1.624000*%
%ADD13O,1.700000X1.700000*%
%ADD14O,2.005000X2.100000*%
%ADD15C,3.900000*%
%ADD16C,2.700000*%
%ADD17O,1.450000X1.450000*%
G04 APERTURE END LIST*
D10*
X158000000Y-128000000D02*
X158000000Y-126000000D01*
X176000000Y-128000000D02*
X158000000Y-128000000D01*
X176000000Y-126000000D02*
X176000000Y-128000000D01*
X111000000Y-128000000D02*
X111000000Y-126000000D01*
X89000000Y-128000000D02*
X111000000Y-128000000D01*
X89000000Y-126000000D02*
X89000000Y-128000000D01*
X176000000Y-67000000D02*
X174000000Y-67000000D01*
X176000000Y-126000000D02*
X176000000Y-67000000D01*
X158000000Y-116000000D02*
X158000000Y-126000000D01*
X111000000Y-116000000D02*
X158000000Y-116000000D01*
X111000000Y-126000000D02*
X111000000Y-116000000D01*
X89000000Y-123000000D02*
X89000000Y-126000000D01*
X89000000Y-123000000D02*
X89000000Y-67000000D01*
X89000000Y-67000000D02*
X174000000Y-67000000D01*
D11*
%TO.C,FID3*%
X158000000Y-114000000D03*
%TD*%
%TO.C,FID2*%
X161000000Y-70000000D03*
%TD*%
%TO.C,FID1*%
X99000000Y-69000000D03*
%TD*%
%TO.C,C1*%
G36*
G01*
X159500000Y-104400000D02*
X160500000Y-104400000D01*
G75*
G02*
X160775000Y-104675000I0J-275000D01*
G01*
X160775000Y-105225000D01*
G75*
G02*
X160500000Y-105500000I-275000J0D01*
G01*
X159500000Y-105500000D01*
G75*
G02*
X159225000Y-105225000I0J275000D01*
G01*
X159225000Y-104675000D01*
G75*
G02*
X159500000Y-104400000I275000J0D01*
G01*
G37*
G36*
G01*
X159500000Y-102500000D02*
X160500000Y-102500000D01*
G75*
G02*
X160775000Y-102775000I0J-275000D01*
G01*
X160775000Y-103325000D01*
G75*
G02*
X160500000Y-103600000I-275000J0D01*
G01*
X159500000Y-103600000D01*
G75*
G02*
X159225000Y-103325000I0J275000D01*
G01*
X159225000Y-102775000D01*
G75*
G02*
X159500000Y-102500000I275000J0D01*
G01*
G37*
%TD*%
D12*
%TO.C,X1*%
X98420000Y-121660000D03*
X95880000Y-121660000D03*
X98420000Y-119120000D03*
X95880000Y-119120000D03*
X98420000Y-116580000D03*
X95880000Y-116580000D03*
X98420000Y-114040000D03*
X95880000Y-114040000D03*
X98420000Y-111500000D03*
X95880000Y-111500000D03*
X98420000Y-108960000D03*
X95880000Y-108960000D03*
X98420000Y-106420000D03*
X95880000Y-106420000D03*
X98420000Y-103880000D03*
X95880000Y-103880000D03*
X98420000Y-101340000D03*
X95880000Y-101340000D03*
X98420000Y-98800000D03*
X95880000Y-98800000D03*
X98420000Y-96260000D03*
X95880000Y-96260000D03*
X98420000Y-93720000D03*
X95880000Y-93720000D03*
X98420000Y-91180000D03*
X95880000Y-91180000D03*
X98420000Y-88640000D03*
X95880000Y-88640000D03*
X98420000Y-86100000D03*
X95880000Y-86100000D03*
X98420000Y-83560000D03*
X95880000Y-83560000D03*
X98420000Y-81020000D03*
X95880000Y-81020000D03*
X98420000Y-78480000D03*
X95880000Y-78480000D03*
X98420000Y-75940000D03*
X95880000Y-75940000D03*
X98420000Y-73400000D03*
G36*
G01*
X94880000Y-72588000D02*
X96880000Y-72588000D01*
G75*
G02*
X96930000Y-72638000I0J-50000D01*
G01*
X96930000Y-74162000D01*
G75*
G02*
X96880000Y-74212000I-50000J0D01*
G01*
X94880000Y-74212000D01*
G75*
G02*
X94830000Y-74162000I0J50000D01*
G01*
X94830000Y-72638000D01*
G75*
G02*
X94880000Y-72588000I50000J0D01*
G01*
G37*
X169540000Y-108960000D03*
X169540000Y-121660000D03*
X167000000Y-121660000D03*
X167000000Y-83560000D03*
X167000000Y-81020000D03*
X167000000Y-78480000D03*
X167000000Y-75940000D03*
X167000000Y-119120000D03*
X167000000Y-116580000D03*
X169540000Y-119120000D03*
X169540000Y-116580000D03*
X169540000Y-114040000D03*
X169540000Y-111500000D03*
X169540000Y-106420000D03*
X167000000Y-114040000D03*
X169540000Y-103880000D03*
X169540000Y-101340000D03*
X167000000Y-111500000D03*
X169540000Y-98800000D03*
X167000000Y-108960000D03*
X169540000Y-96260000D03*
X167000000Y-106420000D03*
X169540000Y-93720000D03*
X167000000Y-103880000D03*
X169540000Y-91180000D03*
X167000000Y-101340000D03*
X169540000Y-88640000D03*
X167000000Y-98800000D03*
X169540000Y-86100000D03*
X167000000Y-96260000D03*
X169540000Y-83560000D03*
X167000000Y-93720000D03*
X169540000Y-81020000D03*
X167000000Y-91180000D03*
X169540000Y-78480000D03*
X167000000Y-88640000D03*
X169540000Y-75940000D03*
X167000000Y-86100000D03*
X169540000Y-73400000D03*
G36*
G01*
X166000000Y-72588000D02*
X168000000Y-72588000D01*
G75*
G02*
X168050000Y-72638000I0J-50000D01*
G01*
X168050000Y-74162000D01*
G75*
G02*
X168000000Y-74212000I-50000J0D01*
G01*
X166000000Y-74212000D01*
G75*
G02*
X165950000Y-74162000I0J50000D01*
G01*
X165950000Y-72638000D01*
G75*
G02*
X166000000Y-72588000I50000J0D01*
G01*
G37*
%TD*%
D13*
%TO.C,U3*%
X129000000Y-99380000D03*
X134080000Y-107000000D03*
X131540000Y-99380000D03*
X131540000Y-107000000D03*
X134080000Y-99380000D03*
G36*
G01*
X129800000Y-107850000D02*
X128200000Y-107850000D01*
G75*
G02*
X128150000Y-107800000I0J50000D01*
G01*
X128150000Y-106200000D01*
G75*
G02*
X128200000Y-106150000I50000J0D01*
G01*
X129800000Y-106150000D01*
G75*
G02*
X129850000Y-106200000I0J-50000D01*
G01*
X129850000Y-107800000D01*
G75*
G02*
X129800000Y-107850000I-50000J0D01*
G01*
G37*
%TD*%
%TO.C,R12*%
G36*
G01*
X145650000Y-94520832D02*
X145650000Y-95479168D01*
G75*
G02*
X145379168Y-95750000I-270832J0D01*
G01*
X144620832Y-95750000D01*
G75*
G02*
X144350000Y-95479168I0J270832D01*
G01*
X144350000Y-94520832D01*
G75*
G02*
X144620832Y-94250000I270832J0D01*
G01*
X145379168Y-94250000D01*
G75*
G02*
X145650000Y-94520832I0J-270832D01*
G01*
G37*
G36*
G01*
X147650000Y-94520832D02*
X147650000Y-95479168D01*
G75*
G02*
X147379168Y-95750000I-270832J0D01*
G01*
X146620832Y-95750000D01*
G75*
G02*
X146350000Y-95479168I0J270832D01*
G01*
X146350000Y-94520832D01*
G75*
G02*
X146620832Y-94250000I270832J0D01*
G01*
X147379168Y-94250000D01*
G75*
G02*
X147650000Y-94520832I0J-270832D01*
G01*
G37*
%TD*%
D14*
%TO.C,Q3*%
X147080000Y-86000000D03*
X144540000Y-86000000D03*
G36*
G01*
X140997500Y-87000000D02*
X140997500Y-85000000D01*
G75*
G02*
X141047500Y-84950000I50000J0D01*
G01*
X142952500Y-84950000D01*
G75*
G02*
X143002500Y-85000000I0J-50000D01*
G01*
X143002500Y-87000000D01*
G75*
G02*
X142952500Y-87050000I-50000J0D01*
G01*
X141047500Y-87050000D01*
G75*
G02*
X140997500Y-87000000I0J50000D01*
G01*
G37*
%TD*%
%TO.C,Q2*%
X136080000Y-86000000D03*
X133540000Y-86000000D03*
G36*
G01*
X129997500Y-87000000D02*
X129997500Y-85000000D01*
G75*
G02*
X130047500Y-84950000I50000J0D01*
G01*
X131952500Y-84950000D01*
G75*
G02*
X132002500Y-85000000I0J-50000D01*
G01*
X132002500Y-87000000D01*
G75*
G02*
X131952500Y-87050000I-50000J0D01*
G01*
X130047500Y-87050000D01*
G75*
G02*
X129997500Y-87000000I0J50000D01*
G01*
G37*
%TD*%
D15*
%TO.C,H4*%
X108000000Y-125000000D03*
%TD*%
%TO.C,H3*%
X173000000Y-70000000D03*
%TD*%
%TO.C,H2*%
X161000000Y-125000000D03*
%TD*%
%TO.C,H1*%
X92000000Y-70000000D03*
%TD*%
%TO.C,J3*%
G36*
G01*
X117350000Y-71700000D02*
X117350000Y-74300000D01*
G75*
G02*
X117300000Y-74350000I-50000J0D01*
G01*
X114700000Y-74350000D01*
G75*
G02*
X114650000Y-74300000I0J50000D01*
G01*
X114650000Y-71700000D01*
G75*
G02*
X114700000Y-71650000I50000J0D01*
G01*
X117300000Y-71650000D01*
G75*
G02*
X117350000Y-71700000I0J-50000D01*
G01*
G37*
D16*
X110920000Y-73000000D03*
%TD*%
%TO.C,R19*%
G36*
G01*
X109650000Y-80520832D02*
X109650000Y-81479168D01*
G75*
G02*
X109379168Y-81750000I-270832J0D01*
G01*
X108620832Y-81750000D01*
G75*
G02*
X108350000Y-81479168I0J270832D01*
G01*
X108350000Y-80520832D01*
G75*
G02*
X108620832Y-80250000I270832J0D01*
G01*
X109379168Y-80250000D01*
G75*
G02*
X109650000Y-80520832I0J-270832D01*
G01*
G37*
G36*
G01*
X111650000Y-80520832D02*
X111650000Y-81479168D01*
G75*
G02*
X111379168Y-81750000I-270832J0D01*
G01*
X110620832Y-81750000D01*
G75*
G02*
X110350000Y-81479168I0J270832D01*
G01*
X110350000Y-80520832D01*
G75*
G02*
X110620832Y-80250000I270832J0D01*
G01*
X111379168Y-80250000D01*
G75*
G02*
X111650000Y-80520832I0J-270832D01*
G01*
G37*
%TD*%
%TO.C,D5*%
G36*
G01*
X115478262Y-80600000D02*
X114521738Y-80600000D01*
G75*
G02*
X114250000Y-80328262I0J271738D01*
G01*
X114250000Y-79621738D01*
G75*
G02*
X114521738Y-79350000I271738J0D01*
G01*
X115478262Y-79350000D01*
G75*
G02*
X115750000Y-79621738I0J-271738D01*
G01*
X115750000Y-80328262D01*
G75*
G02*
X115478262Y-80600000I-271738J0D01*
G01*
G37*
G36*
G01*
X115478262Y-82650000D02*
X114521738Y-82650000D01*
G75*
G02*
X114250000Y-82378262I0J271738D01*
G01*
X114250000Y-81671738D01*
G75*
G02*
X114521738Y-81400000I271738J0D01*
G01*
X115478262Y-81400000D01*
G75*
G02*
X115750000Y-81671738I0J-271738D01*
G01*
X115750000Y-82378262D01*
G75*
G02*
X115478262Y-82650000I-271738J0D01*
G01*
G37*
%TD*%
%TO.C,R18*%
G36*
G01*
X153520832Y-99350000D02*
X154479168Y-99350000D01*
G75*
G02*
X154750000Y-99620832I0J-270832D01*
G01*
X154750000Y-100379168D01*
G75*
G02*
X154479168Y-100650000I-270832J0D01*
G01*
X153520832Y-100650000D01*
G75*
G02*
X153250000Y-100379168I0J270832D01*
G01*
X153250000Y-99620832D01*
G75*
G02*
X153520832Y-99350000I270832J0D01*
G01*
G37*
G36*
G01*
X153520832Y-97350000D02*
X154479168Y-97350000D01*
G75*
G02*
X154750000Y-97620832I0J-270832D01*
G01*
X154750000Y-98379168D01*
G75*
G02*
X154479168Y-98650000I-270832J0D01*
G01*
X153520832Y-98650000D01*
G75*
G02*
X153250000Y-98379168I0J270832D01*
G01*
X153250000Y-97620832D01*
G75*
G02*
X153520832Y-97350000I270832J0D01*
G01*
G37*
%TD*%
%TO.C,R17*%
G36*
G01*
X157479600Y-98650000D02*
X156520400Y-98650000D01*
G75*
G02*
X156250000Y-98379600I0J270400D01*
G01*
X156250000Y-97620400D01*
G75*
G02*
X156520400Y-97350000I270400J0D01*
G01*
X157479600Y-97350000D01*
G75*
G02*
X157750000Y-97620400I0J-270400D01*
G01*
X157750000Y-98379600D01*
G75*
G02*
X157479600Y-98650000I-270400J0D01*
G01*
G37*
G36*
G01*
X157479168Y-100650000D02*
X156520832Y-100650000D01*
G75*
G02*
X156250000Y-100379168I0J270832D01*
G01*
X156250000Y-99620832D01*
G75*
G02*
X156520832Y-99350000I270832J0D01*
G01*
X157479168Y-99350000D01*
G75*
G02*
X157750000Y-99620832I0J-270832D01*
G01*
X157750000Y-100379168D01*
G75*
G02*
X157479168Y-100650000I-270832J0D01*
G01*
G37*
%TD*%
%TO.C,R16*%
G36*
G01*
X155650000Y-89520832D02*
X155650000Y-90479168D01*
G75*
G02*
X155379168Y-90750000I-270832J0D01*
G01*
X154620832Y-90750000D01*
G75*
G02*
X154350000Y-90479168I0J270832D01*
G01*
X154350000Y-89520832D01*
G75*
G02*
X154620832Y-89250000I270832J0D01*
G01*
X155379168Y-89250000D01*
G75*
G02*
X155650000Y-89520832I0J-270832D01*
G01*
G37*
G36*
G01*
X157650000Y-89520832D02*
X157650000Y-90479168D01*
G75*
G02*
X157379168Y-90750000I-270832J0D01*
G01*
X156620832Y-90750000D01*
G75*
G02*
X156350000Y-90479168I0J270832D01*
G01*
X156350000Y-89520832D01*
G75*
G02*
X156620832Y-89250000I270832J0D01*
G01*
X157379168Y-89250000D01*
G75*
G02*
X157650000Y-89520832I0J-270832D01*
G01*
G37*
%TD*%
%TO.C,R15*%
G36*
G01*
X144650000Y-89520832D02*
X144650000Y-90479168D01*
G75*
G02*
X144379168Y-90750000I-270832J0D01*
G01*
X143620832Y-90750000D01*
G75*
G02*
X143350000Y-90479168I0J270832D01*
G01*
X143350000Y-89520832D01*
G75*
G02*
X143620832Y-89250000I270832J0D01*
G01*
X144379168Y-89250000D01*
G75*
G02*
X144650000Y-89520832I0J-270832D01*
G01*
G37*
G36*
G01*
X146650000Y-89520832D02*
X146650000Y-90479168D01*
G75*
G02*
X146379168Y-90750000I-270832J0D01*
G01*
X145620832Y-90750000D01*
G75*
G02*
X145350000Y-90479168I0J270832D01*
G01*
X145350000Y-89520832D01*
G75*
G02*
X145620832Y-89250000I270832J0D01*
G01*
X146379168Y-89250000D01*
G75*
G02*
X146650000Y-89520832I0J-270832D01*
G01*
G37*
%TD*%
%TO.C,R14*%
G36*
G01*
X133650000Y-89520832D02*
X133650000Y-90479168D01*
G75*
G02*
X133379168Y-90750000I-270832J0D01*
G01*
X132620832Y-90750000D01*
G75*
G02*
X132350000Y-90479168I0J270832D01*
G01*
X132350000Y-89520832D01*
G75*
G02*
X132620832Y-89250000I270832J0D01*
G01*
X133379168Y-89250000D01*
G75*
G02*
X133650000Y-89520832I0J-270832D01*
G01*
G37*
G36*
G01*
X135650000Y-89520832D02*
X135650000Y-90479168D01*
G75*
G02*
X135379168Y-90750000I-270832J0D01*
G01*
X134620832Y-90750000D01*
G75*
G02*
X134350000Y-90479168I0J270832D01*
G01*
X134350000Y-89520832D01*
G75*
G02*
X134620832Y-89250000I270832J0D01*
G01*
X135379168Y-89250000D01*
G75*
G02*
X135650000Y-89520832I0J-270832D01*
G01*
G37*
%TD*%
%TO.C,R13*%
G36*
G01*
X122650000Y-89520832D02*
X122650000Y-90479168D01*
G75*
G02*
X122379168Y-90750000I-270832J0D01*
G01*
X121620832Y-90750000D01*
G75*
G02*
X121350000Y-90479168I0J270832D01*
G01*
X121350000Y-89520832D01*
G75*
G02*
X121620832Y-89250000I270832J0D01*
G01*
X122379168Y-89250000D01*
G75*
G02*
X122650000Y-89520832I0J-270832D01*
G01*
G37*
G36*
G01*
X124650000Y-89520832D02*
X124650000Y-90479168D01*
G75*
G02*
X124379168Y-90750000I-270832J0D01*
G01*
X123620832Y-90750000D01*
G75*
G02*
X123350000Y-90479168I0J270832D01*
G01*
X123350000Y-89520832D01*
G75*
G02*
X123620832Y-89250000I270832J0D01*
G01*
X124379168Y-89250000D01*
G75*
G02*
X124650000Y-89520832I0J-270832D01*
G01*
G37*
%TD*%
%TO.C,R11*%
G36*
G01*
X133650000Y-93520832D02*
X133650000Y-94479168D01*
G75*
G02*
X133379168Y-94750000I-270832J0D01*
G01*
X132620832Y-94750000D01*
G75*
G02*
X132350000Y-94479168I0J270832D01*
G01*
X132350000Y-93520832D01*
G75*
G02*
X132620832Y-93250000I270832J0D01*
G01*
X133379168Y-93250000D01*
G75*
G02*
X133650000Y-93520832I0J-270832D01*
G01*
G37*
G36*
G01*
X135650000Y-93520832D02*
X135650000Y-94479168D01*
G75*
G02*
X135379168Y-94750000I-270832J0D01*
G01*
X134620832Y-94750000D01*
G75*
G02*
X134350000Y-94479168I0J270832D01*
G01*
X134350000Y-93520832D01*
G75*
G02*
X134620832Y-93250000I270832J0D01*
G01*
X135379168Y-93250000D01*
G75*
G02*
X135650000Y-93520832I0J-270832D01*
G01*
G37*
%TD*%
%TO.C,R10*%
G36*
G01*
X123650000Y-93520832D02*
X123650000Y-94479168D01*
G75*
G02*
X123379168Y-94750000I-270832J0D01*
G01*
X122620832Y-94750000D01*
G75*
G02*
X122350000Y-94479168I0J270832D01*
G01*
X122350000Y-93520832D01*
G75*
G02*
X122620832Y-93250000I270832J0D01*
G01*
X123379168Y-93250000D01*
G75*
G02*
X123650000Y-93520832I0J-270832D01*
G01*
G37*
G36*
G01*
X125650000Y-93520832D02*
X125650000Y-94479168D01*
G75*
G02*
X125379168Y-94750000I-270832J0D01*
G01*
X124620832Y-94750000D01*
G75*
G02*
X124350000Y-94479168I0J270832D01*
G01*
X124350000Y-93520832D01*
G75*
G02*
X124620832Y-93250000I270832J0D01*
G01*
X125379168Y-93250000D01*
G75*
G02*
X125650000Y-93520832I0J-270832D01*
G01*
G37*
%TD*%
%TO.C,R9*%
G36*
G01*
X113650000Y-93520832D02*
X113650000Y-94479168D01*
G75*
G02*
X113379168Y-94750000I-270832J0D01*
G01*
X112620832Y-94750000D01*
G75*
G02*
X112350000Y-94479168I0J270832D01*
G01*
X112350000Y-93520832D01*
G75*
G02*
X112620832Y-93250000I270832J0D01*
G01*
X113379168Y-93250000D01*
G75*
G02*
X113650000Y-93520832I0J-270832D01*
G01*
G37*
G36*
G01*
X115650000Y-93520832D02*
X115650000Y-94479168D01*
G75*
G02*
X115379168Y-94750000I-270832J0D01*
G01*
X114620832Y-94750000D01*
G75*
G02*
X114350000Y-94479168I0J270832D01*
G01*
X114350000Y-93520832D01*
G75*
G02*
X114620832Y-93250000I270832J0D01*
G01*
X115379168Y-93250000D01*
G75*
G02*
X115650000Y-93520832I0J-270832D01*
G01*
G37*
%TD*%
%TO.C,R8*%
G36*
G01*
X139350000Y-96479168D02*
X139350000Y-95520832D01*
G75*
G02*
X139620832Y-95250000I270832J0D01*
G01*
X140379168Y-95250000D01*
G75*
G02*
X140650000Y-95520832I0J-270832D01*
G01*
X140650000Y-96479168D01*
G75*
G02*
X140379168Y-96750000I-270832J0D01*
G01*
X139620832Y-96750000D01*
G75*
G02*
X139350000Y-96479168I0J270832D01*
G01*
G37*
G36*
G01*
X137350000Y-96479168D02*
X137350000Y-95520832D01*
G75*
G02*
X137620832Y-95250000I270832J0D01*
G01*
X138379168Y-95250000D01*
G75*
G02*
X138650000Y-95520832I0J-270832D01*
G01*
X138650000Y-96479168D01*
G75*
G02*
X138379168Y-96750000I-270832J0D01*
G01*
X137620832Y-96750000D01*
G75*
G02*
X137350000Y-96479168I0J270832D01*
G01*
G37*
%TD*%
%TO.C,R7*%
G36*
G01*
X129350000Y-96479168D02*
X129350000Y-95520832D01*
G75*
G02*
X129620832Y-95250000I270832J0D01*
G01*
X130379168Y-95250000D01*
G75*
G02*
X130650000Y-95520832I0J-270832D01*
G01*
X130650000Y-96479168D01*
G75*
G02*
X130379168Y-96750000I-270832J0D01*
G01*
X129620832Y-96750000D01*
G75*
G02*
X129350000Y-96479168I0J270832D01*
G01*
G37*
G36*
G01*
X127350000Y-96479168D02*
X127350000Y-95520832D01*
G75*
G02*
X127620832Y-95250000I270832J0D01*
G01*
X128379168Y-95250000D01*
G75*
G02*
X128650000Y-95520832I0J-270832D01*
G01*
X128650000Y-96479168D01*
G75*
G02*
X128379168Y-96750000I-270832J0D01*
G01*
X127620832Y-96750000D01*
G75*
G02*
X127350000Y-96479168I0J270832D01*
G01*
G37*
%TD*%
%TO.C,R6*%
G36*
G01*
X119350000Y-96479168D02*
X119350000Y-95520832D01*
G75*
G02*
X119620832Y-95250000I270832J0D01*
G01*
X120379168Y-95250000D01*
G75*
G02*
X120650000Y-95520832I0J-270832D01*
G01*
X120650000Y-96479168D01*
G75*
G02*
X120379168Y-96750000I-270832J0D01*
G01*
X119620832Y-96750000D01*
G75*
G02*
X119350000Y-96479168I0J270832D01*
G01*
G37*
G36*
G01*
X117350000Y-96479168D02*
X117350000Y-95520832D01*
G75*
G02*
X117620832Y-95250000I270832J0D01*
G01*
X118379168Y-95250000D01*
G75*
G02*
X118650000Y-95520832I0J-270832D01*
G01*
X118650000Y-96479168D01*
G75*
G02*
X118379168Y-96750000I-270832J0D01*
G01*
X117620832Y-96750000D01*
G75*
G02*
X117350000Y-96479168I0J270832D01*
G01*
G37*
%TD*%
%TO.C,R5*%
G36*
G01*
X109350000Y-96479168D02*
X109350000Y-95520832D01*
G75*
G02*
X109620832Y-95250000I270832J0D01*
G01*
X110379168Y-95250000D01*
G75*
G02*
X110650000Y-95520832I0J-270832D01*
G01*
X110650000Y-96479168D01*
G75*
G02*
X110379168Y-96750000I-270832J0D01*
G01*
X109620832Y-96750000D01*
G75*
G02*
X109350000Y-96479168I0J270832D01*
G01*
G37*
G36*
G01*
X107350000Y-96479168D02*
X107350000Y-95520832D01*
G75*
G02*
X107620832Y-95250000I270832J0D01*
G01*
X108379168Y-95250000D01*
G75*
G02*
X108650000Y-95520832I0J-270832D01*
G01*
X108650000Y-96479168D01*
G75*
G02*
X108379168Y-96750000I-270832J0D01*
G01*
X107620832Y-96750000D01*
G75*
G02*
X107350000Y-96479168I0J270832D01*
G01*
G37*
%TD*%
%TO.C,R4*%
G36*
G01*
X144350000Y-110479168D02*
X144350000Y-109520832D01*
G75*
G02*
X144620832Y-109250000I270832J0D01*
G01*
X145379168Y-109250000D01*
G75*
G02*
X145650000Y-109520832I0J-270832D01*
G01*
X145650000Y-110479168D01*
G75*
G02*
X145379168Y-110750000I-270832J0D01*
G01*
X144620832Y-110750000D01*
G75*
G02*
X144350000Y-110479168I0J270832D01*
G01*
G37*
G36*
G01*
X142350000Y-110479168D02*
X142350000Y-109520832D01*
G75*
G02*
X142620832Y-109250000I270832J0D01*
G01*
X143379168Y-109250000D01*
G75*
G02*
X143650000Y-109520832I0J-270832D01*
G01*
X143650000Y-110479168D01*
G75*
G02*
X143379168Y-110750000I-270832J0D01*
G01*
X142620832Y-110750000D01*
G75*
G02*
X142350000Y-110479168I0J270832D01*
G01*
G37*
%TD*%
%TO.C,R3*%
G36*
G01*
X134350000Y-110479168D02*
X134350000Y-109520832D01*
G75*
G02*
X134620832Y-109250000I270832J0D01*
G01*
X135379168Y-109250000D01*
G75*
G02*
X135650000Y-109520832I0J-270832D01*
G01*
X135650000Y-110479168D01*
G75*
G02*
X135379168Y-110750000I-270832J0D01*
G01*
X134620832Y-110750000D01*
G75*
G02*
X134350000Y-110479168I0J270832D01*
G01*
G37*
G36*
G01*
X132350000Y-110479168D02*
X132350000Y-109520832D01*
G75*
G02*
X132620832Y-109250000I270832J0D01*
G01*
X133379168Y-109250000D01*
G75*
G02*
X133650000Y-109520832I0J-270832D01*
G01*
X133650000Y-110479168D01*
G75*
G02*
X133379168Y-110750000I-270832J0D01*
G01*
X132620832Y-110750000D01*
G75*
G02*
X132350000Y-110479168I0J270832D01*
G01*
G37*
%TD*%
%TO.C,R2*%
G36*
G01*
X124350000Y-110479168D02*
X124350000Y-109520832D01*
G75*
G02*
X124620832Y-109250000I270832J0D01*
G01*
X125379168Y-109250000D01*
G75*
G02*
X125650000Y-109520832I0J-270832D01*
G01*
X125650000Y-110479168D01*
G75*
G02*
X125379168Y-110750000I-270832J0D01*
G01*
X124620832Y-110750000D01*
G75*
G02*
X124350000Y-110479168I0J270832D01*
G01*
G37*
G36*
G01*
X122350000Y-110479168D02*
X122350000Y-109520832D01*
G75*
G02*
X122620832Y-109250000I270832J0D01*
G01*
X123379168Y-109250000D01*
G75*
G02*
X123650000Y-109520832I0J-270832D01*
G01*
X123650000Y-110479168D01*
G75*
G02*
X123379168Y-110750000I-270832J0D01*
G01*
X122620832Y-110750000D01*
G75*
G02*
X122350000Y-110479168I0J270832D01*
G01*
G37*
%TD*%
%TO.C,R1*%
G36*
G01*
X114350000Y-110479168D02*
X114350000Y-109520832D01*
G75*
G02*
X114620832Y-109250000I270832J0D01*
G01*
X115379168Y-109250000D01*
G75*
G02*
X115650000Y-109520832I0J-270832D01*
G01*
X115650000Y-110479168D01*
G75*
G02*
X115379168Y-110750000I-270832J0D01*
G01*
X114620832Y-110750000D01*
G75*
G02*
X114350000Y-110479168I0J270832D01*
G01*
G37*
G36*
G01*
X112350000Y-110479168D02*
X112350000Y-109520832D01*
G75*
G02*
X112620832Y-109250000I270832J0D01*
G01*
X113379168Y-109250000D01*
G75*
G02*
X113650000Y-109520832I0J-270832D01*
G01*
X113650000Y-110479168D01*
G75*
G02*
X113379168Y-110750000I-270832J0D01*
G01*
X112620832Y-110750000D01*
G75*
G02*
X112350000Y-110479168I0J270832D01*
G01*
G37*
%TD*%
%TO.C,D4*%
G36*
G01*
X153300000Y-81300000D02*
X153300000Y-80700000D01*
G75*
G02*
X153350000Y-80650000I50000J0D01*
G01*
X154450000Y-80650000D01*
G75*
G02*
X154500000Y-80700000I0J-50000D01*
G01*
X154500000Y-81300000D01*
G75*
G02*
X154450000Y-81350000I-50000J0D01*
G01*
X153350000Y-81350000D01*
G75*
G02*
X153300000Y-81300000I0J50000D01*
G01*
G37*
G36*
G01*
X155500000Y-81300000D02*
X155500000Y-80700000D01*
G75*
G02*
X155550000Y-80650000I50000J0D01*
G01*
X156650000Y-80650000D01*
G75*
G02*
X156700000Y-80700000I0J-50000D01*
G01*
X156700000Y-81300000D01*
G75*
G02*
X156650000Y-81350000I-50000J0D01*
G01*
X155550000Y-81350000D01*
G75*
G02*
X155500000Y-81300000I0J50000D01*
G01*
G37*
%TD*%
%TO.C,D3*%
G36*
G01*
X141300000Y-81300000D02*
X141300000Y-80700000D01*
G75*
G02*
X141350000Y-80650000I50000J0D01*
G01*
X142450000Y-80650000D01*
G75*
G02*
X142500000Y-80700000I0J-50000D01*
G01*
X142500000Y-81300000D01*
G75*
G02*
X142450000Y-81350000I-50000J0D01*
G01*
X141350000Y-81350000D01*
G75*
G02*
X141300000Y-81300000I0J50000D01*
G01*
G37*
G36*
G01*
X143500000Y-81300000D02*
X143500000Y-80700000D01*
G75*
G02*
X143550000Y-80650000I50000J0D01*
G01*
X144650000Y-80650000D01*
G75*
G02*
X144700000Y-80700000I0J-50000D01*
G01*
X144700000Y-81300000D01*
G75*
G02*
X144650000Y-81350000I-50000J0D01*
G01*
X143550000Y-81350000D01*
G75*
G02*
X143500000Y-81300000I0J50000D01*
G01*
G37*
%TD*%
%TO.C,D2*%
G36*
G01*
X131300000Y-81300000D02*
X131300000Y-80700000D01*
G75*
G02*
X131350000Y-80650000I50000J0D01*
G01*
X132450000Y-80650000D01*
G75*
G02*
X132500000Y-80700000I0J-50000D01*
G01*
X132500000Y-81300000D01*
G75*
G02*
X132450000Y-81350000I-50000J0D01*
G01*
X131350000Y-81350000D01*
G75*
G02*
X131300000Y-81300000I0J50000D01*
G01*
G37*
G36*
G01*
X133500000Y-81300000D02*
X133500000Y-80700000D01*
G75*
G02*
X133550000Y-80650000I50000J0D01*
G01*
X134650000Y-80650000D01*
G75*
G02*
X134700000Y-80700000I0J-50000D01*
G01*
X134700000Y-81300000D01*
G75*
G02*
X134650000Y-81350000I-50000J0D01*
G01*
X133550000Y-81350000D01*
G75*
G02*
X133500000Y-81300000I0J50000D01*
G01*
G37*
%TD*%
%TO.C,D1*%
G36*
G01*
X121300000Y-81300000D02*
X121300000Y-80700000D01*
G75*
G02*
X121350000Y-80650000I50000J0D01*
G01*
X122450000Y-80650000D01*
G75*
G02*
X122500000Y-80700000I0J-50000D01*
G01*
X122500000Y-81300000D01*
G75*
G02*
X122450000Y-81350000I-50000J0D01*
G01*
X121350000Y-81350000D01*
G75*
G02*
X121300000Y-81300000I0J50000D01*
G01*
G37*
G36*
G01*
X123500000Y-81300000D02*
X123500000Y-80700000D01*
G75*
G02*
X123550000Y-80650000I50000J0D01*
G01*
X124650000Y-80650000D01*
G75*
G02*
X124700000Y-80700000I0J-50000D01*
G01*
X124700000Y-81300000D01*
G75*
G02*
X124650000Y-81350000I-50000J0D01*
G01*
X123550000Y-81350000D01*
G75*
G02*
X123500000Y-81300000I0J50000D01*
G01*
G37*
%TD*%
D14*
%TO.C,Q4*%
X158080000Y-86000000D03*
X155540000Y-86000000D03*
G36*
G01*
X151997500Y-87000000D02*
X151997500Y-85000000D01*
G75*
G02*
X152047500Y-84950000I50000J0D01*
G01*
X153952500Y-84950000D01*
G75*
G02*
X154002500Y-85000000I0J-50000D01*
G01*
X154002500Y-87000000D01*
G75*
G02*
X153952500Y-87050000I-50000J0D01*
G01*
X152047500Y-87050000D01*
G75*
G02*
X151997500Y-87000000I0J50000D01*
G01*
G37*
%TD*%
%TO.C,Q1*%
X125080000Y-86000000D03*
X122540000Y-86000000D03*
G36*
G01*
X118997500Y-87000000D02*
X118997500Y-85000000D01*
G75*
G02*
X119047500Y-84950000I50000J0D01*
G01*
X120952500Y-84950000D01*
G75*
G02*
X121002500Y-85000000I0J-50000D01*
G01*
X121002500Y-87000000D01*
G75*
G02*
X120952500Y-87050000I-50000J0D01*
G01*
X119047500Y-87050000D01*
G75*
G02*
X118997500Y-87000000I0J50000D01*
G01*
G37*
%TD*%
D13*
%TO.C,U4*%
X139000000Y-99380000D03*
X144080000Y-107000000D03*
X141540000Y-99380000D03*
X141540000Y-107000000D03*
X144080000Y-99380000D03*
G36*
G01*
X139800000Y-107850000D02*
X138200000Y-107850000D01*
G75*
G02*
X138150000Y-107800000I0J50000D01*
G01*
X138150000Y-106200000D01*
G75*
G02*
X138200000Y-106150000I50000J0D01*
G01*
X139800000Y-106150000D01*
G75*
G02*
X139850000Y-106200000I0J-50000D01*
G01*
X139850000Y-107800000D01*
G75*
G02*
X139800000Y-107850000I-50000J0D01*
G01*
G37*
%TD*%
%TO.C,U2*%
X119000000Y-99380000D03*
X124080000Y-107000000D03*
X121540000Y-99380000D03*
X121540000Y-107000000D03*
X124080000Y-99380000D03*
G36*
G01*
X119800000Y-107850000D02*
X118200000Y-107850000D01*
G75*
G02*
X118150000Y-107800000I0J50000D01*
G01*
X118150000Y-106200000D01*
G75*
G02*
X118200000Y-106150000I50000J0D01*
G01*
X119800000Y-106150000D01*
G75*
G02*
X119850000Y-106200000I0J-50000D01*
G01*
X119850000Y-107800000D01*
G75*
G02*
X119800000Y-107850000I-50000J0D01*
G01*
G37*
%TD*%
%TO.C,U1*%
X109000000Y-99380000D03*
X114080000Y-107000000D03*
X111540000Y-99380000D03*
X111540000Y-107000000D03*
X114080000Y-99380000D03*
G36*
G01*
X109800000Y-107850000D02*
X108200000Y-107850000D01*
G75*
G02*
X108150000Y-107800000I0J50000D01*
G01*
X108150000Y-106200000D01*
G75*
G02*
X108200000Y-106150000I50000J0D01*
G01*
X109800000Y-106150000D01*
G75*
G02*
X109850000Y-106200000I0J-50000D01*
G01*
X109850000Y-107800000D01*
G75*
G02*
X109800000Y-107850000I-50000J0D01*
G01*
G37*
%TD*%
D17*
%TO.C,J4*%
X150000000Y-110000000D03*
X152000000Y-110000000D03*
X154000000Y-110000000D03*
X156000000Y-110000000D03*
G36*
G01*
X157325000Y-109275000D02*
X158675000Y-109275000D01*
G75*
G02*
X158725000Y-109325000I0J-50000D01*
G01*
X158725000Y-110675000D01*
G75*
G02*
X158675000Y-110725000I-50000J0D01*
G01*
X157325000Y-110725000D01*
G75*
G02*
X157275000Y-110675000I0J50000D01*
G01*
X157275000Y-109325000D01*
G75*
G02*
X157325000Y-109275000I50000J0D01*
G01*
G37*
%TD*%
%TO.C,J1*%
G36*
G01*
X148350000Y-70700000D02*
X148350000Y-73300000D01*
G75*
G02*
X148300000Y-73350000I-50000J0D01*
G01*
X145700000Y-73350000D01*
G75*
G02*
X145650000Y-73300000I0J50000D01*
G01*
X145650000Y-70700000D01*
G75*
G02*
X145700000Y-70650000I50000J0D01*
G01*
X148300000Y-70650000D01*
G75*
G02*
X148350000Y-70700000I0J-50000D01*
G01*
G37*
D16*
X141920000Y-72000000D03*
X136840000Y-72000000D03*
X131760000Y-72000000D03*
%TD*%
%TO.C,J5*%
G36*
G01*
X149275000Y-99675000D02*
X149275000Y-98325000D01*
G75*
G02*
X149325000Y-98275000I50000J0D01*
G01*
X150675000Y-98275000D01*
G75*
G02*
X150725000Y-98325000I0J-50000D01*
G01*
X150725000Y-99675000D01*
G75*
G02*
X150675000Y-99725000I-50000J0D01*
G01*
X149325000Y-99725000D01*
G75*
G02*
X149275000Y-99675000I0J50000D01*
G01*
G37*
%TD*%
%TO.C,U5*%
G36*
G01*
X152250000Y-102125000D02*
X152250000Y-101875000D01*
G75*
G02*
X152300000Y-101825000I50000J0D01*
G01*
X153400000Y-101825000D01*
G75*
G02*
X153450000Y-101875000I0J-50000D01*
G01*
X153450000Y-102125000D01*
G75*
G02*
X153400000Y-102175000I-50000J0D01*
G01*
X152300000Y-102175000D01*
G75*
G02*
X152250000Y-102125000I0J50000D01*
G01*
G37*
G36*
G01*
X152250000Y-102625000D02*
X152250000Y-102375000D01*
G75*
G02*
X152300000Y-102325000I50000J0D01*
G01*
X153400000Y-102325000D01*
G75*
G02*
X153450000Y-102375000I0J-50000D01*
G01*
X153450000Y-102625000D01*
G75*
G02*
X153400000Y-102675000I-50000J0D01*
G01*
X152300000Y-102675000D01*
G75*
G02*
X152250000Y-102625000I0J50000D01*
G01*
G37*
G36*
G01*
X152250000Y-103125000D02*
X152250000Y-102875000D01*
G75*
G02*
X152300000Y-102825000I50000J0D01*
G01*
X153400000Y-102825000D01*
G75*
G02*
X153450000Y-102875000I0J-50000D01*
G01*
X153450000Y-103125000D01*
G75*
G02*
X153400000Y-103175000I-50000J0D01*
G01*
X152300000Y-103175000D01*
G75*
G02*
X152250000Y-103125000I0J50000D01*
G01*
G37*
G36*
G01*
X152250000Y-103625000D02*
X152250000Y-103375000D01*
G75*
G02*
X152300000Y-103325000I50000J0D01*
G01*
X153400000Y-103325000D01*
G75*
G02*
X153450000Y-103375000I0J-50000D01*
G01*
X153450000Y-103625000D01*
G75*
G02*
X153400000Y-103675000I-50000J0D01*
G01*
X152300000Y-103675000D01*
G75*
G02*
X152250000Y-103625000I0J50000D01*
G01*
G37*
G36*
G01*
X152250000Y-104125000D02*
X152250000Y-103875000D01*
G75*
G02*
X152300000Y-103825000I50000J0D01*
G01*
X153400000Y-103825000D01*
G75*
G02*
X153450000Y-103875000I0J-50000D01*
G01*
X153450000Y-104125000D01*
G75*
G02*
X153400000Y-104175000I-50000J0D01*
G01*
X152300000Y-104175000D01*
G75*
G02*
X152250000Y-104125000I0J50000D01*
G01*
G37*
G36*
G01*
X156550000Y-104125000D02*
X156550000Y-103875000D01*
G75*
G02*
X156600000Y-103825000I50000J0D01*
G01*
X157700000Y-103825000D01*
G75*
G02*
X157750000Y-103875000I0J-50000D01*
G01*
X157750000Y-104125000D01*
G75*
G02*
X157700000Y-104175000I-50000J0D01*
G01*
X156600000Y-104175000D01*
G75*
G02*
X156550000Y-104125000I0J50000D01*
G01*
G37*
G36*
G01*
X156550000Y-103625000D02*
X156550000Y-103375000D01*
G75*
G02*
X156600000Y-103325000I50000J0D01*
G01*
X157700000Y-103325000D01*
G75*
G02*
X157750000Y-103375000I0J-50000D01*
G01*
X157750000Y-103625000D01*
G75*
G02*
X157700000Y-103675000I-50000J0D01*
G01*
X156600000Y-103675000D01*
G75*
G02*
X156550000Y-103625000I0J50000D01*
G01*
G37*
G36*
G01*
X156550000Y-103125000D02*
X156550000Y-102875000D01*
G75*
G02*
X156600000Y-102825000I50000J0D01*
G01*
X157700000Y-102825000D01*
G75*
G02*
X157750000Y-102875000I0J-50000D01*
G01*
X157750000Y-103125000D01*
G75*
G02*
X157700000Y-103175000I-50000J0D01*
G01*
X156600000Y-103175000D01*
G75*
G02*
X156550000Y-103125000I0J50000D01*
G01*
G37*
G36*
G01*
X156550000Y-102625000D02*
X156550000Y-102375000D01*
G75*
G02*
X156600000Y-102325000I50000J0D01*
G01*
X157700000Y-102325000D01*
G75*
G02*
X157750000Y-102375000I0J-50000D01*
G01*
X157750000Y-102625000D01*
G75*
G02*
X157700000Y-102675000I-50000J0D01*
G01*
X156600000Y-102675000D01*
G75*
G02*
X156550000Y-102625000I0J50000D01*
G01*
G37*
G36*
G01*
X156550000Y-102125000D02*
X156550000Y-101875000D01*
G75*
G02*
X156600000Y-101825000I50000J0D01*
G01*
X157700000Y-101825000D01*
G75*
G02*
X157750000Y-101875000I0J-50000D01*
G01*
X157750000Y-102125000D01*
G75*
G02*
X157700000Y-102175000I-50000J0D01*
G01*
X156600000Y-102175000D01*
G75*
G02*
X156550000Y-102125000I0J50000D01*
G01*
G37*
%TD*%
M02*
