M48
; DRILL file {KiCad 5.1.7-a382d34a8~87~ubuntu18.04.1} date Sat Oct 24 22:54:36 2020
; FORMAT={-:-/ absolute / inch / decimal}
; #@! TF.CreationDate,2020-10-24T22:54:36-03:00
; #@! TF.GenerationSoftware,Kicad,Pcbnew,5.1.7-a382d34a8~87~ubuntu18.04.1
; #@! TF.FileFunction,Plated,1,2,PTH
FMAT,2
INCH
T1C0.0157
T2C0.0315
T3C0.0400
T4C0.0433
T5C0.0512
T6C0.0866
%
G90
G05
T1
X5.9449Y-4.0551
X5.9843Y-3.9764
T2
X3.9764Y-4.7244
X4.6063Y-4.252
X4.685Y-4.3307
X5.0Y-4.2913
X5.3937Y-4.2913
X5.7874Y-4.2913
X6.2598Y-3.8583
X6.4173Y-4.0551
X5.9055Y-4.3307
X5.9843Y-4.3307
X6.063Y-4.3307
X6.1417Y-4.3307
X6.2205Y-4.3307
X5.4724Y-3.9126
X5.4724Y-4.2126
X5.5724Y-3.9126
X5.5724Y-4.2126
X5.6724Y-3.9126
X5.6724Y-4.2126
X5.9055Y-3.8976
X5.0787Y-3.9126
X5.0787Y-4.2126
X5.1787Y-3.9126
X5.1787Y-4.2126
X5.2787Y-3.9126
X5.2787Y-4.2126
X4.2913Y-3.9126
X4.2913Y-4.2126
X4.3913Y-3.9126
X4.3913Y-4.2126
X4.4913Y-3.9126
X4.4913Y-4.2126
X4.685Y-3.9126
X4.685Y-4.2126
X4.785Y-3.9126
X4.785Y-4.2126
X4.885Y-3.9126
X4.885Y-4.2126
T3
X3.7748Y-2.8898
X3.7748Y-2.9898
X3.7748Y-3.0898
X3.7748Y-3.1898
X3.7748Y-3.2898
X3.7748Y-3.3898
X3.7748Y-3.4898
X3.7748Y-3.5898
X3.7748Y-3.6898
X3.7748Y-3.7898
X3.7748Y-3.8898
X3.7748Y-3.9898
X3.7748Y-4.0898
X3.7748Y-4.1898
X3.7748Y-4.2898
X3.7748Y-4.3898
X3.7748Y-4.4898
X3.7748Y-4.5898
X3.7748Y-4.6898
X3.7748Y-4.7898
X3.8748Y-2.8898
X3.8748Y-2.9898
X3.8748Y-3.0898
X3.8748Y-3.1898
X3.8748Y-3.2898
X3.8748Y-3.3898
X3.8748Y-3.4898
X3.8748Y-3.5898
X3.8748Y-3.6898
X3.8748Y-3.7898
X3.8748Y-3.8898
X3.8748Y-3.9898
X3.8748Y-4.0898
X3.8748Y-4.1898
X3.8748Y-4.2898
X3.8748Y-4.3898
X3.8748Y-4.4898
X3.8748Y-4.5898
X3.8748Y-4.6898
X3.8748Y-4.7898
X6.5748Y-2.8898
X6.5748Y-2.9898
X6.5748Y-3.0898
X6.5748Y-3.1898
X6.5748Y-3.2898
X6.5748Y-3.3898
X6.5748Y-3.4898
X6.5748Y-3.5898
X6.5748Y-3.6898
X6.5748Y-3.7898
X6.5748Y-3.8898
X6.5748Y-3.9898
X6.5748Y-4.0898
X6.5748Y-4.1898
X6.5748Y-4.2898
X6.5748Y-4.3898
X6.5748Y-4.4898
X6.5748Y-4.5898
X6.5748Y-4.6898
X6.5748Y-4.7898
X6.6748Y-2.8898
X6.6748Y-2.9898
X6.6748Y-3.0898
X6.6748Y-3.1898
X6.6748Y-3.2898
X6.6748Y-3.3898
X6.6748Y-3.4898
X6.6748Y-3.5898
X6.6748Y-3.6898
X6.6748Y-3.7898
X6.6748Y-3.8898
X6.6748Y-3.9898
X6.6748Y-4.0898
X6.6748Y-4.1898
X6.6748Y-4.2898
X6.6748Y-4.3898
X6.6748Y-4.4898
X6.6748Y-4.5898
X6.6748Y-4.6898
X6.6748Y-4.7898
T4
X5.1575Y-3.3858
X5.2575Y-3.3858
X5.3575Y-3.3858
X4.7244Y-3.3858
X4.8244Y-3.3858
X4.9244Y-3.3858
X5.5906Y-3.3858
X5.6906Y-3.3858
X5.7906Y-3.3858
X6.0236Y-3.3858
X6.1236Y-3.3858
X6.2236Y-3.3858
T5
X5.1874Y-2.8346
X5.3874Y-2.8346
X5.5874Y-2.8346
X5.7874Y-2.8346
X4.3669Y-2.874
X4.5669Y-2.874
T6
X4.252Y-4.9213
X6.3386Y-4.9213
X6.811Y-2.7559
X3.622Y-2.7559
T0
M30
