%TF.GenerationSoftware,KiCad,Pcbnew,5.1.7-a382d34a8~87~ubuntu18.04.1*%
%TF.CreationDate,2020-10-24T22:54:41-03:00*%
%TF.ProjectId,TP-CESE,54502d43-4553-4452-9e6b-696361645f70,1*%
%TF.SameCoordinates,Original*%
%TF.FileFunction,Copper,L2,Bot*%
%TF.FilePolarity,Positive*%
%FSLAX46Y46*%
G04 Gerber Fmt 4.6, Leading zero omitted, Abs format (unit mm)*
G04 Created by KiCad (PCBNEW 5.1.7-a382d34a8~87~ubuntu18.04.1) date 2020-10-24 22:54:41*
%MOMM*%
%LPD*%
G01*
G04 APERTURE LIST*
%TA.AperFunction,Profile*%
%ADD10C,0.050000*%
%TD*%
%TA.AperFunction,ComponentPad*%
%ADD11O,2.000000X1.524000*%
%TD*%
%TA.AperFunction,ComponentPad*%
%ADD12R,2.000000X1.524000*%
%TD*%
%TA.AperFunction,ComponentPad*%
%ADD13O,1.600000X1.600000*%
%TD*%
%TA.AperFunction,ComponentPad*%
%ADD14R,1.600000X1.600000*%
%TD*%
%TA.AperFunction,ComponentPad*%
%ADD15O,1.905000X2.000000*%
%TD*%
%TA.AperFunction,ComponentPad*%
%ADD16R,1.905000X2.000000*%
%TD*%
%TA.AperFunction,ComponentPad*%
%ADD17C,3.800000*%
%TD*%
%TA.AperFunction,ComponentPad*%
%ADD18R,2.600000X2.600000*%
%TD*%
%TA.AperFunction,ComponentPad*%
%ADD19C,2.600000*%
%TD*%
%TA.AperFunction,ComponentPad*%
%ADD20O,1.350000X1.350000*%
%TD*%
%TA.AperFunction,ComponentPad*%
%ADD21R,1.350000X1.350000*%
%TD*%
%TA.AperFunction,ViaPad*%
%ADD22C,0.800000*%
%TD*%
%TA.AperFunction,ViaPad*%
%ADD23C,1.600000*%
%TD*%
%TA.AperFunction,Conductor*%
%ADD24C,0.250000*%
%TD*%
%TA.AperFunction,Conductor*%
%ADD25C,1.000000*%
%TD*%
%TA.AperFunction,Conductor*%
%ADD26C,0.800000*%
%TD*%
%TA.AperFunction,Conductor*%
%ADD27C,0.254000*%
%TD*%
%TA.AperFunction,Conductor*%
%ADD28C,0.100000*%
%TD*%
G04 APERTURE END LIST*
D10*
X158000000Y-128000000D02*
X158000000Y-126000000D01*
X176000000Y-128000000D02*
X158000000Y-128000000D01*
X176000000Y-126000000D02*
X176000000Y-128000000D01*
X111000000Y-128000000D02*
X111000000Y-126000000D01*
X89000000Y-128000000D02*
X111000000Y-128000000D01*
X89000000Y-126000000D02*
X89000000Y-128000000D01*
X176000000Y-67000000D02*
X174000000Y-67000000D01*
X176000000Y-126000000D02*
X176000000Y-67000000D01*
X158000000Y-116000000D02*
X158000000Y-126000000D01*
X111000000Y-116000000D02*
X158000000Y-116000000D01*
X111000000Y-126000000D02*
X111000000Y-116000000D01*
X89000000Y-123000000D02*
X89000000Y-126000000D01*
X89000000Y-123000000D02*
X89000000Y-67000000D01*
X89000000Y-67000000D02*
X174000000Y-67000000D01*
D11*
%TO.P,X1,80*%
%TO.N,Net-(X1-Pad80)*%
X98420000Y-121660000D03*
%TO.P,X1,79*%
%TO.N,GND*%
X95880000Y-121660000D03*
%TO.P,X1,78*%
%TO.N,Net-(X1-Pad78)*%
X98420000Y-119120000D03*
%TO.P,X1,77*%
%TO.N,GND*%
X95880000Y-119120000D03*
%TO.P,X1,76*%
%TO.N,Net-(X1-Pad76)*%
X98420000Y-116580000D03*
%TO.P,X1,75*%
%TO.N,Net-(X1-Pad75)*%
X95880000Y-116580000D03*
%TO.P,X1,74*%
%TO.N,Net-(U3-Pad1)*%
X98420000Y-114040000D03*
%TO.P,X1,73*%
%TO.N,Net-(U4-Pad1)*%
X95880000Y-114040000D03*
%TO.P,X1,72*%
%TO.N,Net-(U1-Pad1)*%
X98420000Y-111500000D03*
%TO.P,X1,71*%
%TO.N,Net-(U2-Pad1)*%
X95880000Y-111500000D03*
%TO.P,X1,70*%
%TO.N,Net-(X1-Pad70)*%
X98420000Y-108960000D03*
%TO.P,X1,69*%
%TO.N,Net-(X1-Pad69)*%
X95880000Y-108960000D03*
%TO.P,X1,68*%
%TO.N,Net-(X1-Pad68)*%
X98420000Y-106420000D03*
%TO.P,X1,67*%
%TO.N,GND*%
X95880000Y-106420000D03*
%TO.P,X1,66*%
%TO.N,Net-(X1-Pad66)*%
X98420000Y-103880000D03*
%TO.P,X1,65*%
%TO.N,GND*%
X95880000Y-103880000D03*
%TO.P,X1,64*%
%TO.N,Net-(X1-Pad64)*%
X98420000Y-101340000D03*
%TO.P,X1,63*%
%TO.N,Net-(X1-Pad63)*%
X95880000Y-101340000D03*
%TO.P,X1,62*%
%TO.N,Net-(X1-Pad62)*%
X98420000Y-98800000D03*
%TO.P,X1,61*%
%TO.N,Net-(X1-Pad61)*%
X95880000Y-98800000D03*
%TO.P,X1,60*%
%TO.N,Net-(X1-Pad60)*%
X98420000Y-96260000D03*
%TO.P,X1,59*%
%TO.N,GND*%
X95880000Y-96260000D03*
%TO.P,X1,58*%
%TO.N,Net-(X1-Pad58)*%
X98420000Y-93720000D03*
%TO.P,X1,57*%
%TO.N,GND*%
X95880000Y-93720000D03*
%TO.P,X1,56*%
%TO.N,Net-(X1-Pad56)*%
X98420000Y-91180000D03*
%TO.P,X1,55*%
%TO.N,Net-(X1-Pad55)*%
X95880000Y-91180000D03*
%TO.P,X1,54*%
%TO.N,Net-(X1-Pad54)*%
X98420000Y-88640000D03*
%TO.P,X1,53*%
%TO.N,GND*%
X95880000Y-88640000D03*
%TO.P,X1,52*%
%TO.N,Net-(X1-Pad52)*%
X98420000Y-86100000D03*
%TO.P,X1,51*%
%TO.N,GND*%
X95880000Y-86100000D03*
%TO.P,X1,50*%
%TO.N,Net-(X1-Pad50)*%
X98420000Y-83560000D03*
%TO.P,X1,49*%
%TO.N,Net-(X1-Pad49)*%
X95880000Y-83560000D03*
%TO.P,X1,48*%
%TO.N,Net-(X1-Pad48)*%
X98420000Y-81020000D03*
%TO.P,X1,47*%
%TO.N,GND*%
X95880000Y-81020000D03*
%TO.P,X1,46*%
%TO.N,Net-(X1-Pad46)*%
X98420000Y-78480000D03*
%TO.P,X1,45*%
%TO.N,GND*%
X95880000Y-78480000D03*
%TO.P,X1,44*%
%TO.N,Net-(X1-Pad44)*%
X98420000Y-75940000D03*
%TO.P,X1,43*%
%TO.N,GND*%
X95880000Y-75940000D03*
%TO.P,X1,42*%
%TO.N,Net-(X1-Pad42)*%
X98420000Y-73400000D03*
D12*
%TO.P,X1,41*%
%TO.N,Net-(X1-Pad41)*%
X95880000Y-73400000D03*
D11*
%TO.P,X1,30*%
%TO.N,GND*%
X169540000Y-108960000D03*
%TO.P,X1,40*%
X169540000Y-121660000D03*
%TO.P,X1,39*%
%TO.N,Net-(X1-Pad39)*%
X167000000Y-121660000D03*
%TO.P,X1,9*%
%TO.N,Net-(X1-Pad9)*%
X167000000Y-83560000D03*
%TO.P,X1,7*%
%TO.N,GND*%
X167000000Y-81020000D03*
%TO.P,X1,5*%
%TO.N,Net-(X1-Pad5)*%
X167000000Y-78480000D03*
%TO.P,X1,3*%
%TO.N,Net-(X1-Pad3)*%
X167000000Y-75940000D03*
%TO.P,X1,37*%
%TO.N,Net-(X1-Pad37)*%
X167000000Y-119120000D03*
%TO.P,X1,35*%
%TO.N,Net-(X1-Pad35)*%
X167000000Y-116580000D03*
%TO.P,X1,38*%
%TO.N,GND*%
X169540000Y-119120000D03*
%TO.P,X1,36*%
%TO.N,Net-(X1-Pad36)*%
X169540000Y-116580000D03*
%TO.P,X1,34*%
%TO.N,Net-(X1-Pad34)*%
X169540000Y-114040000D03*
%TO.P,X1,32*%
%TO.N,GND*%
X169540000Y-111500000D03*
%TO.P,X1,28*%
X169540000Y-106420000D03*
%TO.P,X1,33*%
%TO.N,Net-(X1-Pad33)*%
X167000000Y-114040000D03*
%TO.P,X1,26*%
%TO.N,GND*%
X169540000Y-103880000D03*
%TO.P,X1,24*%
X169540000Y-101340000D03*
%TO.P,X1,31*%
%TO.N,Net-(X1-Pad31)*%
X167000000Y-111500000D03*
%TO.P,X1,22*%
%TO.N,GND*%
X169540000Y-98800000D03*
%TO.P,X1,29*%
%TO.N,Net-(X1-Pad29)*%
X167000000Y-108960000D03*
%TO.P,X1,20*%
%TO.N,GND*%
X169540000Y-96260000D03*
%TO.P,X1,27*%
%TO.N,Net-(X1-Pad27)*%
X167000000Y-106420000D03*
%TO.P,X1,18*%
%TO.N,GND*%
X169540000Y-93720000D03*
%TO.P,X1,25*%
%TO.N,Net-(X1-Pad25)*%
X167000000Y-103880000D03*
%TO.P,X1,16*%
%TO.N,GND*%
X169540000Y-91180000D03*
%TO.P,X1,23*%
%TO.N,Net-(X1-Pad23)*%
X167000000Y-101340000D03*
%TO.P,X1,14*%
%TO.N,GND*%
X169540000Y-88640000D03*
%TO.P,X1,21*%
%TO.N,Net-(R17-Pad1)*%
X167000000Y-98800000D03*
%TO.P,X1,12*%
%TO.N,GND*%
X169540000Y-86100000D03*
%TO.P,X1,19*%
%TO.N,Net-(R18-Pad2)*%
X167000000Y-96260000D03*
%TO.P,X1,10*%
%TO.N,GND*%
X169540000Y-83560000D03*
%TO.P,X1,17*%
%TO.N,Net-(X1-Pad17)*%
X167000000Y-93720000D03*
%TO.P,X1,8*%
%TO.N,GND*%
X169540000Y-81020000D03*
%TO.P,X1,15*%
%TO.N,Net-(X1-Pad15)*%
X167000000Y-91180000D03*
%TO.P,X1,6*%
%TO.N,Net-(X1-Pad6)*%
X169540000Y-78480000D03*
%TO.P,X1,13*%
%TO.N,Net-(X1-Pad13)*%
X167000000Y-88640000D03*
%TO.P,X1,4*%
%TO.N,GND*%
X169540000Y-75940000D03*
%TO.P,X1,11*%
%TO.N,Net-(X1-Pad11)*%
X167000000Y-86100000D03*
%TO.P,X1,2*%
%TO.N,Net-(X1-Pad2)*%
X169540000Y-73400000D03*
D12*
%TO.P,X1,1*%
%TO.N,+3V3*%
X167000000Y-73400000D03*
%TD*%
D13*
%TO.P,U3,6*%
%TO.N,Net-(U3-Pad6)*%
X129000000Y-99380000D03*
%TO.P,U3,3*%
%TO.N,Net-(U3-Pad3)*%
X134080000Y-107000000D03*
%TO.P,U3,5*%
%TO.N,Net-(R7-Pad2)*%
X131540000Y-99380000D03*
%TO.P,U3,2*%
%TO.N,Net-(R3-Pad1)*%
X131540000Y-107000000D03*
%TO.P,U3,4*%
%TO.N,Net-(R11-Pad1)*%
X134080000Y-99380000D03*
D14*
%TO.P,U3,1*%
%TO.N,Net-(U3-Pad1)*%
X129000000Y-107000000D03*
%TD*%
D15*
%TO.P,Q3,3*%
%TO.N,GND*%
X147080000Y-86000000D03*
%TO.P,Q3,2*%
%TO.N,Net-(D3-Pad2)*%
X144540000Y-86000000D03*
D16*
%TO.P,Q3,1*%
%TO.N,Net-(Q3-Pad1)*%
X142000000Y-86000000D03*
%TD*%
D15*
%TO.P,Q2,3*%
%TO.N,GND*%
X136080000Y-86000000D03*
%TO.P,Q2,2*%
%TO.N,Net-(D2-Pad2)*%
X133540000Y-86000000D03*
D16*
%TO.P,Q2,1*%
%TO.N,Net-(Q2-Pad1)*%
X131000000Y-86000000D03*
%TD*%
D17*
%TO.P,H4,1*%
%TO.N,N/C*%
X108000000Y-125000000D03*
%TD*%
%TO.P,H3,1*%
%TO.N,N/C*%
X173000000Y-70000000D03*
%TD*%
%TO.P,H2,1*%
%TO.N,N/C*%
X161000000Y-125000000D03*
%TD*%
%TO.P,H1,1*%
%TO.N,N/C*%
X92000000Y-70000000D03*
%TD*%
D18*
%TO.P,J3,1*%
%TO.N,GND*%
X116000000Y-73000000D03*
D19*
%TO.P,J3,2*%
%TO.N,+5VP*%
X110920000Y-73000000D03*
%TD*%
D15*
%TO.P,Q4,3*%
%TO.N,GND*%
X158080000Y-86000000D03*
%TO.P,Q4,2*%
%TO.N,Net-(D4-Pad2)*%
X155540000Y-86000000D03*
D16*
%TO.P,Q4,1*%
%TO.N,Net-(Q4-Pad1)*%
X153000000Y-86000000D03*
%TD*%
D15*
%TO.P,Q1,3*%
%TO.N,GND*%
X125080000Y-86000000D03*
%TO.P,Q1,2*%
%TO.N,Net-(D1-Pad2)*%
X122540000Y-86000000D03*
D16*
%TO.P,Q1,1*%
%TO.N,Net-(Q1-Pad1)*%
X120000000Y-86000000D03*
%TD*%
D13*
%TO.P,U4,6*%
%TO.N,Net-(U4-Pad6)*%
X139000000Y-99380000D03*
%TO.P,U4,3*%
%TO.N,Net-(U4-Pad3)*%
X144080000Y-107000000D03*
%TO.P,U4,5*%
%TO.N,Net-(R8-Pad2)*%
X141540000Y-99380000D03*
%TO.P,U4,2*%
%TO.N,Net-(R4-Pad1)*%
X141540000Y-107000000D03*
%TO.P,U4,4*%
%TO.N,Net-(R12-Pad1)*%
X144080000Y-99380000D03*
D14*
%TO.P,U4,1*%
%TO.N,Net-(U4-Pad1)*%
X139000000Y-107000000D03*
%TD*%
D13*
%TO.P,U2,6*%
%TO.N,Net-(U2-Pad6)*%
X119000000Y-99380000D03*
%TO.P,U2,3*%
%TO.N,Net-(U2-Pad3)*%
X124080000Y-107000000D03*
%TO.P,U2,5*%
%TO.N,Net-(R6-Pad2)*%
X121540000Y-99380000D03*
%TO.P,U2,2*%
%TO.N,Net-(R2-Pad1)*%
X121540000Y-107000000D03*
%TO.P,U2,4*%
%TO.N,Net-(R10-Pad1)*%
X124080000Y-99380000D03*
D14*
%TO.P,U2,1*%
%TO.N,Net-(U2-Pad1)*%
X119000000Y-107000000D03*
%TD*%
D13*
%TO.P,U1,6*%
%TO.N,Net-(U1-Pad6)*%
X109000000Y-99380000D03*
%TO.P,U1,3*%
%TO.N,Net-(U1-Pad3)*%
X114080000Y-107000000D03*
%TO.P,U1,5*%
%TO.N,Net-(R5-Pad2)*%
X111540000Y-99380000D03*
%TO.P,U1,2*%
%TO.N,Net-(R1-Pad1)*%
X111540000Y-107000000D03*
%TO.P,U1,4*%
%TO.N,Net-(R9-Pad1)*%
X114080000Y-99380000D03*
D14*
%TO.P,U1,1*%
%TO.N,Net-(U1-Pad1)*%
X109000000Y-107000000D03*
%TD*%
D20*
%TO.P,J4,5*%
%TO.N,Net-(J4-Pad5)*%
X150000000Y-110000000D03*
%TO.P,J4,4*%
%TO.N,Net-(J4-Pad4)*%
X152000000Y-110000000D03*
%TO.P,J4,3*%
%TO.N,Net-(J4-Pad3)*%
X154000000Y-110000000D03*
%TO.P,J4,2*%
%TO.N,Net-(J4-Pad2)*%
X156000000Y-110000000D03*
D21*
%TO.P,J4,1*%
%TO.N,GND*%
X158000000Y-110000000D03*
%TD*%
D18*
%TO.P,J1,1*%
%TO.N,Net-(D4-Pad2)*%
X147000000Y-72000000D03*
D19*
%TO.P,J1,2*%
%TO.N,Net-(D3-Pad2)*%
X141920000Y-72000000D03*
%TO.P,J1,3*%
%TO.N,Net-(D2-Pad2)*%
X136840000Y-72000000D03*
%TO.P,J1,4*%
%TO.N,Net-(D1-Pad2)*%
X131760000Y-72000000D03*
%TD*%
D21*
%TO.P,J5,1*%
%TO.N,Net-(J5-Pad1)*%
X150000000Y-99000000D03*
%TD*%
D22*
%TO.N,GND*%
X151000000Y-103000000D03*
D23*
X147000000Y-109000000D03*
X137000000Y-109000000D03*
X127000000Y-109000000D03*
X117000000Y-108000000D03*
D22*
X152000000Y-101000000D03*
D23*
X101000000Y-120000000D03*
%TO.N,Net-(U2-Pad1)*%
X119000000Y-110000000D03*
%TO.N,+3V3*%
X163000000Y-103000000D03*
X159000000Y-98000000D03*
%TD*%
D24*
%TO.N,GND*%
X93954990Y-112425010D02*
X94000000Y-112425010D01*
X116000000Y-73000000D02*
X114620002Y-73000000D01*
D25*
%TO.N,Net-(D1-Pad2)*%
X131760000Y-74780000D02*
X131760000Y-72000000D01*
X122540000Y-84000000D02*
X131760000Y-74780000D01*
X122540000Y-86000000D02*
X122540000Y-84000000D01*
%TO.N,Net-(D2-Pad2)*%
X136840000Y-80700000D02*
X136840000Y-72000000D01*
X133540000Y-84000000D02*
X136840000Y-80700000D01*
X133540000Y-86000000D02*
X133540000Y-84000000D01*
%TO.N,Net-(D3-Pad2)*%
X144540000Y-74620000D02*
X141920000Y-72000000D01*
X144540000Y-86000000D02*
X144540000Y-74620000D01*
%TO.N,Net-(D4-Pad2)*%
X155540000Y-80540000D02*
X147000000Y-72000000D01*
X155540000Y-86000000D02*
X155540000Y-80540000D01*
D26*
%TO.N,Net-(U2-Pad1)*%
X115267575Y-110000000D02*
X119000000Y-110000000D01*
X101645565Y-123622010D02*
X115267575Y-110000000D01*
X92000000Y-123000000D02*
X92622010Y-123622010D01*
X92622010Y-123622010D02*
X101645565Y-123622010D01*
X95480000Y-111100000D02*
X95880000Y-111500000D01*
X93406153Y-111100000D02*
X95480000Y-111100000D01*
X92000000Y-112506153D02*
X93406153Y-111100000D01*
X92000000Y-123000000D02*
X92000000Y-112506153D01*
%TO.N,+3V3*%
X163000000Y-75600000D02*
X163000000Y-98000000D01*
X165200000Y-73400000D02*
X163000000Y-75600000D01*
X167000000Y-73400000D02*
X165200000Y-73400000D01*
X163000000Y-98000000D02*
X163000000Y-103000000D01*
X159000000Y-98000000D02*
X163000000Y-98000000D01*
%TD*%
D27*
%TO.N,GND*%
X171197892Y-67804125D02*
X170804125Y-68197892D01*
X170494745Y-68660913D01*
X170281640Y-69175394D01*
X170173000Y-69721565D01*
X170173000Y-70278435D01*
X170281640Y-70824606D01*
X170494745Y-71339087D01*
X170804125Y-71802108D01*
X171197892Y-72195875D01*
X171660913Y-72505255D01*
X172175394Y-72718360D01*
X172721565Y-72827000D01*
X173278435Y-72827000D01*
X173824606Y-72718360D01*
X174339087Y-72505255D01*
X174802108Y-72195875D01*
X175195875Y-71802108D01*
X175340001Y-71586408D01*
X175340000Y-125967581D01*
X175340000Y-125967582D01*
X175340001Y-127340000D01*
X162586409Y-127340000D01*
X162802108Y-127195875D01*
X163195875Y-126802108D01*
X163505255Y-126339087D01*
X163718360Y-125824606D01*
X163827000Y-125278435D01*
X163827000Y-124721565D01*
X163718360Y-124175394D01*
X163505255Y-123660913D01*
X163195875Y-123197892D01*
X162802108Y-122804125D01*
X162339087Y-122494745D01*
X161824606Y-122281640D01*
X161278435Y-122173000D01*
X160721565Y-122173000D01*
X160175394Y-122281640D01*
X159660913Y-122494745D01*
X159197892Y-122804125D01*
X158804125Y-123197892D01*
X158660000Y-123413591D01*
X158660000Y-116032419D01*
X158663193Y-116000000D01*
X158650450Y-115870617D01*
X158612710Y-115746207D01*
X158551425Y-115631550D01*
X158468948Y-115531052D01*
X158368450Y-115448575D01*
X158253793Y-115387290D01*
X158129383Y-115349550D01*
X158032419Y-115340000D01*
X158000000Y-115336807D01*
X157967581Y-115340000D01*
X111804236Y-115340000D01*
X115817236Y-111327000D01*
X117884654Y-111327000D01*
X117899102Y-111341448D01*
X118181959Y-111530447D01*
X118496253Y-111660632D01*
X118829905Y-111727000D01*
X119170095Y-111727000D01*
X119503747Y-111660632D01*
X119818041Y-111530447D01*
X120100898Y-111341448D01*
X120341448Y-111100898D01*
X120530447Y-110818041D01*
X120660632Y-110503747D01*
X120727000Y-110170095D01*
X120727000Y-109870976D01*
X148690000Y-109870976D01*
X148690000Y-110129024D01*
X148740342Y-110382113D01*
X148839093Y-110620518D01*
X148982456Y-110835077D01*
X149164923Y-111017544D01*
X149379482Y-111160907D01*
X149617887Y-111259658D01*
X149870976Y-111310000D01*
X150129024Y-111310000D01*
X150382113Y-111259658D01*
X150620518Y-111160907D01*
X150835077Y-111017544D01*
X151000000Y-110852621D01*
X151164923Y-111017544D01*
X151379482Y-111160907D01*
X151617887Y-111259658D01*
X151870976Y-111310000D01*
X152129024Y-111310000D01*
X152382113Y-111259658D01*
X152620518Y-111160907D01*
X152835077Y-111017544D01*
X153000000Y-110852621D01*
X153164923Y-111017544D01*
X153379482Y-111160907D01*
X153617887Y-111259658D01*
X153870976Y-111310000D01*
X154129024Y-111310000D01*
X154382113Y-111259658D01*
X154620518Y-111160907D01*
X154835077Y-111017544D01*
X155000000Y-110852621D01*
X155164923Y-111017544D01*
X155379482Y-111160907D01*
X155617887Y-111259658D01*
X155870976Y-111310000D01*
X156129024Y-111310000D01*
X156382113Y-111259658D01*
X156620518Y-111160907D01*
X156802513Y-111039303D01*
X156873815Y-111126185D01*
X156970506Y-111205537D01*
X157080820Y-111264502D01*
X157200518Y-111300812D01*
X157325000Y-111313072D01*
X157714250Y-111310000D01*
X157873000Y-111151250D01*
X157873000Y-110127000D01*
X158127000Y-110127000D01*
X158127000Y-111151250D01*
X158285750Y-111310000D01*
X158675000Y-111313072D01*
X158799482Y-111300812D01*
X158919180Y-111264502D01*
X159029494Y-111205537D01*
X159126185Y-111126185D01*
X159205537Y-111029494D01*
X159264502Y-110919180D01*
X159300812Y-110799482D01*
X159313072Y-110675000D01*
X159310000Y-110285750D01*
X159151250Y-110127000D01*
X158127000Y-110127000D01*
X157873000Y-110127000D01*
X157853000Y-110127000D01*
X157853000Y-109873000D01*
X157873000Y-109873000D01*
X157873000Y-108848750D01*
X158127000Y-108848750D01*
X158127000Y-109873000D01*
X159151250Y-109873000D01*
X159310000Y-109714250D01*
X159313072Y-109325000D01*
X159300812Y-109200518D01*
X159264502Y-109080820D01*
X159205537Y-108970506D01*
X159126185Y-108873815D01*
X159029494Y-108794463D01*
X158919180Y-108735498D01*
X158799482Y-108699188D01*
X158675000Y-108686928D01*
X158285750Y-108690000D01*
X158127000Y-108848750D01*
X157873000Y-108848750D01*
X157714250Y-108690000D01*
X157325000Y-108686928D01*
X157200518Y-108699188D01*
X157080820Y-108735498D01*
X156970506Y-108794463D01*
X156873815Y-108873815D01*
X156802513Y-108960697D01*
X156620518Y-108839093D01*
X156382113Y-108740342D01*
X156129024Y-108690000D01*
X155870976Y-108690000D01*
X155617887Y-108740342D01*
X155379482Y-108839093D01*
X155164923Y-108982456D01*
X155000000Y-109147379D01*
X154835077Y-108982456D01*
X154620518Y-108839093D01*
X154382113Y-108740342D01*
X154129024Y-108690000D01*
X153870976Y-108690000D01*
X153617887Y-108740342D01*
X153379482Y-108839093D01*
X153164923Y-108982456D01*
X153000000Y-109147379D01*
X152835077Y-108982456D01*
X152620518Y-108839093D01*
X152382113Y-108740342D01*
X152129024Y-108690000D01*
X151870976Y-108690000D01*
X151617887Y-108740342D01*
X151379482Y-108839093D01*
X151164923Y-108982456D01*
X151000000Y-109147379D01*
X150835077Y-108982456D01*
X150620518Y-108839093D01*
X150382113Y-108740342D01*
X150129024Y-108690000D01*
X149870976Y-108690000D01*
X149617887Y-108740342D01*
X149379482Y-108839093D01*
X149164923Y-108982456D01*
X148982456Y-109164923D01*
X148839093Y-109379482D01*
X148740342Y-109617887D01*
X148690000Y-109870976D01*
X120727000Y-109870976D01*
X120727000Y-109829905D01*
X120660632Y-109496253D01*
X120530447Y-109181959D01*
X120341448Y-108899102D01*
X120100898Y-108658552D01*
X119818041Y-108469553D01*
X119742039Y-108438072D01*
X119800000Y-108438072D01*
X119924482Y-108425812D01*
X120044180Y-108389502D01*
X120154494Y-108330537D01*
X120251185Y-108251185D01*
X120330537Y-108154494D01*
X120389502Y-108044180D01*
X120425812Y-107924482D01*
X120426643Y-107916039D01*
X120625241Y-108114637D01*
X120860273Y-108271680D01*
X121121426Y-108379853D01*
X121398665Y-108435000D01*
X121681335Y-108435000D01*
X121958574Y-108379853D01*
X122219727Y-108271680D01*
X122454759Y-108114637D01*
X122654637Y-107914759D01*
X122810000Y-107682241D01*
X122965363Y-107914759D01*
X123165241Y-108114637D01*
X123400273Y-108271680D01*
X123661426Y-108379853D01*
X123938665Y-108435000D01*
X124221335Y-108435000D01*
X124498574Y-108379853D01*
X124759727Y-108271680D01*
X124994759Y-108114637D01*
X125194637Y-107914759D01*
X125351680Y-107679727D01*
X125459853Y-107418574D01*
X125515000Y-107141335D01*
X125515000Y-106858665D01*
X125459853Y-106581426D01*
X125351680Y-106320273D01*
X125271317Y-106200000D01*
X127268515Y-106200000D01*
X127268515Y-107800000D01*
X127286413Y-107981724D01*
X127339420Y-108156464D01*
X127425499Y-108317505D01*
X127541341Y-108458659D01*
X127682495Y-108574501D01*
X127843536Y-108660580D01*
X128018276Y-108713587D01*
X128200000Y-108731485D01*
X129800000Y-108731485D01*
X129981724Y-108713587D01*
X130156464Y-108660580D01*
X130317505Y-108574501D01*
X130458659Y-108458659D01*
X130513858Y-108391399D01*
X130721959Y-108530447D01*
X131036253Y-108660632D01*
X131369905Y-108727000D01*
X131710095Y-108727000D01*
X132043747Y-108660632D01*
X132358041Y-108530447D01*
X132640898Y-108341448D01*
X132810000Y-108172346D01*
X132979102Y-108341448D01*
X133261959Y-108530447D01*
X133576253Y-108660632D01*
X133909905Y-108727000D01*
X134250095Y-108727000D01*
X134583747Y-108660632D01*
X134898041Y-108530447D01*
X135180898Y-108341448D01*
X135421448Y-108100898D01*
X135610447Y-107818041D01*
X135740632Y-107503747D01*
X135807000Y-107170095D01*
X135807000Y-106829905D01*
X135740632Y-106496253D01*
X135617920Y-106200000D01*
X137268515Y-106200000D01*
X137268515Y-107800000D01*
X137286413Y-107981724D01*
X137339420Y-108156464D01*
X137425499Y-108317505D01*
X137541341Y-108458659D01*
X137682495Y-108574501D01*
X137843536Y-108660580D01*
X138018276Y-108713587D01*
X138200000Y-108731485D01*
X139800000Y-108731485D01*
X139981724Y-108713587D01*
X140156464Y-108660580D01*
X140317505Y-108574501D01*
X140458659Y-108458659D01*
X140513858Y-108391399D01*
X140721959Y-108530447D01*
X141036253Y-108660632D01*
X141369905Y-108727000D01*
X141710095Y-108727000D01*
X142043747Y-108660632D01*
X142358041Y-108530447D01*
X142640898Y-108341448D01*
X142810000Y-108172346D01*
X142979102Y-108341448D01*
X143261959Y-108530447D01*
X143576253Y-108660632D01*
X143909905Y-108727000D01*
X144250095Y-108727000D01*
X144583747Y-108660632D01*
X144898041Y-108530447D01*
X145180898Y-108341448D01*
X145421448Y-108100898D01*
X145610447Y-107818041D01*
X145740632Y-107503747D01*
X145807000Y-107170095D01*
X145807000Y-106829905D01*
X145740632Y-106496253D01*
X145610447Y-106181959D01*
X145421448Y-105899102D01*
X145180898Y-105658552D01*
X144898041Y-105469553D01*
X144583747Y-105339368D01*
X144250095Y-105273000D01*
X143909905Y-105273000D01*
X143576253Y-105339368D01*
X143261959Y-105469553D01*
X142979102Y-105658552D01*
X142810000Y-105827654D01*
X142640898Y-105658552D01*
X142358041Y-105469553D01*
X142043747Y-105339368D01*
X141710095Y-105273000D01*
X141369905Y-105273000D01*
X141036253Y-105339368D01*
X140721959Y-105469553D01*
X140513858Y-105608601D01*
X140458659Y-105541341D01*
X140317505Y-105425499D01*
X140156464Y-105339420D01*
X139981724Y-105286413D01*
X139800000Y-105268515D01*
X138200000Y-105268515D01*
X138018276Y-105286413D01*
X137843536Y-105339420D01*
X137682495Y-105425499D01*
X137541341Y-105541341D01*
X137425499Y-105682495D01*
X137339420Y-105843536D01*
X137286413Y-106018276D01*
X137268515Y-106200000D01*
X135617920Y-106200000D01*
X135610447Y-106181959D01*
X135421448Y-105899102D01*
X135180898Y-105658552D01*
X134898041Y-105469553D01*
X134583747Y-105339368D01*
X134250095Y-105273000D01*
X133909905Y-105273000D01*
X133576253Y-105339368D01*
X133261959Y-105469553D01*
X132979102Y-105658552D01*
X132810000Y-105827654D01*
X132640898Y-105658552D01*
X132358041Y-105469553D01*
X132043747Y-105339368D01*
X131710095Y-105273000D01*
X131369905Y-105273000D01*
X131036253Y-105339368D01*
X130721959Y-105469553D01*
X130513858Y-105608601D01*
X130458659Y-105541341D01*
X130317505Y-105425499D01*
X130156464Y-105339420D01*
X129981724Y-105286413D01*
X129800000Y-105268515D01*
X128200000Y-105268515D01*
X128018276Y-105286413D01*
X127843536Y-105339420D01*
X127682495Y-105425499D01*
X127541341Y-105541341D01*
X127425499Y-105682495D01*
X127339420Y-105843536D01*
X127286413Y-106018276D01*
X127268515Y-106200000D01*
X125271317Y-106200000D01*
X125194637Y-106085241D01*
X124994759Y-105885363D01*
X124759727Y-105728320D01*
X124498574Y-105620147D01*
X124221335Y-105565000D01*
X123938665Y-105565000D01*
X123661426Y-105620147D01*
X123400273Y-105728320D01*
X123165241Y-105885363D01*
X122965363Y-106085241D01*
X122810000Y-106317759D01*
X122654637Y-106085241D01*
X122454759Y-105885363D01*
X122219727Y-105728320D01*
X121958574Y-105620147D01*
X121681335Y-105565000D01*
X121398665Y-105565000D01*
X121121426Y-105620147D01*
X120860273Y-105728320D01*
X120625241Y-105885363D01*
X120426643Y-106083961D01*
X120425812Y-106075518D01*
X120389502Y-105955820D01*
X120330537Y-105845506D01*
X120251185Y-105748815D01*
X120154494Y-105669463D01*
X120044180Y-105610498D01*
X119924482Y-105574188D01*
X119800000Y-105561928D01*
X118200000Y-105561928D01*
X118075518Y-105574188D01*
X117955820Y-105610498D01*
X117845506Y-105669463D01*
X117748815Y-105748815D01*
X117669463Y-105845506D01*
X117610498Y-105955820D01*
X117574188Y-106075518D01*
X117561928Y-106200000D01*
X117561928Y-107800000D01*
X117574188Y-107924482D01*
X117610498Y-108044180D01*
X117669463Y-108154494D01*
X117748815Y-108251185D01*
X117845506Y-108330537D01*
X117955820Y-108389502D01*
X118075518Y-108425812D01*
X118200000Y-108438072D01*
X118257961Y-108438072D01*
X118181959Y-108469553D01*
X117899102Y-108658552D01*
X117884654Y-108673000D01*
X115332748Y-108673000D01*
X115267574Y-108666581D01*
X115202400Y-108673000D01*
X115202391Y-108673000D01*
X115007438Y-108692201D01*
X114848740Y-108740342D01*
X114757297Y-108768081D01*
X114526765Y-108891303D01*
X114375336Y-109015578D01*
X114324705Y-109057130D01*
X114283154Y-109107760D01*
X101095905Y-122295010D01*
X99902621Y-122295010D01*
X99954904Y-122197195D01*
X100034786Y-121933860D01*
X100061759Y-121660000D01*
X100034786Y-121386140D01*
X99954904Y-121122805D01*
X99825183Y-120880113D01*
X99650608Y-120667392D01*
X99437887Y-120492817D01*
X99245529Y-120390000D01*
X99437887Y-120287183D01*
X99650608Y-120112608D01*
X99825183Y-119899887D01*
X99954904Y-119657195D01*
X100034786Y-119393860D01*
X100061759Y-119120000D01*
X100034786Y-118846140D01*
X99954904Y-118582805D01*
X99825183Y-118340113D01*
X99650608Y-118127392D01*
X99437887Y-117952817D01*
X99245529Y-117850000D01*
X99437887Y-117747183D01*
X99650608Y-117572608D01*
X99825183Y-117359887D01*
X99954904Y-117117195D01*
X100034786Y-116853860D01*
X100061759Y-116580000D01*
X100034786Y-116306140D01*
X99954904Y-116042805D01*
X99825183Y-115800113D01*
X99650608Y-115587392D01*
X99437887Y-115412817D01*
X99245529Y-115310000D01*
X99437887Y-115207183D01*
X99650608Y-115032608D01*
X99825183Y-114819887D01*
X99954904Y-114577195D01*
X100034786Y-114313860D01*
X100061759Y-114040000D01*
X100034786Y-113766140D01*
X99954904Y-113502805D01*
X99825183Y-113260113D01*
X99650608Y-113047392D01*
X99437887Y-112872817D01*
X99245529Y-112770000D01*
X99437887Y-112667183D01*
X99650608Y-112492608D01*
X99825183Y-112279887D01*
X99954904Y-112037195D01*
X100034786Y-111773860D01*
X100061759Y-111500000D01*
X100034786Y-111226140D01*
X99954904Y-110962805D01*
X99825183Y-110720113D01*
X99650608Y-110507392D01*
X99437887Y-110332817D01*
X99245529Y-110230000D01*
X99437887Y-110127183D01*
X99650608Y-109952608D01*
X99825183Y-109739887D01*
X99954904Y-109497195D01*
X100034786Y-109233860D01*
X100061759Y-108960000D01*
X100034786Y-108686140D01*
X99954904Y-108422805D01*
X99825183Y-108180113D01*
X99650608Y-107967392D01*
X99437887Y-107792817D01*
X99245529Y-107690000D01*
X99437887Y-107587183D01*
X99650608Y-107412608D01*
X99825183Y-107199887D01*
X99954904Y-106957195D01*
X100034786Y-106693860D01*
X100061759Y-106420000D01*
X100040091Y-106200000D01*
X107268515Y-106200000D01*
X107268515Y-107800000D01*
X107286413Y-107981724D01*
X107339420Y-108156464D01*
X107425499Y-108317505D01*
X107541341Y-108458659D01*
X107682495Y-108574501D01*
X107843536Y-108660580D01*
X108018276Y-108713587D01*
X108200000Y-108731485D01*
X109800000Y-108731485D01*
X109981724Y-108713587D01*
X110156464Y-108660580D01*
X110317505Y-108574501D01*
X110458659Y-108458659D01*
X110513858Y-108391399D01*
X110721959Y-108530447D01*
X111036253Y-108660632D01*
X111369905Y-108727000D01*
X111710095Y-108727000D01*
X112043747Y-108660632D01*
X112358041Y-108530447D01*
X112640898Y-108341448D01*
X112810000Y-108172346D01*
X112979102Y-108341448D01*
X113261959Y-108530447D01*
X113576253Y-108660632D01*
X113909905Y-108727000D01*
X114250095Y-108727000D01*
X114583747Y-108660632D01*
X114898041Y-108530447D01*
X115180898Y-108341448D01*
X115421448Y-108100898D01*
X115610447Y-107818041D01*
X115740632Y-107503747D01*
X115807000Y-107170095D01*
X115807000Y-106829905D01*
X115740632Y-106496253D01*
X115610447Y-106181959D01*
X115421448Y-105899102D01*
X115180898Y-105658552D01*
X114898041Y-105469553D01*
X114583747Y-105339368D01*
X114250095Y-105273000D01*
X113909905Y-105273000D01*
X113576253Y-105339368D01*
X113261959Y-105469553D01*
X112979102Y-105658552D01*
X112810000Y-105827654D01*
X112640898Y-105658552D01*
X112358041Y-105469553D01*
X112043747Y-105339368D01*
X111710095Y-105273000D01*
X111369905Y-105273000D01*
X111036253Y-105339368D01*
X110721959Y-105469553D01*
X110513858Y-105608601D01*
X110458659Y-105541341D01*
X110317505Y-105425499D01*
X110156464Y-105339420D01*
X109981724Y-105286413D01*
X109800000Y-105268515D01*
X108200000Y-105268515D01*
X108018276Y-105286413D01*
X107843536Y-105339420D01*
X107682495Y-105425499D01*
X107541341Y-105541341D01*
X107425499Y-105682495D01*
X107339420Y-105843536D01*
X107286413Y-106018276D01*
X107268515Y-106200000D01*
X100040091Y-106200000D01*
X100034786Y-106146140D01*
X99954904Y-105882805D01*
X99825183Y-105640113D01*
X99650608Y-105427392D01*
X99437887Y-105252817D01*
X99245529Y-105150000D01*
X99437887Y-105047183D01*
X99650608Y-104872608D01*
X99825183Y-104659887D01*
X99954904Y-104417195D01*
X100034786Y-104153860D01*
X100061759Y-103880000D01*
X100034786Y-103606140D01*
X99954904Y-103342805D01*
X99825183Y-103100113D01*
X99650608Y-102887392D01*
X99437887Y-102712817D01*
X99245529Y-102610000D01*
X99437887Y-102507183D01*
X99650608Y-102332608D01*
X99825183Y-102119887D01*
X99954904Y-101877195D01*
X100034786Y-101613860D01*
X100061759Y-101340000D01*
X100034786Y-101066140D01*
X99954904Y-100802805D01*
X99825183Y-100560113D01*
X99650608Y-100347392D01*
X99437887Y-100172817D01*
X99245529Y-100070000D01*
X99437887Y-99967183D01*
X99650608Y-99792608D01*
X99825183Y-99579887D01*
X99954904Y-99337195D01*
X99993517Y-99209905D01*
X107273000Y-99209905D01*
X107273000Y-99550095D01*
X107339368Y-99883747D01*
X107469553Y-100198041D01*
X107658552Y-100480898D01*
X107899102Y-100721448D01*
X108181959Y-100910447D01*
X108496253Y-101040632D01*
X108829905Y-101107000D01*
X109170095Y-101107000D01*
X109503747Y-101040632D01*
X109818041Y-100910447D01*
X110100898Y-100721448D01*
X110270000Y-100552346D01*
X110439102Y-100721448D01*
X110721959Y-100910447D01*
X111036253Y-101040632D01*
X111369905Y-101107000D01*
X111710095Y-101107000D01*
X112043747Y-101040632D01*
X112358041Y-100910447D01*
X112640898Y-100721448D01*
X112810000Y-100552346D01*
X112979102Y-100721448D01*
X113261959Y-100910447D01*
X113576253Y-101040632D01*
X113909905Y-101107000D01*
X114250095Y-101107000D01*
X114583747Y-101040632D01*
X114898041Y-100910447D01*
X115180898Y-100721448D01*
X115421448Y-100480898D01*
X115610447Y-100198041D01*
X115740632Y-99883747D01*
X115807000Y-99550095D01*
X115807000Y-99238665D01*
X117565000Y-99238665D01*
X117565000Y-99521335D01*
X117620147Y-99798574D01*
X117728320Y-100059727D01*
X117885363Y-100294759D01*
X118085241Y-100494637D01*
X118320273Y-100651680D01*
X118581426Y-100759853D01*
X118858665Y-100815000D01*
X119141335Y-100815000D01*
X119418574Y-100759853D01*
X119679727Y-100651680D01*
X119914759Y-100494637D01*
X120114637Y-100294759D01*
X120270000Y-100062241D01*
X120425363Y-100294759D01*
X120625241Y-100494637D01*
X120860273Y-100651680D01*
X121121426Y-100759853D01*
X121398665Y-100815000D01*
X121681335Y-100815000D01*
X121958574Y-100759853D01*
X122219727Y-100651680D01*
X122454759Y-100494637D01*
X122654637Y-100294759D01*
X122810000Y-100062241D01*
X122965363Y-100294759D01*
X123165241Y-100494637D01*
X123400273Y-100651680D01*
X123661426Y-100759853D01*
X123938665Y-100815000D01*
X124221335Y-100815000D01*
X124498574Y-100759853D01*
X124759727Y-100651680D01*
X124994759Y-100494637D01*
X125194637Y-100294759D01*
X125351680Y-100059727D01*
X125459853Y-99798574D01*
X125515000Y-99521335D01*
X125515000Y-99238665D01*
X125509280Y-99209905D01*
X127273000Y-99209905D01*
X127273000Y-99550095D01*
X127339368Y-99883747D01*
X127469553Y-100198041D01*
X127658552Y-100480898D01*
X127899102Y-100721448D01*
X128181959Y-100910447D01*
X128496253Y-101040632D01*
X128829905Y-101107000D01*
X129170095Y-101107000D01*
X129503747Y-101040632D01*
X129818041Y-100910447D01*
X130100898Y-100721448D01*
X130270000Y-100552346D01*
X130439102Y-100721448D01*
X130721959Y-100910447D01*
X131036253Y-101040632D01*
X131369905Y-101107000D01*
X131710095Y-101107000D01*
X132043747Y-101040632D01*
X132358041Y-100910447D01*
X132640898Y-100721448D01*
X132810000Y-100552346D01*
X132979102Y-100721448D01*
X133261959Y-100910447D01*
X133576253Y-101040632D01*
X133909905Y-101107000D01*
X134250095Y-101107000D01*
X134583747Y-101040632D01*
X134898041Y-100910447D01*
X135180898Y-100721448D01*
X135421448Y-100480898D01*
X135610447Y-100198041D01*
X135740632Y-99883747D01*
X135807000Y-99550095D01*
X135807000Y-99209905D01*
X137273000Y-99209905D01*
X137273000Y-99550095D01*
X137339368Y-99883747D01*
X137469553Y-100198041D01*
X137658552Y-100480898D01*
X137899102Y-100721448D01*
X138181959Y-100910447D01*
X138496253Y-101040632D01*
X138829905Y-101107000D01*
X139170095Y-101107000D01*
X139503747Y-101040632D01*
X139818041Y-100910447D01*
X140100898Y-100721448D01*
X140270000Y-100552346D01*
X140439102Y-100721448D01*
X140721959Y-100910447D01*
X141036253Y-101040632D01*
X141369905Y-101107000D01*
X141710095Y-101107000D01*
X142043747Y-101040632D01*
X142358041Y-100910447D01*
X142640898Y-100721448D01*
X142810000Y-100552346D01*
X142979102Y-100721448D01*
X143261959Y-100910447D01*
X143576253Y-101040632D01*
X143909905Y-101107000D01*
X144250095Y-101107000D01*
X144583747Y-101040632D01*
X144898041Y-100910447D01*
X145180898Y-100721448D01*
X145421448Y-100480898D01*
X145610447Y-100198041D01*
X145740632Y-99883747D01*
X145807000Y-99550095D01*
X145807000Y-99209905D01*
X145740632Y-98876253D01*
X145610447Y-98561959D01*
X145452117Y-98325000D01*
X148686928Y-98325000D01*
X148686928Y-99675000D01*
X148699188Y-99799482D01*
X148735498Y-99919180D01*
X148794463Y-100029494D01*
X148873815Y-100126185D01*
X148970506Y-100205537D01*
X149080820Y-100264502D01*
X149200518Y-100300812D01*
X149325000Y-100313072D01*
X150675000Y-100313072D01*
X150799482Y-100300812D01*
X150919180Y-100264502D01*
X151029494Y-100205537D01*
X151126185Y-100126185D01*
X151205537Y-100029494D01*
X151264502Y-99919180D01*
X151300812Y-99799482D01*
X151313072Y-99675000D01*
X151313072Y-98325000D01*
X151300812Y-98200518D01*
X151264502Y-98080820D01*
X151205537Y-97970506D01*
X151126185Y-97873815D01*
X151107725Y-97858665D01*
X157565000Y-97858665D01*
X157565000Y-98141335D01*
X157620147Y-98418574D01*
X157728320Y-98679727D01*
X157885363Y-98914759D01*
X158085241Y-99114637D01*
X158320273Y-99271680D01*
X158581426Y-99379853D01*
X158858665Y-99435000D01*
X159141335Y-99435000D01*
X159418574Y-99379853D01*
X159679727Y-99271680D01*
X159914759Y-99114637D01*
X159994396Y-99035000D01*
X161965000Y-99035000D01*
X161965001Y-102005603D01*
X161885363Y-102085241D01*
X161728320Y-102320273D01*
X161620147Y-102581426D01*
X161565000Y-102858665D01*
X161565000Y-103141335D01*
X161620147Y-103418574D01*
X161728320Y-103679727D01*
X161885363Y-103914759D01*
X162085241Y-104114637D01*
X162320273Y-104271680D01*
X162581426Y-104379853D01*
X162858665Y-104435000D01*
X163141335Y-104435000D01*
X163418574Y-104379853D01*
X163679727Y-104271680D01*
X163914759Y-104114637D01*
X164114637Y-103914759D01*
X164271680Y-103679727D01*
X164379853Y-103418574D01*
X164435000Y-103141335D01*
X164435000Y-102858665D01*
X164379853Y-102581426D01*
X164271680Y-102320273D01*
X164114637Y-102085241D01*
X164035000Y-102005604D01*
X164035000Y-98050838D01*
X164040007Y-98000000D01*
X164035000Y-97949162D01*
X164035000Y-83560000D01*
X165358241Y-83560000D01*
X165385214Y-83833860D01*
X165465096Y-84097195D01*
X165594817Y-84339887D01*
X165769392Y-84552608D01*
X165982113Y-84727183D01*
X166174471Y-84830000D01*
X165982113Y-84932817D01*
X165769392Y-85107392D01*
X165594817Y-85320113D01*
X165465096Y-85562805D01*
X165385214Y-85826140D01*
X165358241Y-86100000D01*
X165385214Y-86373860D01*
X165465096Y-86637195D01*
X165594817Y-86879887D01*
X165769392Y-87092608D01*
X165982113Y-87267183D01*
X166174471Y-87370000D01*
X165982113Y-87472817D01*
X165769392Y-87647392D01*
X165594817Y-87860113D01*
X165465096Y-88102805D01*
X165385214Y-88366140D01*
X165358241Y-88640000D01*
X165385214Y-88913860D01*
X165465096Y-89177195D01*
X165594817Y-89419887D01*
X165769392Y-89632608D01*
X165982113Y-89807183D01*
X166174471Y-89910000D01*
X165982113Y-90012817D01*
X165769392Y-90187392D01*
X165594817Y-90400113D01*
X165465096Y-90642805D01*
X165385214Y-90906140D01*
X165358241Y-91180000D01*
X165385214Y-91453860D01*
X165465096Y-91717195D01*
X165594817Y-91959887D01*
X165769392Y-92172608D01*
X165982113Y-92347183D01*
X166174471Y-92450000D01*
X165982113Y-92552817D01*
X165769392Y-92727392D01*
X165594817Y-92940113D01*
X165465096Y-93182805D01*
X165385214Y-93446140D01*
X165358241Y-93720000D01*
X165385214Y-93993860D01*
X165465096Y-94257195D01*
X165594817Y-94499887D01*
X165769392Y-94712608D01*
X165982113Y-94887183D01*
X166174471Y-94990000D01*
X165982113Y-95092817D01*
X165769392Y-95267392D01*
X165594817Y-95480113D01*
X165465096Y-95722805D01*
X165385214Y-95986140D01*
X165358241Y-96260000D01*
X165385214Y-96533860D01*
X165465096Y-96797195D01*
X165594817Y-97039887D01*
X165769392Y-97252608D01*
X165982113Y-97427183D01*
X166174471Y-97530000D01*
X165982113Y-97632817D01*
X165769392Y-97807392D01*
X165594817Y-98020113D01*
X165465096Y-98262805D01*
X165385214Y-98526140D01*
X165358241Y-98800000D01*
X165385214Y-99073860D01*
X165465096Y-99337195D01*
X165594817Y-99579887D01*
X165769392Y-99792608D01*
X165982113Y-99967183D01*
X166174471Y-100070000D01*
X165982113Y-100172817D01*
X165769392Y-100347392D01*
X165594817Y-100560113D01*
X165465096Y-100802805D01*
X165385214Y-101066140D01*
X165358241Y-101340000D01*
X165385214Y-101613860D01*
X165465096Y-101877195D01*
X165594817Y-102119887D01*
X165769392Y-102332608D01*
X165982113Y-102507183D01*
X166174471Y-102610000D01*
X165982113Y-102712817D01*
X165769392Y-102887392D01*
X165594817Y-103100113D01*
X165465096Y-103342805D01*
X165385214Y-103606140D01*
X165358241Y-103880000D01*
X165385214Y-104153860D01*
X165465096Y-104417195D01*
X165594817Y-104659887D01*
X165769392Y-104872608D01*
X165982113Y-105047183D01*
X166174471Y-105150000D01*
X165982113Y-105252817D01*
X165769392Y-105427392D01*
X165594817Y-105640113D01*
X165465096Y-105882805D01*
X165385214Y-106146140D01*
X165358241Y-106420000D01*
X165385214Y-106693860D01*
X165465096Y-106957195D01*
X165594817Y-107199887D01*
X165769392Y-107412608D01*
X165982113Y-107587183D01*
X166174471Y-107690000D01*
X165982113Y-107792817D01*
X165769392Y-107967392D01*
X165594817Y-108180113D01*
X165465096Y-108422805D01*
X165385214Y-108686140D01*
X165358241Y-108960000D01*
X165385214Y-109233860D01*
X165465096Y-109497195D01*
X165594817Y-109739887D01*
X165769392Y-109952608D01*
X165982113Y-110127183D01*
X166174471Y-110230000D01*
X165982113Y-110332817D01*
X165769392Y-110507392D01*
X165594817Y-110720113D01*
X165465096Y-110962805D01*
X165385214Y-111226140D01*
X165358241Y-111500000D01*
X165385214Y-111773860D01*
X165465096Y-112037195D01*
X165594817Y-112279887D01*
X165769392Y-112492608D01*
X165982113Y-112667183D01*
X166174471Y-112770000D01*
X165982113Y-112872817D01*
X165769392Y-113047392D01*
X165594817Y-113260113D01*
X165465096Y-113502805D01*
X165385214Y-113766140D01*
X165358241Y-114040000D01*
X165385214Y-114313860D01*
X165465096Y-114577195D01*
X165594817Y-114819887D01*
X165769392Y-115032608D01*
X165982113Y-115207183D01*
X166174471Y-115310000D01*
X165982113Y-115412817D01*
X165769392Y-115587392D01*
X165594817Y-115800113D01*
X165465096Y-116042805D01*
X165385214Y-116306140D01*
X165358241Y-116580000D01*
X165385214Y-116853860D01*
X165465096Y-117117195D01*
X165594817Y-117359887D01*
X165769392Y-117572608D01*
X165982113Y-117747183D01*
X166174471Y-117850000D01*
X165982113Y-117952817D01*
X165769392Y-118127392D01*
X165594817Y-118340113D01*
X165465096Y-118582805D01*
X165385214Y-118846140D01*
X165358241Y-119120000D01*
X165385214Y-119393860D01*
X165465096Y-119657195D01*
X165594817Y-119899887D01*
X165769392Y-120112608D01*
X165982113Y-120287183D01*
X166174471Y-120390000D01*
X165982113Y-120492817D01*
X165769392Y-120667392D01*
X165594817Y-120880113D01*
X165465096Y-121122805D01*
X165385214Y-121386140D01*
X165358241Y-121660000D01*
X165385214Y-121933860D01*
X165465096Y-122197195D01*
X165594817Y-122439887D01*
X165769392Y-122652608D01*
X165982113Y-122827183D01*
X166224805Y-122956904D01*
X166488140Y-123036786D01*
X166693375Y-123057000D01*
X167306625Y-123057000D01*
X167511860Y-123036786D01*
X167775195Y-122956904D01*
X168017887Y-122827183D01*
X168230608Y-122652608D01*
X168267774Y-122607321D01*
X168431809Y-122764890D01*
X168664083Y-122913426D01*
X168920872Y-123013793D01*
X169192307Y-123062135D01*
X169413000Y-122903282D01*
X169413000Y-121787000D01*
X169667000Y-121787000D01*
X169667000Y-122903282D01*
X169887693Y-123062135D01*
X170159128Y-123013793D01*
X170415917Y-122913426D01*
X170648191Y-122764890D01*
X170847024Y-122573894D01*
X171004775Y-122347778D01*
X171115382Y-122095231D01*
X171132220Y-122003070D01*
X171009720Y-121787000D01*
X169667000Y-121787000D01*
X169413000Y-121787000D01*
X169393000Y-121787000D01*
X169393000Y-121533000D01*
X169413000Y-121533000D01*
X169413000Y-120416718D01*
X169375881Y-120390000D01*
X169413000Y-120363282D01*
X169413000Y-119247000D01*
X169667000Y-119247000D01*
X169667000Y-120363282D01*
X169704119Y-120390000D01*
X169667000Y-120416718D01*
X169667000Y-121533000D01*
X171009720Y-121533000D01*
X171132220Y-121316930D01*
X171115382Y-121224769D01*
X171004775Y-120972222D01*
X170847024Y-120746106D01*
X170648191Y-120555110D01*
X170415917Y-120406574D01*
X170373512Y-120390000D01*
X170415917Y-120373426D01*
X170648191Y-120224890D01*
X170847024Y-120033894D01*
X171004775Y-119807778D01*
X171115382Y-119555231D01*
X171132220Y-119463070D01*
X171009720Y-119247000D01*
X169667000Y-119247000D01*
X169413000Y-119247000D01*
X169393000Y-119247000D01*
X169393000Y-118993000D01*
X169413000Y-118993000D01*
X169413000Y-118973000D01*
X169667000Y-118973000D01*
X169667000Y-118993000D01*
X171009720Y-118993000D01*
X171132220Y-118776930D01*
X171115382Y-118684769D01*
X171004775Y-118432222D01*
X170847024Y-118206106D01*
X170648191Y-118015110D01*
X170415917Y-117866574D01*
X170368901Y-117848198D01*
X170557887Y-117747183D01*
X170770608Y-117572608D01*
X170945183Y-117359887D01*
X171074904Y-117117195D01*
X171154786Y-116853860D01*
X171181759Y-116580000D01*
X171154786Y-116306140D01*
X171074904Y-116042805D01*
X170945183Y-115800113D01*
X170770608Y-115587392D01*
X170557887Y-115412817D01*
X170365529Y-115310000D01*
X170557887Y-115207183D01*
X170770608Y-115032608D01*
X170945183Y-114819887D01*
X171074904Y-114577195D01*
X171154786Y-114313860D01*
X171181759Y-114040000D01*
X171154786Y-113766140D01*
X171074904Y-113502805D01*
X170945183Y-113260113D01*
X170770608Y-113047392D01*
X170557887Y-112872817D01*
X170368901Y-112771802D01*
X170415917Y-112753426D01*
X170648191Y-112604890D01*
X170847024Y-112413894D01*
X171004775Y-112187778D01*
X171115382Y-111935231D01*
X171132220Y-111843070D01*
X171009720Y-111627000D01*
X169667000Y-111627000D01*
X169667000Y-111647000D01*
X169413000Y-111647000D01*
X169413000Y-111627000D01*
X169393000Y-111627000D01*
X169393000Y-111373000D01*
X169413000Y-111373000D01*
X169413000Y-110256718D01*
X169375881Y-110230000D01*
X169413000Y-110203282D01*
X169413000Y-109087000D01*
X169667000Y-109087000D01*
X169667000Y-110203282D01*
X169704119Y-110230000D01*
X169667000Y-110256718D01*
X169667000Y-111373000D01*
X171009720Y-111373000D01*
X171132220Y-111156930D01*
X171115382Y-111064769D01*
X171004775Y-110812222D01*
X170847024Y-110586106D01*
X170648191Y-110395110D01*
X170415917Y-110246574D01*
X170373512Y-110230000D01*
X170415917Y-110213426D01*
X170648191Y-110064890D01*
X170847024Y-109873894D01*
X171004775Y-109647778D01*
X171115382Y-109395231D01*
X171132220Y-109303070D01*
X171009720Y-109087000D01*
X169667000Y-109087000D01*
X169413000Y-109087000D01*
X169393000Y-109087000D01*
X169393000Y-108833000D01*
X169413000Y-108833000D01*
X169413000Y-107716718D01*
X169375881Y-107690000D01*
X169413000Y-107663282D01*
X169413000Y-106547000D01*
X169667000Y-106547000D01*
X169667000Y-107663282D01*
X169704119Y-107690000D01*
X169667000Y-107716718D01*
X169667000Y-108833000D01*
X171009720Y-108833000D01*
X171132220Y-108616930D01*
X171115382Y-108524769D01*
X171004775Y-108272222D01*
X170847024Y-108046106D01*
X170648191Y-107855110D01*
X170415917Y-107706574D01*
X170373512Y-107690000D01*
X170415917Y-107673426D01*
X170648191Y-107524890D01*
X170847024Y-107333894D01*
X171004775Y-107107778D01*
X171115382Y-106855231D01*
X171132220Y-106763070D01*
X171009720Y-106547000D01*
X169667000Y-106547000D01*
X169413000Y-106547000D01*
X169393000Y-106547000D01*
X169393000Y-106293000D01*
X169413000Y-106293000D01*
X169413000Y-105176718D01*
X169375881Y-105150000D01*
X169413000Y-105123282D01*
X169413000Y-104007000D01*
X169667000Y-104007000D01*
X169667000Y-105123282D01*
X169704119Y-105150000D01*
X169667000Y-105176718D01*
X169667000Y-106293000D01*
X171009720Y-106293000D01*
X171132220Y-106076930D01*
X171115382Y-105984769D01*
X171004775Y-105732222D01*
X170847024Y-105506106D01*
X170648191Y-105315110D01*
X170415917Y-105166574D01*
X170373512Y-105150000D01*
X170415917Y-105133426D01*
X170648191Y-104984890D01*
X170847024Y-104793894D01*
X171004775Y-104567778D01*
X171115382Y-104315231D01*
X171132220Y-104223070D01*
X171009720Y-104007000D01*
X169667000Y-104007000D01*
X169413000Y-104007000D01*
X169393000Y-104007000D01*
X169393000Y-103753000D01*
X169413000Y-103753000D01*
X169413000Y-102636718D01*
X169375881Y-102610000D01*
X169413000Y-102583282D01*
X169413000Y-101467000D01*
X169667000Y-101467000D01*
X169667000Y-102583282D01*
X169704119Y-102610000D01*
X169667000Y-102636718D01*
X169667000Y-103753000D01*
X171009720Y-103753000D01*
X171132220Y-103536930D01*
X171115382Y-103444769D01*
X171004775Y-103192222D01*
X170847024Y-102966106D01*
X170648191Y-102775110D01*
X170415917Y-102626574D01*
X170373512Y-102610000D01*
X170415917Y-102593426D01*
X170648191Y-102444890D01*
X170847024Y-102253894D01*
X171004775Y-102027778D01*
X171115382Y-101775231D01*
X171132220Y-101683070D01*
X171009720Y-101467000D01*
X169667000Y-101467000D01*
X169413000Y-101467000D01*
X169393000Y-101467000D01*
X169393000Y-101213000D01*
X169413000Y-101213000D01*
X169413000Y-100096718D01*
X169375881Y-100070000D01*
X169413000Y-100043282D01*
X169413000Y-98927000D01*
X169667000Y-98927000D01*
X169667000Y-100043282D01*
X169704119Y-100070000D01*
X169667000Y-100096718D01*
X169667000Y-101213000D01*
X171009720Y-101213000D01*
X171132220Y-100996930D01*
X171115382Y-100904769D01*
X171004775Y-100652222D01*
X170847024Y-100426106D01*
X170648191Y-100235110D01*
X170415917Y-100086574D01*
X170373512Y-100070000D01*
X170415917Y-100053426D01*
X170648191Y-99904890D01*
X170847024Y-99713894D01*
X171004775Y-99487778D01*
X171115382Y-99235231D01*
X171132220Y-99143070D01*
X171009720Y-98927000D01*
X169667000Y-98927000D01*
X169413000Y-98927000D01*
X169393000Y-98927000D01*
X169393000Y-98673000D01*
X169413000Y-98673000D01*
X169413000Y-97556718D01*
X169375881Y-97530000D01*
X169413000Y-97503282D01*
X169413000Y-96387000D01*
X169667000Y-96387000D01*
X169667000Y-97503282D01*
X169704119Y-97530000D01*
X169667000Y-97556718D01*
X169667000Y-98673000D01*
X171009720Y-98673000D01*
X171132220Y-98456930D01*
X171115382Y-98364769D01*
X171004775Y-98112222D01*
X170847024Y-97886106D01*
X170648191Y-97695110D01*
X170415917Y-97546574D01*
X170373512Y-97530000D01*
X170415917Y-97513426D01*
X170648191Y-97364890D01*
X170847024Y-97173894D01*
X171004775Y-96947778D01*
X171115382Y-96695231D01*
X171132220Y-96603070D01*
X171009720Y-96387000D01*
X169667000Y-96387000D01*
X169413000Y-96387000D01*
X169393000Y-96387000D01*
X169393000Y-96133000D01*
X169413000Y-96133000D01*
X169413000Y-95016718D01*
X169375881Y-94990000D01*
X169413000Y-94963282D01*
X169413000Y-93847000D01*
X169667000Y-93847000D01*
X169667000Y-94963282D01*
X169704119Y-94990000D01*
X169667000Y-95016718D01*
X169667000Y-96133000D01*
X171009720Y-96133000D01*
X171132220Y-95916930D01*
X171115382Y-95824769D01*
X171004775Y-95572222D01*
X170847024Y-95346106D01*
X170648191Y-95155110D01*
X170415917Y-95006574D01*
X170373512Y-94990000D01*
X170415917Y-94973426D01*
X170648191Y-94824890D01*
X170847024Y-94633894D01*
X171004775Y-94407778D01*
X171115382Y-94155231D01*
X171132220Y-94063070D01*
X171009720Y-93847000D01*
X169667000Y-93847000D01*
X169413000Y-93847000D01*
X169393000Y-93847000D01*
X169393000Y-93593000D01*
X169413000Y-93593000D01*
X169413000Y-92476718D01*
X169375881Y-92450000D01*
X169413000Y-92423282D01*
X169413000Y-91307000D01*
X169667000Y-91307000D01*
X169667000Y-92423282D01*
X169704119Y-92450000D01*
X169667000Y-92476718D01*
X169667000Y-93593000D01*
X171009720Y-93593000D01*
X171132220Y-93376930D01*
X171115382Y-93284769D01*
X171004775Y-93032222D01*
X170847024Y-92806106D01*
X170648191Y-92615110D01*
X170415917Y-92466574D01*
X170373512Y-92450000D01*
X170415917Y-92433426D01*
X170648191Y-92284890D01*
X170847024Y-92093894D01*
X171004775Y-91867778D01*
X171115382Y-91615231D01*
X171132220Y-91523070D01*
X171009720Y-91307000D01*
X169667000Y-91307000D01*
X169413000Y-91307000D01*
X169393000Y-91307000D01*
X169393000Y-91053000D01*
X169413000Y-91053000D01*
X169413000Y-89936718D01*
X169375881Y-89910000D01*
X169413000Y-89883282D01*
X169413000Y-88767000D01*
X169667000Y-88767000D01*
X169667000Y-89883282D01*
X169704119Y-89910000D01*
X169667000Y-89936718D01*
X169667000Y-91053000D01*
X171009720Y-91053000D01*
X171132220Y-90836930D01*
X171115382Y-90744769D01*
X171004775Y-90492222D01*
X170847024Y-90266106D01*
X170648191Y-90075110D01*
X170415917Y-89926574D01*
X170373512Y-89910000D01*
X170415917Y-89893426D01*
X170648191Y-89744890D01*
X170847024Y-89553894D01*
X171004775Y-89327778D01*
X171115382Y-89075231D01*
X171132220Y-88983070D01*
X171009720Y-88767000D01*
X169667000Y-88767000D01*
X169413000Y-88767000D01*
X169393000Y-88767000D01*
X169393000Y-88513000D01*
X169413000Y-88513000D01*
X169413000Y-87396718D01*
X169375881Y-87370000D01*
X169413000Y-87343282D01*
X169413000Y-86227000D01*
X169667000Y-86227000D01*
X169667000Y-87343282D01*
X169704119Y-87370000D01*
X169667000Y-87396718D01*
X169667000Y-88513000D01*
X171009720Y-88513000D01*
X171132220Y-88296930D01*
X171115382Y-88204769D01*
X171004775Y-87952222D01*
X170847024Y-87726106D01*
X170648191Y-87535110D01*
X170415917Y-87386574D01*
X170373512Y-87370000D01*
X170415917Y-87353426D01*
X170648191Y-87204890D01*
X170847024Y-87013894D01*
X171004775Y-86787778D01*
X171115382Y-86535231D01*
X171132220Y-86443070D01*
X171009720Y-86227000D01*
X169667000Y-86227000D01*
X169413000Y-86227000D01*
X169393000Y-86227000D01*
X169393000Y-85973000D01*
X169413000Y-85973000D01*
X169413000Y-84856718D01*
X169375881Y-84830000D01*
X169413000Y-84803282D01*
X169413000Y-83687000D01*
X169667000Y-83687000D01*
X169667000Y-84803282D01*
X169704119Y-84830000D01*
X169667000Y-84856718D01*
X169667000Y-85973000D01*
X171009720Y-85973000D01*
X171132220Y-85756930D01*
X171115382Y-85664769D01*
X171004775Y-85412222D01*
X170847024Y-85186106D01*
X170648191Y-84995110D01*
X170415917Y-84846574D01*
X170373512Y-84830000D01*
X170415917Y-84813426D01*
X170648191Y-84664890D01*
X170847024Y-84473894D01*
X171004775Y-84247778D01*
X171115382Y-83995231D01*
X171132220Y-83903070D01*
X171009720Y-83687000D01*
X169667000Y-83687000D01*
X169413000Y-83687000D01*
X169393000Y-83687000D01*
X169393000Y-83433000D01*
X169413000Y-83433000D01*
X169413000Y-82316718D01*
X169375881Y-82290000D01*
X169413000Y-82263282D01*
X169413000Y-81147000D01*
X169667000Y-81147000D01*
X169667000Y-82263282D01*
X169704119Y-82290000D01*
X169667000Y-82316718D01*
X169667000Y-83433000D01*
X171009720Y-83433000D01*
X171132220Y-83216930D01*
X171115382Y-83124769D01*
X171004775Y-82872222D01*
X170847024Y-82646106D01*
X170648191Y-82455110D01*
X170415917Y-82306574D01*
X170373512Y-82290000D01*
X170415917Y-82273426D01*
X170648191Y-82124890D01*
X170847024Y-81933894D01*
X171004775Y-81707778D01*
X171115382Y-81455231D01*
X171132220Y-81363070D01*
X171009720Y-81147000D01*
X169667000Y-81147000D01*
X169413000Y-81147000D01*
X167127000Y-81147000D01*
X167127000Y-81167000D01*
X166873000Y-81167000D01*
X166873000Y-81147000D01*
X165530280Y-81147000D01*
X165407780Y-81363070D01*
X165424618Y-81455231D01*
X165535225Y-81707778D01*
X165692976Y-81933894D01*
X165891809Y-82124890D01*
X166124083Y-82273426D01*
X166171099Y-82291802D01*
X165982113Y-82392817D01*
X165769392Y-82567392D01*
X165594817Y-82780113D01*
X165465096Y-83022805D01*
X165385214Y-83286140D01*
X165358241Y-83560000D01*
X164035000Y-83560000D01*
X164035000Y-76028710D01*
X165504511Y-74559200D01*
X165548815Y-74613185D01*
X165645506Y-74692537D01*
X165755820Y-74751502D01*
X165875518Y-74787812D01*
X165954378Y-74795579D01*
X165769392Y-74947392D01*
X165594817Y-75160113D01*
X165465096Y-75402805D01*
X165385214Y-75666140D01*
X165358241Y-75940000D01*
X165385214Y-76213860D01*
X165465096Y-76477195D01*
X165594817Y-76719887D01*
X165769392Y-76932608D01*
X165982113Y-77107183D01*
X166174471Y-77210000D01*
X165982113Y-77312817D01*
X165769392Y-77487392D01*
X165594817Y-77700113D01*
X165465096Y-77942805D01*
X165385214Y-78206140D01*
X165358241Y-78480000D01*
X165385214Y-78753860D01*
X165465096Y-79017195D01*
X165594817Y-79259887D01*
X165769392Y-79472608D01*
X165982113Y-79647183D01*
X166171099Y-79748198D01*
X166124083Y-79766574D01*
X165891809Y-79915110D01*
X165692976Y-80106106D01*
X165535225Y-80332222D01*
X165424618Y-80584769D01*
X165407780Y-80676930D01*
X165530280Y-80893000D01*
X166873000Y-80893000D01*
X166873000Y-80873000D01*
X167127000Y-80873000D01*
X167127000Y-80893000D01*
X169413000Y-80893000D01*
X169413000Y-80873000D01*
X169667000Y-80873000D01*
X169667000Y-80893000D01*
X171009720Y-80893000D01*
X171132220Y-80676930D01*
X171115382Y-80584769D01*
X171004775Y-80332222D01*
X170847024Y-80106106D01*
X170648191Y-79915110D01*
X170415917Y-79766574D01*
X170368901Y-79748198D01*
X170557887Y-79647183D01*
X170770608Y-79472608D01*
X170945183Y-79259887D01*
X171074904Y-79017195D01*
X171154786Y-78753860D01*
X171181759Y-78480000D01*
X171154786Y-78206140D01*
X171074904Y-77942805D01*
X170945183Y-77700113D01*
X170770608Y-77487392D01*
X170557887Y-77312817D01*
X170368901Y-77211802D01*
X170415917Y-77193426D01*
X170648191Y-77044890D01*
X170847024Y-76853894D01*
X171004775Y-76627778D01*
X171115382Y-76375231D01*
X171132220Y-76283070D01*
X171009720Y-76067000D01*
X169667000Y-76067000D01*
X169667000Y-76087000D01*
X169413000Y-76087000D01*
X169413000Y-76067000D01*
X169393000Y-76067000D01*
X169393000Y-75813000D01*
X169413000Y-75813000D01*
X169413000Y-75793000D01*
X169667000Y-75793000D01*
X169667000Y-75813000D01*
X171009720Y-75813000D01*
X171132220Y-75596930D01*
X171115382Y-75504769D01*
X171004775Y-75252222D01*
X170847024Y-75026106D01*
X170648191Y-74835110D01*
X170415917Y-74686574D01*
X170368901Y-74668198D01*
X170557887Y-74567183D01*
X170770608Y-74392608D01*
X170945183Y-74179887D01*
X171074904Y-73937195D01*
X171154786Y-73673860D01*
X171181759Y-73400000D01*
X171154786Y-73126140D01*
X171074904Y-72862805D01*
X170945183Y-72620113D01*
X170770608Y-72407392D01*
X170557887Y-72232817D01*
X170315195Y-72103096D01*
X170051860Y-72023214D01*
X169846625Y-72003000D01*
X169233375Y-72003000D01*
X169028140Y-72023214D01*
X168764805Y-72103096D01*
X168522113Y-72232817D01*
X168502289Y-72249086D01*
X168451185Y-72186815D01*
X168354494Y-72107463D01*
X168244180Y-72048498D01*
X168124482Y-72012188D01*
X168000000Y-71999928D01*
X166000000Y-71999928D01*
X165875518Y-72012188D01*
X165755820Y-72048498D01*
X165645506Y-72107463D01*
X165548815Y-72186815D01*
X165469463Y-72283506D01*
X165425903Y-72365000D01*
X165250835Y-72365000D01*
X165200000Y-72359993D01*
X165149165Y-72365000D01*
X165149162Y-72365000D01*
X164997105Y-72379976D01*
X164802007Y-72439159D01*
X164718309Y-72483896D01*
X164622202Y-72535266D01*
X164504092Y-72632197D01*
X164464604Y-72664604D01*
X164432197Y-72704092D01*
X162304097Y-74832193D01*
X162264604Y-74864604D01*
X162135266Y-75022203D01*
X162039159Y-75202008D01*
X161979976Y-75397106D01*
X161965000Y-75549163D01*
X161965000Y-75549172D01*
X161959994Y-75600000D01*
X161965000Y-75650828D01*
X161965001Y-96965000D01*
X159994396Y-96965000D01*
X159914759Y-96885363D01*
X159679727Y-96728320D01*
X159418574Y-96620147D01*
X159141335Y-96565000D01*
X158858665Y-96565000D01*
X158581426Y-96620147D01*
X158320273Y-96728320D01*
X158085241Y-96885363D01*
X157885363Y-97085241D01*
X157728320Y-97320273D01*
X157620147Y-97581426D01*
X157565000Y-97858665D01*
X151107725Y-97858665D01*
X151029494Y-97794463D01*
X150919180Y-97735498D01*
X150799482Y-97699188D01*
X150675000Y-97686928D01*
X149325000Y-97686928D01*
X149200518Y-97699188D01*
X149080820Y-97735498D01*
X148970506Y-97794463D01*
X148873815Y-97873815D01*
X148794463Y-97970506D01*
X148735498Y-98080820D01*
X148699188Y-98200518D01*
X148686928Y-98325000D01*
X145452117Y-98325000D01*
X145421448Y-98279102D01*
X145180898Y-98038552D01*
X144898041Y-97849553D01*
X144583747Y-97719368D01*
X144250095Y-97653000D01*
X143909905Y-97653000D01*
X143576253Y-97719368D01*
X143261959Y-97849553D01*
X142979102Y-98038552D01*
X142810000Y-98207654D01*
X142640898Y-98038552D01*
X142358041Y-97849553D01*
X142043747Y-97719368D01*
X141710095Y-97653000D01*
X141369905Y-97653000D01*
X141036253Y-97719368D01*
X140721959Y-97849553D01*
X140439102Y-98038552D01*
X140270000Y-98207654D01*
X140100898Y-98038552D01*
X139818041Y-97849553D01*
X139503747Y-97719368D01*
X139170095Y-97653000D01*
X138829905Y-97653000D01*
X138496253Y-97719368D01*
X138181959Y-97849553D01*
X137899102Y-98038552D01*
X137658552Y-98279102D01*
X137469553Y-98561959D01*
X137339368Y-98876253D01*
X137273000Y-99209905D01*
X135807000Y-99209905D01*
X135740632Y-98876253D01*
X135610447Y-98561959D01*
X135421448Y-98279102D01*
X135180898Y-98038552D01*
X134898041Y-97849553D01*
X134583747Y-97719368D01*
X134250095Y-97653000D01*
X133909905Y-97653000D01*
X133576253Y-97719368D01*
X133261959Y-97849553D01*
X132979102Y-98038552D01*
X132810000Y-98207654D01*
X132640898Y-98038552D01*
X132358041Y-97849553D01*
X132043747Y-97719368D01*
X131710095Y-97653000D01*
X131369905Y-97653000D01*
X131036253Y-97719368D01*
X130721959Y-97849553D01*
X130439102Y-98038552D01*
X130270000Y-98207654D01*
X130100898Y-98038552D01*
X129818041Y-97849553D01*
X129503747Y-97719368D01*
X129170095Y-97653000D01*
X128829905Y-97653000D01*
X128496253Y-97719368D01*
X128181959Y-97849553D01*
X127899102Y-98038552D01*
X127658552Y-98279102D01*
X127469553Y-98561959D01*
X127339368Y-98876253D01*
X127273000Y-99209905D01*
X125509280Y-99209905D01*
X125459853Y-98961426D01*
X125351680Y-98700273D01*
X125194637Y-98465241D01*
X124994759Y-98265363D01*
X124759727Y-98108320D01*
X124498574Y-98000147D01*
X124221335Y-97945000D01*
X123938665Y-97945000D01*
X123661426Y-98000147D01*
X123400273Y-98108320D01*
X123165241Y-98265363D01*
X122965363Y-98465241D01*
X122810000Y-98697759D01*
X122654637Y-98465241D01*
X122454759Y-98265363D01*
X122219727Y-98108320D01*
X121958574Y-98000147D01*
X121681335Y-97945000D01*
X121398665Y-97945000D01*
X121121426Y-98000147D01*
X120860273Y-98108320D01*
X120625241Y-98265363D01*
X120425363Y-98465241D01*
X120270000Y-98697759D01*
X120114637Y-98465241D01*
X119914759Y-98265363D01*
X119679727Y-98108320D01*
X119418574Y-98000147D01*
X119141335Y-97945000D01*
X118858665Y-97945000D01*
X118581426Y-98000147D01*
X118320273Y-98108320D01*
X118085241Y-98265363D01*
X117885363Y-98465241D01*
X117728320Y-98700273D01*
X117620147Y-98961426D01*
X117565000Y-99238665D01*
X115807000Y-99238665D01*
X115807000Y-99209905D01*
X115740632Y-98876253D01*
X115610447Y-98561959D01*
X115421448Y-98279102D01*
X115180898Y-98038552D01*
X114898041Y-97849553D01*
X114583747Y-97719368D01*
X114250095Y-97653000D01*
X113909905Y-97653000D01*
X113576253Y-97719368D01*
X113261959Y-97849553D01*
X112979102Y-98038552D01*
X112810000Y-98207654D01*
X112640898Y-98038552D01*
X112358041Y-97849553D01*
X112043747Y-97719368D01*
X111710095Y-97653000D01*
X111369905Y-97653000D01*
X111036253Y-97719368D01*
X110721959Y-97849553D01*
X110439102Y-98038552D01*
X110270000Y-98207654D01*
X110100898Y-98038552D01*
X109818041Y-97849553D01*
X109503747Y-97719368D01*
X109170095Y-97653000D01*
X108829905Y-97653000D01*
X108496253Y-97719368D01*
X108181959Y-97849553D01*
X107899102Y-98038552D01*
X107658552Y-98279102D01*
X107469553Y-98561959D01*
X107339368Y-98876253D01*
X107273000Y-99209905D01*
X99993517Y-99209905D01*
X100034786Y-99073860D01*
X100061759Y-98800000D01*
X100034786Y-98526140D01*
X99954904Y-98262805D01*
X99825183Y-98020113D01*
X99650608Y-97807392D01*
X99437887Y-97632817D01*
X99245529Y-97530000D01*
X99437887Y-97427183D01*
X99650608Y-97252608D01*
X99825183Y-97039887D01*
X99954904Y-96797195D01*
X100034786Y-96533860D01*
X100061759Y-96260000D01*
X100034786Y-95986140D01*
X99954904Y-95722805D01*
X99825183Y-95480113D01*
X99650608Y-95267392D01*
X99437887Y-95092817D01*
X99245529Y-94990000D01*
X99437887Y-94887183D01*
X99650608Y-94712608D01*
X99825183Y-94499887D01*
X99954904Y-94257195D01*
X100034786Y-93993860D01*
X100061759Y-93720000D01*
X100034786Y-93446140D01*
X99954904Y-93182805D01*
X99825183Y-92940113D01*
X99650608Y-92727392D01*
X99437887Y-92552817D01*
X99245529Y-92450000D01*
X99437887Y-92347183D01*
X99650608Y-92172608D01*
X99825183Y-91959887D01*
X99954904Y-91717195D01*
X100034786Y-91453860D01*
X100061759Y-91180000D01*
X100034786Y-90906140D01*
X99954904Y-90642805D01*
X99825183Y-90400113D01*
X99650608Y-90187392D01*
X99437887Y-90012817D01*
X99245529Y-89910000D01*
X99437887Y-89807183D01*
X99650608Y-89632608D01*
X99825183Y-89419887D01*
X99954904Y-89177195D01*
X100034786Y-88913860D01*
X100061759Y-88640000D01*
X100034786Y-88366140D01*
X99954904Y-88102805D01*
X99825183Y-87860113D01*
X99650608Y-87647392D01*
X99437887Y-87472817D01*
X99245529Y-87370000D01*
X99437887Y-87267183D01*
X99650608Y-87092608D01*
X99825183Y-86879887D01*
X99954904Y-86637195D01*
X100034786Y-86373860D01*
X100061759Y-86100000D01*
X100034786Y-85826140D01*
X99954904Y-85562805D01*
X99825183Y-85320113D01*
X99650608Y-85107392D01*
X99519751Y-85000000D01*
X118409428Y-85000000D01*
X118409428Y-87000000D01*
X118421688Y-87124482D01*
X118457998Y-87244180D01*
X118516963Y-87354494D01*
X118596315Y-87451185D01*
X118693006Y-87530537D01*
X118803320Y-87589502D01*
X118923018Y-87625812D01*
X119047500Y-87638072D01*
X120952500Y-87638072D01*
X121076982Y-87625812D01*
X121196680Y-87589502D01*
X121306994Y-87530537D01*
X121403685Y-87451185D01*
X121483037Y-87354494D01*
X121527905Y-87270553D01*
X121653766Y-87373845D01*
X121929552Y-87521255D01*
X122228797Y-87612030D01*
X122540000Y-87642681D01*
X122851204Y-87612030D01*
X123150449Y-87521255D01*
X123426235Y-87373845D01*
X123667963Y-87175463D01*
X123815162Y-86996100D01*
X123970563Y-87181315D01*
X124213077Y-87375969D01*
X124488906Y-87519571D01*
X124707020Y-87590563D01*
X124953000Y-87470594D01*
X124953000Y-86127000D01*
X125207000Y-86127000D01*
X125207000Y-87470594D01*
X125452980Y-87590563D01*
X125671094Y-87519571D01*
X125946923Y-87375969D01*
X126189437Y-87181315D01*
X126389316Y-86943089D01*
X126538879Y-86670446D01*
X126632378Y-86373863D01*
X126505570Y-86127000D01*
X125207000Y-86127000D01*
X124953000Y-86127000D01*
X124933000Y-86127000D01*
X124933000Y-85873000D01*
X124953000Y-85873000D01*
X124953000Y-84529406D01*
X125207000Y-84529406D01*
X125207000Y-85873000D01*
X126505570Y-85873000D01*
X126632378Y-85626137D01*
X126538879Y-85329554D01*
X126389316Y-85056911D01*
X126341566Y-85000000D01*
X129409428Y-85000000D01*
X129409428Y-87000000D01*
X129421688Y-87124482D01*
X129457998Y-87244180D01*
X129516963Y-87354494D01*
X129596315Y-87451185D01*
X129693006Y-87530537D01*
X129803320Y-87589502D01*
X129923018Y-87625812D01*
X130047500Y-87638072D01*
X131952500Y-87638072D01*
X132076982Y-87625812D01*
X132196680Y-87589502D01*
X132306994Y-87530537D01*
X132403685Y-87451185D01*
X132483037Y-87354494D01*
X132527905Y-87270553D01*
X132653766Y-87373845D01*
X132929552Y-87521255D01*
X133228797Y-87612030D01*
X133540000Y-87642681D01*
X133851204Y-87612030D01*
X134150449Y-87521255D01*
X134426235Y-87373845D01*
X134667963Y-87175463D01*
X134815162Y-86996100D01*
X134970563Y-87181315D01*
X135213077Y-87375969D01*
X135488906Y-87519571D01*
X135707020Y-87590563D01*
X135953000Y-87470594D01*
X135953000Y-86127000D01*
X136207000Y-86127000D01*
X136207000Y-87470594D01*
X136452980Y-87590563D01*
X136671094Y-87519571D01*
X136946923Y-87375969D01*
X137189437Y-87181315D01*
X137389316Y-86943089D01*
X137538879Y-86670446D01*
X137632378Y-86373863D01*
X137505570Y-86127000D01*
X136207000Y-86127000D01*
X135953000Y-86127000D01*
X135933000Y-86127000D01*
X135933000Y-85873000D01*
X135953000Y-85873000D01*
X135953000Y-84529406D01*
X136207000Y-84529406D01*
X136207000Y-85873000D01*
X137505570Y-85873000D01*
X137632378Y-85626137D01*
X137538879Y-85329554D01*
X137389316Y-85056911D01*
X137189437Y-84818685D01*
X136946923Y-84624031D01*
X136671094Y-84480429D01*
X136452980Y-84409437D01*
X136207000Y-84529406D01*
X135953000Y-84529406D01*
X135707020Y-84409437D01*
X135488906Y-84480429D01*
X135213077Y-84624031D01*
X134970563Y-84818685D01*
X134967000Y-84822932D01*
X134967000Y-84591082D01*
X137799482Y-81758600D01*
X137853922Y-81713923D01*
X137898601Y-81659482D01*
X137898608Y-81659475D01*
X138032247Y-81496635D01*
X138032248Y-81496634D01*
X138164755Y-81248731D01*
X138246352Y-80979741D01*
X138267000Y-80770098D01*
X138267000Y-80770090D01*
X138273903Y-80700000D01*
X138267000Y-80629910D01*
X138267000Y-73722454D01*
X138569824Y-73419630D01*
X138813542Y-73054880D01*
X138981418Y-72649592D01*
X139067000Y-72219340D01*
X139067000Y-71780660D01*
X139693000Y-71780660D01*
X139693000Y-72219340D01*
X139778582Y-72649592D01*
X139946458Y-73054880D01*
X140190176Y-73419630D01*
X140500370Y-73729824D01*
X140865120Y-73973542D01*
X141270408Y-74141418D01*
X141700660Y-74227000D01*
X142128918Y-74227000D01*
X143113001Y-75211084D01*
X143113000Y-84385114D01*
X143076982Y-84374188D01*
X142952500Y-84361928D01*
X141047500Y-84361928D01*
X140923018Y-84374188D01*
X140803320Y-84410498D01*
X140693006Y-84469463D01*
X140596315Y-84548815D01*
X140516963Y-84645506D01*
X140457998Y-84755820D01*
X140421688Y-84875518D01*
X140409428Y-85000000D01*
X140409428Y-87000000D01*
X140421688Y-87124482D01*
X140457998Y-87244180D01*
X140516963Y-87354494D01*
X140596315Y-87451185D01*
X140693006Y-87530537D01*
X140803320Y-87589502D01*
X140923018Y-87625812D01*
X141047500Y-87638072D01*
X142952500Y-87638072D01*
X143076982Y-87625812D01*
X143196680Y-87589502D01*
X143306994Y-87530537D01*
X143403685Y-87451185D01*
X143483037Y-87354494D01*
X143527905Y-87270553D01*
X143653766Y-87373845D01*
X143929552Y-87521255D01*
X144228797Y-87612030D01*
X144540000Y-87642681D01*
X144851204Y-87612030D01*
X145150449Y-87521255D01*
X145426235Y-87373845D01*
X145667963Y-87175463D01*
X145815162Y-86996100D01*
X145970563Y-87181315D01*
X146213077Y-87375969D01*
X146488906Y-87519571D01*
X146707020Y-87590563D01*
X146953000Y-87470594D01*
X146953000Y-86127000D01*
X147207000Y-86127000D01*
X147207000Y-87470594D01*
X147452980Y-87590563D01*
X147671094Y-87519571D01*
X147946923Y-87375969D01*
X148189437Y-87181315D01*
X148389316Y-86943089D01*
X148538879Y-86670446D01*
X148632378Y-86373863D01*
X148505570Y-86127000D01*
X147207000Y-86127000D01*
X146953000Y-86127000D01*
X146933000Y-86127000D01*
X146933000Y-85873000D01*
X146953000Y-85873000D01*
X146953000Y-84529406D01*
X147207000Y-84529406D01*
X147207000Y-85873000D01*
X148505570Y-85873000D01*
X148632378Y-85626137D01*
X148538879Y-85329554D01*
X148389316Y-85056911D01*
X148189437Y-84818685D01*
X147946923Y-84624031D01*
X147671094Y-84480429D01*
X147452980Y-84409437D01*
X147207000Y-84529406D01*
X146953000Y-84529406D01*
X146707020Y-84409437D01*
X146488906Y-84480429D01*
X146213077Y-84624031D01*
X145970563Y-84818685D01*
X145967000Y-84822932D01*
X145967000Y-74690090D01*
X145973903Y-74620000D01*
X145967000Y-74549910D01*
X145967000Y-74549902D01*
X145946352Y-74340259D01*
X145913356Y-74231485D01*
X147213403Y-74231485D01*
X154113001Y-81131084D01*
X154113000Y-84385114D01*
X154076982Y-84374188D01*
X153952500Y-84361928D01*
X152047500Y-84361928D01*
X151923018Y-84374188D01*
X151803320Y-84410498D01*
X151693006Y-84469463D01*
X151596315Y-84548815D01*
X151516963Y-84645506D01*
X151457998Y-84755820D01*
X151421688Y-84875518D01*
X151409428Y-85000000D01*
X151409428Y-87000000D01*
X151421688Y-87124482D01*
X151457998Y-87244180D01*
X151516963Y-87354494D01*
X151596315Y-87451185D01*
X151693006Y-87530537D01*
X151803320Y-87589502D01*
X151923018Y-87625812D01*
X152047500Y-87638072D01*
X153952500Y-87638072D01*
X154076982Y-87625812D01*
X154196680Y-87589502D01*
X154306994Y-87530537D01*
X154403685Y-87451185D01*
X154483037Y-87354494D01*
X154527905Y-87270553D01*
X154653766Y-87373845D01*
X154929552Y-87521255D01*
X155228797Y-87612030D01*
X155540000Y-87642681D01*
X155851204Y-87612030D01*
X156150449Y-87521255D01*
X156426235Y-87373845D01*
X156667963Y-87175463D01*
X156815162Y-86996100D01*
X156970563Y-87181315D01*
X157213077Y-87375969D01*
X157488906Y-87519571D01*
X157707020Y-87590563D01*
X157953000Y-87470594D01*
X157953000Y-86127000D01*
X158207000Y-86127000D01*
X158207000Y-87470594D01*
X158452980Y-87590563D01*
X158671094Y-87519571D01*
X158946923Y-87375969D01*
X159189437Y-87181315D01*
X159389316Y-86943089D01*
X159538879Y-86670446D01*
X159632378Y-86373863D01*
X159505570Y-86127000D01*
X158207000Y-86127000D01*
X157953000Y-86127000D01*
X157933000Y-86127000D01*
X157933000Y-85873000D01*
X157953000Y-85873000D01*
X157953000Y-84529406D01*
X158207000Y-84529406D01*
X158207000Y-85873000D01*
X159505570Y-85873000D01*
X159632378Y-85626137D01*
X159538879Y-85329554D01*
X159389316Y-85056911D01*
X159189437Y-84818685D01*
X158946923Y-84624031D01*
X158671094Y-84480429D01*
X158452980Y-84409437D01*
X158207000Y-84529406D01*
X157953000Y-84529406D01*
X157707020Y-84409437D01*
X157488906Y-84480429D01*
X157213077Y-84624031D01*
X156970563Y-84818685D01*
X156967000Y-84822932D01*
X156967000Y-80610090D01*
X156973903Y-80540000D01*
X156967000Y-80469910D01*
X156967000Y-80469902D01*
X156946352Y-80260259D01*
X156864755Y-79991269D01*
X156732248Y-79743366D01*
X156668925Y-79666207D01*
X156598608Y-79580525D01*
X156598605Y-79580522D01*
X156553923Y-79526077D01*
X156499478Y-79481395D01*
X149231485Y-72213403D01*
X149231485Y-70700000D01*
X149213587Y-70518276D01*
X149160580Y-70343536D01*
X149074501Y-70182495D01*
X148958659Y-70041341D01*
X148817505Y-69925499D01*
X148656464Y-69839420D01*
X148481724Y-69786413D01*
X148300000Y-69768515D01*
X145700000Y-69768515D01*
X145518276Y-69786413D01*
X145343536Y-69839420D01*
X145182495Y-69925499D01*
X145041341Y-70041341D01*
X144925499Y-70182495D01*
X144839420Y-70343536D01*
X144786413Y-70518276D01*
X144768515Y-70700000D01*
X144768515Y-72830432D01*
X144147000Y-72208918D01*
X144147000Y-71780660D01*
X144061418Y-71350408D01*
X143893542Y-70945120D01*
X143649824Y-70580370D01*
X143339630Y-70270176D01*
X142974880Y-70026458D01*
X142569592Y-69858582D01*
X142139340Y-69773000D01*
X141700660Y-69773000D01*
X141270408Y-69858582D01*
X140865120Y-70026458D01*
X140500370Y-70270176D01*
X140190176Y-70580370D01*
X139946458Y-70945120D01*
X139778582Y-71350408D01*
X139693000Y-71780660D01*
X139067000Y-71780660D01*
X138981418Y-71350408D01*
X138813542Y-70945120D01*
X138569824Y-70580370D01*
X138259630Y-70270176D01*
X137894880Y-70026458D01*
X137489592Y-69858582D01*
X137059340Y-69773000D01*
X136620660Y-69773000D01*
X136190408Y-69858582D01*
X135785120Y-70026458D01*
X135420370Y-70270176D01*
X135110176Y-70580370D01*
X134866458Y-70945120D01*
X134698582Y-71350408D01*
X134613000Y-71780660D01*
X134613000Y-72219340D01*
X134698582Y-72649592D01*
X134866458Y-73054880D01*
X135110176Y-73419630D01*
X135413001Y-73722455D01*
X135413000Y-80108917D01*
X132580523Y-82941395D01*
X132526078Y-82986077D01*
X132481396Y-83040522D01*
X132481392Y-83040526D01*
X132347753Y-83203366D01*
X132215246Y-83451269D01*
X132133649Y-83720259D01*
X132106097Y-84000000D01*
X132113001Y-84070097D01*
X132113001Y-84385114D01*
X132076982Y-84374188D01*
X131952500Y-84361928D01*
X130047500Y-84361928D01*
X129923018Y-84374188D01*
X129803320Y-84410498D01*
X129693006Y-84469463D01*
X129596315Y-84548815D01*
X129516963Y-84645506D01*
X129457998Y-84755820D01*
X129421688Y-84875518D01*
X129409428Y-85000000D01*
X126341566Y-85000000D01*
X126189437Y-84818685D01*
X125946923Y-84624031D01*
X125671094Y-84480429D01*
X125452980Y-84409437D01*
X125207000Y-84529406D01*
X124953000Y-84529406D01*
X124707020Y-84409437D01*
X124488906Y-84480429D01*
X124213077Y-84624031D01*
X123970563Y-84818685D01*
X123967000Y-84822932D01*
X123967000Y-84591082D01*
X132719483Y-75838600D01*
X132773922Y-75793923D01*
X132818601Y-75739482D01*
X132818608Y-75739475D01*
X132952247Y-75576635D01*
X132952248Y-75576634D01*
X133084755Y-75328731D01*
X133166352Y-75059741D01*
X133187000Y-74850098D01*
X133187000Y-74850089D01*
X133193903Y-74780001D01*
X133187000Y-74709913D01*
X133187000Y-73722454D01*
X133489824Y-73419630D01*
X133733542Y-73054880D01*
X133901418Y-72649592D01*
X133987000Y-72219340D01*
X133987000Y-71780660D01*
X133901418Y-71350408D01*
X133733542Y-70945120D01*
X133489824Y-70580370D01*
X133179630Y-70270176D01*
X132814880Y-70026458D01*
X132409592Y-69858582D01*
X131979340Y-69773000D01*
X131540660Y-69773000D01*
X131110408Y-69858582D01*
X130705120Y-70026458D01*
X130340370Y-70270176D01*
X130030176Y-70580370D01*
X129786458Y-70945120D01*
X129618582Y-71350408D01*
X129533000Y-71780660D01*
X129533000Y-72219340D01*
X129618582Y-72649592D01*
X129786458Y-73054880D01*
X130030176Y-73419630D01*
X130333000Y-73722454D01*
X130333000Y-74188917D01*
X121580523Y-82941395D01*
X121526078Y-82986077D01*
X121481396Y-83040522D01*
X121481392Y-83040526D01*
X121347753Y-83203366D01*
X121215246Y-83451269D01*
X121133649Y-83720259D01*
X121106097Y-84000000D01*
X121113001Y-84070097D01*
X121113001Y-84385114D01*
X121076982Y-84374188D01*
X120952500Y-84361928D01*
X119047500Y-84361928D01*
X118923018Y-84374188D01*
X118803320Y-84410498D01*
X118693006Y-84469463D01*
X118596315Y-84548815D01*
X118516963Y-84645506D01*
X118457998Y-84755820D01*
X118421688Y-84875518D01*
X118409428Y-85000000D01*
X99519751Y-85000000D01*
X99437887Y-84932817D01*
X99245529Y-84830000D01*
X99437887Y-84727183D01*
X99650608Y-84552608D01*
X99825183Y-84339887D01*
X99954904Y-84097195D01*
X100034786Y-83833860D01*
X100061759Y-83560000D01*
X100034786Y-83286140D01*
X99954904Y-83022805D01*
X99825183Y-82780113D01*
X99650608Y-82567392D01*
X99437887Y-82392817D01*
X99245529Y-82290000D01*
X99437887Y-82187183D01*
X99650608Y-82012608D01*
X99825183Y-81799887D01*
X99954904Y-81557195D01*
X100034786Y-81293860D01*
X100061759Y-81020000D01*
X100034786Y-80746140D01*
X99954904Y-80482805D01*
X99825183Y-80240113D01*
X99650608Y-80027392D01*
X99437887Y-79852817D01*
X99245529Y-79750000D01*
X99437887Y-79647183D01*
X99650608Y-79472608D01*
X99825183Y-79259887D01*
X99954904Y-79017195D01*
X100034786Y-78753860D01*
X100061759Y-78480000D01*
X100034786Y-78206140D01*
X99954904Y-77942805D01*
X99825183Y-77700113D01*
X99650608Y-77487392D01*
X99437887Y-77312817D01*
X99245529Y-77210000D01*
X99437887Y-77107183D01*
X99650608Y-76932608D01*
X99825183Y-76719887D01*
X99954904Y-76477195D01*
X100034786Y-76213860D01*
X100061759Y-75940000D01*
X100034786Y-75666140D01*
X99954904Y-75402805D01*
X99825183Y-75160113D01*
X99650608Y-74947392D01*
X99437887Y-74772817D01*
X99245529Y-74670000D01*
X99437887Y-74567183D01*
X99650608Y-74392608D01*
X99825183Y-74179887D01*
X99954904Y-73937195D01*
X100034786Y-73673860D01*
X100061759Y-73400000D01*
X100034786Y-73126140D01*
X99954904Y-72862805D01*
X99910997Y-72780660D01*
X108693000Y-72780660D01*
X108693000Y-73219340D01*
X108778582Y-73649592D01*
X108946458Y-74054880D01*
X109190176Y-74419630D01*
X109500370Y-74729824D01*
X109865120Y-74973542D01*
X110270408Y-75141418D01*
X110700660Y-75227000D01*
X111139340Y-75227000D01*
X111569592Y-75141418D01*
X111974880Y-74973542D01*
X112339630Y-74729824D01*
X112649824Y-74419630D01*
X112729758Y-74300000D01*
X114061928Y-74300000D01*
X114074188Y-74424482D01*
X114110498Y-74544180D01*
X114169463Y-74654494D01*
X114248815Y-74751185D01*
X114345506Y-74830537D01*
X114455820Y-74889502D01*
X114575518Y-74925812D01*
X114700000Y-74938072D01*
X115714250Y-74935000D01*
X115873000Y-74776250D01*
X115873000Y-73127000D01*
X116127000Y-73127000D01*
X116127000Y-74776250D01*
X116285750Y-74935000D01*
X117300000Y-74938072D01*
X117424482Y-74925812D01*
X117544180Y-74889502D01*
X117654494Y-74830537D01*
X117751185Y-74751185D01*
X117830537Y-74654494D01*
X117889502Y-74544180D01*
X117925812Y-74424482D01*
X117938072Y-74300000D01*
X117935000Y-73285750D01*
X117776250Y-73127000D01*
X116127000Y-73127000D01*
X115873000Y-73127000D01*
X114223750Y-73127000D01*
X114065000Y-73285750D01*
X114061928Y-74300000D01*
X112729758Y-74300000D01*
X112893542Y-74054880D01*
X113061418Y-73649592D01*
X113147000Y-73219340D01*
X113147000Y-72780660D01*
X113061418Y-72350408D01*
X112893542Y-71945120D01*
X112729759Y-71700000D01*
X114061928Y-71700000D01*
X114065000Y-72714250D01*
X114223750Y-72873000D01*
X115873000Y-72873000D01*
X115873000Y-71223750D01*
X116127000Y-71223750D01*
X116127000Y-72873000D01*
X117776250Y-72873000D01*
X117935000Y-72714250D01*
X117938072Y-71700000D01*
X117925812Y-71575518D01*
X117889502Y-71455820D01*
X117830537Y-71345506D01*
X117751185Y-71248815D01*
X117654494Y-71169463D01*
X117544180Y-71110498D01*
X117424482Y-71074188D01*
X117300000Y-71061928D01*
X116285750Y-71065000D01*
X116127000Y-71223750D01*
X115873000Y-71223750D01*
X115714250Y-71065000D01*
X114700000Y-71061928D01*
X114575518Y-71074188D01*
X114455820Y-71110498D01*
X114345506Y-71169463D01*
X114248815Y-71248815D01*
X114169463Y-71345506D01*
X114110498Y-71455820D01*
X114074188Y-71575518D01*
X114061928Y-71700000D01*
X112729759Y-71700000D01*
X112649824Y-71580370D01*
X112339630Y-71270176D01*
X111974880Y-71026458D01*
X111569592Y-70858582D01*
X111139340Y-70773000D01*
X110700660Y-70773000D01*
X110270408Y-70858582D01*
X109865120Y-71026458D01*
X109500370Y-71270176D01*
X109190176Y-71580370D01*
X108946458Y-71945120D01*
X108778582Y-72350408D01*
X108693000Y-72780660D01*
X99910997Y-72780660D01*
X99825183Y-72620113D01*
X99650608Y-72407392D01*
X99437887Y-72232817D01*
X99195195Y-72103096D01*
X98931860Y-72023214D01*
X98726625Y-72003000D01*
X98113375Y-72003000D01*
X97908140Y-72023214D01*
X97644805Y-72103096D01*
X97402113Y-72232817D01*
X97382289Y-72249086D01*
X97331185Y-72186815D01*
X97234494Y-72107463D01*
X97124180Y-72048498D01*
X97004482Y-72012188D01*
X96880000Y-71999928D01*
X94880000Y-71999928D01*
X94755518Y-72012188D01*
X94635820Y-72048498D01*
X94525506Y-72107463D01*
X94428815Y-72186815D01*
X94349463Y-72283506D01*
X94290498Y-72393820D01*
X94254188Y-72513518D01*
X94241928Y-72638000D01*
X94241928Y-74162000D01*
X94254188Y-74286482D01*
X94290498Y-74406180D01*
X94349463Y-74516494D01*
X94428815Y-74613185D01*
X94525506Y-74692537D01*
X94635820Y-74751502D01*
X94755518Y-74787812D01*
X94833727Y-74795515D01*
X94771809Y-74835110D01*
X94572976Y-75026106D01*
X94415225Y-75252222D01*
X94304618Y-75504769D01*
X94287780Y-75596930D01*
X94410280Y-75813000D01*
X95753000Y-75813000D01*
X95753000Y-75793000D01*
X96007000Y-75793000D01*
X96007000Y-75813000D01*
X96027000Y-75813000D01*
X96027000Y-76067000D01*
X96007000Y-76067000D01*
X96007000Y-77183282D01*
X96044119Y-77210000D01*
X96007000Y-77236718D01*
X96007000Y-78353000D01*
X96027000Y-78353000D01*
X96027000Y-78607000D01*
X96007000Y-78607000D01*
X96007000Y-79723282D01*
X96044119Y-79750000D01*
X96007000Y-79776718D01*
X96007000Y-80893000D01*
X96027000Y-80893000D01*
X96027000Y-81147000D01*
X96007000Y-81147000D01*
X96007000Y-81167000D01*
X95753000Y-81167000D01*
X95753000Y-81147000D01*
X94410280Y-81147000D01*
X94287780Y-81363070D01*
X94304618Y-81455231D01*
X94415225Y-81707778D01*
X94572976Y-81933894D01*
X94771809Y-82124890D01*
X95004083Y-82273426D01*
X95051099Y-82291802D01*
X94862113Y-82392817D01*
X94649392Y-82567392D01*
X94474817Y-82780113D01*
X94345096Y-83022805D01*
X94265214Y-83286140D01*
X94238241Y-83560000D01*
X94265214Y-83833860D01*
X94345096Y-84097195D01*
X94474817Y-84339887D01*
X94649392Y-84552608D01*
X94862113Y-84727183D01*
X95051099Y-84828198D01*
X95004083Y-84846574D01*
X94771809Y-84995110D01*
X94572976Y-85186106D01*
X94415225Y-85412222D01*
X94304618Y-85664769D01*
X94287780Y-85756930D01*
X94410280Y-85973000D01*
X95753000Y-85973000D01*
X95753000Y-85953000D01*
X96007000Y-85953000D01*
X96007000Y-85973000D01*
X96027000Y-85973000D01*
X96027000Y-86227000D01*
X96007000Y-86227000D01*
X96007000Y-87343282D01*
X96044119Y-87370000D01*
X96007000Y-87396718D01*
X96007000Y-88513000D01*
X96027000Y-88513000D01*
X96027000Y-88767000D01*
X96007000Y-88767000D01*
X96007000Y-88787000D01*
X95753000Y-88787000D01*
X95753000Y-88767000D01*
X94410280Y-88767000D01*
X94287780Y-88983070D01*
X94304618Y-89075231D01*
X94415225Y-89327778D01*
X94572976Y-89553894D01*
X94771809Y-89744890D01*
X95004083Y-89893426D01*
X95051099Y-89911802D01*
X94862113Y-90012817D01*
X94649392Y-90187392D01*
X94474817Y-90400113D01*
X94345096Y-90642805D01*
X94265214Y-90906140D01*
X94238241Y-91180000D01*
X94265214Y-91453860D01*
X94345096Y-91717195D01*
X94474817Y-91959887D01*
X94649392Y-92172608D01*
X94862113Y-92347183D01*
X95051099Y-92448198D01*
X95004083Y-92466574D01*
X94771809Y-92615110D01*
X94572976Y-92806106D01*
X94415225Y-93032222D01*
X94304618Y-93284769D01*
X94287780Y-93376930D01*
X94410280Y-93593000D01*
X95753000Y-93593000D01*
X95753000Y-93573000D01*
X96007000Y-93573000D01*
X96007000Y-93593000D01*
X96027000Y-93593000D01*
X96027000Y-93847000D01*
X96007000Y-93847000D01*
X96007000Y-94963282D01*
X96044119Y-94990000D01*
X96007000Y-95016718D01*
X96007000Y-96133000D01*
X96027000Y-96133000D01*
X96027000Y-96387000D01*
X96007000Y-96387000D01*
X96007000Y-96407000D01*
X95753000Y-96407000D01*
X95753000Y-96387000D01*
X94410280Y-96387000D01*
X94287780Y-96603070D01*
X94304618Y-96695231D01*
X94415225Y-96947778D01*
X94572976Y-97173894D01*
X94771809Y-97364890D01*
X95004083Y-97513426D01*
X95051099Y-97531802D01*
X94862113Y-97632817D01*
X94649392Y-97807392D01*
X94474817Y-98020113D01*
X94345096Y-98262805D01*
X94265214Y-98526140D01*
X94238241Y-98800000D01*
X94265214Y-99073860D01*
X94345096Y-99337195D01*
X94474817Y-99579887D01*
X94649392Y-99792608D01*
X94862113Y-99967183D01*
X95054471Y-100070000D01*
X94862113Y-100172817D01*
X94649392Y-100347392D01*
X94474817Y-100560113D01*
X94345096Y-100802805D01*
X94265214Y-101066140D01*
X94238241Y-101340000D01*
X94265214Y-101613860D01*
X94345096Y-101877195D01*
X94474817Y-102119887D01*
X94649392Y-102332608D01*
X94862113Y-102507183D01*
X95051099Y-102608198D01*
X95004083Y-102626574D01*
X94771809Y-102775110D01*
X94572976Y-102966106D01*
X94415225Y-103192222D01*
X94304618Y-103444769D01*
X94287780Y-103536930D01*
X94410280Y-103753000D01*
X95753000Y-103753000D01*
X95753000Y-103733000D01*
X96007000Y-103733000D01*
X96007000Y-103753000D01*
X96027000Y-103753000D01*
X96027000Y-104007000D01*
X96007000Y-104007000D01*
X96007000Y-105123282D01*
X96044119Y-105150000D01*
X96007000Y-105176718D01*
X96007000Y-106293000D01*
X96027000Y-106293000D01*
X96027000Y-106547000D01*
X96007000Y-106547000D01*
X96007000Y-106567000D01*
X95753000Y-106567000D01*
X95753000Y-106547000D01*
X94410280Y-106547000D01*
X94287780Y-106763070D01*
X94304618Y-106855231D01*
X94415225Y-107107778D01*
X94572976Y-107333894D01*
X94771809Y-107524890D01*
X95004083Y-107673426D01*
X95051099Y-107691802D01*
X94862113Y-107792817D01*
X94649392Y-107967392D01*
X94474817Y-108180113D01*
X94345096Y-108422805D01*
X94265214Y-108686140D01*
X94238241Y-108960000D01*
X94265214Y-109233860D01*
X94345096Y-109497195D01*
X94474817Y-109739887D01*
X94501992Y-109773000D01*
X93471327Y-109773000D01*
X93406153Y-109766581D01*
X93340979Y-109773000D01*
X93340969Y-109773000D01*
X93146016Y-109792201D01*
X92895875Y-109868081D01*
X92780610Y-109929692D01*
X92665344Y-109991302D01*
X92513914Y-110115578D01*
X92463283Y-110157130D01*
X92421732Y-110207760D01*
X91107760Y-111521732D01*
X91057131Y-111563283D01*
X91015580Y-111613913D01*
X91015578Y-111613915D01*
X90891302Y-111765345D01*
X90768081Y-111995876D01*
X90692202Y-112246016D01*
X90666581Y-112506153D01*
X90673001Y-112571337D01*
X90673000Y-122934826D01*
X90666581Y-123000000D01*
X90673000Y-123065174D01*
X90673000Y-123065183D01*
X90692201Y-123260136D01*
X90723063Y-123361872D01*
X90768081Y-123510277D01*
X90891302Y-123740808D01*
X90974620Y-123842330D01*
X91057130Y-123942870D01*
X91107765Y-123984425D01*
X91637585Y-124514245D01*
X91679140Y-124564880D01*
X91881202Y-124730708D01*
X92111732Y-124853929D01*
X92361873Y-124929809D01*
X92556826Y-124949010D01*
X92556836Y-124949010D01*
X92622010Y-124955429D01*
X92687184Y-124949010D01*
X101580391Y-124949010D01*
X101645565Y-124955429D01*
X101710739Y-124949010D01*
X101710749Y-124949010D01*
X101905702Y-124929809D01*
X102155843Y-124853929D01*
X102386373Y-124730708D01*
X102588435Y-124564880D01*
X102629990Y-124514245D01*
X110340001Y-116804235D01*
X110340000Y-123413591D01*
X110195875Y-123197892D01*
X109802108Y-122804125D01*
X109339087Y-122494745D01*
X108824606Y-122281640D01*
X108278435Y-122173000D01*
X107721565Y-122173000D01*
X107175394Y-122281640D01*
X106660913Y-122494745D01*
X106197892Y-122804125D01*
X105804125Y-123197892D01*
X105494745Y-123660913D01*
X105281640Y-124175394D01*
X105173000Y-124721565D01*
X105173000Y-125278435D01*
X105281640Y-125824606D01*
X105494745Y-126339087D01*
X105804125Y-126802108D01*
X106197892Y-127195875D01*
X106413591Y-127340000D01*
X89660000Y-127340000D01*
X89660000Y-104223070D01*
X94287780Y-104223070D01*
X94304618Y-104315231D01*
X94415225Y-104567778D01*
X94572976Y-104793894D01*
X94771809Y-104984890D01*
X95004083Y-105133426D01*
X95046488Y-105150000D01*
X95004083Y-105166574D01*
X94771809Y-105315110D01*
X94572976Y-105506106D01*
X94415225Y-105732222D01*
X94304618Y-105984769D01*
X94287780Y-106076930D01*
X94410280Y-106293000D01*
X95753000Y-106293000D01*
X95753000Y-105176718D01*
X95715881Y-105150000D01*
X95753000Y-105123282D01*
X95753000Y-104007000D01*
X94410280Y-104007000D01*
X94287780Y-104223070D01*
X89660000Y-104223070D01*
X89660000Y-94063070D01*
X94287780Y-94063070D01*
X94304618Y-94155231D01*
X94415225Y-94407778D01*
X94572976Y-94633894D01*
X94771809Y-94824890D01*
X95004083Y-94973426D01*
X95046488Y-94990000D01*
X95004083Y-95006574D01*
X94771809Y-95155110D01*
X94572976Y-95346106D01*
X94415225Y-95572222D01*
X94304618Y-95824769D01*
X94287780Y-95916930D01*
X94410280Y-96133000D01*
X95753000Y-96133000D01*
X95753000Y-95016718D01*
X95715881Y-94990000D01*
X95753000Y-94963282D01*
X95753000Y-93847000D01*
X94410280Y-93847000D01*
X94287780Y-94063070D01*
X89660000Y-94063070D01*
X89660000Y-86443070D01*
X94287780Y-86443070D01*
X94304618Y-86535231D01*
X94415225Y-86787778D01*
X94572976Y-87013894D01*
X94771809Y-87204890D01*
X95004083Y-87353426D01*
X95046488Y-87370000D01*
X95004083Y-87386574D01*
X94771809Y-87535110D01*
X94572976Y-87726106D01*
X94415225Y-87952222D01*
X94304618Y-88204769D01*
X94287780Y-88296930D01*
X94410280Y-88513000D01*
X95753000Y-88513000D01*
X95753000Y-87396718D01*
X95715881Y-87370000D01*
X95753000Y-87343282D01*
X95753000Y-86227000D01*
X94410280Y-86227000D01*
X94287780Y-86443070D01*
X89660000Y-86443070D01*
X89660000Y-78823070D01*
X94287780Y-78823070D01*
X94304618Y-78915231D01*
X94415225Y-79167778D01*
X94572976Y-79393894D01*
X94771809Y-79584890D01*
X95004083Y-79733426D01*
X95046488Y-79750000D01*
X95004083Y-79766574D01*
X94771809Y-79915110D01*
X94572976Y-80106106D01*
X94415225Y-80332222D01*
X94304618Y-80584769D01*
X94287780Y-80676930D01*
X94410280Y-80893000D01*
X95753000Y-80893000D01*
X95753000Y-79776718D01*
X95715881Y-79750000D01*
X95753000Y-79723282D01*
X95753000Y-78607000D01*
X94410280Y-78607000D01*
X94287780Y-78823070D01*
X89660000Y-78823070D01*
X89660000Y-76283070D01*
X94287780Y-76283070D01*
X94304618Y-76375231D01*
X94415225Y-76627778D01*
X94572976Y-76853894D01*
X94771809Y-77044890D01*
X95004083Y-77193426D01*
X95046488Y-77210000D01*
X95004083Y-77226574D01*
X94771809Y-77375110D01*
X94572976Y-77566106D01*
X94415225Y-77792222D01*
X94304618Y-78044769D01*
X94287780Y-78136930D01*
X94410280Y-78353000D01*
X95753000Y-78353000D01*
X95753000Y-77236718D01*
X95715881Y-77210000D01*
X95753000Y-77183282D01*
X95753000Y-76067000D01*
X94410280Y-76067000D01*
X94287780Y-76283070D01*
X89660000Y-76283070D01*
X89660000Y-71586409D01*
X89804125Y-71802108D01*
X90197892Y-72195875D01*
X90660913Y-72505255D01*
X91175394Y-72718360D01*
X91721565Y-72827000D01*
X92278435Y-72827000D01*
X92824606Y-72718360D01*
X93339087Y-72505255D01*
X93802108Y-72195875D01*
X94195875Y-71802108D01*
X94505255Y-71339087D01*
X94718360Y-70824606D01*
X94827000Y-70278435D01*
X94827000Y-69721565D01*
X94718360Y-69175394D01*
X94505255Y-68660913D01*
X94195875Y-68197892D01*
X93802108Y-67804125D01*
X93586409Y-67660000D01*
X171413591Y-67660000D01*
X171197892Y-67804125D01*
%TA.AperFunction,Conductor*%
D28*
G36*
X171197892Y-67804125D02*
G01*
X170804125Y-68197892D01*
X170494745Y-68660913D01*
X170281640Y-69175394D01*
X170173000Y-69721565D01*
X170173000Y-70278435D01*
X170281640Y-70824606D01*
X170494745Y-71339087D01*
X170804125Y-71802108D01*
X171197892Y-72195875D01*
X171660913Y-72505255D01*
X172175394Y-72718360D01*
X172721565Y-72827000D01*
X173278435Y-72827000D01*
X173824606Y-72718360D01*
X174339087Y-72505255D01*
X174802108Y-72195875D01*
X175195875Y-71802108D01*
X175340001Y-71586408D01*
X175340000Y-125967581D01*
X175340000Y-125967582D01*
X175340001Y-127340000D01*
X162586409Y-127340000D01*
X162802108Y-127195875D01*
X163195875Y-126802108D01*
X163505255Y-126339087D01*
X163718360Y-125824606D01*
X163827000Y-125278435D01*
X163827000Y-124721565D01*
X163718360Y-124175394D01*
X163505255Y-123660913D01*
X163195875Y-123197892D01*
X162802108Y-122804125D01*
X162339087Y-122494745D01*
X161824606Y-122281640D01*
X161278435Y-122173000D01*
X160721565Y-122173000D01*
X160175394Y-122281640D01*
X159660913Y-122494745D01*
X159197892Y-122804125D01*
X158804125Y-123197892D01*
X158660000Y-123413591D01*
X158660000Y-116032419D01*
X158663193Y-116000000D01*
X158650450Y-115870617D01*
X158612710Y-115746207D01*
X158551425Y-115631550D01*
X158468948Y-115531052D01*
X158368450Y-115448575D01*
X158253793Y-115387290D01*
X158129383Y-115349550D01*
X158032419Y-115340000D01*
X158000000Y-115336807D01*
X157967581Y-115340000D01*
X111804236Y-115340000D01*
X115817236Y-111327000D01*
X117884654Y-111327000D01*
X117899102Y-111341448D01*
X118181959Y-111530447D01*
X118496253Y-111660632D01*
X118829905Y-111727000D01*
X119170095Y-111727000D01*
X119503747Y-111660632D01*
X119818041Y-111530447D01*
X120100898Y-111341448D01*
X120341448Y-111100898D01*
X120530447Y-110818041D01*
X120660632Y-110503747D01*
X120727000Y-110170095D01*
X120727000Y-109870976D01*
X148690000Y-109870976D01*
X148690000Y-110129024D01*
X148740342Y-110382113D01*
X148839093Y-110620518D01*
X148982456Y-110835077D01*
X149164923Y-111017544D01*
X149379482Y-111160907D01*
X149617887Y-111259658D01*
X149870976Y-111310000D01*
X150129024Y-111310000D01*
X150382113Y-111259658D01*
X150620518Y-111160907D01*
X150835077Y-111017544D01*
X151000000Y-110852621D01*
X151164923Y-111017544D01*
X151379482Y-111160907D01*
X151617887Y-111259658D01*
X151870976Y-111310000D01*
X152129024Y-111310000D01*
X152382113Y-111259658D01*
X152620518Y-111160907D01*
X152835077Y-111017544D01*
X153000000Y-110852621D01*
X153164923Y-111017544D01*
X153379482Y-111160907D01*
X153617887Y-111259658D01*
X153870976Y-111310000D01*
X154129024Y-111310000D01*
X154382113Y-111259658D01*
X154620518Y-111160907D01*
X154835077Y-111017544D01*
X155000000Y-110852621D01*
X155164923Y-111017544D01*
X155379482Y-111160907D01*
X155617887Y-111259658D01*
X155870976Y-111310000D01*
X156129024Y-111310000D01*
X156382113Y-111259658D01*
X156620518Y-111160907D01*
X156802513Y-111039303D01*
X156873815Y-111126185D01*
X156970506Y-111205537D01*
X157080820Y-111264502D01*
X157200518Y-111300812D01*
X157325000Y-111313072D01*
X157714250Y-111310000D01*
X157873000Y-111151250D01*
X157873000Y-110127000D01*
X158127000Y-110127000D01*
X158127000Y-111151250D01*
X158285750Y-111310000D01*
X158675000Y-111313072D01*
X158799482Y-111300812D01*
X158919180Y-111264502D01*
X159029494Y-111205537D01*
X159126185Y-111126185D01*
X159205537Y-111029494D01*
X159264502Y-110919180D01*
X159300812Y-110799482D01*
X159313072Y-110675000D01*
X159310000Y-110285750D01*
X159151250Y-110127000D01*
X158127000Y-110127000D01*
X157873000Y-110127000D01*
X157853000Y-110127000D01*
X157853000Y-109873000D01*
X157873000Y-109873000D01*
X157873000Y-108848750D01*
X158127000Y-108848750D01*
X158127000Y-109873000D01*
X159151250Y-109873000D01*
X159310000Y-109714250D01*
X159313072Y-109325000D01*
X159300812Y-109200518D01*
X159264502Y-109080820D01*
X159205537Y-108970506D01*
X159126185Y-108873815D01*
X159029494Y-108794463D01*
X158919180Y-108735498D01*
X158799482Y-108699188D01*
X158675000Y-108686928D01*
X158285750Y-108690000D01*
X158127000Y-108848750D01*
X157873000Y-108848750D01*
X157714250Y-108690000D01*
X157325000Y-108686928D01*
X157200518Y-108699188D01*
X157080820Y-108735498D01*
X156970506Y-108794463D01*
X156873815Y-108873815D01*
X156802513Y-108960697D01*
X156620518Y-108839093D01*
X156382113Y-108740342D01*
X156129024Y-108690000D01*
X155870976Y-108690000D01*
X155617887Y-108740342D01*
X155379482Y-108839093D01*
X155164923Y-108982456D01*
X155000000Y-109147379D01*
X154835077Y-108982456D01*
X154620518Y-108839093D01*
X154382113Y-108740342D01*
X154129024Y-108690000D01*
X153870976Y-108690000D01*
X153617887Y-108740342D01*
X153379482Y-108839093D01*
X153164923Y-108982456D01*
X153000000Y-109147379D01*
X152835077Y-108982456D01*
X152620518Y-108839093D01*
X152382113Y-108740342D01*
X152129024Y-108690000D01*
X151870976Y-108690000D01*
X151617887Y-108740342D01*
X151379482Y-108839093D01*
X151164923Y-108982456D01*
X151000000Y-109147379D01*
X150835077Y-108982456D01*
X150620518Y-108839093D01*
X150382113Y-108740342D01*
X150129024Y-108690000D01*
X149870976Y-108690000D01*
X149617887Y-108740342D01*
X149379482Y-108839093D01*
X149164923Y-108982456D01*
X148982456Y-109164923D01*
X148839093Y-109379482D01*
X148740342Y-109617887D01*
X148690000Y-109870976D01*
X120727000Y-109870976D01*
X120727000Y-109829905D01*
X120660632Y-109496253D01*
X120530447Y-109181959D01*
X120341448Y-108899102D01*
X120100898Y-108658552D01*
X119818041Y-108469553D01*
X119742039Y-108438072D01*
X119800000Y-108438072D01*
X119924482Y-108425812D01*
X120044180Y-108389502D01*
X120154494Y-108330537D01*
X120251185Y-108251185D01*
X120330537Y-108154494D01*
X120389502Y-108044180D01*
X120425812Y-107924482D01*
X120426643Y-107916039D01*
X120625241Y-108114637D01*
X120860273Y-108271680D01*
X121121426Y-108379853D01*
X121398665Y-108435000D01*
X121681335Y-108435000D01*
X121958574Y-108379853D01*
X122219727Y-108271680D01*
X122454759Y-108114637D01*
X122654637Y-107914759D01*
X122810000Y-107682241D01*
X122965363Y-107914759D01*
X123165241Y-108114637D01*
X123400273Y-108271680D01*
X123661426Y-108379853D01*
X123938665Y-108435000D01*
X124221335Y-108435000D01*
X124498574Y-108379853D01*
X124759727Y-108271680D01*
X124994759Y-108114637D01*
X125194637Y-107914759D01*
X125351680Y-107679727D01*
X125459853Y-107418574D01*
X125515000Y-107141335D01*
X125515000Y-106858665D01*
X125459853Y-106581426D01*
X125351680Y-106320273D01*
X125271317Y-106200000D01*
X127268515Y-106200000D01*
X127268515Y-107800000D01*
X127286413Y-107981724D01*
X127339420Y-108156464D01*
X127425499Y-108317505D01*
X127541341Y-108458659D01*
X127682495Y-108574501D01*
X127843536Y-108660580D01*
X128018276Y-108713587D01*
X128200000Y-108731485D01*
X129800000Y-108731485D01*
X129981724Y-108713587D01*
X130156464Y-108660580D01*
X130317505Y-108574501D01*
X130458659Y-108458659D01*
X130513858Y-108391399D01*
X130721959Y-108530447D01*
X131036253Y-108660632D01*
X131369905Y-108727000D01*
X131710095Y-108727000D01*
X132043747Y-108660632D01*
X132358041Y-108530447D01*
X132640898Y-108341448D01*
X132810000Y-108172346D01*
X132979102Y-108341448D01*
X133261959Y-108530447D01*
X133576253Y-108660632D01*
X133909905Y-108727000D01*
X134250095Y-108727000D01*
X134583747Y-108660632D01*
X134898041Y-108530447D01*
X135180898Y-108341448D01*
X135421448Y-108100898D01*
X135610447Y-107818041D01*
X135740632Y-107503747D01*
X135807000Y-107170095D01*
X135807000Y-106829905D01*
X135740632Y-106496253D01*
X135617920Y-106200000D01*
X137268515Y-106200000D01*
X137268515Y-107800000D01*
X137286413Y-107981724D01*
X137339420Y-108156464D01*
X137425499Y-108317505D01*
X137541341Y-108458659D01*
X137682495Y-108574501D01*
X137843536Y-108660580D01*
X138018276Y-108713587D01*
X138200000Y-108731485D01*
X139800000Y-108731485D01*
X139981724Y-108713587D01*
X140156464Y-108660580D01*
X140317505Y-108574501D01*
X140458659Y-108458659D01*
X140513858Y-108391399D01*
X140721959Y-108530447D01*
X141036253Y-108660632D01*
X141369905Y-108727000D01*
X141710095Y-108727000D01*
X142043747Y-108660632D01*
X142358041Y-108530447D01*
X142640898Y-108341448D01*
X142810000Y-108172346D01*
X142979102Y-108341448D01*
X143261959Y-108530447D01*
X143576253Y-108660632D01*
X143909905Y-108727000D01*
X144250095Y-108727000D01*
X144583747Y-108660632D01*
X144898041Y-108530447D01*
X145180898Y-108341448D01*
X145421448Y-108100898D01*
X145610447Y-107818041D01*
X145740632Y-107503747D01*
X145807000Y-107170095D01*
X145807000Y-106829905D01*
X145740632Y-106496253D01*
X145610447Y-106181959D01*
X145421448Y-105899102D01*
X145180898Y-105658552D01*
X144898041Y-105469553D01*
X144583747Y-105339368D01*
X144250095Y-105273000D01*
X143909905Y-105273000D01*
X143576253Y-105339368D01*
X143261959Y-105469553D01*
X142979102Y-105658552D01*
X142810000Y-105827654D01*
X142640898Y-105658552D01*
X142358041Y-105469553D01*
X142043747Y-105339368D01*
X141710095Y-105273000D01*
X141369905Y-105273000D01*
X141036253Y-105339368D01*
X140721959Y-105469553D01*
X140513858Y-105608601D01*
X140458659Y-105541341D01*
X140317505Y-105425499D01*
X140156464Y-105339420D01*
X139981724Y-105286413D01*
X139800000Y-105268515D01*
X138200000Y-105268515D01*
X138018276Y-105286413D01*
X137843536Y-105339420D01*
X137682495Y-105425499D01*
X137541341Y-105541341D01*
X137425499Y-105682495D01*
X137339420Y-105843536D01*
X137286413Y-106018276D01*
X137268515Y-106200000D01*
X135617920Y-106200000D01*
X135610447Y-106181959D01*
X135421448Y-105899102D01*
X135180898Y-105658552D01*
X134898041Y-105469553D01*
X134583747Y-105339368D01*
X134250095Y-105273000D01*
X133909905Y-105273000D01*
X133576253Y-105339368D01*
X133261959Y-105469553D01*
X132979102Y-105658552D01*
X132810000Y-105827654D01*
X132640898Y-105658552D01*
X132358041Y-105469553D01*
X132043747Y-105339368D01*
X131710095Y-105273000D01*
X131369905Y-105273000D01*
X131036253Y-105339368D01*
X130721959Y-105469553D01*
X130513858Y-105608601D01*
X130458659Y-105541341D01*
X130317505Y-105425499D01*
X130156464Y-105339420D01*
X129981724Y-105286413D01*
X129800000Y-105268515D01*
X128200000Y-105268515D01*
X128018276Y-105286413D01*
X127843536Y-105339420D01*
X127682495Y-105425499D01*
X127541341Y-105541341D01*
X127425499Y-105682495D01*
X127339420Y-105843536D01*
X127286413Y-106018276D01*
X127268515Y-106200000D01*
X125271317Y-106200000D01*
X125194637Y-106085241D01*
X124994759Y-105885363D01*
X124759727Y-105728320D01*
X124498574Y-105620147D01*
X124221335Y-105565000D01*
X123938665Y-105565000D01*
X123661426Y-105620147D01*
X123400273Y-105728320D01*
X123165241Y-105885363D01*
X122965363Y-106085241D01*
X122810000Y-106317759D01*
X122654637Y-106085241D01*
X122454759Y-105885363D01*
X122219727Y-105728320D01*
X121958574Y-105620147D01*
X121681335Y-105565000D01*
X121398665Y-105565000D01*
X121121426Y-105620147D01*
X120860273Y-105728320D01*
X120625241Y-105885363D01*
X120426643Y-106083961D01*
X120425812Y-106075518D01*
X120389502Y-105955820D01*
X120330537Y-105845506D01*
X120251185Y-105748815D01*
X120154494Y-105669463D01*
X120044180Y-105610498D01*
X119924482Y-105574188D01*
X119800000Y-105561928D01*
X118200000Y-105561928D01*
X118075518Y-105574188D01*
X117955820Y-105610498D01*
X117845506Y-105669463D01*
X117748815Y-105748815D01*
X117669463Y-105845506D01*
X117610498Y-105955820D01*
X117574188Y-106075518D01*
X117561928Y-106200000D01*
X117561928Y-107800000D01*
X117574188Y-107924482D01*
X117610498Y-108044180D01*
X117669463Y-108154494D01*
X117748815Y-108251185D01*
X117845506Y-108330537D01*
X117955820Y-108389502D01*
X118075518Y-108425812D01*
X118200000Y-108438072D01*
X118257961Y-108438072D01*
X118181959Y-108469553D01*
X117899102Y-108658552D01*
X117884654Y-108673000D01*
X115332748Y-108673000D01*
X115267574Y-108666581D01*
X115202400Y-108673000D01*
X115202391Y-108673000D01*
X115007438Y-108692201D01*
X114848740Y-108740342D01*
X114757297Y-108768081D01*
X114526765Y-108891303D01*
X114375336Y-109015578D01*
X114324705Y-109057130D01*
X114283154Y-109107760D01*
X101095905Y-122295010D01*
X99902621Y-122295010D01*
X99954904Y-122197195D01*
X100034786Y-121933860D01*
X100061759Y-121660000D01*
X100034786Y-121386140D01*
X99954904Y-121122805D01*
X99825183Y-120880113D01*
X99650608Y-120667392D01*
X99437887Y-120492817D01*
X99245529Y-120390000D01*
X99437887Y-120287183D01*
X99650608Y-120112608D01*
X99825183Y-119899887D01*
X99954904Y-119657195D01*
X100034786Y-119393860D01*
X100061759Y-119120000D01*
X100034786Y-118846140D01*
X99954904Y-118582805D01*
X99825183Y-118340113D01*
X99650608Y-118127392D01*
X99437887Y-117952817D01*
X99245529Y-117850000D01*
X99437887Y-117747183D01*
X99650608Y-117572608D01*
X99825183Y-117359887D01*
X99954904Y-117117195D01*
X100034786Y-116853860D01*
X100061759Y-116580000D01*
X100034786Y-116306140D01*
X99954904Y-116042805D01*
X99825183Y-115800113D01*
X99650608Y-115587392D01*
X99437887Y-115412817D01*
X99245529Y-115310000D01*
X99437887Y-115207183D01*
X99650608Y-115032608D01*
X99825183Y-114819887D01*
X99954904Y-114577195D01*
X100034786Y-114313860D01*
X100061759Y-114040000D01*
X100034786Y-113766140D01*
X99954904Y-113502805D01*
X99825183Y-113260113D01*
X99650608Y-113047392D01*
X99437887Y-112872817D01*
X99245529Y-112770000D01*
X99437887Y-112667183D01*
X99650608Y-112492608D01*
X99825183Y-112279887D01*
X99954904Y-112037195D01*
X100034786Y-111773860D01*
X100061759Y-111500000D01*
X100034786Y-111226140D01*
X99954904Y-110962805D01*
X99825183Y-110720113D01*
X99650608Y-110507392D01*
X99437887Y-110332817D01*
X99245529Y-110230000D01*
X99437887Y-110127183D01*
X99650608Y-109952608D01*
X99825183Y-109739887D01*
X99954904Y-109497195D01*
X100034786Y-109233860D01*
X100061759Y-108960000D01*
X100034786Y-108686140D01*
X99954904Y-108422805D01*
X99825183Y-108180113D01*
X99650608Y-107967392D01*
X99437887Y-107792817D01*
X99245529Y-107690000D01*
X99437887Y-107587183D01*
X99650608Y-107412608D01*
X99825183Y-107199887D01*
X99954904Y-106957195D01*
X100034786Y-106693860D01*
X100061759Y-106420000D01*
X100040091Y-106200000D01*
X107268515Y-106200000D01*
X107268515Y-107800000D01*
X107286413Y-107981724D01*
X107339420Y-108156464D01*
X107425499Y-108317505D01*
X107541341Y-108458659D01*
X107682495Y-108574501D01*
X107843536Y-108660580D01*
X108018276Y-108713587D01*
X108200000Y-108731485D01*
X109800000Y-108731485D01*
X109981724Y-108713587D01*
X110156464Y-108660580D01*
X110317505Y-108574501D01*
X110458659Y-108458659D01*
X110513858Y-108391399D01*
X110721959Y-108530447D01*
X111036253Y-108660632D01*
X111369905Y-108727000D01*
X111710095Y-108727000D01*
X112043747Y-108660632D01*
X112358041Y-108530447D01*
X112640898Y-108341448D01*
X112810000Y-108172346D01*
X112979102Y-108341448D01*
X113261959Y-108530447D01*
X113576253Y-108660632D01*
X113909905Y-108727000D01*
X114250095Y-108727000D01*
X114583747Y-108660632D01*
X114898041Y-108530447D01*
X115180898Y-108341448D01*
X115421448Y-108100898D01*
X115610447Y-107818041D01*
X115740632Y-107503747D01*
X115807000Y-107170095D01*
X115807000Y-106829905D01*
X115740632Y-106496253D01*
X115610447Y-106181959D01*
X115421448Y-105899102D01*
X115180898Y-105658552D01*
X114898041Y-105469553D01*
X114583747Y-105339368D01*
X114250095Y-105273000D01*
X113909905Y-105273000D01*
X113576253Y-105339368D01*
X113261959Y-105469553D01*
X112979102Y-105658552D01*
X112810000Y-105827654D01*
X112640898Y-105658552D01*
X112358041Y-105469553D01*
X112043747Y-105339368D01*
X111710095Y-105273000D01*
X111369905Y-105273000D01*
X111036253Y-105339368D01*
X110721959Y-105469553D01*
X110513858Y-105608601D01*
X110458659Y-105541341D01*
X110317505Y-105425499D01*
X110156464Y-105339420D01*
X109981724Y-105286413D01*
X109800000Y-105268515D01*
X108200000Y-105268515D01*
X108018276Y-105286413D01*
X107843536Y-105339420D01*
X107682495Y-105425499D01*
X107541341Y-105541341D01*
X107425499Y-105682495D01*
X107339420Y-105843536D01*
X107286413Y-106018276D01*
X107268515Y-106200000D01*
X100040091Y-106200000D01*
X100034786Y-106146140D01*
X99954904Y-105882805D01*
X99825183Y-105640113D01*
X99650608Y-105427392D01*
X99437887Y-105252817D01*
X99245529Y-105150000D01*
X99437887Y-105047183D01*
X99650608Y-104872608D01*
X99825183Y-104659887D01*
X99954904Y-104417195D01*
X100034786Y-104153860D01*
X100061759Y-103880000D01*
X100034786Y-103606140D01*
X99954904Y-103342805D01*
X99825183Y-103100113D01*
X99650608Y-102887392D01*
X99437887Y-102712817D01*
X99245529Y-102610000D01*
X99437887Y-102507183D01*
X99650608Y-102332608D01*
X99825183Y-102119887D01*
X99954904Y-101877195D01*
X100034786Y-101613860D01*
X100061759Y-101340000D01*
X100034786Y-101066140D01*
X99954904Y-100802805D01*
X99825183Y-100560113D01*
X99650608Y-100347392D01*
X99437887Y-100172817D01*
X99245529Y-100070000D01*
X99437887Y-99967183D01*
X99650608Y-99792608D01*
X99825183Y-99579887D01*
X99954904Y-99337195D01*
X99993517Y-99209905D01*
X107273000Y-99209905D01*
X107273000Y-99550095D01*
X107339368Y-99883747D01*
X107469553Y-100198041D01*
X107658552Y-100480898D01*
X107899102Y-100721448D01*
X108181959Y-100910447D01*
X108496253Y-101040632D01*
X108829905Y-101107000D01*
X109170095Y-101107000D01*
X109503747Y-101040632D01*
X109818041Y-100910447D01*
X110100898Y-100721448D01*
X110270000Y-100552346D01*
X110439102Y-100721448D01*
X110721959Y-100910447D01*
X111036253Y-101040632D01*
X111369905Y-101107000D01*
X111710095Y-101107000D01*
X112043747Y-101040632D01*
X112358041Y-100910447D01*
X112640898Y-100721448D01*
X112810000Y-100552346D01*
X112979102Y-100721448D01*
X113261959Y-100910447D01*
X113576253Y-101040632D01*
X113909905Y-101107000D01*
X114250095Y-101107000D01*
X114583747Y-101040632D01*
X114898041Y-100910447D01*
X115180898Y-100721448D01*
X115421448Y-100480898D01*
X115610447Y-100198041D01*
X115740632Y-99883747D01*
X115807000Y-99550095D01*
X115807000Y-99238665D01*
X117565000Y-99238665D01*
X117565000Y-99521335D01*
X117620147Y-99798574D01*
X117728320Y-100059727D01*
X117885363Y-100294759D01*
X118085241Y-100494637D01*
X118320273Y-100651680D01*
X118581426Y-100759853D01*
X118858665Y-100815000D01*
X119141335Y-100815000D01*
X119418574Y-100759853D01*
X119679727Y-100651680D01*
X119914759Y-100494637D01*
X120114637Y-100294759D01*
X120270000Y-100062241D01*
X120425363Y-100294759D01*
X120625241Y-100494637D01*
X120860273Y-100651680D01*
X121121426Y-100759853D01*
X121398665Y-100815000D01*
X121681335Y-100815000D01*
X121958574Y-100759853D01*
X122219727Y-100651680D01*
X122454759Y-100494637D01*
X122654637Y-100294759D01*
X122810000Y-100062241D01*
X122965363Y-100294759D01*
X123165241Y-100494637D01*
X123400273Y-100651680D01*
X123661426Y-100759853D01*
X123938665Y-100815000D01*
X124221335Y-100815000D01*
X124498574Y-100759853D01*
X124759727Y-100651680D01*
X124994759Y-100494637D01*
X125194637Y-100294759D01*
X125351680Y-100059727D01*
X125459853Y-99798574D01*
X125515000Y-99521335D01*
X125515000Y-99238665D01*
X125509280Y-99209905D01*
X127273000Y-99209905D01*
X127273000Y-99550095D01*
X127339368Y-99883747D01*
X127469553Y-100198041D01*
X127658552Y-100480898D01*
X127899102Y-100721448D01*
X128181959Y-100910447D01*
X128496253Y-101040632D01*
X128829905Y-101107000D01*
X129170095Y-101107000D01*
X129503747Y-101040632D01*
X129818041Y-100910447D01*
X130100898Y-100721448D01*
X130270000Y-100552346D01*
X130439102Y-100721448D01*
X130721959Y-100910447D01*
X131036253Y-101040632D01*
X131369905Y-101107000D01*
X131710095Y-101107000D01*
X132043747Y-101040632D01*
X132358041Y-100910447D01*
X132640898Y-100721448D01*
X132810000Y-100552346D01*
X132979102Y-100721448D01*
X133261959Y-100910447D01*
X133576253Y-101040632D01*
X133909905Y-101107000D01*
X134250095Y-101107000D01*
X134583747Y-101040632D01*
X134898041Y-100910447D01*
X135180898Y-100721448D01*
X135421448Y-100480898D01*
X135610447Y-100198041D01*
X135740632Y-99883747D01*
X135807000Y-99550095D01*
X135807000Y-99209905D01*
X137273000Y-99209905D01*
X137273000Y-99550095D01*
X137339368Y-99883747D01*
X137469553Y-100198041D01*
X137658552Y-100480898D01*
X137899102Y-100721448D01*
X138181959Y-100910447D01*
X138496253Y-101040632D01*
X138829905Y-101107000D01*
X139170095Y-101107000D01*
X139503747Y-101040632D01*
X139818041Y-100910447D01*
X140100898Y-100721448D01*
X140270000Y-100552346D01*
X140439102Y-100721448D01*
X140721959Y-100910447D01*
X141036253Y-101040632D01*
X141369905Y-101107000D01*
X141710095Y-101107000D01*
X142043747Y-101040632D01*
X142358041Y-100910447D01*
X142640898Y-100721448D01*
X142810000Y-100552346D01*
X142979102Y-100721448D01*
X143261959Y-100910447D01*
X143576253Y-101040632D01*
X143909905Y-101107000D01*
X144250095Y-101107000D01*
X144583747Y-101040632D01*
X144898041Y-100910447D01*
X145180898Y-100721448D01*
X145421448Y-100480898D01*
X145610447Y-100198041D01*
X145740632Y-99883747D01*
X145807000Y-99550095D01*
X145807000Y-99209905D01*
X145740632Y-98876253D01*
X145610447Y-98561959D01*
X145452117Y-98325000D01*
X148686928Y-98325000D01*
X148686928Y-99675000D01*
X148699188Y-99799482D01*
X148735498Y-99919180D01*
X148794463Y-100029494D01*
X148873815Y-100126185D01*
X148970506Y-100205537D01*
X149080820Y-100264502D01*
X149200518Y-100300812D01*
X149325000Y-100313072D01*
X150675000Y-100313072D01*
X150799482Y-100300812D01*
X150919180Y-100264502D01*
X151029494Y-100205537D01*
X151126185Y-100126185D01*
X151205537Y-100029494D01*
X151264502Y-99919180D01*
X151300812Y-99799482D01*
X151313072Y-99675000D01*
X151313072Y-98325000D01*
X151300812Y-98200518D01*
X151264502Y-98080820D01*
X151205537Y-97970506D01*
X151126185Y-97873815D01*
X151107725Y-97858665D01*
X157565000Y-97858665D01*
X157565000Y-98141335D01*
X157620147Y-98418574D01*
X157728320Y-98679727D01*
X157885363Y-98914759D01*
X158085241Y-99114637D01*
X158320273Y-99271680D01*
X158581426Y-99379853D01*
X158858665Y-99435000D01*
X159141335Y-99435000D01*
X159418574Y-99379853D01*
X159679727Y-99271680D01*
X159914759Y-99114637D01*
X159994396Y-99035000D01*
X161965000Y-99035000D01*
X161965001Y-102005603D01*
X161885363Y-102085241D01*
X161728320Y-102320273D01*
X161620147Y-102581426D01*
X161565000Y-102858665D01*
X161565000Y-103141335D01*
X161620147Y-103418574D01*
X161728320Y-103679727D01*
X161885363Y-103914759D01*
X162085241Y-104114637D01*
X162320273Y-104271680D01*
X162581426Y-104379853D01*
X162858665Y-104435000D01*
X163141335Y-104435000D01*
X163418574Y-104379853D01*
X163679727Y-104271680D01*
X163914759Y-104114637D01*
X164114637Y-103914759D01*
X164271680Y-103679727D01*
X164379853Y-103418574D01*
X164435000Y-103141335D01*
X164435000Y-102858665D01*
X164379853Y-102581426D01*
X164271680Y-102320273D01*
X164114637Y-102085241D01*
X164035000Y-102005604D01*
X164035000Y-98050838D01*
X164040007Y-98000000D01*
X164035000Y-97949162D01*
X164035000Y-83560000D01*
X165358241Y-83560000D01*
X165385214Y-83833860D01*
X165465096Y-84097195D01*
X165594817Y-84339887D01*
X165769392Y-84552608D01*
X165982113Y-84727183D01*
X166174471Y-84830000D01*
X165982113Y-84932817D01*
X165769392Y-85107392D01*
X165594817Y-85320113D01*
X165465096Y-85562805D01*
X165385214Y-85826140D01*
X165358241Y-86100000D01*
X165385214Y-86373860D01*
X165465096Y-86637195D01*
X165594817Y-86879887D01*
X165769392Y-87092608D01*
X165982113Y-87267183D01*
X166174471Y-87370000D01*
X165982113Y-87472817D01*
X165769392Y-87647392D01*
X165594817Y-87860113D01*
X165465096Y-88102805D01*
X165385214Y-88366140D01*
X165358241Y-88640000D01*
X165385214Y-88913860D01*
X165465096Y-89177195D01*
X165594817Y-89419887D01*
X165769392Y-89632608D01*
X165982113Y-89807183D01*
X166174471Y-89910000D01*
X165982113Y-90012817D01*
X165769392Y-90187392D01*
X165594817Y-90400113D01*
X165465096Y-90642805D01*
X165385214Y-90906140D01*
X165358241Y-91180000D01*
X165385214Y-91453860D01*
X165465096Y-91717195D01*
X165594817Y-91959887D01*
X165769392Y-92172608D01*
X165982113Y-92347183D01*
X166174471Y-92450000D01*
X165982113Y-92552817D01*
X165769392Y-92727392D01*
X165594817Y-92940113D01*
X165465096Y-93182805D01*
X165385214Y-93446140D01*
X165358241Y-93720000D01*
X165385214Y-93993860D01*
X165465096Y-94257195D01*
X165594817Y-94499887D01*
X165769392Y-94712608D01*
X165982113Y-94887183D01*
X166174471Y-94990000D01*
X165982113Y-95092817D01*
X165769392Y-95267392D01*
X165594817Y-95480113D01*
X165465096Y-95722805D01*
X165385214Y-95986140D01*
X165358241Y-96260000D01*
X165385214Y-96533860D01*
X165465096Y-96797195D01*
X165594817Y-97039887D01*
X165769392Y-97252608D01*
X165982113Y-97427183D01*
X166174471Y-97530000D01*
X165982113Y-97632817D01*
X165769392Y-97807392D01*
X165594817Y-98020113D01*
X165465096Y-98262805D01*
X165385214Y-98526140D01*
X165358241Y-98800000D01*
X165385214Y-99073860D01*
X165465096Y-99337195D01*
X165594817Y-99579887D01*
X165769392Y-99792608D01*
X165982113Y-99967183D01*
X166174471Y-100070000D01*
X165982113Y-100172817D01*
X165769392Y-100347392D01*
X165594817Y-100560113D01*
X165465096Y-100802805D01*
X165385214Y-101066140D01*
X165358241Y-101340000D01*
X165385214Y-101613860D01*
X165465096Y-101877195D01*
X165594817Y-102119887D01*
X165769392Y-102332608D01*
X165982113Y-102507183D01*
X166174471Y-102610000D01*
X165982113Y-102712817D01*
X165769392Y-102887392D01*
X165594817Y-103100113D01*
X165465096Y-103342805D01*
X165385214Y-103606140D01*
X165358241Y-103880000D01*
X165385214Y-104153860D01*
X165465096Y-104417195D01*
X165594817Y-104659887D01*
X165769392Y-104872608D01*
X165982113Y-105047183D01*
X166174471Y-105150000D01*
X165982113Y-105252817D01*
X165769392Y-105427392D01*
X165594817Y-105640113D01*
X165465096Y-105882805D01*
X165385214Y-106146140D01*
X165358241Y-106420000D01*
X165385214Y-106693860D01*
X165465096Y-106957195D01*
X165594817Y-107199887D01*
X165769392Y-107412608D01*
X165982113Y-107587183D01*
X166174471Y-107690000D01*
X165982113Y-107792817D01*
X165769392Y-107967392D01*
X165594817Y-108180113D01*
X165465096Y-108422805D01*
X165385214Y-108686140D01*
X165358241Y-108960000D01*
X165385214Y-109233860D01*
X165465096Y-109497195D01*
X165594817Y-109739887D01*
X165769392Y-109952608D01*
X165982113Y-110127183D01*
X166174471Y-110230000D01*
X165982113Y-110332817D01*
X165769392Y-110507392D01*
X165594817Y-110720113D01*
X165465096Y-110962805D01*
X165385214Y-111226140D01*
X165358241Y-111500000D01*
X165385214Y-111773860D01*
X165465096Y-112037195D01*
X165594817Y-112279887D01*
X165769392Y-112492608D01*
X165982113Y-112667183D01*
X166174471Y-112770000D01*
X165982113Y-112872817D01*
X165769392Y-113047392D01*
X165594817Y-113260113D01*
X165465096Y-113502805D01*
X165385214Y-113766140D01*
X165358241Y-114040000D01*
X165385214Y-114313860D01*
X165465096Y-114577195D01*
X165594817Y-114819887D01*
X165769392Y-115032608D01*
X165982113Y-115207183D01*
X166174471Y-115310000D01*
X165982113Y-115412817D01*
X165769392Y-115587392D01*
X165594817Y-115800113D01*
X165465096Y-116042805D01*
X165385214Y-116306140D01*
X165358241Y-116580000D01*
X165385214Y-116853860D01*
X165465096Y-117117195D01*
X165594817Y-117359887D01*
X165769392Y-117572608D01*
X165982113Y-117747183D01*
X166174471Y-117850000D01*
X165982113Y-117952817D01*
X165769392Y-118127392D01*
X165594817Y-118340113D01*
X165465096Y-118582805D01*
X165385214Y-118846140D01*
X165358241Y-119120000D01*
X165385214Y-119393860D01*
X165465096Y-119657195D01*
X165594817Y-119899887D01*
X165769392Y-120112608D01*
X165982113Y-120287183D01*
X166174471Y-120390000D01*
X165982113Y-120492817D01*
X165769392Y-120667392D01*
X165594817Y-120880113D01*
X165465096Y-121122805D01*
X165385214Y-121386140D01*
X165358241Y-121660000D01*
X165385214Y-121933860D01*
X165465096Y-122197195D01*
X165594817Y-122439887D01*
X165769392Y-122652608D01*
X165982113Y-122827183D01*
X166224805Y-122956904D01*
X166488140Y-123036786D01*
X166693375Y-123057000D01*
X167306625Y-123057000D01*
X167511860Y-123036786D01*
X167775195Y-122956904D01*
X168017887Y-122827183D01*
X168230608Y-122652608D01*
X168267774Y-122607321D01*
X168431809Y-122764890D01*
X168664083Y-122913426D01*
X168920872Y-123013793D01*
X169192307Y-123062135D01*
X169413000Y-122903282D01*
X169413000Y-121787000D01*
X169667000Y-121787000D01*
X169667000Y-122903282D01*
X169887693Y-123062135D01*
X170159128Y-123013793D01*
X170415917Y-122913426D01*
X170648191Y-122764890D01*
X170847024Y-122573894D01*
X171004775Y-122347778D01*
X171115382Y-122095231D01*
X171132220Y-122003070D01*
X171009720Y-121787000D01*
X169667000Y-121787000D01*
X169413000Y-121787000D01*
X169393000Y-121787000D01*
X169393000Y-121533000D01*
X169413000Y-121533000D01*
X169413000Y-120416718D01*
X169375881Y-120390000D01*
X169413000Y-120363282D01*
X169413000Y-119247000D01*
X169667000Y-119247000D01*
X169667000Y-120363282D01*
X169704119Y-120390000D01*
X169667000Y-120416718D01*
X169667000Y-121533000D01*
X171009720Y-121533000D01*
X171132220Y-121316930D01*
X171115382Y-121224769D01*
X171004775Y-120972222D01*
X170847024Y-120746106D01*
X170648191Y-120555110D01*
X170415917Y-120406574D01*
X170373512Y-120390000D01*
X170415917Y-120373426D01*
X170648191Y-120224890D01*
X170847024Y-120033894D01*
X171004775Y-119807778D01*
X171115382Y-119555231D01*
X171132220Y-119463070D01*
X171009720Y-119247000D01*
X169667000Y-119247000D01*
X169413000Y-119247000D01*
X169393000Y-119247000D01*
X169393000Y-118993000D01*
X169413000Y-118993000D01*
X169413000Y-118973000D01*
X169667000Y-118973000D01*
X169667000Y-118993000D01*
X171009720Y-118993000D01*
X171132220Y-118776930D01*
X171115382Y-118684769D01*
X171004775Y-118432222D01*
X170847024Y-118206106D01*
X170648191Y-118015110D01*
X170415917Y-117866574D01*
X170368901Y-117848198D01*
X170557887Y-117747183D01*
X170770608Y-117572608D01*
X170945183Y-117359887D01*
X171074904Y-117117195D01*
X171154786Y-116853860D01*
X171181759Y-116580000D01*
X171154786Y-116306140D01*
X171074904Y-116042805D01*
X170945183Y-115800113D01*
X170770608Y-115587392D01*
X170557887Y-115412817D01*
X170365529Y-115310000D01*
X170557887Y-115207183D01*
X170770608Y-115032608D01*
X170945183Y-114819887D01*
X171074904Y-114577195D01*
X171154786Y-114313860D01*
X171181759Y-114040000D01*
X171154786Y-113766140D01*
X171074904Y-113502805D01*
X170945183Y-113260113D01*
X170770608Y-113047392D01*
X170557887Y-112872817D01*
X170368901Y-112771802D01*
X170415917Y-112753426D01*
X170648191Y-112604890D01*
X170847024Y-112413894D01*
X171004775Y-112187778D01*
X171115382Y-111935231D01*
X171132220Y-111843070D01*
X171009720Y-111627000D01*
X169667000Y-111627000D01*
X169667000Y-111647000D01*
X169413000Y-111647000D01*
X169413000Y-111627000D01*
X169393000Y-111627000D01*
X169393000Y-111373000D01*
X169413000Y-111373000D01*
X169413000Y-110256718D01*
X169375881Y-110230000D01*
X169413000Y-110203282D01*
X169413000Y-109087000D01*
X169667000Y-109087000D01*
X169667000Y-110203282D01*
X169704119Y-110230000D01*
X169667000Y-110256718D01*
X169667000Y-111373000D01*
X171009720Y-111373000D01*
X171132220Y-111156930D01*
X171115382Y-111064769D01*
X171004775Y-110812222D01*
X170847024Y-110586106D01*
X170648191Y-110395110D01*
X170415917Y-110246574D01*
X170373512Y-110230000D01*
X170415917Y-110213426D01*
X170648191Y-110064890D01*
X170847024Y-109873894D01*
X171004775Y-109647778D01*
X171115382Y-109395231D01*
X171132220Y-109303070D01*
X171009720Y-109087000D01*
X169667000Y-109087000D01*
X169413000Y-109087000D01*
X169393000Y-109087000D01*
X169393000Y-108833000D01*
X169413000Y-108833000D01*
X169413000Y-107716718D01*
X169375881Y-107690000D01*
X169413000Y-107663282D01*
X169413000Y-106547000D01*
X169667000Y-106547000D01*
X169667000Y-107663282D01*
X169704119Y-107690000D01*
X169667000Y-107716718D01*
X169667000Y-108833000D01*
X171009720Y-108833000D01*
X171132220Y-108616930D01*
X171115382Y-108524769D01*
X171004775Y-108272222D01*
X170847024Y-108046106D01*
X170648191Y-107855110D01*
X170415917Y-107706574D01*
X170373512Y-107690000D01*
X170415917Y-107673426D01*
X170648191Y-107524890D01*
X170847024Y-107333894D01*
X171004775Y-107107778D01*
X171115382Y-106855231D01*
X171132220Y-106763070D01*
X171009720Y-106547000D01*
X169667000Y-106547000D01*
X169413000Y-106547000D01*
X169393000Y-106547000D01*
X169393000Y-106293000D01*
X169413000Y-106293000D01*
X169413000Y-105176718D01*
X169375881Y-105150000D01*
X169413000Y-105123282D01*
X169413000Y-104007000D01*
X169667000Y-104007000D01*
X169667000Y-105123282D01*
X169704119Y-105150000D01*
X169667000Y-105176718D01*
X169667000Y-106293000D01*
X171009720Y-106293000D01*
X171132220Y-106076930D01*
X171115382Y-105984769D01*
X171004775Y-105732222D01*
X170847024Y-105506106D01*
X170648191Y-105315110D01*
X170415917Y-105166574D01*
X170373512Y-105150000D01*
X170415917Y-105133426D01*
X170648191Y-104984890D01*
X170847024Y-104793894D01*
X171004775Y-104567778D01*
X171115382Y-104315231D01*
X171132220Y-104223070D01*
X171009720Y-104007000D01*
X169667000Y-104007000D01*
X169413000Y-104007000D01*
X169393000Y-104007000D01*
X169393000Y-103753000D01*
X169413000Y-103753000D01*
X169413000Y-102636718D01*
X169375881Y-102610000D01*
X169413000Y-102583282D01*
X169413000Y-101467000D01*
X169667000Y-101467000D01*
X169667000Y-102583282D01*
X169704119Y-102610000D01*
X169667000Y-102636718D01*
X169667000Y-103753000D01*
X171009720Y-103753000D01*
X171132220Y-103536930D01*
X171115382Y-103444769D01*
X171004775Y-103192222D01*
X170847024Y-102966106D01*
X170648191Y-102775110D01*
X170415917Y-102626574D01*
X170373512Y-102610000D01*
X170415917Y-102593426D01*
X170648191Y-102444890D01*
X170847024Y-102253894D01*
X171004775Y-102027778D01*
X171115382Y-101775231D01*
X171132220Y-101683070D01*
X171009720Y-101467000D01*
X169667000Y-101467000D01*
X169413000Y-101467000D01*
X169393000Y-101467000D01*
X169393000Y-101213000D01*
X169413000Y-101213000D01*
X169413000Y-100096718D01*
X169375881Y-100070000D01*
X169413000Y-100043282D01*
X169413000Y-98927000D01*
X169667000Y-98927000D01*
X169667000Y-100043282D01*
X169704119Y-100070000D01*
X169667000Y-100096718D01*
X169667000Y-101213000D01*
X171009720Y-101213000D01*
X171132220Y-100996930D01*
X171115382Y-100904769D01*
X171004775Y-100652222D01*
X170847024Y-100426106D01*
X170648191Y-100235110D01*
X170415917Y-100086574D01*
X170373512Y-100070000D01*
X170415917Y-100053426D01*
X170648191Y-99904890D01*
X170847024Y-99713894D01*
X171004775Y-99487778D01*
X171115382Y-99235231D01*
X171132220Y-99143070D01*
X171009720Y-98927000D01*
X169667000Y-98927000D01*
X169413000Y-98927000D01*
X169393000Y-98927000D01*
X169393000Y-98673000D01*
X169413000Y-98673000D01*
X169413000Y-97556718D01*
X169375881Y-97530000D01*
X169413000Y-97503282D01*
X169413000Y-96387000D01*
X169667000Y-96387000D01*
X169667000Y-97503282D01*
X169704119Y-97530000D01*
X169667000Y-97556718D01*
X169667000Y-98673000D01*
X171009720Y-98673000D01*
X171132220Y-98456930D01*
X171115382Y-98364769D01*
X171004775Y-98112222D01*
X170847024Y-97886106D01*
X170648191Y-97695110D01*
X170415917Y-97546574D01*
X170373512Y-97530000D01*
X170415917Y-97513426D01*
X170648191Y-97364890D01*
X170847024Y-97173894D01*
X171004775Y-96947778D01*
X171115382Y-96695231D01*
X171132220Y-96603070D01*
X171009720Y-96387000D01*
X169667000Y-96387000D01*
X169413000Y-96387000D01*
X169393000Y-96387000D01*
X169393000Y-96133000D01*
X169413000Y-96133000D01*
X169413000Y-95016718D01*
X169375881Y-94990000D01*
X169413000Y-94963282D01*
X169413000Y-93847000D01*
X169667000Y-93847000D01*
X169667000Y-94963282D01*
X169704119Y-94990000D01*
X169667000Y-95016718D01*
X169667000Y-96133000D01*
X171009720Y-96133000D01*
X171132220Y-95916930D01*
X171115382Y-95824769D01*
X171004775Y-95572222D01*
X170847024Y-95346106D01*
X170648191Y-95155110D01*
X170415917Y-95006574D01*
X170373512Y-94990000D01*
X170415917Y-94973426D01*
X170648191Y-94824890D01*
X170847024Y-94633894D01*
X171004775Y-94407778D01*
X171115382Y-94155231D01*
X171132220Y-94063070D01*
X171009720Y-93847000D01*
X169667000Y-93847000D01*
X169413000Y-93847000D01*
X169393000Y-93847000D01*
X169393000Y-93593000D01*
X169413000Y-93593000D01*
X169413000Y-92476718D01*
X169375881Y-92450000D01*
X169413000Y-92423282D01*
X169413000Y-91307000D01*
X169667000Y-91307000D01*
X169667000Y-92423282D01*
X169704119Y-92450000D01*
X169667000Y-92476718D01*
X169667000Y-93593000D01*
X171009720Y-93593000D01*
X171132220Y-93376930D01*
X171115382Y-93284769D01*
X171004775Y-93032222D01*
X170847024Y-92806106D01*
X170648191Y-92615110D01*
X170415917Y-92466574D01*
X170373512Y-92450000D01*
X170415917Y-92433426D01*
X170648191Y-92284890D01*
X170847024Y-92093894D01*
X171004775Y-91867778D01*
X171115382Y-91615231D01*
X171132220Y-91523070D01*
X171009720Y-91307000D01*
X169667000Y-91307000D01*
X169413000Y-91307000D01*
X169393000Y-91307000D01*
X169393000Y-91053000D01*
X169413000Y-91053000D01*
X169413000Y-89936718D01*
X169375881Y-89910000D01*
X169413000Y-89883282D01*
X169413000Y-88767000D01*
X169667000Y-88767000D01*
X169667000Y-89883282D01*
X169704119Y-89910000D01*
X169667000Y-89936718D01*
X169667000Y-91053000D01*
X171009720Y-91053000D01*
X171132220Y-90836930D01*
X171115382Y-90744769D01*
X171004775Y-90492222D01*
X170847024Y-90266106D01*
X170648191Y-90075110D01*
X170415917Y-89926574D01*
X170373512Y-89910000D01*
X170415917Y-89893426D01*
X170648191Y-89744890D01*
X170847024Y-89553894D01*
X171004775Y-89327778D01*
X171115382Y-89075231D01*
X171132220Y-88983070D01*
X171009720Y-88767000D01*
X169667000Y-88767000D01*
X169413000Y-88767000D01*
X169393000Y-88767000D01*
X169393000Y-88513000D01*
X169413000Y-88513000D01*
X169413000Y-87396718D01*
X169375881Y-87370000D01*
X169413000Y-87343282D01*
X169413000Y-86227000D01*
X169667000Y-86227000D01*
X169667000Y-87343282D01*
X169704119Y-87370000D01*
X169667000Y-87396718D01*
X169667000Y-88513000D01*
X171009720Y-88513000D01*
X171132220Y-88296930D01*
X171115382Y-88204769D01*
X171004775Y-87952222D01*
X170847024Y-87726106D01*
X170648191Y-87535110D01*
X170415917Y-87386574D01*
X170373512Y-87370000D01*
X170415917Y-87353426D01*
X170648191Y-87204890D01*
X170847024Y-87013894D01*
X171004775Y-86787778D01*
X171115382Y-86535231D01*
X171132220Y-86443070D01*
X171009720Y-86227000D01*
X169667000Y-86227000D01*
X169413000Y-86227000D01*
X169393000Y-86227000D01*
X169393000Y-85973000D01*
X169413000Y-85973000D01*
X169413000Y-84856718D01*
X169375881Y-84830000D01*
X169413000Y-84803282D01*
X169413000Y-83687000D01*
X169667000Y-83687000D01*
X169667000Y-84803282D01*
X169704119Y-84830000D01*
X169667000Y-84856718D01*
X169667000Y-85973000D01*
X171009720Y-85973000D01*
X171132220Y-85756930D01*
X171115382Y-85664769D01*
X171004775Y-85412222D01*
X170847024Y-85186106D01*
X170648191Y-84995110D01*
X170415917Y-84846574D01*
X170373512Y-84830000D01*
X170415917Y-84813426D01*
X170648191Y-84664890D01*
X170847024Y-84473894D01*
X171004775Y-84247778D01*
X171115382Y-83995231D01*
X171132220Y-83903070D01*
X171009720Y-83687000D01*
X169667000Y-83687000D01*
X169413000Y-83687000D01*
X169393000Y-83687000D01*
X169393000Y-83433000D01*
X169413000Y-83433000D01*
X169413000Y-82316718D01*
X169375881Y-82290000D01*
X169413000Y-82263282D01*
X169413000Y-81147000D01*
X169667000Y-81147000D01*
X169667000Y-82263282D01*
X169704119Y-82290000D01*
X169667000Y-82316718D01*
X169667000Y-83433000D01*
X171009720Y-83433000D01*
X171132220Y-83216930D01*
X171115382Y-83124769D01*
X171004775Y-82872222D01*
X170847024Y-82646106D01*
X170648191Y-82455110D01*
X170415917Y-82306574D01*
X170373512Y-82290000D01*
X170415917Y-82273426D01*
X170648191Y-82124890D01*
X170847024Y-81933894D01*
X171004775Y-81707778D01*
X171115382Y-81455231D01*
X171132220Y-81363070D01*
X171009720Y-81147000D01*
X169667000Y-81147000D01*
X169413000Y-81147000D01*
X167127000Y-81147000D01*
X167127000Y-81167000D01*
X166873000Y-81167000D01*
X166873000Y-81147000D01*
X165530280Y-81147000D01*
X165407780Y-81363070D01*
X165424618Y-81455231D01*
X165535225Y-81707778D01*
X165692976Y-81933894D01*
X165891809Y-82124890D01*
X166124083Y-82273426D01*
X166171099Y-82291802D01*
X165982113Y-82392817D01*
X165769392Y-82567392D01*
X165594817Y-82780113D01*
X165465096Y-83022805D01*
X165385214Y-83286140D01*
X165358241Y-83560000D01*
X164035000Y-83560000D01*
X164035000Y-76028710D01*
X165504511Y-74559200D01*
X165548815Y-74613185D01*
X165645506Y-74692537D01*
X165755820Y-74751502D01*
X165875518Y-74787812D01*
X165954378Y-74795579D01*
X165769392Y-74947392D01*
X165594817Y-75160113D01*
X165465096Y-75402805D01*
X165385214Y-75666140D01*
X165358241Y-75940000D01*
X165385214Y-76213860D01*
X165465096Y-76477195D01*
X165594817Y-76719887D01*
X165769392Y-76932608D01*
X165982113Y-77107183D01*
X166174471Y-77210000D01*
X165982113Y-77312817D01*
X165769392Y-77487392D01*
X165594817Y-77700113D01*
X165465096Y-77942805D01*
X165385214Y-78206140D01*
X165358241Y-78480000D01*
X165385214Y-78753860D01*
X165465096Y-79017195D01*
X165594817Y-79259887D01*
X165769392Y-79472608D01*
X165982113Y-79647183D01*
X166171099Y-79748198D01*
X166124083Y-79766574D01*
X165891809Y-79915110D01*
X165692976Y-80106106D01*
X165535225Y-80332222D01*
X165424618Y-80584769D01*
X165407780Y-80676930D01*
X165530280Y-80893000D01*
X166873000Y-80893000D01*
X166873000Y-80873000D01*
X167127000Y-80873000D01*
X167127000Y-80893000D01*
X169413000Y-80893000D01*
X169413000Y-80873000D01*
X169667000Y-80873000D01*
X169667000Y-80893000D01*
X171009720Y-80893000D01*
X171132220Y-80676930D01*
X171115382Y-80584769D01*
X171004775Y-80332222D01*
X170847024Y-80106106D01*
X170648191Y-79915110D01*
X170415917Y-79766574D01*
X170368901Y-79748198D01*
X170557887Y-79647183D01*
X170770608Y-79472608D01*
X170945183Y-79259887D01*
X171074904Y-79017195D01*
X171154786Y-78753860D01*
X171181759Y-78480000D01*
X171154786Y-78206140D01*
X171074904Y-77942805D01*
X170945183Y-77700113D01*
X170770608Y-77487392D01*
X170557887Y-77312817D01*
X170368901Y-77211802D01*
X170415917Y-77193426D01*
X170648191Y-77044890D01*
X170847024Y-76853894D01*
X171004775Y-76627778D01*
X171115382Y-76375231D01*
X171132220Y-76283070D01*
X171009720Y-76067000D01*
X169667000Y-76067000D01*
X169667000Y-76087000D01*
X169413000Y-76087000D01*
X169413000Y-76067000D01*
X169393000Y-76067000D01*
X169393000Y-75813000D01*
X169413000Y-75813000D01*
X169413000Y-75793000D01*
X169667000Y-75793000D01*
X169667000Y-75813000D01*
X171009720Y-75813000D01*
X171132220Y-75596930D01*
X171115382Y-75504769D01*
X171004775Y-75252222D01*
X170847024Y-75026106D01*
X170648191Y-74835110D01*
X170415917Y-74686574D01*
X170368901Y-74668198D01*
X170557887Y-74567183D01*
X170770608Y-74392608D01*
X170945183Y-74179887D01*
X171074904Y-73937195D01*
X171154786Y-73673860D01*
X171181759Y-73400000D01*
X171154786Y-73126140D01*
X171074904Y-72862805D01*
X170945183Y-72620113D01*
X170770608Y-72407392D01*
X170557887Y-72232817D01*
X170315195Y-72103096D01*
X170051860Y-72023214D01*
X169846625Y-72003000D01*
X169233375Y-72003000D01*
X169028140Y-72023214D01*
X168764805Y-72103096D01*
X168522113Y-72232817D01*
X168502289Y-72249086D01*
X168451185Y-72186815D01*
X168354494Y-72107463D01*
X168244180Y-72048498D01*
X168124482Y-72012188D01*
X168000000Y-71999928D01*
X166000000Y-71999928D01*
X165875518Y-72012188D01*
X165755820Y-72048498D01*
X165645506Y-72107463D01*
X165548815Y-72186815D01*
X165469463Y-72283506D01*
X165425903Y-72365000D01*
X165250835Y-72365000D01*
X165200000Y-72359993D01*
X165149165Y-72365000D01*
X165149162Y-72365000D01*
X164997105Y-72379976D01*
X164802007Y-72439159D01*
X164718309Y-72483896D01*
X164622202Y-72535266D01*
X164504092Y-72632197D01*
X164464604Y-72664604D01*
X164432197Y-72704092D01*
X162304097Y-74832193D01*
X162264604Y-74864604D01*
X162135266Y-75022203D01*
X162039159Y-75202008D01*
X161979976Y-75397106D01*
X161965000Y-75549163D01*
X161965000Y-75549172D01*
X161959994Y-75600000D01*
X161965000Y-75650828D01*
X161965001Y-96965000D01*
X159994396Y-96965000D01*
X159914759Y-96885363D01*
X159679727Y-96728320D01*
X159418574Y-96620147D01*
X159141335Y-96565000D01*
X158858665Y-96565000D01*
X158581426Y-96620147D01*
X158320273Y-96728320D01*
X158085241Y-96885363D01*
X157885363Y-97085241D01*
X157728320Y-97320273D01*
X157620147Y-97581426D01*
X157565000Y-97858665D01*
X151107725Y-97858665D01*
X151029494Y-97794463D01*
X150919180Y-97735498D01*
X150799482Y-97699188D01*
X150675000Y-97686928D01*
X149325000Y-97686928D01*
X149200518Y-97699188D01*
X149080820Y-97735498D01*
X148970506Y-97794463D01*
X148873815Y-97873815D01*
X148794463Y-97970506D01*
X148735498Y-98080820D01*
X148699188Y-98200518D01*
X148686928Y-98325000D01*
X145452117Y-98325000D01*
X145421448Y-98279102D01*
X145180898Y-98038552D01*
X144898041Y-97849553D01*
X144583747Y-97719368D01*
X144250095Y-97653000D01*
X143909905Y-97653000D01*
X143576253Y-97719368D01*
X143261959Y-97849553D01*
X142979102Y-98038552D01*
X142810000Y-98207654D01*
X142640898Y-98038552D01*
X142358041Y-97849553D01*
X142043747Y-97719368D01*
X141710095Y-97653000D01*
X141369905Y-97653000D01*
X141036253Y-97719368D01*
X140721959Y-97849553D01*
X140439102Y-98038552D01*
X140270000Y-98207654D01*
X140100898Y-98038552D01*
X139818041Y-97849553D01*
X139503747Y-97719368D01*
X139170095Y-97653000D01*
X138829905Y-97653000D01*
X138496253Y-97719368D01*
X138181959Y-97849553D01*
X137899102Y-98038552D01*
X137658552Y-98279102D01*
X137469553Y-98561959D01*
X137339368Y-98876253D01*
X137273000Y-99209905D01*
X135807000Y-99209905D01*
X135740632Y-98876253D01*
X135610447Y-98561959D01*
X135421448Y-98279102D01*
X135180898Y-98038552D01*
X134898041Y-97849553D01*
X134583747Y-97719368D01*
X134250095Y-97653000D01*
X133909905Y-97653000D01*
X133576253Y-97719368D01*
X133261959Y-97849553D01*
X132979102Y-98038552D01*
X132810000Y-98207654D01*
X132640898Y-98038552D01*
X132358041Y-97849553D01*
X132043747Y-97719368D01*
X131710095Y-97653000D01*
X131369905Y-97653000D01*
X131036253Y-97719368D01*
X130721959Y-97849553D01*
X130439102Y-98038552D01*
X130270000Y-98207654D01*
X130100898Y-98038552D01*
X129818041Y-97849553D01*
X129503747Y-97719368D01*
X129170095Y-97653000D01*
X128829905Y-97653000D01*
X128496253Y-97719368D01*
X128181959Y-97849553D01*
X127899102Y-98038552D01*
X127658552Y-98279102D01*
X127469553Y-98561959D01*
X127339368Y-98876253D01*
X127273000Y-99209905D01*
X125509280Y-99209905D01*
X125459853Y-98961426D01*
X125351680Y-98700273D01*
X125194637Y-98465241D01*
X124994759Y-98265363D01*
X124759727Y-98108320D01*
X124498574Y-98000147D01*
X124221335Y-97945000D01*
X123938665Y-97945000D01*
X123661426Y-98000147D01*
X123400273Y-98108320D01*
X123165241Y-98265363D01*
X122965363Y-98465241D01*
X122810000Y-98697759D01*
X122654637Y-98465241D01*
X122454759Y-98265363D01*
X122219727Y-98108320D01*
X121958574Y-98000147D01*
X121681335Y-97945000D01*
X121398665Y-97945000D01*
X121121426Y-98000147D01*
X120860273Y-98108320D01*
X120625241Y-98265363D01*
X120425363Y-98465241D01*
X120270000Y-98697759D01*
X120114637Y-98465241D01*
X119914759Y-98265363D01*
X119679727Y-98108320D01*
X119418574Y-98000147D01*
X119141335Y-97945000D01*
X118858665Y-97945000D01*
X118581426Y-98000147D01*
X118320273Y-98108320D01*
X118085241Y-98265363D01*
X117885363Y-98465241D01*
X117728320Y-98700273D01*
X117620147Y-98961426D01*
X117565000Y-99238665D01*
X115807000Y-99238665D01*
X115807000Y-99209905D01*
X115740632Y-98876253D01*
X115610447Y-98561959D01*
X115421448Y-98279102D01*
X115180898Y-98038552D01*
X114898041Y-97849553D01*
X114583747Y-97719368D01*
X114250095Y-97653000D01*
X113909905Y-97653000D01*
X113576253Y-97719368D01*
X113261959Y-97849553D01*
X112979102Y-98038552D01*
X112810000Y-98207654D01*
X112640898Y-98038552D01*
X112358041Y-97849553D01*
X112043747Y-97719368D01*
X111710095Y-97653000D01*
X111369905Y-97653000D01*
X111036253Y-97719368D01*
X110721959Y-97849553D01*
X110439102Y-98038552D01*
X110270000Y-98207654D01*
X110100898Y-98038552D01*
X109818041Y-97849553D01*
X109503747Y-97719368D01*
X109170095Y-97653000D01*
X108829905Y-97653000D01*
X108496253Y-97719368D01*
X108181959Y-97849553D01*
X107899102Y-98038552D01*
X107658552Y-98279102D01*
X107469553Y-98561959D01*
X107339368Y-98876253D01*
X107273000Y-99209905D01*
X99993517Y-99209905D01*
X100034786Y-99073860D01*
X100061759Y-98800000D01*
X100034786Y-98526140D01*
X99954904Y-98262805D01*
X99825183Y-98020113D01*
X99650608Y-97807392D01*
X99437887Y-97632817D01*
X99245529Y-97530000D01*
X99437887Y-97427183D01*
X99650608Y-97252608D01*
X99825183Y-97039887D01*
X99954904Y-96797195D01*
X100034786Y-96533860D01*
X100061759Y-96260000D01*
X100034786Y-95986140D01*
X99954904Y-95722805D01*
X99825183Y-95480113D01*
X99650608Y-95267392D01*
X99437887Y-95092817D01*
X99245529Y-94990000D01*
X99437887Y-94887183D01*
X99650608Y-94712608D01*
X99825183Y-94499887D01*
X99954904Y-94257195D01*
X100034786Y-93993860D01*
X100061759Y-93720000D01*
X100034786Y-93446140D01*
X99954904Y-93182805D01*
X99825183Y-92940113D01*
X99650608Y-92727392D01*
X99437887Y-92552817D01*
X99245529Y-92450000D01*
X99437887Y-92347183D01*
X99650608Y-92172608D01*
X99825183Y-91959887D01*
X99954904Y-91717195D01*
X100034786Y-91453860D01*
X100061759Y-91180000D01*
X100034786Y-90906140D01*
X99954904Y-90642805D01*
X99825183Y-90400113D01*
X99650608Y-90187392D01*
X99437887Y-90012817D01*
X99245529Y-89910000D01*
X99437887Y-89807183D01*
X99650608Y-89632608D01*
X99825183Y-89419887D01*
X99954904Y-89177195D01*
X100034786Y-88913860D01*
X100061759Y-88640000D01*
X100034786Y-88366140D01*
X99954904Y-88102805D01*
X99825183Y-87860113D01*
X99650608Y-87647392D01*
X99437887Y-87472817D01*
X99245529Y-87370000D01*
X99437887Y-87267183D01*
X99650608Y-87092608D01*
X99825183Y-86879887D01*
X99954904Y-86637195D01*
X100034786Y-86373860D01*
X100061759Y-86100000D01*
X100034786Y-85826140D01*
X99954904Y-85562805D01*
X99825183Y-85320113D01*
X99650608Y-85107392D01*
X99519751Y-85000000D01*
X118409428Y-85000000D01*
X118409428Y-87000000D01*
X118421688Y-87124482D01*
X118457998Y-87244180D01*
X118516963Y-87354494D01*
X118596315Y-87451185D01*
X118693006Y-87530537D01*
X118803320Y-87589502D01*
X118923018Y-87625812D01*
X119047500Y-87638072D01*
X120952500Y-87638072D01*
X121076982Y-87625812D01*
X121196680Y-87589502D01*
X121306994Y-87530537D01*
X121403685Y-87451185D01*
X121483037Y-87354494D01*
X121527905Y-87270553D01*
X121653766Y-87373845D01*
X121929552Y-87521255D01*
X122228797Y-87612030D01*
X122540000Y-87642681D01*
X122851204Y-87612030D01*
X123150449Y-87521255D01*
X123426235Y-87373845D01*
X123667963Y-87175463D01*
X123815162Y-86996100D01*
X123970563Y-87181315D01*
X124213077Y-87375969D01*
X124488906Y-87519571D01*
X124707020Y-87590563D01*
X124953000Y-87470594D01*
X124953000Y-86127000D01*
X125207000Y-86127000D01*
X125207000Y-87470594D01*
X125452980Y-87590563D01*
X125671094Y-87519571D01*
X125946923Y-87375969D01*
X126189437Y-87181315D01*
X126389316Y-86943089D01*
X126538879Y-86670446D01*
X126632378Y-86373863D01*
X126505570Y-86127000D01*
X125207000Y-86127000D01*
X124953000Y-86127000D01*
X124933000Y-86127000D01*
X124933000Y-85873000D01*
X124953000Y-85873000D01*
X124953000Y-84529406D01*
X125207000Y-84529406D01*
X125207000Y-85873000D01*
X126505570Y-85873000D01*
X126632378Y-85626137D01*
X126538879Y-85329554D01*
X126389316Y-85056911D01*
X126341566Y-85000000D01*
X129409428Y-85000000D01*
X129409428Y-87000000D01*
X129421688Y-87124482D01*
X129457998Y-87244180D01*
X129516963Y-87354494D01*
X129596315Y-87451185D01*
X129693006Y-87530537D01*
X129803320Y-87589502D01*
X129923018Y-87625812D01*
X130047500Y-87638072D01*
X131952500Y-87638072D01*
X132076982Y-87625812D01*
X132196680Y-87589502D01*
X132306994Y-87530537D01*
X132403685Y-87451185D01*
X132483037Y-87354494D01*
X132527905Y-87270553D01*
X132653766Y-87373845D01*
X132929552Y-87521255D01*
X133228797Y-87612030D01*
X133540000Y-87642681D01*
X133851204Y-87612030D01*
X134150449Y-87521255D01*
X134426235Y-87373845D01*
X134667963Y-87175463D01*
X134815162Y-86996100D01*
X134970563Y-87181315D01*
X135213077Y-87375969D01*
X135488906Y-87519571D01*
X135707020Y-87590563D01*
X135953000Y-87470594D01*
X135953000Y-86127000D01*
X136207000Y-86127000D01*
X136207000Y-87470594D01*
X136452980Y-87590563D01*
X136671094Y-87519571D01*
X136946923Y-87375969D01*
X137189437Y-87181315D01*
X137389316Y-86943089D01*
X137538879Y-86670446D01*
X137632378Y-86373863D01*
X137505570Y-86127000D01*
X136207000Y-86127000D01*
X135953000Y-86127000D01*
X135933000Y-86127000D01*
X135933000Y-85873000D01*
X135953000Y-85873000D01*
X135953000Y-84529406D01*
X136207000Y-84529406D01*
X136207000Y-85873000D01*
X137505570Y-85873000D01*
X137632378Y-85626137D01*
X137538879Y-85329554D01*
X137389316Y-85056911D01*
X137189437Y-84818685D01*
X136946923Y-84624031D01*
X136671094Y-84480429D01*
X136452980Y-84409437D01*
X136207000Y-84529406D01*
X135953000Y-84529406D01*
X135707020Y-84409437D01*
X135488906Y-84480429D01*
X135213077Y-84624031D01*
X134970563Y-84818685D01*
X134967000Y-84822932D01*
X134967000Y-84591082D01*
X137799482Y-81758600D01*
X137853922Y-81713923D01*
X137898601Y-81659482D01*
X137898608Y-81659475D01*
X138032247Y-81496635D01*
X138032248Y-81496634D01*
X138164755Y-81248731D01*
X138246352Y-80979741D01*
X138267000Y-80770098D01*
X138267000Y-80770090D01*
X138273903Y-80700000D01*
X138267000Y-80629910D01*
X138267000Y-73722454D01*
X138569824Y-73419630D01*
X138813542Y-73054880D01*
X138981418Y-72649592D01*
X139067000Y-72219340D01*
X139067000Y-71780660D01*
X139693000Y-71780660D01*
X139693000Y-72219340D01*
X139778582Y-72649592D01*
X139946458Y-73054880D01*
X140190176Y-73419630D01*
X140500370Y-73729824D01*
X140865120Y-73973542D01*
X141270408Y-74141418D01*
X141700660Y-74227000D01*
X142128918Y-74227000D01*
X143113001Y-75211084D01*
X143113000Y-84385114D01*
X143076982Y-84374188D01*
X142952500Y-84361928D01*
X141047500Y-84361928D01*
X140923018Y-84374188D01*
X140803320Y-84410498D01*
X140693006Y-84469463D01*
X140596315Y-84548815D01*
X140516963Y-84645506D01*
X140457998Y-84755820D01*
X140421688Y-84875518D01*
X140409428Y-85000000D01*
X140409428Y-87000000D01*
X140421688Y-87124482D01*
X140457998Y-87244180D01*
X140516963Y-87354494D01*
X140596315Y-87451185D01*
X140693006Y-87530537D01*
X140803320Y-87589502D01*
X140923018Y-87625812D01*
X141047500Y-87638072D01*
X142952500Y-87638072D01*
X143076982Y-87625812D01*
X143196680Y-87589502D01*
X143306994Y-87530537D01*
X143403685Y-87451185D01*
X143483037Y-87354494D01*
X143527905Y-87270553D01*
X143653766Y-87373845D01*
X143929552Y-87521255D01*
X144228797Y-87612030D01*
X144540000Y-87642681D01*
X144851204Y-87612030D01*
X145150449Y-87521255D01*
X145426235Y-87373845D01*
X145667963Y-87175463D01*
X145815162Y-86996100D01*
X145970563Y-87181315D01*
X146213077Y-87375969D01*
X146488906Y-87519571D01*
X146707020Y-87590563D01*
X146953000Y-87470594D01*
X146953000Y-86127000D01*
X147207000Y-86127000D01*
X147207000Y-87470594D01*
X147452980Y-87590563D01*
X147671094Y-87519571D01*
X147946923Y-87375969D01*
X148189437Y-87181315D01*
X148389316Y-86943089D01*
X148538879Y-86670446D01*
X148632378Y-86373863D01*
X148505570Y-86127000D01*
X147207000Y-86127000D01*
X146953000Y-86127000D01*
X146933000Y-86127000D01*
X146933000Y-85873000D01*
X146953000Y-85873000D01*
X146953000Y-84529406D01*
X147207000Y-84529406D01*
X147207000Y-85873000D01*
X148505570Y-85873000D01*
X148632378Y-85626137D01*
X148538879Y-85329554D01*
X148389316Y-85056911D01*
X148189437Y-84818685D01*
X147946923Y-84624031D01*
X147671094Y-84480429D01*
X147452980Y-84409437D01*
X147207000Y-84529406D01*
X146953000Y-84529406D01*
X146707020Y-84409437D01*
X146488906Y-84480429D01*
X146213077Y-84624031D01*
X145970563Y-84818685D01*
X145967000Y-84822932D01*
X145967000Y-74690090D01*
X145973903Y-74620000D01*
X145967000Y-74549910D01*
X145967000Y-74549902D01*
X145946352Y-74340259D01*
X145913356Y-74231485D01*
X147213403Y-74231485D01*
X154113001Y-81131084D01*
X154113000Y-84385114D01*
X154076982Y-84374188D01*
X153952500Y-84361928D01*
X152047500Y-84361928D01*
X151923018Y-84374188D01*
X151803320Y-84410498D01*
X151693006Y-84469463D01*
X151596315Y-84548815D01*
X151516963Y-84645506D01*
X151457998Y-84755820D01*
X151421688Y-84875518D01*
X151409428Y-85000000D01*
X151409428Y-87000000D01*
X151421688Y-87124482D01*
X151457998Y-87244180D01*
X151516963Y-87354494D01*
X151596315Y-87451185D01*
X151693006Y-87530537D01*
X151803320Y-87589502D01*
X151923018Y-87625812D01*
X152047500Y-87638072D01*
X153952500Y-87638072D01*
X154076982Y-87625812D01*
X154196680Y-87589502D01*
X154306994Y-87530537D01*
X154403685Y-87451185D01*
X154483037Y-87354494D01*
X154527905Y-87270553D01*
X154653766Y-87373845D01*
X154929552Y-87521255D01*
X155228797Y-87612030D01*
X155540000Y-87642681D01*
X155851204Y-87612030D01*
X156150449Y-87521255D01*
X156426235Y-87373845D01*
X156667963Y-87175463D01*
X156815162Y-86996100D01*
X156970563Y-87181315D01*
X157213077Y-87375969D01*
X157488906Y-87519571D01*
X157707020Y-87590563D01*
X157953000Y-87470594D01*
X157953000Y-86127000D01*
X158207000Y-86127000D01*
X158207000Y-87470594D01*
X158452980Y-87590563D01*
X158671094Y-87519571D01*
X158946923Y-87375969D01*
X159189437Y-87181315D01*
X159389316Y-86943089D01*
X159538879Y-86670446D01*
X159632378Y-86373863D01*
X159505570Y-86127000D01*
X158207000Y-86127000D01*
X157953000Y-86127000D01*
X157933000Y-86127000D01*
X157933000Y-85873000D01*
X157953000Y-85873000D01*
X157953000Y-84529406D01*
X158207000Y-84529406D01*
X158207000Y-85873000D01*
X159505570Y-85873000D01*
X159632378Y-85626137D01*
X159538879Y-85329554D01*
X159389316Y-85056911D01*
X159189437Y-84818685D01*
X158946923Y-84624031D01*
X158671094Y-84480429D01*
X158452980Y-84409437D01*
X158207000Y-84529406D01*
X157953000Y-84529406D01*
X157707020Y-84409437D01*
X157488906Y-84480429D01*
X157213077Y-84624031D01*
X156970563Y-84818685D01*
X156967000Y-84822932D01*
X156967000Y-80610090D01*
X156973903Y-80540000D01*
X156967000Y-80469910D01*
X156967000Y-80469902D01*
X156946352Y-80260259D01*
X156864755Y-79991269D01*
X156732248Y-79743366D01*
X156668925Y-79666207D01*
X156598608Y-79580525D01*
X156598605Y-79580522D01*
X156553923Y-79526077D01*
X156499478Y-79481395D01*
X149231485Y-72213403D01*
X149231485Y-70700000D01*
X149213587Y-70518276D01*
X149160580Y-70343536D01*
X149074501Y-70182495D01*
X148958659Y-70041341D01*
X148817505Y-69925499D01*
X148656464Y-69839420D01*
X148481724Y-69786413D01*
X148300000Y-69768515D01*
X145700000Y-69768515D01*
X145518276Y-69786413D01*
X145343536Y-69839420D01*
X145182495Y-69925499D01*
X145041341Y-70041341D01*
X144925499Y-70182495D01*
X144839420Y-70343536D01*
X144786413Y-70518276D01*
X144768515Y-70700000D01*
X144768515Y-72830432D01*
X144147000Y-72208918D01*
X144147000Y-71780660D01*
X144061418Y-71350408D01*
X143893542Y-70945120D01*
X143649824Y-70580370D01*
X143339630Y-70270176D01*
X142974880Y-70026458D01*
X142569592Y-69858582D01*
X142139340Y-69773000D01*
X141700660Y-69773000D01*
X141270408Y-69858582D01*
X140865120Y-70026458D01*
X140500370Y-70270176D01*
X140190176Y-70580370D01*
X139946458Y-70945120D01*
X139778582Y-71350408D01*
X139693000Y-71780660D01*
X139067000Y-71780660D01*
X138981418Y-71350408D01*
X138813542Y-70945120D01*
X138569824Y-70580370D01*
X138259630Y-70270176D01*
X137894880Y-70026458D01*
X137489592Y-69858582D01*
X137059340Y-69773000D01*
X136620660Y-69773000D01*
X136190408Y-69858582D01*
X135785120Y-70026458D01*
X135420370Y-70270176D01*
X135110176Y-70580370D01*
X134866458Y-70945120D01*
X134698582Y-71350408D01*
X134613000Y-71780660D01*
X134613000Y-72219340D01*
X134698582Y-72649592D01*
X134866458Y-73054880D01*
X135110176Y-73419630D01*
X135413001Y-73722455D01*
X135413000Y-80108917D01*
X132580523Y-82941395D01*
X132526078Y-82986077D01*
X132481396Y-83040522D01*
X132481392Y-83040526D01*
X132347753Y-83203366D01*
X132215246Y-83451269D01*
X132133649Y-83720259D01*
X132106097Y-84000000D01*
X132113001Y-84070097D01*
X132113001Y-84385114D01*
X132076982Y-84374188D01*
X131952500Y-84361928D01*
X130047500Y-84361928D01*
X129923018Y-84374188D01*
X129803320Y-84410498D01*
X129693006Y-84469463D01*
X129596315Y-84548815D01*
X129516963Y-84645506D01*
X129457998Y-84755820D01*
X129421688Y-84875518D01*
X129409428Y-85000000D01*
X126341566Y-85000000D01*
X126189437Y-84818685D01*
X125946923Y-84624031D01*
X125671094Y-84480429D01*
X125452980Y-84409437D01*
X125207000Y-84529406D01*
X124953000Y-84529406D01*
X124707020Y-84409437D01*
X124488906Y-84480429D01*
X124213077Y-84624031D01*
X123970563Y-84818685D01*
X123967000Y-84822932D01*
X123967000Y-84591082D01*
X132719483Y-75838600D01*
X132773922Y-75793923D01*
X132818601Y-75739482D01*
X132818608Y-75739475D01*
X132952247Y-75576635D01*
X132952248Y-75576634D01*
X133084755Y-75328731D01*
X133166352Y-75059741D01*
X133187000Y-74850098D01*
X133187000Y-74850089D01*
X133193903Y-74780001D01*
X133187000Y-74709913D01*
X133187000Y-73722454D01*
X133489824Y-73419630D01*
X133733542Y-73054880D01*
X133901418Y-72649592D01*
X133987000Y-72219340D01*
X133987000Y-71780660D01*
X133901418Y-71350408D01*
X133733542Y-70945120D01*
X133489824Y-70580370D01*
X133179630Y-70270176D01*
X132814880Y-70026458D01*
X132409592Y-69858582D01*
X131979340Y-69773000D01*
X131540660Y-69773000D01*
X131110408Y-69858582D01*
X130705120Y-70026458D01*
X130340370Y-70270176D01*
X130030176Y-70580370D01*
X129786458Y-70945120D01*
X129618582Y-71350408D01*
X129533000Y-71780660D01*
X129533000Y-72219340D01*
X129618582Y-72649592D01*
X129786458Y-73054880D01*
X130030176Y-73419630D01*
X130333000Y-73722454D01*
X130333000Y-74188917D01*
X121580523Y-82941395D01*
X121526078Y-82986077D01*
X121481396Y-83040522D01*
X121481392Y-83040526D01*
X121347753Y-83203366D01*
X121215246Y-83451269D01*
X121133649Y-83720259D01*
X121106097Y-84000000D01*
X121113001Y-84070097D01*
X121113001Y-84385114D01*
X121076982Y-84374188D01*
X120952500Y-84361928D01*
X119047500Y-84361928D01*
X118923018Y-84374188D01*
X118803320Y-84410498D01*
X118693006Y-84469463D01*
X118596315Y-84548815D01*
X118516963Y-84645506D01*
X118457998Y-84755820D01*
X118421688Y-84875518D01*
X118409428Y-85000000D01*
X99519751Y-85000000D01*
X99437887Y-84932817D01*
X99245529Y-84830000D01*
X99437887Y-84727183D01*
X99650608Y-84552608D01*
X99825183Y-84339887D01*
X99954904Y-84097195D01*
X100034786Y-83833860D01*
X100061759Y-83560000D01*
X100034786Y-83286140D01*
X99954904Y-83022805D01*
X99825183Y-82780113D01*
X99650608Y-82567392D01*
X99437887Y-82392817D01*
X99245529Y-82290000D01*
X99437887Y-82187183D01*
X99650608Y-82012608D01*
X99825183Y-81799887D01*
X99954904Y-81557195D01*
X100034786Y-81293860D01*
X100061759Y-81020000D01*
X100034786Y-80746140D01*
X99954904Y-80482805D01*
X99825183Y-80240113D01*
X99650608Y-80027392D01*
X99437887Y-79852817D01*
X99245529Y-79750000D01*
X99437887Y-79647183D01*
X99650608Y-79472608D01*
X99825183Y-79259887D01*
X99954904Y-79017195D01*
X100034786Y-78753860D01*
X100061759Y-78480000D01*
X100034786Y-78206140D01*
X99954904Y-77942805D01*
X99825183Y-77700113D01*
X99650608Y-77487392D01*
X99437887Y-77312817D01*
X99245529Y-77210000D01*
X99437887Y-77107183D01*
X99650608Y-76932608D01*
X99825183Y-76719887D01*
X99954904Y-76477195D01*
X100034786Y-76213860D01*
X100061759Y-75940000D01*
X100034786Y-75666140D01*
X99954904Y-75402805D01*
X99825183Y-75160113D01*
X99650608Y-74947392D01*
X99437887Y-74772817D01*
X99245529Y-74670000D01*
X99437887Y-74567183D01*
X99650608Y-74392608D01*
X99825183Y-74179887D01*
X99954904Y-73937195D01*
X100034786Y-73673860D01*
X100061759Y-73400000D01*
X100034786Y-73126140D01*
X99954904Y-72862805D01*
X99910997Y-72780660D01*
X108693000Y-72780660D01*
X108693000Y-73219340D01*
X108778582Y-73649592D01*
X108946458Y-74054880D01*
X109190176Y-74419630D01*
X109500370Y-74729824D01*
X109865120Y-74973542D01*
X110270408Y-75141418D01*
X110700660Y-75227000D01*
X111139340Y-75227000D01*
X111569592Y-75141418D01*
X111974880Y-74973542D01*
X112339630Y-74729824D01*
X112649824Y-74419630D01*
X112729758Y-74300000D01*
X114061928Y-74300000D01*
X114074188Y-74424482D01*
X114110498Y-74544180D01*
X114169463Y-74654494D01*
X114248815Y-74751185D01*
X114345506Y-74830537D01*
X114455820Y-74889502D01*
X114575518Y-74925812D01*
X114700000Y-74938072D01*
X115714250Y-74935000D01*
X115873000Y-74776250D01*
X115873000Y-73127000D01*
X116127000Y-73127000D01*
X116127000Y-74776250D01*
X116285750Y-74935000D01*
X117300000Y-74938072D01*
X117424482Y-74925812D01*
X117544180Y-74889502D01*
X117654494Y-74830537D01*
X117751185Y-74751185D01*
X117830537Y-74654494D01*
X117889502Y-74544180D01*
X117925812Y-74424482D01*
X117938072Y-74300000D01*
X117935000Y-73285750D01*
X117776250Y-73127000D01*
X116127000Y-73127000D01*
X115873000Y-73127000D01*
X114223750Y-73127000D01*
X114065000Y-73285750D01*
X114061928Y-74300000D01*
X112729758Y-74300000D01*
X112893542Y-74054880D01*
X113061418Y-73649592D01*
X113147000Y-73219340D01*
X113147000Y-72780660D01*
X113061418Y-72350408D01*
X112893542Y-71945120D01*
X112729759Y-71700000D01*
X114061928Y-71700000D01*
X114065000Y-72714250D01*
X114223750Y-72873000D01*
X115873000Y-72873000D01*
X115873000Y-71223750D01*
X116127000Y-71223750D01*
X116127000Y-72873000D01*
X117776250Y-72873000D01*
X117935000Y-72714250D01*
X117938072Y-71700000D01*
X117925812Y-71575518D01*
X117889502Y-71455820D01*
X117830537Y-71345506D01*
X117751185Y-71248815D01*
X117654494Y-71169463D01*
X117544180Y-71110498D01*
X117424482Y-71074188D01*
X117300000Y-71061928D01*
X116285750Y-71065000D01*
X116127000Y-71223750D01*
X115873000Y-71223750D01*
X115714250Y-71065000D01*
X114700000Y-71061928D01*
X114575518Y-71074188D01*
X114455820Y-71110498D01*
X114345506Y-71169463D01*
X114248815Y-71248815D01*
X114169463Y-71345506D01*
X114110498Y-71455820D01*
X114074188Y-71575518D01*
X114061928Y-71700000D01*
X112729759Y-71700000D01*
X112649824Y-71580370D01*
X112339630Y-71270176D01*
X111974880Y-71026458D01*
X111569592Y-70858582D01*
X111139340Y-70773000D01*
X110700660Y-70773000D01*
X110270408Y-70858582D01*
X109865120Y-71026458D01*
X109500370Y-71270176D01*
X109190176Y-71580370D01*
X108946458Y-71945120D01*
X108778582Y-72350408D01*
X108693000Y-72780660D01*
X99910997Y-72780660D01*
X99825183Y-72620113D01*
X99650608Y-72407392D01*
X99437887Y-72232817D01*
X99195195Y-72103096D01*
X98931860Y-72023214D01*
X98726625Y-72003000D01*
X98113375Y-72003000D01*
X97908140Y-72023214D01*
X97644805Y-72103096D01*
X97402113Y-72232817D01*
X97382289Y-72249086D01*
X97331185Y-72186815D01*
X97234494Y-72107463D01*
X97124180Y-72048498D01*
X97004482Y-72012188D01*
X96880000Y-71999928D01*
X94880000Y-71999928D01*
X94755518Y-72012188D01*
X94635820Y-72048498D01*
X94525506Y-72107463D01*
X94428815Y-72186815D01*
X94349463Y-72283506D01*
X94290498Y-72393820D01*
X94254188Y-72513518D01*
X94241928Y-72638000D01*
X94241928Y-74162000D01*
X94254188Y-74286482D01*
X94290498Y-74406180D01*
X94349463Y-74516494D01*
X94428815Y-74613185D01*
X94525506Y-74692537D01*
X94635820Y-74751502D01*
X94755518Y-74787812D01*
X94833727Y-74795515D01*
X94771809Y-74835110D01*
X94572976Y-75026106D01*
X94415225Y-75252222D01*
X94304618Y-75504769D01*
X94287780Y-75596930D01*
X94410280Y-75813000D01*
X95753000Y-75813000D01*
X95753000Y-75793000D01*
X96007000Y-75793000D01*
X96007000Y-75813000D01*
X96027000Y-75813000D01*
X96027000Y-76067000D01*
X96007000Y-76067000D01*
X96007000Y-77183282D01*
X96044119Y-77210000D01*
X96007000Y-77236718D01*
X96007000Y-78353000D01*
X96027000Y-78353000D01*
X96027000Y-78607000D01*
X96007000Y-78607000D01*
X96007000Y-79723282D01*
X96044119Y-79750000D01*
X96007000Y-79776718D01*
X96007000Y-80893000D01*
X96027000Y-80893000D01*
X96027000Y-81147000D01*
X96007000Y-81147000D01*
X96007000Y-81167000D01*
X95753000Y-81167000D01*
X95753000Y-81147000D01*
X94410280Y-81147000D01*
X94287780Y-81363070D01*
X94304618Y-81455231D01*
X94415225Y-81707778D01*
X94572976Y-81933894D01*
X94771809Y-82124890D01*
X95004083Y-82273426D01*
X95051099Y-82291802D01*
X94862113Y-82392817D01*
X94649392Y-82567392D01*
X94474817Y-82780113D01*
X94345096Y-83022805D01*
X94265214Y-83286140D01*
X94238241Y-83560000D01*
X94265214Y-83833860D01*
X94345096Y-84097195D01*
X94474817Y-84339887D01*
X94649392Y-84552608D01*
X94862113Y-84727183D01*
X95051099Y-84828198D01*
X95004083Y-84846574D01*
X94771809Y-84995110D01*
X94572976Y-85186106D01*
X94415225Y-85412222D01*
X94304618Y-85664769D01*
X94287780Y-85756930D01*
X94410280Y-85973000D01*
X95753000Y-85973000D01*
X95753000Y-85953000D01*
X96007000Y-85953000D01*
X96007000Y-85973000D01*
X96027000Y-85973000D01*
X96027000Y-86227000D01*
X96007000Y-86227000D01*
X96007000Y-87343282D01*
X96044119Y-87370000D01*
X96007000Y-87396718D01*
X96007000Y-88513000D01*
X96027000Y-88513000D01*
X96027000Y-88767000D01*
X96007000Y-88767000D01*
X96007000Y-88787000D01*
X95753000Y-88787000D01*
X95753000Y-88767000D01*
X94410280Y-88767000D01*
X94287780Y-88983070D01*
X94304618Y-89075231D01*
X94415225Y-89327778D01*
X94572976Y-89553894D01*
X94771809Y-89744890D01*
X95004083Y-89893426D01*
X95051099Y-89911802D01*
X94862113Y-90012817D01*
X94649392Y-90187392D01*
X94474817Y-90400113D01*
X94345096Y-90642805D01*
X94265214Y-90906140D01*
X94238241Y-91180000D01*
X94265214Y-91453860D01*
X94345096Y-91717195D01*
X94474817Y-91959887D01*
X94649392Y-92172608D01*
X94862113Y-92347183D01*
X95051099Y-92448198D01*
X95004083Y-92466574D01*
X94771809Y-92615110D01*
X94572976Y-92806106D01*
X94415225Y-93032222D01*
X94304618Y-93284769D01*
X94287780Y-93376930D01*
X94410280Y-93593000D01*
X95753000Y-93593000D01*
X95753000Y-93573000D01*
X96007000Y-93573000D01*
X96007000Y-93593000D01*
X96027000Y-93593000D01*
X96027000Y-93847000D01*
X96007000Y-93847000D01*
X96007000Y-94963282D01*
X96044119Y-94990000D01*
X96007000Y-95016718D01*
X96007000Y-96133000D01*
X96027000Y-96133000D01*
X96027000Y-96387000D01*
X96007000Y-96387000D01*
X96007000Y-96407000D01*
X95753000Y-96407000D01*
X95753000Y-96387000D01*
X94410280Y-96387000D01*
X94287780Y-96603070D01*
X94304618Y-96695231D01*
X94415225Y-96947778D01*
X94572976Y-97173894D01*
X94771809Y-97364890D01*
X95004083Y-97513426D01*
X95051099Y-97531802D01*
X94862113Y-97632817D01*
X94649392Y-97807392D01*
X94474817Y-98020113D01*
X94345096Y-98262805D01*
X94265214Y-98526140D01*
X94238241Y-98800000D01*
X94265214Y-99073860D01*
X94345096Y-99337195D01*
X94474817Y-99579887D01*
X94649392Y-99792608D01*
X94862113Y-99967183D01*
X95054471Y-100070000D01*
X94862113Y-100172817D01*
X94649392Y-100347392D01*
X94474817Y-100560113D01*
X94345096Y-100802805D01*
X94265214Y-101066140D01*
X94238241Y-101340000D01*
X94265214Y-101613860D01*
X94345096Y-101877195D01*
X94474817Y-102119887D01*
X94649392Y-102332608D01*
X94862113Y-102507183D01*
X95051099Y-102608198D01*
X95004083Y-102626574D01*
X94771809Y-102775110D01*
X94572976Y-102966106D01*
X94415225Y-103192222D01*
X94304618Y-103444769D01*
X94287780Y-103536930D01*
X94410280Y-103753000D01*
X95753000Y-103753000D01*
X95753000Y-103733000D01*
X96007000Y-103733000D01*
X96007000Y-103753000D01*
X96027000Y-103753000D01*
X96027000Y-104007000D01*
X96007000Y-104007000D01*
X96007000Y-105123282D01*
X96044119Y-105150000D01*
X96007000Y-105176718D01*
X96007000Y-106293000D01*
X96027000Y-106293000D01*
X96027000Y-106547000D01*
X96007000Y-106547000D01*
X96007000Y-106567000D01*
X95753000Y-106567000D01*
X95753000Y-106547000D01*
X94410280Y-106547000D01*
X94287780Y-106763070D01*
X94304618Y-106855231D01*
X94415225Y-107107778D01*
X94572976Y-107333894D01*
X94771809Y-107524890D01*
X95004083Y-107673426D01*
X95051099Y-107691802D01*
X94862113Y-107792817D01*
X94649392Y-107967392D01*
X94474817Y-108180113D01*
X94345096Y-108422805D01*
X94265214Y-108686140D01*
X94238241Y-108960000D01*
X94265214Y-109233860D01*
X94345096Y-109497195D01*
X94474817Y-109739887D01*
X94501992Y-109773000D01*
X93471327Y-109773000D01*
X93406153Y-109766581D01*
X93340979Y-109773000D01*
X93340969Y-109773000D01*
X93146016Y-109792201D01*
X92895875Y-109868081D01*
X92780610Y-109929692D01*
X92665344Y-109991302D01*
X92513914Y-110115578D01*
X92463283Y-110157130D01*
X92421732Y-110207760D01*
X91107760Y-111521732D01*
X91057131Y-111563283D01*
X91015580Y-111613913D01*
X91015578Y-111613915D01*
X90891302Y-111765345D01*
X90768081Y-111995876D01*
X90692202Y-112246016D01*
X90666581Y-112506153D01*
X90673001Y-112571337D01*
X90673000Y-122934826D01*
X90666581Y-123000000D01*
X90673000Y-123065174D01*
X90673000Y-123065183D01*
X90692201Y-123260136D01*
X90723063Y-123361872D01*
X90768081Y-123510277D01*
X90891302Y-123740808D01*
X90974620Y-123842330D01*
X91057130Y-123942870D01*
X91107765Y-123984425D01*
X91637585Y-124514245D01*
X91679140Y-124564880D01*
X91881202Y-124730708D01*
X92111732Y-124853929D01*
X92361873Y-124929809D01*
X92556826Y-124949010D01*
X92556836Y-124949010D01*
X92622010Y-124955429D01*
X92687184Y-124949010D01*
X101580391Y-124949010D01*
X101645565Y-124955429D01*
X101710739Y-124949010D01*
X101710749Y-124949010D01*
X101905702Y-124929809D01*
X102155843Y-124853929D01*
X102386373Y-124730708D01*
X102588435Y-124564880D01*
X102629990Y-124514245D01*
X110340001Y-116804235D01*
X110340000Y-123413591D01*
X110195875Y-123197892D01*
X109802108Y-122804125D01*
X109339087Y-122494745D01*
X108824606Y-122281640D01*
X108278435Y-122173000D01*
X107721565Y-122173000D01*
X107175394Y-122281640D01*
X106660913Y-122494745D01*
X106197892Y-122804125D01*
X105804125Y-123197892D01*
X105494745Y-123660913D01*
X105281640Y-124175394D01*
X105173000Y-124721565D01*
X105173000Y-125278435D01*
X105281640Y-125824606D01*
X105494745Y-126339087D01*
X105804125Y-126802108D01*
X106197892Y-127195875D01*
X106413591Y-127340000D01*
X89660000Y-127340000D01*
X89660000Y-104223070D01*
X94287780Y-104223070D01*
X94304618Y-104315231D01*
X94415225Y-104567778D01*
X94572976Y-104793894D01*
X94771809Y-104984890D01*
X95004083Y-105133426D01*
X95046488Y-105150000D01*
X95004083Y-105166574D01*
X94771809Y-105315110D01*
X94572976Y-105506106D01*
X94415225Y-105732222D01*
X94304618Y-105984769D01*
X94287780Y-106076930D01*
X94410280Y-106293000D01*
X95753000Y-106293000D01*
X95753000Y-105176718D01*
X95715881Y-105150000D01*
X95753000Y-105123282D01*
X95753000Y-104007000D01*
X94410280Y-104007000D01*
X94287780Y-104223070D01*
X89660000Y-104223070D01*
X89660000Y-94063070D01*
X94287780Y-94063070D01*
X94304618Y-94155231D01*
X94415225Y-94407778D01*
X94572976Y-94633894D01*
X94771809Y-94824890D01*
X95004083Y-94973426D01*
X95046488Y-94990000D01*
X95004083Y-95006574D01*
X94771809Y-95155110D01*
X94572976Y-95346106D01*
X94415225Y-95572222D01*
X94304618Y-95824769D01*
X94287780Y-95916930D01*
X94410280Y-96133000D01*
X95753000Y-96133000D01*
X95753000Y-95016718D01*
X95715881Y-94990000D01*
X95753000Y-94963282D01*
X95753000Y-93847000D01*
X94410280Y-93847000D01*
X94287780Y-94063070D01*
X89660000Y-94063070D01*
X89660000Y-86443070D01*
X94287780Y-86443070D01*
X94304618Y-86535231D01*
X94415225Y-86787778D01*
X94572976Y-87013894D01*
X94771809Y-87204890D01*
X95004083Y-87353426D01*
X95046488Y-87370000D01*
X95004083Y-87386574D01*
X94771809Y-87535110D01*
X94572976Y-87726106D01*
X94415225Y-87952222D01*
X94304618Y-88204769D01*
X94287780Y-88296930D01*
X94410280Y-88513000D01*
X95753000Y-88513000D01*
X95753000Y-87396718D01*
X95715881Y-87370000D01*
X95753000Y-87343282D01*
X95753000Y-86227000D01*
X94410280Y-86227000D01*
X94287780Y-86443070D01*
X89660000Y-86443070D01*
X89660000Y-78823070D01*
X94287780Y-78823070D01*
X94304618Y-78915231D01*
X94415225Y-79167778D01*
X94572976Y-79393894D01*
X94771809Y-79584890D01*
X95004083Y-79733426D01*
X95046488Y-79750000D01*
X95004083Y-79766574D01*
X94771809Y-79915110D01*
X94572976Y-80106106D01*
X94415225Y-80332222D01*
X94304618Y-80584769D01*
X94287780Y-80676930D01*
X94410280Y-80893000D01*
X95753000Y-80893000D01*
X95753000Y-79776718D01*
X95715881Y-79750000D01*
X95753000Y-79723282D01*
X95753000Y-78607000D01*
X94410280Y-78607000D01*
X94287780Y-78823070D01*
X89660000Y-78823070D01*
X89660000Y-76283070D01*
X94287780Y-76283070D01*
X94304618Y-76375231D01*
X94415225Y-76627778D01*
X94572976Y-76853894D01*
X94771809Y-77044890D01*
X95004083Y-77193426D01*
X95046488Y-77210000D01*
X95004083Y-77226574D01*
X94771809Y-77375110D01*
X94572976Y-77566106D01*
X94415225Y-77792222D01*
X94304618Y-78044769D01*
X94287780Y-78136930D01*
X94410280Y-78353000D01*
X95753000Y-78353000D01*
X95753000Y-77236718D01*
X95715881Y-77210000D01*
X95753000Y-77183282D01*
X95753000Y-76067000D01*
X94410280Y-76067000D01*
X94287780Y-76283070D01*
X89660000Y-76283070D01*
X89660000Y-71586409D01*
X89804125Y-71802108D01*
X90197892Y-72195875D01*
X90660913Y-72505255D01*
X91175394Y-72718360D01*
X91721565Y-72827000D01*
X92278435Y-72827000D01*
X92824606Y-72718360D01*
X93339087Y-72505255D01*
X93802108Y-72195875D01*
X94195875Y-71802108D01*
X94505255Y-71339087D01*
X94718360Y-70824606D01*
X94827000Y-70278435D01*
X94827000Y-69721565D01*
X94718360Y-69175394D01*
X94505255Y-68660913D01*
X94195875Y-68197892D01*
X93802108Y-67804125D01*
X93586409Y-67660000D01*
X171413591Y-67660000D01*
X171197892Y-67804125D01*
G37*
%TD.AperFunction*%
D27*
X94649392Y-112492608D02*
X94862113Y-112667183D01*
X95054471Y-112770000D01*
X94862113Y-112872817D01*
X94649392Y-113047392D01*
X94474817Y-113260113D01*
X94345096Y-113502805D01*
X94265214Y-113766140D01*
X94238241Y-114040000D01*
X94265214Y-114313860D01*
X94345096Y-114577195D01*
X94474817Y-114819887D01*
X94649392Y-115032608D01*
X94862113Y-115207183D01*
X95054471Y-115310000D01*
X94862113Y-115412817D01*
X94649392Y-115587392D01*
X94474817Y-115800113D01*
X94345096Y-116042805D01*
X94265214Y-116306140D01*
X94238241Y-116580000D01*
X94265214Y-116853860D01*
X94345096Y-117117195D01*
X94474817Y-117359887D01*
X94649392Y-117572608D01*
X94862113Y-117747183D01*
X95051099Y-117848198D01*
X95004083Y-117866574D01*
X94771809Y-118015110D01*
X94572976Y-118206106D01*
X94415225Y-118432222D01*
X94304618Y-118684769D01*
X94287780Y-118776930D01*
X94410280Y-118993000D01*
X95753000Y-118993000D01*
X95753000Y-118973000D01*
X96007000Y-118973000D01*
X96007000Y-118993000D01*
X96027000Y-118993000D01*
X96027000Y-119247000D01*
X96007000Y-119247000D01*
X96007000Y-120363282D01*
X96044119Y-120390000D01*
X96007000Y-120416718D01*
X96007000Y-121533000D01*
X96027000Y-121533000D01*
X96027000Y-121787000D01*
X96007000Y-121787000D01*
X96007000Y-121807000D01*
X95753000Y-121807000D01*
X95753000Y-121787000D01*
X94410280Y-121787000D01*
X94287780Y-122003070D01*
X94304618Y-122095231D01*
X94392114Y-122295010D01*
X93327000Y-122295010D01*
X93327000Y-119463070D01*
X94287780Y-119463070D01*
X94304618Y-119555231D01*
X94415225Y-119807778D01*
X94572976Y-120033894D01*
X94771809Y-120224890D01*
X95004083Y-120373426D01*
X95046488Y-120390000D01*
X95004083Y-120406574D01*
X94771809Y-120555110D01*
X94572976Y-120746106D01*
X94415225Y-120972222D01*
X94304618Y-121224769D01*
X94287780Y-121316930D01*
X94410280Y-121533000D01*
X95753000Y-121533000D01*
X95753000Y-120416718D01*
X95715881Y-120390000D01*
X95753000Y-120363282D01*
X95753000Y-119247000D01*
X94410280Y-119247000D01*
X94287780Y-119463070D01*
X93327000Y-119463070D01*
X93327000Y-113055813D01*
X93955814Y-112427000D01*
X94595549Y-112427000D01*
X94649392Y-112492608D01*
%TA.AperFunction,Conductor*%
D28*
G36*
X94649392Y-112492608D02*
G01*
X94862113Y-112667183D01*
X95054471Y-112770000D01*
X94862113Y-112872817D01*
X94649392Y-113047392D01*
X94474817Y-113260113D01*
X94345096Y-113502805D01*
X94265214Y-113766140D01*
X94238241Y-114040000D01*
X94265214Y-114313860D01*
X94345096Y-114577195D01*
X94474817Y-114819887D01*
X94649392Y-115032608D01*
X94862113Y-115207183D01*
X95054471Y-115310000D01*
X94862113Y-115412817D01*
X94649392Y-115587392D01*
X94474817Y-115800113D01*
X94345096Y-116042805D01*
X94265214Y-116306140D01*
X94238241Y-116580000D01*
X94265214Y-116853860D01*
X94345096Y-117117195D01*
X94474817Y-117359887D01*
X94649392Y-117572608D01*
X94862113Y-117747183D01*
X95051099Y-117848198D01*
X95004083Y-117866574D01*
X94771809Y-118015110D01*
X94572976Y-118206106D01*
X94415225Y-118432222D01*
X94304618Y-118684769D01*
X94287780Y-118776930D01*
X94410280Y-118993000D01*
X95753000Y-118993000D01*
X95753000Y-118973000D01*
X96007000Y-118973000D01*
X96007000Y-118993000D01*
X96027000Y-118993000D01*
X96027000Y-119247000D01*
X96007000Y-119247000D01*
X96007000Y-120363282D01*
X96044119Y-120390000D01*
X96007000Y-120416718D01*
X96007000Y-121533000D01*
X96027000Y-121533000D01*
X96027000Y-121787000D01*
X96007000Y-121787000D01*
X96007000Y-121807000D01*
X95753000Y-121807000D01*
X95753000Y-121787000D01*
X94410280Y-121787000D01*
X94287780Y-122003070D01*
X94304618Y-122095231D01*
X94392114Y-122295010D01*
X93327000Y-122295010D01*
X93327000Y-119463070D01*
X94287780Y-119463070D01*
X94304618Y-119555231D01*
X94415225Y-119807778D01*
X94572976Y-120033894D01*
X94771809Y-120224890D01*
X95004083Y-120373426D01*
X95046488Y-120390000D01*
X95004083Y-120406574D01*
X94771809Y-120555110D01*
X94572976Y-120746106D01*
X94415225Y-120972222D01*
X94304618Y-121224769D01*
X94287780Y-121316930D01*
X94410280Y-121533000D01*
X95753000Y-121533000D01*
X95753000Y-120416718D01*
X95715881Y-120390000D01*
X95753000Y-120363282D01*
X95753000Y-119247000D01*
X94410280Y-119247000D01*
X94287780Y-119463070D01*
X93327000Y-119463070D01*
X93327000Y-113055813D01*
X93955814Y-112427000D01*
X94595549Y-112427000D01*
X94649392Y-112492608D01*
G37*
%TD.AperFunction*%
%TD*%
M02*
