%TF.GenerationSoftware,KiCad,Pcbnew,5.1.7-a382d34a8~87~ubuntu18.04.1*%
%TF.CreationDate,2020-10-24T22:54:41-03:00*%
%TF.ProjectId,TP-CESE,54502d43-4553-4452-9e6b-696361645f70,1*%
%TF.SameCoordinates,Original*%
%TF.FileFunction,Paste,Top*%
%TF.FilePolarity,Positive*%
%FSLAX46Y46*%
G04 Gerber Fmt 4.6, Leading zero omitted, Abs format (unit mm)*
G04 Created by KiCad (PCBNEW 5.1.7-a382d34a8~87~ubuntu18.04.1) date 2020-10-24 22:54:41*
%MOMM*%
%LPD*%
G01*
G04 APERTURE LIST*
%TA.AperFunction,Profile*%
%ADD10C,0.050000*%
%TD*%
%ADD11R,1.100000X0.600000*%
%ADD12R,1.100000X0.250000*%
G04 APERTURE END LIST*
D10*
X158000000Y-128000000D02*
X158000000Y-126000000D01*
X176000000Y-128000000D02*
X158000000Y-128000000D01*
X176000000Y-126000000D02*
X176000000Y-128000000D01*
X111000000Y-128000000D02*
X111000000Y-126000000D01*
X89000000Y-128000000D02*
X111000000Y-128000000D01*
X89000000Y-126000000D02*
X89000000Y-128000000D01*
X176000000Y-67000000D02*
X174000000Y-67000000D01*
X176000000Y-126000000D02*
X176000000Y-67000000D01*
X158000000Y-116000000D02*
X158000000Y-126000000D01*
X111000000Y-116000000D02*
X158000000Y-116000000D01*
X111000000Y-126000000D02*
X111000000Y-116000000D01*
X89000000Y-123000000D02*
X89000000Y-126000000D01*
X89000000Y-123000000D02*
X89000000Y-67000000D01*
X89000000Y-67000000D02*
X174000000Y-67000000D01*
%TO.C,C1*%
G36*
G01*
X159525000Y-104450000D02*
X160475000Y-104450000D01*
G75*
G02*
X160725000Y-104700000I0J-250000D01*
G01*
X160725000Y-105200000D01*
G75*
G02*
X160475000Y-105450000I-250000J0D01*
G01*
X159525000Y-105450000D01*
G75*
G02*
X159275000Y-105200000I0J250000D01*
G01*
X159275000Y-104700000D01*
G75*
G02*
X159525000Y-104450000I250000J0D01*
G01*
G37*
G36*
G01*
X159525000Y-102550000D02*
X160475000Y-102550000D01*
G75*
G02*
X160725000Y-102800000I0J-250000D01*
G01*
X160725000Y-103300000D01*
G75*
G02*
X160475000Y-103550000I-250000J0D01*
G01*
X159525000Y-103550000D01*
G75*
G02*
X159275000Y-103300000I0J250000D01*
G01*
X159275000Y-102800000D01*
G75*
G02*
X159525000Y-102550000I250000J0D01*
G01*
G37*
%TD*%
%TO.C,R12*%
G36*
G01*
X145600000Y-94549999D02*
X145600000Y-95450001D01*
G75*
G02*
X145350001Y-95700000I-249999J0D01*
G01*
X144649999Y-95700000D01*
G75*
G02*
X144400000Y-95450001I0J249999D01*
G01*
X144400000Y-94549999D01*
G75*
G02*
X144649999Y-94300000I249999J0D01*
G01*
X145350001Y-94300000D01*
G75*
G02*
X145600000Y-94549999I0J-249999D01*
G01*
G37*
G36*
G01*
X147600000Y-94549999D02*
X147600000Y-95450001D01*
G75*
G02*
X147350001Y-95700000I-249999J0D01*
G01*
X146649999Y-95700000D01*
G75*
G02*
X146400000Y-95450001I0J249999D01*
G01*
X146400000Y-94549999D01*
G75*
G02*
X146649999Y-94300000I249999J0D01*
G01*
X147350001Y-94300000D01*
G75*
G02*
X147600000Y-94549999I0J-249999D01*
G01*
G37*
%TD*%
%TO.C,R19*%
G36*
G01*
X109600000Y-80549999D02*
X109600000Y-81450001D01*
G75*
G02*
X109350001Y-81700000I-249999J0D01*
G01*
X108649999Y-81700000D01*
G75*
G02*
X108400000Y-81450001I0J249999D01*
G01*
X108400000Y-80549999D01*
G75*
G02*
X108649999Y-80300000I249999J0D01*
G01*
X109350001Y-80300000D01*
G75*
G02*
X109600000Y-80549999I0J-249999D01*
G01*
G37*
G36*
G01*
X111600000Y-80549999D02*
X111600000Y-81450001D01*
G75*
G02*
X111350001Y-81700000I-249999J0D01*
G01*
X110649999Y-81700000D01*
G75*
G02*
X110400000Y-81450001I0J249999D01*
G01*
X110400000Y-80549999D01*
G75*
G02*
X110649999Y-80300000I249999J0D01*
G01*
X111350001Y-80300000D01*
G75*
G02*
X111600000Y-80549999I0J-249999D01*
G01*
G37*
%TD*%
%TO.C,D5*%
G36*
G01*
X115450001Y-80550000D02*
X114549999Y-80550000D01*
G75*
G02*
X114300000Y-80300001I0J249999D01*
G01*
X114300000Y-79649999D01*
G75*
G02*
X114549999Y-79400000I249999J0D01*
G01*
X115450001Y-79400000D01*
G75*
G02*
X115700000Y-79649999I0J-249999D01*
G01*
X115700000Y-80300001D01*
G75*
G02*
X115450001Y-80550000I-249999J0D01*
G01*
G37*
G36*
G01*
X115450001Y-82600000D02*
X114549999Y-82600000D01*
G75*
G02*
X114300000Y-82350001I0J249999D01*
G01*
X114300000Y-81699999D01*
G75*
G02*
X114549999Y-81450000I249999J0D01*
G01*
X115450001Y-81450000D01*
G75*
G02*
X115700000Y-81699999I0J-249999D01*
G01*
X115700000Y-82350001D01*
G75*
G02*
X115450001Y-82600000I-249999J0D01*
G01*
G37*
%TD*%
%TO.C,R18*%
G36*
G01*
X153549999Y-99400000D02*
X154450001Y-99400000D01*
G75*
G02*
X154700000Y-99649999I0J-249999D01*
G01*
X154700000Y-100350001D01*
G75*
G02*
X154450001Y-100600000I-249999J0D01*
G01*
X153549999Y-100600000D01*
G75*
G02*
X153300000Y-100350001I0J249999D01*
G01*
X153300000Y-99649999D01*
G75*
G02*
X153549999Y-99400000I249999J0D01*
G01*
G37*
G36*
G01*
X153549999Y-97400000D02*
X154450001Y-97400000D01*
G75*
G02*
X154700000Y-97649999I0J-249999D01*
G01*
X154700000Y-98350001D01*
G75*
G02*
X154450001Y-98600000I-249999J0D01*
G01*
X153549999Y-98600000D01*
G75*
G02*
X153300000Y-98350001I0J249999D01*
G01*
X153300000Y-97649999D01*
G75*
G02*
X153549999Y-97400000I249999J0D01*
G01*
G37*
%TD*%
%TO.C,R17*%
G36*
G01*
X157450400Y-98600000D02*
X156549600Y-98600000D01*
G75*
G02*
X156300000Y-98350400I0J249600D01*
G01*
X156300000Y-97649600D01*
G75*
G02*
X156549600Y-97400000I249600J0D01*
G01*
X157450400Y-97400000D01*
G75*
G02*
X157700000Y-97649600I0J-249600D01*
G01*
X157700000Y-98350400D01*
G75*
G02*
X157450400Y-98600000I-249600J0D01*
G01*
G37*
G36*
G01*
X157450001Y-100600000D02*
X156549999Y-100600000D01*
G75*
G02*
X156300000Y-100350001I0J249999D01*
G01*
X156300000Y-99649999D01*
G75*
G02*
X156549999Y-99400000I249999J0D01*
G01*
X157450001Y-99400000D01*
G75*
G02*
X157700000Y-99649999I0J-249999D01*
G01*
X157700000Y-100350001D01*
G75*
G02*
X157450001Y-100600000I-249999J0D01*
G01*
G37*
%TD*%
%TO.C,R16*%
G36*
G01*
X155600000Y-89549999D02*
X155600000Y-90450001D01*
G75*
G02*
X155350001Y-90700000I-249999J0D01*
G01*
X154649999Y-90700000D01*
G75*
G02*
X154400000Y-90450001I0J249999D01*
G01*
X154400000Y-89549999D01*
G75*
G02*
X154649999Y-89300000I249999J0D01*
G01*
X155350001Y-89300000D01*
G75*
G02*
X155600000Y-89549999I0J-249999D01*
G01*
G37*
G36*
G01*
X157600000Y-89549999D02*
X157600000Y-90450001D01*
G75*
G02*
X157350001Y-90700000I-249999J0D01*
G01*
X156649999Y-90700000D01*
G75*
G02*
X156400000Y-90450001I0J249999D01*
G01*
X156400000Y-89549999D01*
G75*
G02*
X156649999Y-89300000I249999J0D01*
G01*
X157350001Y-89300000D01*
G75*
G02*
X157600000Y-89549999I0J-249999D01*
G01*
G37*
%TD*%
%TO.C,R15*%
G36*
G01*
X144600000Y-89549999D02*
X144600000Y-90450001D01*
G75*
G02*
X144350001Y-90700000I-249999J0D01*
G01*
X143649999Y-90700000D01*
G75*
G02*
X143400000Y-90450001I0J249999D01*
G01*
X143400000Y-89549999D01*
G75*
G02*
X143649999Y-89300000I249999J0D01*
G01*
X144350001Y-89300000D01*
G75*
G02*
X144600000Y-89549999I0J-249999D01*
G01*
G37*
G36*
G01*
X146600000Y-89549999D02*
X146600000Y-90450001D01*
G75*
G02*
X146350001Y-90700000I-249999J0D01*
G01*
X145649999Y-90700000D01*
G75*
G02*
X145400000Y-90450001I0J249999D01*
G01*
X145400000Y-89549999D01*
G75*
G02*
X145649999Y-89300000I249999J0D01*
G01*
X146350001Y-89300000D01*
G75*
G02*
X146600000Y-89549999I0J-249999D01*
G01*
G37*
%TD*%
%TO.C,R14*%
G36*
G01*
X133600000Y-89549999D02*
X133600000Y-90450001D01*
G75*
G02*
X133350001Y-90700000I-249999J0D01*
G01*
X132649999Y-90700000D01*
G75*
G02*
X132400000Y-90450001I0J249999D01*
G01*
X132400000Y-89549999D01*
G75*
G02*
X132649999Y-89300000I249999J0D01*
G01*
X133350001Y-89300000D01*
G75*
G02*
X133600000Y-89549999I0J-249999D01*
G01*
G37*
G36*
G01*
X135600000Y-89549999D02*
X135600000Y-90450001D01*
G75*
G02*
X135350001Y-90700000I-249999J0D01*
G01*
X134649999Y-90700000D01*
G75*
G02*
X134400000Y-90450001I0J249999D01*
G01*
X134400000Y-89549999D01*
G75*
G02*
X134649999Y-89300000I249999J0D01*
G01*
X135350001Y-89300000D01*
G75*
G02*
X135600000Y-89549999I0J-249999D01*
G01*
G37*
%TD*%
%TO.C,R13*%
G36*
G01*
X122600000Y-89549999D02*
X122600000Y-90450001D01*
G75*
G02*
X122350001Y-90700000I-249999J0D01*
G01*
X121649999Y-90700000D01*
G75*
G02*
X121400000Y-90450001I0J249999D01*
G01*
X121400000Y-89549999D01*
G75*
G02*
X121649999Y-89300000I249999J0D01*
G01*
X122350001Y-89300000D01*
G75*
G02*
X122600000Y-89549999I0J-249999D01*
G01*
G37*
G36*
G01*
X124600000Y-89549999D02*
X124600000Y-90450001D01*
G75*
G02*
X124350001Y-90700000I-249999J0D01*
G01*
X123649999Y-90700000D01*
G75*
G02*
X123400000Y-90450001I0J249999D01*
G01*
X123400000Y-89549999D01*
G75*
G02*
X123649999Y-89300000I249999J0D01*
G01*
X124350001Y-89300000D01*
G75*
G02*
X124600000Y-89549999I0J-249999D01*
G01*
G37*
%TD*%
%TO.C,R11*%
G36*
G01*
X133600000Y-93549999D02*
X133600000Y-94450001D01*
G75*
G02*
X133350001Y-94700000I-249999J0D01*
G01*
X132649999Y-94700000D01*
G75*
G02*
X132400000Y-94450001I0J249999D01*
G01*
X132400000Y-93549999D01*
G75*
G02*
X132649999Y-93300000I249999J0D01*
G01*
X133350001Y-93300000D01*
G75*
G02*
X133600000Y-93549999I0J-249999D01*
G01*
G37*
G36*
G01*
X135600000Y-93549999D02*
X135600000Y-94450001D01*
G75*
G02*
X135350001Y-94700000I-249999J0D01*
G01*
X134649999Y-94700000D01*
G75*
G02*
X134400000Y-94450001I0J249999D01*
G01*
X134400000Y-93549999D01*
G75*
G02*
X134649999Y-93300000I249999J0D01*
G01*
X135350001Y-93300000D01*
G75*
G02*
X135600000Y-93549999I0J-249999D01*
G01*
G37*
%TD*%
%TO.C,R10*%
G36*
G01*
X123600000Y-93549999D02*
X123600000Y-94450001D01*
G75*
G02*
X123350001Y-94700000I-249999J0D01*
G01*
X122649999Y-94700000D01*
G75*
G02*
X122400000Y-94450001I0J249999D01*
G01*
X122400000Y-93549999D01*
G75*
G02*
X122649999Y-93300000I249999J0D01*
G01*
X123350001Y-93300000D01*
G75*
G02*
X123600000Y-93549999I0J-249999D01*
G01*
G37*
G36*
G01*
X125600000Y-93549999D02*
X125600000Y-94450001D01*
G75*
G02*
X125350001Y-94700000I-249999J0D01*
G01*
X124649999Y-94700000D01*
G75*
G02*
X124400000Y-94450001I0J249999D01*
G01*
X124400000Y-93549999D01*
G75*
G02*
X124649999Y-93300000I249999J0D01*
G01*
X125350001Y-93300000D01*
G75*
G02*
X125600000Y-93549999I0J-249999D01*
G01*
G37*
%TD*%
%TO.C,R9*%
G36*
G01*
X113600000Y-93549999D02*
X113600000Y-94450001D01*
G75*
G02*
X113350001Y-94700000I-249999J0D01*
G01*
X112649999Y-94700000D01*
G75*
G02*
X112400000Y-94450001I0J249999D01*
G01*
X112400000Y-93549999D01*
G75*
G02*
X112649999Y-93300000I249999J0D01*
G01*
X113350001Y-93300000D01*
G75*
G02*
X113600000Y-93549999I0J-249999D01*
G01*
G37*
G36*
G01*
X115600000Y-93549999D02*
X115600000Y-94450001D01*
G75*
G02*
X115350001Y-94700000I-249999J0D01*
G01*
X114649999Y-94700000D01*
G75*
G02*
X114400000Y-94450001I0J249999D01*
G01*
X114400000Y-93549999D01*
G75*
G02*
X114649999Y-93300000I249999J0D01*
G01*
X115350001Y-93300000D01*
G75*
G02*
X115600000Y-93549999I0J-249999D01*
G01*
G37*
%TD*%
%TO.C,R8*%
G36*
G01*
X139400000Y-96450001D02*
X139400000Y-95549999D01*
G75*
G02*
X139649999Y-95300000I249999J0D01*
G01*
X140350001Y-95300000D01*
G75*
G02*
X140600000Y-95549999I0J-249999D01*
G01*
X140600000Y-96450001D01*
G75*
G02*
X140350001Y-96700000I-249999J0D01*
G01*
X139649999Y-96700000D01*
G75*
G02*
X139400000Y-96450001I0J249999D01*
G01*
G37*
G36*
G01*
X137400000Y-96450001D02*
X137400000Y-95549999D01*
G75*
G02*
X137649999Y-95300000I249999J0D01*
G01*
X138350001Y-95300000D01*
G75*
G02*
X138600000Y-95549999I0J-249999D01*
G01*
X138600000Y-96450001D01*
G75*
G02*
X138350001Y-96700000I-249999J0D01*
G01*
X137649999Y-96700000D01*
G75*
G02*
X137400000Y-96450001I0J249999D01*
G01*
G37*
%TD*%
%TO.C,R7*%
G36*
G01*
X129400000Y-96450001D02*
X129400000Y-95549999D01*
G75*
G02*
X129649999Y-95300000I249999J0D01*
G01*
X130350001Y-95300000D01*
G75*
G02*
X130600000Y-95549999I0J-249999D01*
G01*
X130600000Y-96450001D01*
G75*
G02*
X130350001Y-96700000I-249999J0D01*
G01*
X129649999Y-96700000D01*
G75*
G02*
X129400000Y-96450001I0J249999D01*
G01*
G37*
G36*
G01*
X127400000Y-96450001D02*
X127400000Y-95549999D01*
G75*
G02*
X127649999Y-95300000I249999J0D01*
G01*
X128350001Y-95300000D01*
G75*
G02*
X128600000Y-95549999I0J-249999D01*
G01*
X128600000Y-96450001D01*
G75*
G02*
X128350001Y-96700000I-249999J0D01*
G01*
X127649999Y-96700000D01*
G75*
G02*
X127400000Y-96450001I0J249999D01*
G01*
G37*
%TD*%
%TO.C,R6*%
G36*
G01*
X119400000Y-96450001D02*
X119400000Y-95549999D01*
G75*
G02*
X119649999Y-95300000I249999J0D01*
G01*
X120350001Y-95300000D01*
G75*
G02*
X120600000Y-95549999I0J-249999D01*
G01*
X120600000Y-96450001D01*
G75*
G02*
X120350001Y-96700000I-249999J0D01*
G01*
X119649999Y-96700000D01*
G75*
G02*
X119400000Y-96450001I0J249999D01*
G01*
G37*
G36*
G01*
X117400000Y-96450001D02*
X117400000Y-95549999D01*
G75*
G02*
X117649999Y-95300000I249999J0D01*
G01*
X118350001Y-95300000D01*
G75*
G02*
X118600000Y-95549999I0J-249999D01*
G01*
X118600000Y-96450001D01*
G75*
G02*
X118350001Y-96700000I-249999J0D01*
G01*
X117649999Y-96700000D01*
G75*
G02*
X117400000Y-96450001I0J249999D01*
G01*
G37*
%TD*%
%TO.C,R5*%
G36*
G01*
X109400000Y-96450001D02*
X109400000Y-95549999D01*
G75*
G02*
X109649999Y-95300000I249999J0D01*
G01*
X110350001Y-95300000D01*
G75*
G02*
X110600000Y-95549999I0J-249999D01*
G01*
X110600000Y-96450001D01*
G75*
G02*
X110350001Y-96700000I-249999J0D01*
G01*
X109649999Y-96700000D01*
G75*
G02*
X109400000Y-96450001I0J249999D01*
G01*
G37*
G36*
G01*
X107400000Y-96450001D02*
X107400000Y-95549999D01*
G75*
G02*
X107649999Y-95300000I249999J0D01*
G01*
X108350001Y-95300000D01*
G75*
G02*
X108600000Y-95549999I0J-249999D01*
G01*
X108600000Y-96450001D01*
G75*
G02*
X108350001Y-96700000I-249999J0D01*
G01*
X107649999Y-96700000D01*
G75*
G02*
X107400000Y-96450001I0J249999D01*
G01*
G37*
%TD*%
%TO.C,R4*%
G36*
G01*
X144400000Y-110450001D02*
X144400000Y-109549999D01*
G75*
G02*
X144649999Y-109300000I249999J0D01*
G01*
X145350001Y-109300000D01*
G75*
G02*
X145600000Y-109549999I0J-249999D01*
G01*
X145600000Y-110450001D01*
G75*
G02*
X145350001Y-110700000I-249999J0D01*
G01*
X144649999Y-110700000D01*
G75*
G02*
X144400000Y-110450001I0J249999D01*
G01*
G37*
G36*
G01*
X142400000Y-110450001D02*
X142400000Y-109549999D01*
G75*
G02*
X142649999Y-109300000I249999J0D01*
G01*
X143350001Y-109300000D01*
G75*
G02*
X143600000Y-109549999I0J-249999D01*
G01*
X143600000Y-110450001D01*
G75*
G02*
X143350001Y-110700000I-249999J0D01*
G01*
X142649999Y-110700000D01*
G75*
G02*
X142400000Y-110450001I0J249999D01*
G01*
G37*
%TD*%
%TO.C,R3*%
G36*
G01*
X134400000Y-110450001D02*
X134400000Y-109549999D01*
G75*
G02*
X134649999Y-109300000I249999J0D01*
G01*
X135350001Y-109300000D01*
G75*
G02*
X135600000Y-109549999I0J-249999D01*
G01*
X135600000Y-110450001D01*
G75*
G02*
X135350001Y-110700000I-249999J0D01*
G01*
X134649999Y-110700000D01*
G75*
G02*
X134400000Y-110450001I0J249999D01*
G01*
G37*
G36*
G01*
X132400000Y-110450001D02*
X132400000Y-109549999D01*
G75*
G02*
X132649999Y-109300000I249999J0D01*
G01*
X133350001Y-109300000D01*
G75*
G02*
X133600000Y-109549999I0J-249999D01*
G01*
X133600000Y-110450001D01*
G75*
G02*
X133350001Y-110700000I-249999J0D01*
G01*
X132649999Y-110700000D01*
G75*
G02*
X132400000Y-110450001I0J249999D01*
G01*
G37*
%TD*%
%TO.C,R2*%
G36*
G01*
X124400000Y-110450001D02*
X124400000Y-109549999D01*
G75*
G02*
X124649999Y-109300000I249999J0D01*
G01*
X125350001Y-109300000D01*
G75*
G02*
X125600000Y-109549999I0J-249999D01*
G01*
X125600000Y-110450001D01*
G75*
G02*
X125350001Y-110700000I-249999J0D01*
G01*
X124649999Y-110700000D01*
G75*
G02*
X124400000Y-110450001I0J249999D01*
G01*
G37*
G36*
G01*
X122400000Y-110450001D02*
X122400000Y-109549999D01*
G75*
G02*
X122649999Y-109300000I249999J0D01*
G01*
X123350001Y-109300000D01*
G75*
G02*
X123600000Y-109549999I0J-249999D01*
G01*
X123600000Y-110450001D01*
G75*
G02*
X123350001Y-110700000I-249999J0D01*
G01*
X122649999Y-110700000D01*
G75*
G02*
X122400000Y-110450001I0J249999D01*
G01*
G37*
%TD*%
%TO.C,R1*%
G36*
G01*
X114400000Y-110450001D02*
X114400000Y-109549999D01*
G75*
G02*
X114649999Y-109300000I249999J0D01*
G01*
X115350001Y-109300000D01*
G75*
G02*
X115600000Y-109549999I0J-249999D01*
G01*
X115600000Y-110450001D01*
G75*
G02*
X115350001Y-110700000I-249999J0D01*
G01*
X114649999Y-110700000D01*
G75*
G02*
X114400000Y-110450001I0J249999D01*
G01*
G37*
G36*
G01*
X112400000Y-110450001D02*
X112400000Y-109549999D01*
G75*
G02*
X112649999Y-109300000I249999J0D01*
G01*
X113350001Y-109300000D01*
G75*
G02*
X113600000Y-109549999I0J-249999D01*
G01*
X113600000Y-110450001D01*
G75*
G02*
X113350001Y-110700000I-249999J0D01*
G01*
X112649999Y-110700000D01*
G75*
G02*
X112400000Y-110450001I0J249999D01*
G01*
G37*
%TD*%
D11*
%TO.C,D4*%
X153900000Y-81000000D03*
X156100000Y-81000000D03*
%TD*%
%TO.C,D3*%
X141900000Y-81000000D03*
X144100000Y-81000000D03*
%TD*%
%TO.C,D2*%
X131900000Y-81000000D03*
X134100000Y-81000000D03*
%TD*%
%TO.C,D1*%
X121900000Y-81000000D03*
X124100000Y-81000000D03*
%TD*%
D12*
%TO.C,U5*%
X152850000Y-102000000D03*
X152850000Y-102500000D03*
X152850000Y-103000000D03*
X152850000Y-103500000D03*
X152850000Y-104000000D03*
X157150000Y-104000000D03*
X157150000Y-103500000D03*
X157150000Y-103000000D03*
X157150000Y-102500000D03*
X157150000Y-102000000D03*
%TD*%
M02*
